<svg width="150" height="150" viewBox="0 0 150 150" fill="none" xmlns="http://www.w3.org/2000/svg">
<path d="M135.933 0.0119797C136.531 0.549784 137.379 0.525882 138.084 0.932224C140.068 2.07954 147.992 10.1347 149.127 12.1544C149.498 12.8117 149.51 13.5288 150 14.0666V16.9946C148.482 21.5122 143.893 24.1654 140.917 27.7029L140.176 27.5595L122.189 9.48929C122.118 9.13075 122.428 9.01124 122.596 8.78417C123.671 7.37393 128.535 2.49783 129.934 1.47003C130.914 0.752956 131.953 0.513933 133.005 3.05176e-05H135.933V0.0119797Z" fill="#282828"/>
<path d="M94.6297 24.0339L53.0873 66.1141C50.2788 72.8187 47.1834 80.6229 45.3429 87.6621C42.9168 96.9602 48.5697 106.222 58.7402 105.457C62.2061 105.195 79.0692 99.5297 82.4156 97.7967C83.7302 97.1155 84.8297 96.1116 85.989 95.2153L125.966 55.3699V135.778C125.966 142.399 117.767 149.94 111.17 149.976H15.0824C7.00341 149.342 0.609512 143.02 0 134.905V38.8175C0.0597561 32.2204 7.60097 24.0219 14.2219 24.0219H94.6297V24.0339Z" fill="#282828"/>
<path d="M54.5936 95.4065C53.8048 94.6178 53.1236 92.7534 53.3865 91.63L60.2107 71.2053L115.258 16.1102L115.999 15.9668L134.033 34.5868L78.7828 89.7895L58.3582 96.6136C57.2348 96.8765 55.3824 96.2073 54.5816 95.4065H54.5936Z" fill="#282828"/>
</svg>
