<svg width="160" height="146" viewBox="0 0 160 146" fill="none" xmlns="http://www.w3.org/2000/svg">
<path d="M105.176 109.143V128.72H126.246C129.145 128.72 134.377 133.145 134.377 136.187V145.31H25.5609V136.187C25.5609 132.23 31.1527 129.014 34.6734 128.709C42.2926 128.055 49.89 129.973 57.4765 128.622C75.6144 125.406 87.7027 106.037 82.9502 88.2477H149.626V11.4452C149.626 11.249 149.18 10.5841 148.885 10.5078L10.8566 10.595C10.6822 10.704 10.3006 11.3144 10.3006 11.4452V88.2477H18.9227C17.6801 95.3546 17.9308 102.396 20.5795 109.143H11.1291C6.01689 109.143 0.0436011 102.843 0.0218008 97.6981L0 11.7722C0.392406 5.49368 5.10127 0.457807 11.4452 0H148.809C155.109 0.68671 159.426 5.52638 159.927 11.7831L159.905 97.709C159.873 102.865 153.91 109.154 148.798 109.154H105.176V109.143Z" fill="#282828"/>
<path d="M49.0509 68.7801C70.5242 67.265 85.6209 90.2425 75.3857 109.372C67.1124 124.85 46.5984 128.48 33.0822 117.471L24.58 125.581C25.7028 126.377 25.9535 127.706 25.2558 128.916L9.50512 144.34C8.70941 144.885 7.60849 144.754 6.74738 144.405C5.61377 143.937 -1.56944 137.146 0.403488 135.249L16.2959 119.967C18.4541 118.594 19.4025 120.48 19.9257 120.294C20.5797 120.065 28.0463 112.817 28.188 112.261C26.5857 109.002 24.798 105.841 24.0677 102.222C20.7214 85.7843 32.2429 69.99 49.0618 68.8019L49.0509 68.7801ZM48.0372 79.048C28.7439 81.6532 28.9292 111.661 48.9855 113.754C74.7535 116.446 74.6881 75.4401 48.0372 79.048Z" fill="#282828"/>
<path d="M49.444 20.5686V31.3489C49.444 32.8967 52.7032 36.1558 54.251 36.1558H66.6881V67.0033C63.1564 65.8261 59.8973 64.3436 56.1476 63.7768C43.5034 61.8693 30.0962 67.5047 23.5016 78.5574L22.041 78.3067L22.0628 21.2335C22.15 21.0809 22.9675 20.5686 23.0547 20.5686H49.4331H49.444ZM27.4584 36.57C24.9078 38.0198 25.3765 41.3552 28.4176 41.7803C31.1971 42.1727 41.5632 42.2054 44.2882 41.7803C47.7218 41.2571 47.5474 36.9733 44.6261 36.5155L27.4584 36.5591V36.57ZM27.7854 46.184C25.0168 46.9579 25.1694 50.9473 28.0688 51.4052C35.797 50.7729 45.0621 52.3208 52.6051 51.4269C56.0604 51.0236 55.9514 46.6091 52.9103 46.1295L27.7854 46.184ZM26.3248 60.2888C26.63 60.6594 27.5347 60.9973 28.0361 61.0627C35.6226 62.011 45.1384 60.3215 52.9321 61.0627C56.3438 60.6594 55.7334 55.6453 52.2671 55.7543C44.8005 56.3756 36.015 54.9259 28.7119 55.7543C26.3139 56.0268 24.777 58.3812 26.3248 60.2997V60.2888Z" fill="#282828"/>
<path d="M107.88 32.1336C107.989 32.3081 111.422 33.8232 111.662 33.845C112.752 33.9104 114.518 32.3953 115.978 32.2208C117.439 32.0464 118.431 32.5261 119.772 32.6787L126.235 25.877C126.137 22.8685 125.483 20.4705 127.543 17.9198C131.13 13.4835 138.444 14.9659 140.002 20.3942C141.714 26.3348 136.296 30.9891 130.574 29.2778L123.554 36.1776C124.535 39.6112 124.252 42.8703 121.243 45.1266C116.175 48.9308 109.515 44.8977 109.634 38.8154L105.373 36.897C103.421 38.4339 101.808 38.6628 99.3665 38.4557C98.7125 38.4012 97.8514 37.7908 97.3936 37.878C97.2519 37.9107 95.5515 39.3386 95.1918 39.633C94.6686 40.0581 91.4857 42.8594 91.3985 43.0992C91.2786 43.4262 91.6383 45.7152 91.5511 46.5982C90.8208 53.5852 80.6183 55.0676 77.8932 48.3204C75.5061 42.4343 80.1278 37.9107 86.0683 38.4884C86.657 38.5429 87.2674 39.1642 87.6925 39.0879C88.1176 39.0116 93.7203 34.0303 93.8075 33.627C93.8947 33.191 93.4914 31.6431 93.5568 30.6839C94.1672 22.596 106.19 21.9093 107.792 30.0408C107.912 30.6512 107.651 31.7521 107.869 32.1227L107.88 32.1336ZM132.95 20.6231C130.726 20.961 130.628 24.7106 133.517 24.2201C135.915 23.8168 135.108 20.2852 132.95 20.6231ZM102.113 32.7659C103.836 31.0436 100.718 27.948 99.1921 30.3351C97.6661 32.7223 100.805 34.0739 102.113 32.7659ZM118.366 40.7339C119.979 39.1315 117.057 36.0686 115.433 38.3031C113.984 40.2979 116.85 42.2381 118.366 40.7339ZM83.8556 43.8622C82.286 44.3309 82.2642 46.511 83.703 47.1977C86.7442 48.6474 87.42 42.8049 83.8556 43.8622Z" fill="#282828"/>
<path d="M129.058 80.6177C129.167 80.2906 128.731 79.8982 128.731 79.7892V38.325L129.233 37.8236H136.863L137.364 38.325V80.1271L136.863 80.6286H129.069L129.058 80.6177Z" fill="#282828"/>
<path d="M96.2158 50.2607C96.2485 50.0972 96.7281 49.356 96.8807 49.2687C98.0797 49.1161 105.176 48.5929 105.176 49.9337V79.7892C105.176 79.8437 104.663 80.3778 104.511 80.4432C103.922 80.7157 98.2323 80.7702 97.393 80.6067C97.0333 80.5413 96.2267 80.029 96.2267 79.7892V50.2607H96.2158Z" fill="#282828"/>
<path d="M112.479 55.907C112.567 55.58 113.264 55.1658 113.646 55.0895C114.551 54.915 119.357 54.915 120.273 55.0895C121.276 55.2748 121.429 56.343 121.45 57.2259L121.287 79.6475C121.167 79.9309 121.036 80.3124 120.775 80.465C120.077 80.8792 112.479 80.9446 112.479 79.8001V55.9179V55.907Z" fill="#282828"/>
<path d="M88.5855 83.9312H80.7919C80.2033 83.4298 80.0398 82.863 79.9526 82.1109C79.5929 79.0589 79.7128 72.6496 79.9526 69.4885C80.0071 68.7473 80.2469 68.0824 80.3014 67.3412H88.4329L88.9343 67.8426V83.1028C88.9343 83.2118 88.4983 83.6042 88.6073 83.9312H88.5855Z" fill="#282828"/>
<path d="M66.3608 30.8584H55.2426L54.7412 30.357V20.9065C55.3625 20.8302 55.7767 21.2553 56.2345 21.5714C58.6108 23.2501 62.5675 26.6618 64.704 28.6892C65.2926 29.256 66.2954 29.9755 66.3608 30.8475V30.8584Z" fill="#282828"/>
<path d="M58.9698 88.3131C61.1934 88.0188 62.9374 90.9183 61.3242 92.6732L49.0288 103.922C48.0151 104.358 46.9796 104.304 45.9986 103.802C45.4754 103.53 40.603 98.6029 40.4068 98.1233C39.3168 95.4854 41.7257 93.2836 44.2655 94.6025C45.1266 95.0494 47.2412 97.9707 47.9061 97.8508C50.0643 96.303 56.9096 88.5965 58.9698 88.324V88.3131Z" fill="#282828"/>
</svg>
