<svg width="148" height="187" viewBox="0 0 148 187" fill="none" xmlns="http://www.w3.org/2000/svg">
<path d="M100.968 116.348C93.4358 104.285 80.0285 96.2373 64.8059 96.2373C41.293 96.2373 22.1826 115.348 22.1826 138.861C22.1826 152.211 28.3574 164.16 38.0198 171.964C45.724 180.826 57.0731 186.429 69.7514 186.429C92.9498 186.429 111.76 167.619 111.76 144.421C111.76 133.615 107.686 123.767 100.997 116.334L100.968 116.348ZM33.9319 166.433C27.3712 159.114 23.3976 149.452 23.3976 138.875C23.3976 116.034 41.9791 97.4665 64.8059 97.4665C77.1983 97.4665 88.3187 102.941 95.9086 111.574C102.312 118.878 106.2 128.426 106.2 138.875C106.2 161.702 87.6326 180.269 64.8059 180.269C52.5563 180.269 41.5217 174.923 33.9319 166.433Z" fill="#282828"/>
<path fill-rule="evenodd" clip-rule="evenodd" d="M26.8718 0.728027C12.0208 0.728027 0 11.5768 0 24.8984C0 26.2134 0.0857652 27.4855 0.300168 28.7004C1.51512 39.6921 12.4211 60.2176 26.5716 73.2676C42.6375 56.9301 49.4555 41.1644 51.9283 33.7746C53.1433 31.016 53.8008 28.0429 53.8008 24.8984C53.8008 11.5625 41.7228 0.728027 26.8718 0.728027ZM26.8718 34.4321C21.0115 34.4321 16.3232 30.1727 16.3232 24.8984C16.3232 19.6241 21.0115 15.3646 26.8718 15.3646C32.7321 15.3646 37.4633 19.6669 37.4633 24.8984C37.4633 30.1298 32.6893 34.4321 26.8718 34.4321Z" fill="#282828"/>
<path d="M99.7831 0.0705852C103.499 0.256401 106.944 1.29983 108.202 5.24483C109.203 8.38941 108.831 14.3212 108.802 17.7374C108.731 24.9985 109.731 32.1738 100.426 33.0171C95.8381 33.4316 90.2493 33.3602 85.6325 33.1601C74.0977 32.6741 75.4841 25.5559 75.8558 16.3366C76.0702 11.0337 75.5413 4.18712 81.2015 1.54282C83.6743 0.385041 89.9206 0.17064 92.765 0.0705852C94.9948 -0.000882316 97.5962 -0.0437628 99.8117 0.0705852H99.7831ZM91.2928 7.28881C90.4066 7.31739 89.4632 7.33169 88.577 7.38886C87.2191 7.47462 85.218 7.57468 83.9316 7.81767C83.7601 7.84626 83.5886 7.91772 83.5028 8.08925C83.3456 8.4037 83.2026 10.319 83.1598 10.8336C82.8024 14.7929 82.6595 19.6813 82.8739 23.6549C82.8882 23.955 83.0311 25.5988 83.0883 25.6989C83.3599 26.1562 85.0751 25.9418 85.6325 25.9704C90.2922 26.242 95.7666 26.2992 100.426 25.8418C101.327 25.756 101.384 25.4987 101.484 24.6411C101.956 20.153 101.856 14.9215 101.627 10.4191C101.598 9.76159 101.784 7.94631 101.427 7.5318C100.784 7.40316 99.8689 7.27452 99.1828 7.24593C96.6814 7.13158 93.837 7.20305 91.3356 7.28881H91.2928Z" fill="#282828"/>
<path d="M130.914 0.0705872L137.189 0.499391C147.209 0.699501 147.581 8.21789 147.681 16.208C147.681 16.451 147.595 16.8369 147.824 16.9798C147.724 19.4383 147.952 21.9968 147.824 24.441C147.724 26.4278 147.466 28.4289 146.194 30.0584C144.05 32.8027 141.163 33.0314 137.904 33.1744C135.231 33.2887 132.53 33.1887 129.871 33.1744C122.481 33.0886 115.692 34.0034 114.863 24.6554C114.577 21.5109 114.706 18.2234 114.72 15.0931C114.791 7.26023 113.834 0.585157 123.725 0.0848837H130.914V0.0705872ZM123.982 7.28881C123.396 7.33169 122.767 7.40316 122.181 7.46034C121.752 7.74621 121.938 9.71871 121.91 10.2905C121.667 14.8215 121.566 20.1387 122.052 24.6411C122.152 25.6417 122.253 25.7274 123.253 25.8418C127.713 26.3421 133.13 26.2277 137.618 25.9847C138.533 25.9418 139.505 26.1563 140.377 25.7846C140.505 25.1986 140.634 24.3124 140.663 23.6835C140.806 20.7962 140.634 17.8088 140.52 14.9501C140.42 12.6346 140.434 10.3047 139.962 8.03207C139.805 7.81767 137.404 7.58898 136.918 7.56039C132.887 7.21735 128.041 7.07441 123.996 7.3174L123.982 7.28881Z" fill="#282828"/>
<path d="M147.823 42.1792C147.895 43.0082 147.866 44.1517 147.823 44.995C147.823 45.0093 147.695 45.1523 147.68 45.3381C147.58 46.796 147.866 48.4541 146.137 49.1545C145.065 49.5833 139.69 49.7119 138.633 49.326C137.975 49.083 137.275 48.2683 137.146 47.5679C136.975 46.5102 137.003 41.8362 137.289 40.8785C137.646 39.7065 138.69 39.1776 139.848 39.0775C141.005 38.9775 145.336 38.9346 146.265 39.2919C147.58 39.8065 147.566 40.8071 147.68 41.9505C147.68 42.0649 147.809 42.1506 147.809 42.1792H147.823Z" fill="#282828"/>
<path d="M89.1767 38.9775C92.9788 38.906 98.1102 38.8346 101.812 39.3634C109.602 40.4783 108.716 48.4541 108.787 54.3716C108.83 57.7163 109.016 61.2897 108.644 64.6487C107.673 73.7107 99.0679 72.31 92.2356 72.0527C84.5456 71.7668 77.4847 72.3672 76.2697 62.9477C75.6837 58.4596 75.4836 52.8279 75.6837 48.3112C76.0839 39.0061 81.4154 39.1347 89.191 38.9918L89.1767 38.9775ZM86.218 46.1671C85.6462 46.1957 83.3879 46.2243 83.1449 46.4673C83.0305 46.5817 82.8733 48.0968 82.859 48.4398C82.7018 51.4558 82.8733 54.6003 83.0019 57.602C83.102 59.8175 83.0877 62.0615 83.5594 64.2341C83.7166 64.4485 86.1179 64.6772 86.6039 64.7058C88.2191 64.8488 89.92 64.9488 91.5209 64.9917C94.7798 65.0918 98.0816 65.0203 101.326 64.7773C101.769 64.4914 101.569 62.3903 101.598 61.8043C101.769 58.531 101.726 55.3722 101.598 52.099C101.526 50.298 101.669 48.4255 101.255 46.6674C100.926 46.21 96.8381 46.2672 96.0519 46.2386C92.8073 46.11 89.5055 45.9956 86.2323 46.1386L86.218 46.1671Z" fill="#282828"/>
<path d="M119.035 39.2491C121.008 38.949 126.211 39.2777 128.04 40.0353C136.359 43.4943 133.772 53.9714 134.272 60.9753C134.372 62.4046 134.873 64.1198 136.502 64.3914C138.775 64.7773 143.549 63.7625 145.264 64.9203C147.751 66.6212 146.393 70.409 143.806 71.1808C141.934 71.7383 135.616 71.6525 133.729 71.1094C124.624 68.4508 127.912 56.1726 126.926 49.3117C126.783 48.2826 126.068 46.7246 124.91 46.5388C122.609 46.1672 118.893 47.0248 117.163 45.4096C115.076 43.4514 116.177 39.6922 119.021 39.2491H119.035Z" fill="#282828"/>
<path d="M118.622 50.6696C120.552 50.3695 122.524 51.6702 122.738 53.657C123.01 56.2298 122.681 59.5745 122.738 62.2474C122.781 64.1627 123.267 67.0214 123.01 68.851C122.767 70.6663 120.823 72.0813 119.022 71.8812C115.392 71.481 115.949 66.95 115.849 64.3628C115.72 61.304 115.32 56.4728 115.72 53.5426C115.906 52.1848 117.307 50.8841 118.636 50.6839L118.622 50.6696Z" fill="#282828"/>
<path d="M142.292 52.9137C148.067 52.0704 147.552 61.0753 142.535 61.061C138.076 61.0467 138.147 53.5284 142.292 52.9137Z" fill="#282828"/>
<path d="M92.0065 11.8056C93.4787 11.7484 96.5518 11.4482 97.0378 13.3064C97.4094 14.7357 97.2808 17.8946 97.0664 19.3954C96.9377 20.2959 96.3803 21.0678 95.4941 21.3393C94.6079 21.6109 91.592 21.6824 90.5486 21.6252C89.3479 21.5394 88.0329 21.3965 87.5898 20.0672C87.1896 18.838 87.3611 15.6076 87.5326 14.2355C87.8471 11.7484 90.0197 11.877 91.9922 11.7913L92.0065 11.8056Z" fill="#282828"/>
<path d="M129.057 11.8056C130.315 11.6912 132.516 11.7627 133.774 11.9342C135.132 12.1343 135.861 13.0205 135.99 14.3641C136.132 15.7792 136.333 18.9095 135.889 20.1673C135.446 21.4108 134.117 21.5395 132.974 21.6252C131.716 21.711 129.872 21.6252 128.6 21.4823C127.499 21.3679 126.584 20.5389 126.427 19.424C126.27 18.3091 126.198 16.2366 126.27 15.0645C126.399 12.8061 126.713 12.02 129.071 11.8056H129.057Z" fill="#282828"/>
<path d="M90.1644 50.6696C91.5222 50.5409 93.8235 50.5838 95.1671 50.7982C96.3392 50.9983 96.9824 51.9703 97.0967 53.0852C97.2682 54.6146 97.4112 57.4876 97.0395 58.9312C96.8966 59.503 96.1533 60.1748 95.5959 60.3034C94.1951 60.6322 91.4794 60.4749 89.9928 60.332C88.5921 60.1891 87.7202 59.4172 87.5344 57.9879C87.3485 56.5585 87.1913 53.5283 87.5629 52.2705C87.9346 51.0126 88.978 50.7696 90.1787 50.6553L90.1644 50.6696Z" fill="#282828"/>
<path d="M57.9313 144.478C57.5311 144.478 57.2166 144.592 57.0022 144.807C56.7878 145.021 56.6878 145.321 56.6878 145.707V152.196L51.2276 145.221C51.0132 144.964 50.8274 144.778 50.6559 144.664C50.4987 144.549 50.2557 144.492 49.9555 144.492C49.6125 144.492 49.3266 144.607 49.1122 144.821C48.8978 145.035 48.7977 145.364 48.7977 145.793V155.455C48.7977 155.856 48.8978 156.17 49.1122 156.384C49.3266 156.599 49.6268 156.699 50.0127 156.699C50.3986 156.699 50.7131 156.599 50.9132 156.384C51.1276 156.17 51.2276 155.87 51.2276 155.455V148.952L56.6878 155.941C56.9165 156.199 57.1166 156.384 57.3024 156.513C57.4882 156.627 57.7455 156.685 58.0599 156.685C58.3744 156.685 58.646 156.585 58.8318 156.37C59.0176 156.156 59.1177 155.87 59.1177 155.484V145.707C59.1177 145.321 59.0176 145.021 58.8032 144.807C58.5888 144.592 58.3029 144.478 57.917 144.478H57.9313ZM68.6657 144.607H62.8911C62.448 144.607 62.1193 144.721 61.8763 144.964C61.6333 145.207 61.519 145.55 61.519 145.993V155.298C61.519 155.741 61.6333 156.07 61.862 156.313C62.0907 156.556 62.4195 156.67 62.8483 156.67C63.7059 156.67 64.1347 156.213 64.1347 155.298V151.61H68.2941C68.6371 151.61 68.8944 151.525 69.0659 151.339C69.2518 151.153 69.3375 150.91 69.3375 150.581C69.3375 150.253 69.2518 149.981 69.0659 149.809C68.8801 149.638 68.6228 149.552 68.2941 149.552H64.1347V146.665H68.6514C68.9945 146.665 69.2661 146.579 69.4519 146.408C69.6377 146.236 69.7234 145.979 69.7234 145.636C69.7234 145.293 69.6377 145.064 69.4519 144.878C69.2661 144.707 69.0088 144.621 68.6514 144.621L68.6657 144.607ZM74.8691 135.33C72.1533 132.557 67.7223 131.071 63.8774 131.328C60.7471 131.528 56.3161 133.258 54.3436 135.773C52.6284 137.974 54.8725 140.976 57.4596 140.018C58.16 139.761 58.889 138.889 59.5465 138.417C62.6482 136.245 66.7218 136.145 69.8807 138.26C70.4238 138.632 70.8098 139.089 71.2957 139.475C74.0544 141.676 77.5563 138.046 74.8691 135.302V135.33ZM80.5865 153.983C80.4293 153.826 80.2435 153.712 80.0148 153.683C79.7861 153.64 79.5288 153.697 79.2429 153.84C78.8999 154.026 78.5283 154.169 78.1566 154.269C77.785 154.355 77.4133 154.398 77.0417 154.398C76.2842 154.398 75.6553 154.255 75.1407 153.955C74.6261 153.654 74.2402 153.226 73.9972 152.64C73.7399 152.068 73.6113 151.367 73.6113 150.553C73.6113 149.738 73.7399 149.023 73.9972 148.466C74.2545 147.908 74.6404 147.48 75.1407 147.179C75.6553 146.879 76.2842 146.736 77.0417 146.736C77.4419 146.736 77.8136 146.779 78.1852 146.865C78.5568 146.951 78.8999 147.108 79.2429 147.308C79.5288 147.465 79.7718 147.522 80.0005 147.465C80.2292 147.408 80.415 147.308 80.5722 147.122C80.7294 146.951 80.8152 146.751 80.8581 146.508C80.901 146.279 80.8581 146.05 80.758 145.807C80.658 145.579 80.4579 145.378 80.1863 145.207C79.7575 144.95 79.2572 144.75 78.6855 144.621C78.1137 144.492 77.5277 144.421 76.9417 144.421C75.9983 144.421 75.1407 144.564 74.3831 144.85C73.6256 145.135 72.9824 145.55 72.4535 146.079C71.9246 146.622 71.5244 147.265 71.2386 148.023C70.9527 148.78 70.824 149.624 70.824 150.538C70.824 151.782 71.067 152.868 71.553 153.783C72.039 154.712 72.7394 155.427 73.6542 155.927C74.5689 156.427 75.6695 156.685 76.9417 156.685C77.5563 156.685 78.1709 156.613 78.7712 156.456C79.3716 156.299 79.8861 156.084 80.3149 155.798C80.5579 155.641 80.7295 155.455 80.8152 155.227C80.901 155.012 80.9296 154.784 80.8867 154.555C80.8438 154.326 80.7437 154.126 80.5865 153.969V153.983ZM82.9449 129.355C82.6305 128.355 80.8724 126.94 80.0148 126.268C75.6838 122.88 70.2952 121.022 64.7779 121.037C60.4755 121.037 56.2161 122.18 52.4998 124.296C51.0275 125.139 47.2826 127.712 46.7109 129.255C45.8533 131.528 48.1402 133.643 50.37 132.7C51.0418 132.414 51.7422 131.542 52.3282 131.042C59.5322 124.967 70.0236 124.939 77.2418 131.013C78.028 131.671 78.6569 132.6 79.686 132.857C81.7729 133.386 83.5882 131.414 82.9592 129.37L82.9449 129.355Z" fill="#282828"/>
</svg>
