<svg width="159" height="139" viewBox="0 0 159 139" fill="none" xmlns="http://www.w3.org/2000/svg">
<path d="M0 109.636V6.82809C1.21983 2.78181 3.89752 0.3719 8.19669 0H149.742C154.071 0.29752 156.912 2.08265 158.34 6.2628L158.563 108.565C158.355 113.043 154.815 116.375 150.352 116.464H7.88429C3.76364 116.107 1.07107 113.534 0 109.636ZM152.048 90.1338V8.22644C152.048 7.85454 150.977 6.60495 150.367 6.81322L7.43801 6.97685C7.22974 7.08098 6.5157 8.07767 6.5157 8.21156V90.1189H152.063L152.048 90.1338ZM77.6379 97.9437C76.6263 98.1519 74.871 99.6693 74.3652 100.547C71.39 105.62 77.8016 111.243 82.5172 107.777C87.5751 104.073 83.99 96.6346 77.6379 97.9437Z" fill="#282828"/>
<path d="M98.7928 119.856V126.669H108.551C108.67 126.669 110.47 127.398 110.783 127.547C114.829 129.481 118.414 135.297 112.91 137.841L46.3846 138.064C40.0623 136.101 43.3647 129.674 47.7978 127.547C48.1102 127.398 49.9102 126.669 50.0292 126.669H59.7879V119.856H98.8076H98.7928Z" fill="#282828"/>
<path d="M91.8894 34.1405C93.1836 33.8727 99.1191 33.8727 100.413 34.1405C101.708 34.4082 102.541 35.4495 102.794 36.714L102.823 79.1404C102.734 80.2412 101.529 81.5503 100.473 81.7437C99.2977 81.952 93.0051 81.952 91.8299 81.7437C90.8927 81.5801 89.6729 80.3602 89.5092 79.423L89.4795 36.6843C89.6134 35.4644 90.7142 34.3785 91.8894 34.1405Z" fill="#282828"/>
<path d="M28.4875 15.7983V34.2297C28.4875 35.9404 31.299 38.7222 32.98 38.7222H51.4114C47.975 51.9619 31.5966 56.7817 21.2131 47.7073C10.071 37.9784 14.3553 19.4727 28.5023 15.7983H28.4875Z" fill="#282828"/>
<path d="M133.082 40.9685C134.525 40.7305 139.612 40.6858 140.981 40.9685C142.349 41.2511 143.257 42.352 143.614 43.6016L143.688 78.8428C143.688 79.9734 142.334 81.4759 141.293 81.7139C140.252 81.9519 133.528 81.9519 132.442 81.7139C131.282 81.461 130.478 80.1222 130.121 79.0808L130.047 44.4644C130.27 42.5305 131.073 41.3106 133.067 40.9834L133.082 40.9685Z" fill="#282828"/>
<path d="M112.017 51.1735C113.103 50.9355 119.782 50.9355 120.868 51.1735C121.716 51.3669 122.996 52.6462 123.189 53.4942L123.263 78.828C123.129 80.2115 122.252 81.4164 120.868 81.6842C119.648 81.9371 113.207 81.952 112.032 81.6842C110.857 81.4164 110.009 80.0776 109.786 78.9768C110.158 71.3156 108.804 62.1371 109.652 54.6545C109.8 53.2859 110.559 51.4859 112.047 51.1586L112.017 51.1735Z" fill="#282828"/>
<path d="M71.4495 51.1735C72.7883 50.9057 78.3222 50.9057 79.7206 51.1289C80.7619 51.2925 82.071 52.1107 82.309 53.1817L82.3834 79.1404C82.3834 80.2263 81.3421 81.461 80.3007 81.6991C79.1255 81.9668 72.6842 81.9371 71.4644 81.6991C70.2445 81.461 69.4561 80.5387 69.1437 79.3784L69.0693 54.0446C69.2032 52.6611 70.0809 51.4561 71.4644 51.1884L71.4495 51.1735Z" fill="#282828"/>
<path d="M33.3674 14.9206C33.9326 14.8165 36.2236 15.1289 36.9227 15.2628C43.4533 16.4082 49.5227 21.6743 51.3822 28.0561C51.9326 29.9305 53.4351 34.9586 50.6384 35.3305C45.4913 36.0148 38.8864 34.7801 33.5756 35.3305C32.6533 35.3008 31.8946 34.5421 31.8798 33.6346C32.3707 28.3388 31.2847 22.0611 31.8798 16.8843C31.9839 15.9471 32.326 15.1289 33.3525 14.9355L33.3674 14.9206Z" fill="#282828"/>
<path d="M74.3955 37.4132C73.7261 36.7438 74.1277 35.5537 74.7823 35.0033C79.5426 30.4959 84.1244 25.7504 88.8699 21.2281C89.8071 20.3355 95.3856 15.0099 95.9062 14.9356C96.6203 14.8165 97.2302 15.3223 97.7062 15.7984L116.896 38.6925L136.994 24.7835C139.954 25.9736 138.392 27.4314 136.652 28.7554C130.552 33.4264 123.873 37.3983 117.774 42.0843C116.896 42.6644 115.781 42.5752 115.067 41.8016L95.8765 19.2347L76.9691 37.5025C76.4038 37.9934 74.8715 37.8744 74.3955 37.4132Z" fill="#282828"/>
<path d="M16.3192 68.8314L50.3258 68.757C52.9439 68.9653 52.9439 71.9702 50.3258 72.1785H16.8696C14.5341 72.0148 13.9688 69.5752 16.3192 68.8314Z" fill="#282828"/>
<path d="M15.2482 59.5487C15.5903 59.2066 16.3788 59.1917 16.8697 59.1471C27.6548 58.2248 39.7192 59.876 50.6531 59.1471C52.7655 59.4 52.7506 62.0181 50.6531 62.271L15.4862 62.1074C14.8316 61.5421 14.6531 60.1438 15.2482 59.5487Z" fill="#282828"/>
<path d="M15.247 81.3867C13.9677 80.1074 15.1875 78.7983 16.8685 78.6644C27.6685 77.757 39.7181 79.3785 50.6519 78.6644C52.7495 78.9173 52.7643 81.5355 50.6519 81.7884C39.7181 81.0595 27.6536 82.7107 16.8685 81.7884C16.3925 81.7438 15.6041 81.7438 15.247 81.3867Z" fill="#282828"/>
<path d="M78.8875 101.008C81.2231 100.577 82.6512 104.043 80.3156 105.248C77.1619 106.884 75.6446 101.603 78.8875 101.008Z" fill="#282828"/>
</svg>
