<svg width="29" height="29" viewBox="0 0 29 29" fill="none" xmlns="http://www.w3.org/2000/svg">
<path d="M3.15243 17.7395C2.76726 17.3531 1.85761 17.6006 1.32193 17.4717C0.787088 17.3431 0.303241 16.8365 0.14569 16.3162C-0.0392252 15.7059 -0.0209822 13.4612 0.0519888 12.7621C0.146105 11.8591 0.77465 11.1622 1.6843 11.0635C2.20339 11.0071 2.95673 11.2459 3.26935 10.7169C3.35019 10.5801 3.88753 9.27281 3.92816 9.11111C4.1081 8.3955 3.65576 8.31382 3.27391 7.85817C2.59478 7.04802 2.44137 6.19891 3.14082 5.32533C3.47831 4.90367 5.24412 3.12417 5.6438 2.89904C6.30552 2.52631 7.02984 2.58643 7.63226 3.03379C8.17706 3.43845 8.34083 4.1126 9.17253 3.89576C9.56558 3.57527 10.5955 3.42269 10.9039 3.09598C11.251 2.72822 11.0453 1.97861 11.1083 1.5014C11.2008 0.799053 11.8944 0.139412 12.6009 0.063124C13.3816 -0.0210413 15.2851 -0.0210413 16.0658 0.063124C16.7897 0.14107 17.4639 0.775835 17.5588 1.5014C17.6247 2.00598 17.4029 2.74315 17.7935 3.13164C18.1177 3.4542 19.4971 3.73074 19.9299 4.10845L23.4612 0.664305C25.7539 -1.26238 29.6529 2.40441 28.0359 4.83941L24.4359 8.54476C24.8692 9.15796 25.0396 10.0568 25.3733 10.6734C25.6897 11.2575 26.373 11.0067 26.9223 11.0565C27.8697 11.1419 28.5273 11.8061 28.6214 12.7547C28.6952 13.4977 28.7026 15.2747 28.6048 16.0011C28.5103 16.7034 27.9049 17.4124 27.1839 17.5115C26.5633 17.5969 25.7942 17.2851 25.4106 17.9365C25.2805 18.1579 24.8306 19.223 24.7552 19.4788C24.525 20.2578 25.164 20.4436 25.5562 20.9494C26.0811 21.6265 26.1263 22.488 25.5927 23.1812C25.3004 23.561 23.3011 25.5532 22.9553 25.7398C22.224 26.1345 21.4768 25.9421 20.8632 25.4425C20.4561 25.1108 20.2164 24.5337 19.6107 24.6597C19.4934 24.6842 18.1807 25.2564 18.0265 25.3409C17.3279 25.7236 17.6368 26.4326 17.5638 27.0769C17.4668 27.9331 16.6906 28.5073 15.8672 28.5782C15.1458 28.64 12.7427 28.6595 12.1482 28.4289C11.5955 28.2146 11.161 27.5914 11.1025 27.0097C11.0441 26.4247 11.3102 25.6904 10.6954 25.3521C10.4251 25.2033 9.44078 24.7982 9.14019 24.7095C8.42789 24.498 8.30434 25.0262 7.83832 25.4131C7.16956 25.9678 6.461 26.1552 5.65873 25.7257C5.23666 25.4997 3.08692 23.3405 2.87091 22.9176C2.53507 22.2604 2.59519 21.5987 3.04255 21.017C3.40451 20.5468 4.17775 20.2238 3.94184 19.5145C3.61679 19.1314 3.45011 18.0397 3.1516 17.7403L3.15243 17.7395ZM19.0962 4.86097C18.0688 4.35224 16.7014 4.25398 16.5157 2.87748C16.4302 2.24355 16.7644 1.20786 15.8689 1.12618C15.14 1.05984 13.4447 1.0445 12.7332 1.12784C11.9197 1.2232 12.2236 2.19545 12.1677 2.76098C12.1162 3.2809 11.8302 3.82445 11.3911 4.11633C11.1618 4.26849 9.66426 4.88087 9.3703 4.96006C8.71771 5.13544 8.15674 4.97664 7.63765 4.5612C7.23009 4.23491 6.96267 3.60346 6.35361 3.74152C5.93113 3.8373 4.32743 5.80627 3.8498 6.16781C3.50153 6.88467 4.2159 7.16992 4.57246 7.6264C4.83159 7.95809 5.04594 8.39425 5.04594 8.82379C5.04594 9.18781 4.42569 10.7604 4.23248 11.1473C3.98703 11.6381 3.54506 12.0241 2.99114 12.1042C2.2349 12.2132 1.23155 11.8003 1.10965 12.8874C1.03917 13.5184 1.04083 15.1163 1.11753 15.7444C1.23694 16.7221 2.05537 16.3846 2.74114 16.4522C3.34563 16.5119 3.88297 16.8166 4.18521 17.3398C4.34567 17.6176 4.95721 19.0928 5.00987 19.3797C5.10233 19.8805 5.03143 20.3578 4.73581 20.7773C4.37096 21.2952 3.60684 21.5469 3.78843 22.3334C3.88753 22.7617 5.85028 24.3546 6.21389 24.8368C6.87685 25.1797 7.23341 24.3911 7.67289 24.0474C7.97141 23.8139 8.42375 23.5838 8.80685 23.5776C9.18414 23.5718 10.935 24.26 11.3036 24.4765C11.7564 24.7422 12.0806 25.2439 12.1502 25.7613C12.2506 26.5043 11.8588 27.4119 12.931 27.5122C13.5757 27.5724 15.2416 27.591 15.8585 27.5035C16.7748 27.3733 16.4207 26.3157 16.5032 25.6834C16.5422 25.3836 16.7495 24.9603 16.9609 24.7422C17.2528 24.4412 18.83 23.7882 19.2815 23.6651C19.8433 23.5117 20.2193 23.5652 20.7156 23.8575C21.3467 24.229 21.7774 25.3007 22.5623 24.7476C23.3119 24.2194 24.1005 23.0415 24.8522 22.4412C25.2436 21.7521 24.3779 21.3358 24.0267 20.8793C23.8053 20.5916 23.6303 20.1787 23.6237 19.8117C23.6171 19.4506 24.3128 17.6728 24.5226 17.3145C24.8012 16.8398 25.3385 16.5372 25.8758 16.4696C26.5123 16.3891 27.4513 16.7163 27.5575 15.8195C27.6251 15.2461 27.6367 13.3082 27.5517 12.7576C27.4115 11.8484 26.2946 12.2004 25.6735 12.1046C24.2887 11.8902 24.2941 10.2471 23.5926 9.3238L22.6278 10.3533C24.7021 14.6623 23.0138 19.9336 18.8739 22.2579C13.3738 25.3455 6.43405 22.1248 5.32704 15.9302C4.02642 8.65463 11.3223 2.93553 18.0634 5.90205C18.1753 5.90205 18.9386 5.15948 19.0302 5.02681C19.0688 4.97042 19.1231 4.96089 19.0958 4.86014L19.0962 4.86097ZM24.6747 1.212C24.1805 1.29658 23.6535 1.89942 23.3646 2.28625L26.3149 5.12175C27.0305 4.49279 27.6541 3.90737 27.2557 2.86297C27.1321 2.53875 26.1346 1.5383 25.8203 1.36707C25.4683 1.17552 25.0698 1.14442 24.6747 1.212ZM22.5362 3.06613L12.0395 13.4297L14.9327 16.3207L25.4865 5.95014L22.5358 3.06613H22.5362ZM13.4869 6.21259C5.7686 6.86394 3.41073 17.3796 10.1912 21.3263C16.6898 25.1088 24.4148 18.7893 22.0233 11.6929C21.9835 11.5743 21.8769 11.1564 21.7289 11.19L15.2275 17.6131C13.6905 17.9037 11.906 18.6342 10.3857 18.8333C9.85912 18.9021 9.49261 18.8432 9.50753 18.2267L10.8073 13.1929L17.2296 6.75946C16.0936 6.22212 14.7312 6.10811 13.4869 6.213V6.21259ZM13.8331 16.8506L11.5026 14.5197L10.7696 17.5836L13.8336 16.8506H13.8331Z" fill="#6C6C6C"/>
<path d="M22.4773 5.47198C22.9964 5.38491 23.3012 6.11711 22.8617 6.46165L15.7321 13.3885C15.1483 13.8222 14.5177 13.1368 14.9978 12.5879L22.0926 5.69296C22.1925 5.61584 22.3571 5.49312 22.4777 5.47281L22.4773 5.47198Z" fill="#6C6C6C"/>
</svg>
