<svg width="29" height="29" viewBox="0 0 29 29" fill="none" xmlns="http://www.w3.org/2000/svg">
<path d="M6.46954 0.0111729L22.5832 0C25.9699 0.375858 28.63 3.09178 29 6.46958V22.4058C28.6237 25.8082 25.9346 28.5209 22.5228 28.8829H6.58663C3.17486 28.5102 0.47771 25.8184 0.10945 22.4058C0.360171 17.2323 -0.227972 11.737 0.104981 6.60053C0.324418 3.22004 3.12972 0.391947 6.46954 0.0107263V0.0111729ZM7.08003 2.86027C4.66712 3.0663 3.09307 4.83073 2.95319 7.21146C2.67476 11.9524 3.17084 16.9628 2.95319 21.7318C3.10916 24.1671 4.81907 25.8823 7.26013 26.0388C12.0256 26.3436 17.1133 25.8055 21.9123 26.0352C24.3154 25.8645 26.0016 24.1268 26.1549 21.7318C26.4597 16.9663 25.9216 11.8786 26.1513 7.07962C25.9833 4.71185 24.2788 3.00865 21.9123 2.84061C17.1173 2.5005 11.9157 3.07703 7.08003 2.86027Z" fill="#6C6C6C"/>
<path d="M8.63982 7.19495C9.45455 7.123 10.1549 7.767 10.2165 8.56833L10.2081 20.4344C9.79331 22.2221 7.45549 22.0349 7.29504 20.1717L7.29817 8.63983C7.33348 7.92655 7.91313 7.2593 8.63982 7.1954V7.19495Z" fill="#6C6C6C"/>
<path d="M14.404 11.5371C15.1964 11.45 15.9115 12.0582 15.9816 12.8412C16.1993 15.2743 15.8181 18.0349 15.9727 20.5019C15.6474 22.1143 13.2756 22.0343 13.1272 20.3749C12.9095 17.9419 13.2908 15.1817 13.1357 12.7139C13.2184 12.1061 13.8074 11.6024 14.4036 11.5367L14.404 11.5371Z" fill="#6C6C6C"/>
<path d="M20.239 15.878C21.1472 15.814 21.7411 16.5389 21.814 17.3854C21.869 18.0258 21.8891 20.2063 21.6956 20.731C21.1642 22.1741 19.0342 21.8984 18.892 20.3069C18.8339 19.6549 18.804 17.5963 18.9247 17.0109C19.0498 16.4031 19.6303 15.9204 20.2386 15.8775L20.239 15.878Z" fill="#6C6C6C"/>
</svg>
