<svg width="30" height="32" viewBox="0 0 30 32" fill="none" xmlns="http://www.w3.org/2000/svg">
<path d="M13.5754 31.1666C13.3356 31.1404 12.8853 30.9975 12.6463 30.9087C10.5075 30.1138 9.07241 27.4774 8.33617 25.4482L6.11623 25.6892L4.78876 25.6406C4.65862 25.6804 4.50519 26.0242 4.38429 26.1487C3.32232 27.242 1.34457 26.6166 1.16141 25.1048C1.13169 24.8602 1.2309 24.3782 1.206 24.2718C1.19475 24.2232 0.678626 23.6508 0.581023 23.4942C-1.00632 20.9432 0.989506 17.5942 2.61179 15.5663C0.922028 13.5291 -0.93442 10.3263 0.557727 7.72077C0.632033 7.59103 0.882666 7.33357 0.901544 7.26931C0.957775 7.07411 0.783859 6.72748 0.787875 6.49492C0.820409 4.5722 3.45125 3.91991 4.36381 5.61289C5.68967 5.4209 7.02236 5.51207 8.33658 5.72977C9.30858 2.79367 12.0904 -1.31044 15.7085 0.405433C16.2431 0.658877 17.3746 1.53248 17.6831 2.02249C17.8791 2.33418 17.7686 2.78845 17.377 2.81054C17.0424 2.82942 16.5601 2.13094 16.2869 1.89638C13.0074 -0.922036 10.2288 3.04912 9.25275 5.91373C10.428 6.1254 11.5707 6.49331 12.6941 6.88653C13.046 7.00984 13.8272 7.41993 14.1393 7.36129C15.6507 6.75399 17.1991 6.18886 18.8121 5.91373C18.886 5.85308 18.0675 4.43001 18.0526 4.15769C18.0377 3.88537 18.3153 3.62349 18.5844 3.67209C19.0957 3.76447 19.6042 5.68438 19.76 5.72334C22.7877 5.16866 27.4863 5.4462 28.0048 9.29204C28.0273 9.45833 27.9795 9.63345 28.0156 9.79893C29.4704 10.3102 29.6178 12.3547 28.3305 13.1455C27.8297 13.4532 27.4698 13.3841 26.9087 13.4283L25.4611 15.5699C25.4434 15.6715 26.111 16.4901 26.2287 16.6656C27.8144 19.029 29.2748 22.6418 26.3199 24.6449C26.1797 24.7401 25.6081 25.0016 25.584 25.0353C25.5435 25.0915 25.49 25.5518 25.435 25.7077C24.847 27.3769 22.4668 27.3424 21.8743 25.6888L19.7243 25.4731C18.8872 27.5316 17.4545 30.2588 15.1908 30.9866C15.0157 31.0428 14.6546 31.1493 14.4887 31.1674C14.2622 31.1919 13.8019 31.1919 13.5754 31.1674V31.1666ZM3.38618 7.23115C4.11277 6.54954 3.41108 5.24336 2.33907 5.60686C0.92725 6.08523 2.20532 8.33932 3.38618 7.23115ZM7.97428 6.58328C6.87094 6.4403 5.77402 6.37764 4.66425 6.47002C4.52246 6.51661 4.56745 6.8785 4.52286 7.05884C4.20676 8.33731 2.47924 8.83054 1.48916 7.98425C-0.0266802 10.2263 1.81892 13.0242 3.19539 14.8586C3.27412 14.8783 3.30143 14.808 3.34601 14.7666C4.51362 13.6705 5.5507 12.4157 6.90749 11.5108C7.15009 9.84271 7.50475 8.19954 7.97468 6.58369L7.97428 6.58328ZM27.0918 9.68607C27.0906 7.53641 25.0791 6.64193 23.2251 6.46239C22.9034 6.43106 22.5724 6.50938 22.2519 6.40093L20.0295 6.58369C20.5433 8.19512 20.8786 9.85637 21.122 11.5309C22.4768 12.4964 23.6464 13.6765 24.8092 14.8578L26.1082 13.0025C24.8659 11.9293 25.4402 9.83869 27.0922 9.68647L27.0918 9.68607ZM12.7841 7.86175L8.88765 6.76563C8.50728 8.06378 8.15141 9.37478 7.97468 10.7211L12.7841 7.86175ZM20.0902 10.7203C19.8263 9.39607 19.5753 8.06499 19.119 6.79054C19.0198 6.71382 17.4742 7.15082 17.2288 7.22232C16.9637 7.29984 15.2756 7.83484 15.2197 7.95253L17.5132 9.12817L20.0902 10.7203ZM20.1938 19.2226C20.3938 18.3345 20.3693 17.3874 20.3955 16.472C20.4216 15.5462 20.4553 14.6047 20.3975 13.6697C20.3641 13.1339 20.2786 12.5928 20.2468 12.0558C20.2007 11.914 19.7978 11.6686 19.6476 11.5594C18.9178 11.0276 18.0534 10.495 17.2702 10.0411C16.2166 9.43021 15.1217 8.86267 13.9867 8.41925C12.0828 9.27879 10.1754 10.2757 8.47836 11.4983C8.10161 11.7699 7.81643 11.8462 7.73731 12.3398C7.48386 13.9231 7.47864 17.3115 7.74654 18.8892C7.76864 19.0193 7.79073 19.137 7.8807 19.2418C8.18234 19.5925 9.07321 19.9961 9.46402 20.3367C9.69256 20.536 9.78896 20.734 9.59094 21.0079C9.18607 21.5694 8.40847 20.6038 7.97468 20.4568C8.14418 21.8044 8.5113 23.1134 8.88765 24.4123L12.7841 23.3162C12.8146 23.1736 12.7644 23.2186 12.7054 23.1805C12.1266 22.8049 11.3096 22.5651 10.7316 22.1438C10.4645 21.7253 10.7549 21.2336 11.2638 21.3979L13.9401 22.7427L14.065 22.7447C16.2355 21.8092 18.2763 20.5938 20.1942 19.2222L20.1938 19.2226ZM27.2621 10.5508C25.9556 10.6553 26.0644 12.7153 27.5453 12.4812C28.6928 12.2996 28.439 10.4568 27.2621 10.5508ZM6.81671 12.7901C6.77414 12.7459 6.36485 13.1033 6.30099 13.1564C5.42538 13.8826 4.58833 14.712 3.83804 15.5667C3.80109 15.7792 6.39216 18.1742 6.81631 18.3879C6.63316 16.5355 6.63235 14.6425 6.81631 12.7901H6.81671ZM21.2478 18.3879C21.649 18.1313 24.1626 15.8374 24.1686 15.6209C24.1714 15.5113 24.079 15.4237 24.0184 15.3442C23.6991 14.9253 22.9102 14.2027 22.4969 13.8227C22.1017 13.4592 21.6687 13.1226 21.2478 12.7901C21.3831 14.661 21.3831 16.5178 21.2478 18.3883V18.3879ZM7.97428 24.5947C7.50435 22.9788 7.14968 21.3357 6.90708 19.6676C5.55512 18.7574 4.51322 17.5079 3.34561 16.4118C3.30143 16.3704 3.27412 16.2997 3.19499 16.3198C1.93661 17.9381 0.193828 20.7123 1.22648 22.7892C1.34216 23.0222 1.54218 23.2054 1.6438 23.4379C1.98802 23.3026 2.26958 23.0102 2.65155 22.9575C3.91958 22.7828 4.73614 23.5275 4.96669 24.7208C5.97002 24.8337 6.97617 24.7067 7.97428 24.5951V24.5947ZM21.7944 24.7778C22.0904 22.9523 24.41 22.6185 25.3567 24.1629C28.6511 22.4221 26.5733 18.4076 24.8092 16.3202C23.6762 17.5485 22.433 18.6655 21.1048 19.68C20.8851 21.3469 20.5336 22.9933 20.0295 24.5947L21.7944 24.7778ZM20.0902 20.4576L17.3915 22.1105L15.2197 23.2254C15.3081 23.4094 18.9579 24.5123 19.1194 24.3874C19.5777 23.1138 19.8163 21.7791 20.0906 20.4576H20.0902ZM18.8117 25.2646C17.1621 24.9767 15.5756 24.3999 14.0324 23.7681C12.4837 24.4043 10.8863 24.9248 9.25154 25.2952C9.96087 27.1544 11.5076 30.0339 13.7348 30.2464C16.2954 30.4906 18.0225 27.2693 18.8113 25.2646H18.8117ZM2.72024 23.8773C1.5715 24.1364 2.03903 26.2559 3.40707 25.7193C4.47788 25.2996 4.04289 23.5789 2.72024 23.8773ZM23.3617 24.1219C22.1579 24.3702 22.7303 26.5307 24.0481 25.9639C25.0932 25.5141 24.6695 23.8524 23.3617 24.1219Z" fill="#6C6C6C"/>
<path d="M13.7456 11.4691C17.3067 11.2382 19.5098 15.435 17.1987 18.2061C15.2189 20.5798 11.4245 20.0517 10.2155 17.2124C9.10812 14.6108 10.9236 11.6523 13.7456 11.4695V11.4691ZM13.8067 12.3821C9.29248 12.6881 10.2452 19.7082 14.7229 18.7129C18.553 17.8614 17.6923 12.119 13.8067 12.3821Z" fill="#6C6C6C"/>
</svg>
