<svg width="511" height="542" viewBox="0 0 511 542" fill="none" xmlns="http://www.w3.org/2000/svg">
<rect width="511" height="542" rx="20" fill="white"/>
<rect x="343" y="21" width="150" height="41" rx="20.5" fill="#CB0101" fill-opacity="0.2"/>
<path d="M387.865 48.24C386.145 48.24 384.905 47.7 383.965 46.76C382.905 45.7 382.265 44.24 382.265 41.42V41.38C382.265 37.1 384.305 33.76 388.265 33.76C390.085 33.76 391.325 34.34 392.545 35.32L391.225 37.22C390.245 36.46 389.425 36 388.185 36C385.745 36 384.865 38.54 384.825 40.46C385.645 39.6 386.685 39.04 388.185 39.04C390.885 39.04 393.065 40.64 393.065 43.44V43.48C393.065 46.26 390.805 48.24 387.865 48.24ZM387.805 46.1C389.545 46.1 390.605 45.02 390.605 43.58V43.54C390.605 42.14 389.485 41.1 387.745 41.1C386.005 41.1 384.905 42.22 384.905 43.56V43.6C384.905 45.02 386.065 46.1 387.805 46.1ZM401.47 48.24C397.79 48.24 395.39 45.04 395.39 41.04V41C395.39 37 397.83 33.76 401.51 33.76C405.17 33.76 407.59 36.96 407.59 40.96V41C407.59 45 405.15 48.24 401.47 48.24ZM401.51 46.02C403.69 46.02 405.05 43.78 405.05 41.04V41C405.05 38.24 403.63 35.98 401.47 35.98C399.31 35.98 397.93 38.18 397.93 40.96V41C397.93 43.76 399.33 46.02 401.51 46.02ZM412.963 41C411.003 41 409.683 39.38 409.683 37.46V37.42C409.683 35.46 411.023 33.84 413.003 33.84C414.983 33.84 416.283 35.46 416.283 37.38V37.42C416.283 39.36 414.963 41 412.963 41ZM412.963 35.38C412.023 35.38 411.463 36.3 411.463 37.38V37.42C411.463 38.56 412.103 39.46 413.003 39.46C413.943 39.46 414.503 38.54 414.503 37.46V37.42C414.503 36.3 413.863 35.38 412.963 35.38ZM416.603 40.56L421.343 34H423.323L417.803 41.46L413.083 48H411.103L416.603 40.56ZM421.423 48.16C419.463 48.16 418.143 46.54 418.143 44.62V44.58C418.143 42.62 419.483 41 421.463 41C423.423 41 424.743 42.62 424.743 44.54V44.58C424.743 46.52 423.403 48.16 421.423 48.16ZM421.463 46.62C422.403 46.62 422.963 45.7 422.963 44.62V44.58C422.963 43.46 422.323 42.54 421.423 42.54C420.483 42.54 419.923 43.46 419.923 44.54V44.58C419.923 45.72 420.563 46.62 421.463 46.62ZM438.231 48.24C435.011 48.24 432.631 45.78 432.631 42.78V42.74C432.631 39.72 435.031 37.22 438.271 37.22C441.511 37.22 443.891 39.68 443.891 42.7V42.74C443.891 45.74 441.491 48.24 438.231 48.24ZM438.271 46.12C440.231 46.12 441.471 44.6 441.471 42.78V42.74C441.471 40.88 440.131 39.34 438.231 39.34C436.291 39.34 435.051 40.86 435.051 42.7V42.74C435.051 44.58 436.391 46.12 438.271 46.12ZM454.416 48V39.52H453.076V37.5H454.416V36.72C454.416 35.56 454.716 34.68 455.276 34.12C455.836 33.56 456.616 33.28 457.656 33.28C458.496 33.28 459.076 33.4 459.616 33.56V35.6C459.136 35.44 458.716 35.34 458.196 35.34C457.276 35.34 456.796 35.84 456.796 36.94V37.52H459.596V39.52H456.836V48H454.416ZM446.896 48V39.52H445.556V37.5H446.896V36.72C446.896 35.56 447.196 34.68 447.756 34.12C448.316 33.56 449.096 33.28 450.136 33.28C450.976 33.28 451.556 33.4 452.096 33.56V35.6C451.616 35.44 451.196 35.34 450.676 35.34C449.756 35.34 449.276 35.84 449.276 36.94V37.52H452.076V39.52H449.316V48H446.896Z" fill="#CB0101"/>
<g filter="url(#filter0_d_0_1)">
<circle cx="108" cy="102" r="68" fill="url(#paint0_linear_0_1)"/>
</g>
<path d="M62 100.49C62.3949 99.9226 62.6312 99.4258 63.3895 99.2735C64.1195 99.1264 67.075 99.1222 67.8312 99.242C69.6745 99.5339 69.9686 102.567 67.1296 102.833C65.5248 102.983 62.6228 103.204 62 101.388V100.489V100.49Z" fill="white"/>
<path d="M85.3207 81.1251L131.025 81.1576C131.958 81.4706 132.835 81.897 133.426 82.711L143.989 99.1072C144.754 100.909 144.136 102.632 142.873 103.988C132.271 115.092 122.659 127.545 112.057 138.593C109.231 141.538 106.949 141.991 104.052 138.685C94.3953 126.838 82.7716 115.941 73.2308 104.086C71.5734 102.027 71.1459 100.749 72.4599 98.2774C75.282 92.9713 79.7983 87.6936 82.8504 82.4274C83.5195 81.7521 84.3838 81.2879 85.3218 81.124L85.3207 81.1251ZM104.775 84.673H88.0609L96.5063 97.6126L104.776 84.673H104.775ZM127.96 84.673H111.245L119.515 97.6136L127.96 84.673ZM93.0929 99.2311L84.5571 86.2883L76.1979 99.2311H93.0918H93.0929ZM139.822 99.2311L131.286 86.2883L123.106 99.2311H139.82H139.822ZM116.277 99.2311L107.922 86.4711L99.7423 99.2311H116.277ZM95.0695 102.825H77.0969L104.414 133.559L95.0695 102.825ZM117.176 102.825H98.8443L108.098 132.481L117.176 102.825ZM138.924 102.825H120.951L111.606 133.559L138.924 102.825Z" fill="white"/>
<path d="M107.599 55.056C108.7 54.806 109.677 55.4089 109.811 56.5422C110.26 60.3526 109.474 65.0328 109.798 68.9388C108.719 71.1896 106.417 70.5437 106.206 68.0555C105.974 65.3163 105.942 59.796 106.214 57.0883C106.298 56.2533 106.67 55.2671 107.598 55.056H107.599Z" fill="white"/>
<path d="M138.877 67.9967C140.866 67.6081 141.626 69.5669 140.436 71.178C139.636 72.2619 135.752 76.1491 134.669 76.9137C132.561 78.404 130.694 76.4211 132.017 74.4413C132.62 73.5391 136.893 69.3137 137.842 68.5838C138.129 68.3632 138.525 68.066 138.878 67.9967H138.877Z" fill="white"/>
<path d="M76.326 67.9955C76.9814 67.8463 77.3784 67.9524 77.9057 68.3169C78.6787 68.8515 83.5731 73.7458 84.1066 74.5178C85.3355 76.2959 83.53 78.3199 81.6027 77.0217C80.8066 76.486 76.054 71.7366 75.4785 70.9247C74.7222 69.8587 74.9754 68.3021 76.3271 67.9944L76.326 67.9955Z" fill="white"/>
<path d="M147.252 102.225C146.394 101.356 146.817 99.5432 148.037 99.2691C148.689 99.1231 151.954 99.1368 152.631 99.2723C154.398 99.6273 154.489 102.141 152.705 102.677C151.652 102.993 148.064 103.045 147.254 102.225H147.252Z" fill="white"/>
<path d="M109.392 75.8119C108.007 77.3033 105.395 75.4895 106.568 73.6147C107.938 71.4269 111.11 73.9634 109.392 75.8119Z" fill="white"/>
<path d="M233.416 115.27C230.527 115.27 227.8 114.271 225.532 112.246L227.53 109.87C229.339 111.436 231.175 112.327 233.497 112.327C235.549 112.327 236.845 111.355 236.845 109.951V109.897C236.845 108.547 236.089 107.818 232.579 107.008C228.556 106.036 226.288 104.848 226.288 101.365V101.311C226.288 98.071 228.988 95.83 232.741 95.83C235.495 95.83 237.682 96.667 239.599 98.206L237.817 100.717C236.116 99.448 234.415 98.773 232.687 98.773C230.743 98.773 229.609 99.772 229.609 101.014V101.068C229.609 102.526 230.473 103.174 234.118 104.038C238.114 105.01 240.166 106.441 240.166 109.573V109.627C240.166 113.164 237.385 115.27 233.416 115.27ZM250.228 115.324C246.097 115.324 242.911 112.327 242.911 107.926V107.872C242.911 103.795 245.8 100.447 249.877 100.447C254.413 100.447 256.708 104.011 256.708 108.115C256.708 108.412 256.681 108.709 256.654 109.033H246.178C246.529 111.355 248.176 112.651 250.282 112.651C251.875 112.651 253.009 112.057 254.143 110.95L256.06 112.651C254.71 114.271 252.847 115.324 250.228 115.324ZM246.151 106.873H253.468C253.252 104.767 252.01 103.12 249.85 103.12C247.852 103.12 246.448 104.659 246.151 106.873ZM264.768 115.243C262.365 115.243 260.664 114.19 260.664 111.058V103.552H258.855V100.744H260.664V96.829H263.931V100.744H267.765V103.552H263.931V110.545C263.931 111.814 264.579 112.327 265.686 112.327C266.415 112.327 267.063 112.165 267.711 111.841V114.514C266.901 114.973 266.01 115.243 264.768 115.243ZM283.288 115.297C280.615 115.297 278.239 113.758 278.239 110.896V110.842C278.239 107.764 280.642 106.252 284.125 106.252C285.718 106.252 286.852 106.495 287.959 106.846V106.495C287.959 104.47 286.717 103.39 284.422 103.39C282.829 103.39 281.641 103.741 280.345 104.281L279.481 101.716C281.047 101.014 282.586 100.555 284.854 100.555C286.987 100.555 288.58 101.122 289.579 102.148C290.632 103.174 291.118 104.686 291.118 106.549V115H287.932V113.218C286.96 114.379 285.475 115.297 283.288 115.297ZM284.206 112.921C286.366 112.921 288.013 111.679 288.013 109.87V108.898C287.176 108.574 286.069 108.331 284.773 108.331C282.667 108.331 281.425 109.222 281.425 110.707V110.761C281.425 112.138 282.64 112.921 284.206 112.921ZM295.031 115V100.744H298.298V102.931C299.216 101.608 300.539 100.447 302.753 100.447C305.966 100.447 307.829 102.607 307.829 105.901V115H304.562V106.9C304.562 104.686 303.455 103.417 301.511 103.417C299.621 103.417 298.298 104.74 298.298 106.954V115H295.031ZM323.972 115.297C321.299 115.297 318.923 113.758 318.923 110.896V110.842C318.923 107.764 321.326 106.252 324.809 106.252C326.402 106.252 327.536 106.495 328.643 106.846V106.495C328.643 104.47 327.401 103.39 325.106 103.39C323.513 103.39 322.325 103.741 321.029 104.281L320.165 101.716C321.731 101.014 323.27 100.555 325.538 100.555C327.671 100.555 329.264 101.122 330.263 102.148C331.316 103.174 331.802 104.686 331.802 106.549V115H328.616V113.218C327.644 114.379 326.159 115.297 323.972 115.297ZM324.89 112.921C327.05 112.921 328.697 111.679 328.697 109.87V108.898C327.86 108.574 326.753 108.331 325.457 108.331C323.351 108.331 322.109 109.222 322.109 110.707V110.761C322.109 112.138 323.324 112.921 324.89 112.921ZM335.715 119.32V100.744H338.982V103.12C340.035 101.635 341.52 100.447 343.842 100.447C347.19 100.447 350.457 103.093 350.457 107.845V107.899C350.457 112.624 347.217 115.297 343.842 115.297C341.466 115.297 339.981 114.109 338.982 112.786V119.32H335.715ZM343.059 112.462C345.3 112.462 347.136 110.707 347.136 107.899V107.845C347.136 105.091 345.273 103.282 343.059 103.282C340.845 103.282 338.901 105.118 338.901 107.845V107.899C338.901 110.626 340.845 112.462 343.059 112.462ZM353.829 119.32V100.744H357.096V103.12C358.149 101.635 359.634 100.447 361.956 100.447C365.304 100.447 368.571 103.093 368.571 107.845V107.899C368.571 112.624 365.331 115.297 361.956 115.297C359.58 115.297 358.095 114.109 357.096 112.786V119.32H353.829ZM361.173 112.462C363.414 112.462 365.25 110.707 365.25 107.899V107.845C365.25 105.091 363.387 103.282 361.173 103.282C358.959 103.282 357.015 105.118 357.015 107.845V107.899C357.015 110.626 358.959 112.462 361.173 112.462ZM378.721 115.324C374.374 115.324 371.161 112.003 371.161 107.953V107.899C371.161 103.822 374.401 100.447 378.775 100.447C383.149 100.447 386.362 103.768 386.362 107.845V107.899C386.362 111.949 383.122 115.324 378.721 115.324ZM378.775 112.462C381.421 112.462 383.095 110.41 383.095 107.953V107.899C383.095 105.388 381.286 103.309 378.721 103.309C376.102 103.309 374.428 105.361 374.428 107.845V107.899C374.428 110.383 376.237 112.462 378.775 112.462ZM389.743 98.557V95.452H393.253V98.557H389.743ZM389.878 115V100.744H393.145V115H389.878ZM397.414 115V100.744H400.681V102.931C401.599 101.608 402.922 100.447 405.136 100.447C408.349 100.447 410.212 102.607 410.212 105.901V115H406.945V106.9C406.945 104.686 405.838 103.417 403.894 103.417C402.004 103.417 400.681 104.74 400.681 106.954V115H397.414ZM418.936 115.243C416.533 115.243 414.832 114.19 414.832 111.058V103.552H413.023V100.744H414.832V96.829H418.099V100.744H421.933V103.552H418.099V110.545C418.099 111.814 418.747 112.327 419.854 112.327C420.583 112.327 421.231 112.165 421.879 111.841V114.514C421.069 114.973 420.178 115.243 418.936 115.243ZM425.258 115V100.744H428.525V102.904C429.443 101.635 430.685 100.447 432.872 100.447C434.924 100.447 436.382 101.446 437.138 102.958C438.272 101.446 439.784 100.447 441.944 100.447C445.049 100.447 446.939 102.418 446.939 105.901V115H443.672V106.9C443.672 104.632 442.619 103.417 440.783 103.417C439.001 103.417 437.732 104.659 437.732 106.954V115H434.465V106.873C434.465 104.659 433.385 103.417 431.576 103.417C429.767 103.417 428.525 104.767 428.525 106.954V115H425.258ZM457.447 115.324C453.316 115.324 450.13 112.327 450.13 107.926V107.872C450.13 103.795 453.019 100.447 457.096 100.447C461.632 100.447 463.927 104.011 463.927 108.115C463.927 108.412 463.9 108.709 463.873 109.033H453.397C453.748 111.355 455.395 112.651 457.501 112.651C459.094 112.651 460.228 112.057 461.362 110.95L463.279 112.651C461.929 114.271 460.066 115.324 457.447 115.324ZM453.37 106.873H460.687C460.471 104.767 459.229 103.12 457.069 103.12C455.071 103.12 453.667 104.659 453.37 106.873ZM467.208 115V100.744H470.475V102.931C471.393 101.608 472.716 100.447 474.93 100.447C478.143 100.447 480.006 102.607 480.006 105.901V115H476.739V106.9C476.739 104.686 475.632 103.417 473.688 103.417C471.798 103.417 470.475 104.74 470.475 106.954V115H467.208ZM488.73 115.243C486.327 115.243 484.626 114.19 484.626 111.058V103.552H482.817V100.744H484.626V96.829H487.893V100.744H491.727V103.552H487.893V110.545C487.893 111.814 488.541 112.327 489.648 112.327C490.377 112.327 491.025 112.165 491.673 111.841V114.514C490.863 114.973 489.972 115.243 488.73 115.243Z" fill="#0559D7"/>
<path d="M56.6 244.48C48.44 244.48 42.36 238.12 42.36 230.08V230C42.36 222.04 48.32 215.52 56.8 215.52C61.96 215.52 65.08 217.32 67.76 219.88L64.6 223.52C62.36 221.44 59.96 220.04 56.76 220.04C51.44 220.04 47.52 224.44 47.52 229.92V230C47.52 235.48 51.4 239.92 56.76 239.92C60.2 239.92 62.4 238.56 64.8 236.32L67.96 239.52C65.04 242.56 61.84 244.48 56.6 244.48ZM82.2113 244.44C74.9313 244.44 70.2913 240.24 70.2913 232.12V216H75.2113V231.92C75.2113 237.12 77.8913 239.88 82.2913 239.88C86.6513 239.88 89.3313 237.28 89.3313 232.12V216H94.2513V231.88C94.2513 240.24 89.5313 244.44 82.2113 244.44ZM108.405 244.4C104.125 244.4 100.085 242.92 96.7247 239.92L99.6847 236.4C102.365 238.72 105.085 240.04 108.525 240.04C111.565 240.04 113.485 238.6 113.485 236.52V236.44C113.485 234.44 112.365 233.36 107.165 232.16C101.205 230.72 97.8447 228.96 97.8447 223.8V223.72C97.8447 218.92 101.845 215.6 107.405 215.6C111.485 215.6 114.725 216.84 117.565 219.12L114.925 222.84C112.405 220.96 109.885 219.96 107.325 219.96C104.445 219.96 102.765 221.44 102.765 223.28V223.36C102.765 225.52 104.045 226.48 109.445 227.76C115.365 229.2 118.405 231.32 118.405 235.96V236.04C118.405 241.28 114.285 244.4 108.405 244.4ZM128.085 244V220.56H119.205V216H141.925V220.56H133.045V244H128.085ZM156.579 244.48C147.979 244.48 141.979 237.96 141.979 230.08V230C141.979 222.12 148.059 215.52 156.659 215.52C165.259 215.52 171.259 222.04 171.259 229.92V230C171.259 237.88 165.179 244.48 156.579 244.48ZM156.659 239.92C162.219 239.92 166.099 235.52 166.099 230.08V230C166.099 224.56 162.139 220.04 156.579 220.04C151.019 220.04 147.139 224.48 147.139 229.92V230C147.139 235.44 151.099 239.92 156.659 239.92ZM174.803 244V216H180.043L188.563 229.24L197.083 216H202.323V244H197.403V223.92L188.563 237.12H188.403L179.643 224V244H174.803Z" fill="#055AD8"/>
<path d="M43.92 285L47.28 272.46H42.56L42.96 271H53.98L53.58 272.46H48.86L45.5 285H43.92ZM52.753 285.22C51.013 285.22 49.473 284.2 49.473 282.36C49.473 281.36 49.833 280.52 50.453 279.9C51.273 279.08 52.553 278.62 54.073 278.62C55.453 278.62 56.753 278.9 57.753 279.18L57.813 278.94C57.893 278.64 57.953 278.26 57.953 277.98C57.953 276.64 57.033 275.88 55.153 275.88C54.053 275.88 53.153 276.1 52.233 276.42L51.973 275.14C52.993 274.76 54.053 274.52 55.393 274.52C57.993 274.52 59.453 275.72 59.453 277.72C59.453 278.16 59.373 278.66 59.233 279.14L57.673 285H56.173L56.613 283.38C55.653 284.48 54.393 285.22 52.753 285.22ZM53.233 284.02C54.973 284.02 56.793 282.76 57.293 280.94L57.493 280.22C56.593 279.96 55.413 279.76 54.133 279.76C53.073 279.76 52.233 280.08 51.693 280.62C51.253 281.04 51.033 281.58 51.033 282.18C51.033 283.28 51.893 284.02 53.233 284.02ZM59.8964 285L62.6764 274.66H64.2164L61.4364 285H59.8964ZM63.1764 272.4L63.6364 270.7H65.3964L64.9364 272.4H63.1764ZM63.9698 285L67.8898 270.4H69.4298L65.5098 285H63.9698ZM74.6233 274.44C77.4633 274.44 79.3433 276.38 79.3433 279.06C79.3433 280.7 78.6233 282.26 77.4833 283.42C76.3833 284.52 74.8633 285.24 73.2433 285.24C70.4033 285.24 68.5433 283.28 68.5433 280.6C68.5433 278.96 69.2433 277.4 70.4033 276.26C71.5033 275.16 73.0033 274.44 74.6233 274.44ZM73.3433 283.86C74.4633 283.86 75.5033 283.36 76.2833 282.58C77.2033 281.66 77.7633 280.38 77.7633 279.12C77.7633 277.02 76.4433 275.8 74.5233 275.8C73.4033 275.8 72.3633 276.32 71.5833 277.1C70.6833 278 70.1033 279.28 70.1033 280.56C70.1033 282.66 71.4233 283.86 73.3433 283.86ZM79.4572 285L82.2172 274.66H83.7572L83.0572 277.36C84.3172 275.56 85.9172 274.36 87.9772 274.48L87.5372 276.14H87.4372C85.1772 276.14 82.9172 277.8 82.0972 280.92L80.9972 285H79.4572ZM96.4864 280.36H88.3864C88.3664 280.5 88.3664 280.64 88.3664 280.78C88.3664 282.66 89.5664 283.9 91.4864 283.9C92.8264 283.9 93.7264 283.44 94.6664 282.68L95.4664 283.7C94.4464 284.56 93.2264 285.24 91.4064 285.24C88.6664 285.24 86.8264 283.46 86.8264 280.84C86.8264 279.12 87.5664 277.4 88.7864 276.18C89.8464 275.12 91.2464 274.44 92.8464 274.44C95.4664 274.44 96.8464 276.24 96.8464 278.4C96.8464 279.1 96.7064 279.76 96.4864 280.36ZM89.8864 276.98C89.2864 277.58 88.8464 278.36 88.5864 279.2H95.2464C95.3064 279.02 95.3464 278.76 95.3464 278.4C95.3464 276.98 94.5464 275.74 92.7664 275.74C91.6264 275.74 90.6464 276.24 89.8864 276.98ZM104.984 285L105.464 283.24C104.464 284.36 103.204 285.24 101.544 285.24C99.2037 285.24 97.4437 283.48 97.4437 280.86C97.4437 278.94 98.2037 277.28 99.3637 276.12C100.424 275.06 101.804 274.44 103.244 274.44C105.364 274.44 106.564 275.64 107.124 277L108.884 270.4H110.424L106.524 285H104.984ZM101.984 283.88C103.084 283.88 104.204 283.36 105.064 282.5C105.964 281.58 106.584 280.32 106.584 279C106.584 277.2 105.284 275.8 103.384 275.8C102.284 275.8 101.284 276.26 100.544 277C99.6237 277.92 99.0637 279.28 99.0637 280.72C99.0637 282.64 100.264 283.88 101.984 283.88ZM114.143 285L116.563 276.02H115.143L115.503 274.66H116.923L117.243 273.46C117.503 272.48 117.863 271.8 118.383 271.28C119.003 270.66 119.823 270.36 120.803 270.36C121.603 270.36 122.323 270.52 122.863 270.8L122.503 272.12C121.903 271.84 121.403 271.7 120.803 271.7C119.823 271.7 119.083 272.3 118.723 273.66L118.463 274.66H121.843L121.463 276.02H118.103L115.683 285H114.143ZM126.388 274.44C129.228 274.44 131.108 276.38 131.108 279.06C131.108 280.7 130.388 282.26 129.248 283.42C128.148 284.52 126.628 285.24 125.008 285.24C122.168 285.24 120.308 283.28 120.308 280.6C120.308 278.96 121.008 277.4 122.168 276.26C123.268 275.16 124.768 274.44 126.388 274.44ZM125.108 283.86C126.228 283.86 127.268 283.36 128.048 282.58C128.968 281.66 129.528 280.38 129.528 279.12C129.528 277.02 128.208 275.8 126.288 275.8C125.168 275.8 124.128 276.32 123.348 277.1C122.448 278 121.868 279.28 121.868 280.56C121.868 282.66 123.188 283.86 125.108 283.86ZM131.222 285L133.982 274.66H135.522L134.822 277.36C136.082 275.56 137.682 274.36 139.742 274.48L139.302 276.14H139.202C136.942 276.14 134.682 277.8 133.862 280.92L132.762 285H131.222ZM146.145 284.98L144.265 274.66H145.865L147.305 283.28L152.865 274.66H154.605L147.525 285.34C146.065 287.48 144.825 288.26 143.285 288.26C142.405 288.26 141.685 288 141.025 287.54L141.865 286.38C142.245 286.68 142.945 286.9 143.445 286.9C144.325 286.9 145.105 286.44 146.145 284.98ZM159.479 274.44C162.319 274.44 164.199 276.38 164.199 279.06C164.199 280.7 163.479 282.26 162.339 283.42C161.239 284.52 159.719 285.24 158.099 285.24C155.259 285.24 153.399 283.28 153.399 280.6C153.399 278.96 154.099 277.4 155.259 276.26C156.359 275.16 157.859 274.44 159.479 274.44ZM158.199 283.86C159.319 283.86 160.359 283.36 161.139 282.58C162.059 281.66 162.619 280.38 162.619 279.12C162.619 277.02 161.299 275.8 159.379 275.8C158.259 275.8 157.219 276.32 156.439 277.1C155.539 278 154.959 279.28 154.959 280.56C154.959 282.66 156.279 283.86 158.199 283.86ZM168.413 285.22C166.433 285.22 165.133 283.98 165.133 282.02C165.133 281.54 165.253 280.96 165.393 280.42L166.913 274.66H168.453L166.873 280.52C166.793 280.86 166.733 281.34 166.733 281.68C166.733 283.04 167.613 283.84 169.033 283.84C170.633 283.84 172.253 282.46 172.773 280.48L174.333 274.66H175.873L173.113 285H171.573L172.033 283.32C171.093 284.38 169.993 285.22 168.413 285.22ZM175.378 285L178.138 274.66H179.678L178.978 277.36C180.238 275.56 181.838 274.36 183.898 274.48L183.458 276.14H183.358C181.098 276.14 178.838 277.8 178.018 280.92L176.918 285H175.378ZM197.301 280.36H189.201C189.181 280.5 189.181 280.64 189.181 280.78C189.181 282.66 190.381 283.9 192.301 283.9C193.641 283.9 194.541 283.44 195.481 282.68L196.281 283.7C195.261 284.56 194.041 285.24 192.221 285.24C189.481 285.24 187.641 283.46 187.641 280.84C187.641 279.12 188.381 277.4 189.601 276.18C190.661 275.12 192.061 274.44 193.661 274.44C196.281 274.44 197.661 276.24 197.661 278.4C197.661 279.1 197.521 279.76 197.301 280.36ZM190.701 276.98C190.101 277.58 189.661 278.36 189.401 279.2H196.061C196.121 279.02 196.161 278.76 196.161 278.4C196.161 276.98 195.361 275.74 193.581 275.74C192.441 275.74 191.461 276.24 190.701 276.98ZM197.599 285L200.359 274.66H201.899L201.459 276.34C202.399 275.28 203.479 274.44 205.059 274.44C207.059 274.44 208.359 275.68 208.359 277.64C208.359 278.12 208.239 278.7 208.099 279.24L206.579 285H205.039L206.599 279.14C206.699 278.8 206.759 278.32 206.759 277.98C206.759 276.62 205.879 275.82 204.439 275.82C202.839 275.82 201.239 277.2 200.699 279.16L199.139 285H197.599ZM212.364 285.18C210.884 285.18 209.844 284.48 209.844 283.14C209.844 282.78 209.904 282.38 209.984 282.06L211.604 276.02H210.184L210.544 274.66H211.984L212.824 271.54H214.344L213.504 274.66H216.764L216.404 276.02H213.144L211.544 281.98C211.504 282.22 211.464 282.52 211.464 282.74C211.464 283.46 212.004 283.8 212.884 283.8C213.344 283.8 213.844 283.7 214.384 283.48L214.004 284.88C213.464 285.1 212.964 285.18 212.364 285.18ZM225.576 280.36H217.476C217.456 280.5 217.456 280.64 217.456 280.78C217.456 282.66 218.656 283.9 220.576 283.9C221.916 283.9 222.816 283.44 223.756 282.68L224.556 283.7C223.536 284.56 222.316 285.24 220.496 285.24C217.756 285.24 215.916 283.46 215.916 280.84C215.916 279.12 216.656 277.4 217.876 276.18C218.936 275.12 220.336 274.44 221.936 274.44C224.556 274.44 225.936 276.24 225.936 278.4C225.936 279.1 225.796 279.76 225.576 280.36ZM218.976 276.98C218.376 277.58 217.936 278.36 217.676 279.2H224.336C224.396 279.02 224.436 278.76 224.436 278.4C224.436 276.98 223.636 275.74 221.856 275.74C220.716 275.74 219.736 276.24 218.976 276.98ZM225.874 285L228.634 274.66H230.174L229.474 277.36C230.734 275.56 232.334 274.36 234.394 274.48L233.954 276.14H233.854C231.594 276.14 229.334 277.8 228.514 280.92L227.414 285H225.874ZM238.76 285.24C236.64 285.24 235.46 284.04 234.88 282.68L233.4 288.2H231.86L235.48 274.66H237.02L236.54 276.44C237.54 275.3 238.8 274.44 240.46 274.44C242.8 274.44 244.56 276.18 244.56 278.82C244.56 280.72 243.8 282.4 242.64 283.56C241.58 284.62 240.2 285.24 238.76 285.24ZM238.62 283.88C239.72 283.88 240.72 283.4 241.46 282.68C242.38 281.74 242.94 280.4 242.94 278.96C242.94 277.04 241.76 275.8 240.02 275.8C238.92 275.8 237.8 276.32 236.96 277.18C236.04 278.1 235.42 279.34 235.42 280.66C235.42 282.46 236.72 283.88 238.62 283.88ZM244.704 285L247.464 274.66H249.004L248.304 277.36C249.564 275.56 251.164 274.36 253.224 274.48L252.784 276.14H252.684C250.424 276.14 248.164 277.8 247.344 280.92L246.244 285H244.704ZM251.691 285L254.471 274.66H256.011L253.231 285H251.691ZM254.971 272.4L255.431 270.7H257.191L256.731 272.4H254.971ZM259.624 285.22C258.024 285.22 256.364 284.62 255.164 283.42L256.164 282.42C257.284 283.5 258.524 283.94 259.764 283.94C260.944 283.94 262.044 283.26 262.044 282.22C262.044 281.54 261.584 281.04 260.084 280.46C258.224 279.74 257.164 279.06 257.164 277.62C257.164 275.86 258.684 274.44 261.084 274.44C262.604 274.44 264.044 275.12 264.904 275.86L264.004 276.92C263.144 276.22 262.064 275.72 260.944 275.72C259.484 275.72 258.704 276.5 258.704 277.36C258.704 278.04 259.124 278.48 260.764 279.12C262.624 279.88 263.584 280.62 263.584 281.96C263.584 283.88 261.824 285.22 259.624 285.22ZM274.626 280.36H266.526C266.506 280.5 266.506 280.64 266.506 280.78C266.506 282.66 267.706 283.9 269.626 283.9C270.966 283.9 271.866 283.44 272.806 282.68L273.606 283.7C272.586 284.56 271.366 285.24 269.546 285.24C266.806 285.24 264.966 283.46 264.966 280.84C264.966 279.12 265.706 277.4 266.926 276.18C267.986 275.12 269.386 274.44 270.986 274.44C273.606 274.44 274.986 276.24 274.986 278.4C274.986 279.1 274.846 279.76 274.626 280.36ZM268.026 276.98C267.426 277.58 266.986 278.36 266.726 279.2H273.386C273.446 279.02 273.486 278.76 273.486 278.4C273.486 276.98 272.686 275.74 270.906 275.74C269.766 275.74 268.786 276.24 268.026 276.98Z" fill="#6C6C6C"/>
<path d="M41.98 323V309H47.22C50.38 309 52.46 310.68 52.46 313.44V313.48C52.46 316.5 49.94 318.06 46.96 318.06H43.56V323H41.98ZM43.56 316.62H47.02C49.34 316.62 50.86 315.38 50.86 313.54V313.5C50.86 311.5 49.36 310.46 47.1 310.46H43.56V316.62ZM58.3017 323.24C55.4617 323.24 53.1417 321.06 53.1417 317.86V317.82C53.1417 314.84 55.2417 312.44 58.1017 312.44C61.1617 312.44 62.9217 314.88 62.9217 317.9C62.9217 318.1 62.9217 318.22 62.9017 318.4H54.7017C54.9217 320.64 56.5017 321.9 58.3417 321.9C59.7617 321.9 60.7617 321.32 61.6017 320.44L62.5617 321.3C61.5217 322.46 60.2617 323.24 58.3017 323.24ZM54.7017 317.26H61.3617C61.2017 315.38 60.1217 313.74 58.0617 313.74C56.2617 313.74 54.9017 315.24 54.7017 317.26ZM64.4177 323V312.66H65.9577V315.36C66.7177 313.64 68.2177 312.4 70.1777 312.48V314.14H70.0577C67.7977 314.14 65.9577 315.76 65.9577 318.88V323H64.4177ZM71.9031 323V314.02H70.4831V312.68H71.9031V311.78C71.9031 310.6 72.2231 309.7 72.8031 309.12C73.3231 308.6 74.0831 308.32 75.0231 308.32C75.7431 308.32 76.2231 308.4 76.7231 308.58V309.92C76.1631 309.76 75.7431 309.66 75.2231 309.66C74.0231 309.66 73.4231 310.38 73.4231 311.86V312.7H76.7031V314.02H73.4431V323H71.9031ZM81.7916 323.24C78.9516 323.24 76.6316 321.06 76.6316 317.86V317.82C76.6316 314.84 78.7316 312.44 81.5916 312.44C84.6516 312.44 86.4116 314.88 86.4116 317.9C86.4116 318.1 86.4116 318.22 86.3916 318.4H78.1916C78.4116 320.64 79.9916 321.9 81.8316 321.9C83.2516 321.9 84.2516 321.32 85.0916 320.44L86.0516 321.3C85.0116 322.46 83.7516 323.24 81.7916 323.24ZM78.1916 317.26H84.8516C84.6916 315.38 83.6116 313.74 81.5516 313.74C79.7516 313.74 78.3916 315.24 78.1916 317.26ZM92.5675 323.24C89.5475 323.24 87.2675 320.78 87.2675 317.88V317.84C87.2675 314.92 89.5475 312.44 92.5675 312.44C94.5275 312.44 95.7475 313.26 96.7075 314.28L95.6875 315.36C94.8675 314.5 93.9475 313.8 92.5475 313.8C90.4475 313.8 88.8475 315.58 88.8475 317.8V317.84C88.8475 320.08 90.4875 321.86 92.6475 321.86C93.9675 321.86 94.9875 321.2 95.8075 320.32L96.7875 321.24C95.7475 322.4 94.5075 323.24 92.5675 323.24ZM101.593 323.18C99.9333 323.18 98.6733 322.36 98.6733 320.26V314.02H97.2333V312.66H98.6733V309.54H100.213V312.66H103.493V314.02H100.213V320.06C100.213 321.32 100.913 321.78 101.953 321.78C102.473 321.78 102.913 321.68 103.453 321.42V322.74C102.913 323.02 102.333 323.18 101.593 323.18ZM111.094 323V314.02H109.674V312.68H111.094V311.78C111.094 310.6 111.414 309.7 111.994 309.12C112.514 308.6 113.274 308.32 114.214 308.32C114.934 308.32 115.414 308.4 115.914 308.58V309.92C115.354 309.76 114.934 309.66 114.414 309.66C113.214 309.66 112.614 310.38 112.614 311.86V312.7H115.894V314.02H112.634V323H111.094ZM121.183 323.24C118.083 323.24 115.823 320.8 115.823 317.88V317.84C115.823 314.92 118.103 312.44 121.223 312.44C124.323 312.44 126.603 314.88 126.603 317.8V317.84C126.603 320.76 124.303 323.24 121.183 323.24ZM121.223 321.86C123.463 321.86 125.023 320.06 125.023 317.88V317.84C125.023 315.62 123.363 313.8 121.183 313.8C118.943 313.8 117.403 315.62 117.403 317.8V317.84C117.403 320.06 119.043 321.86 121.223 321.86ZM128.193 323V312.66H129.733V315.36C130.493 313.64 131.993 312.4 133.953 312.48V314.14H133.833C131.573 314.14 129.733 315.76 129.733 318.88V323H128.193ZM145.113 323.24C142.273 323.24 139.953 321.06 139.953 317.86V317.82C139.953 314.84 142.053 312.44 144.913 312.44C147.973 312.44 149.733 314.88 149.733 317.9C149.733 318.1 149.733 318.22 149.713 318.4H141.513C141.733 320.64 143.313 321.9 145.153 321.9C146.573 321.9 147.573 321.32 148.413 320.44L149.373 321.3C148.333 322.46 147.073 323.24 145.113 323.24ZM141.513 317.26H148.173C148.013 315.38 146.933 313.74 144.873 313.74C143.073 313.74 141.713 315.24 141.513 317.26ZM151.229 323V312.66H152.769V314.46C153.449 313.34 154.529 312.44 156.309 312.44C158.809 312.44 160.269 314.12 160.269 316.58V323H158.729V316.96C158.729 315.04 157.689 313.84 155.869 313.84C154.089 313.84 152.769 315.14 152.769 317.08V323H151.229ZM165.813 323.18C164.153 323.18 162.893 322.36 162.893 320.26V314.02H161.453V312.66H162.893V309.54H164.433V312.66H167.713V314.02H164.433V320.06C164.433 321.32 165.133 321.78 166.173 321.78C166.693 321.78 167.133 321.68 167.673 321.42V322.74C167.133 323.02 166.553 323.18 165.813 323.18ZM173.466 323.24C170.626 323.24 168.306 321.06 168.306 317.86V317.82C168.306 314.84 170.406 312.44 173.266 312.44C176.326 312.44 178.086 314.88 178.086 317.9C178.086 318.1 178.086 318.22 178.066 318.4H169.866C170.086 320.64 171.666 321.9 173.506 321.9C174.926 321.9 175.926 321.32 176.766 320.44L177.726 321.3C176.686 322.46 175.426 323.24 173.466 323.24ZM169.866 317.26H176.526C176.366 315.38 175.286 313.74 173.226 313.74C171.426 313.74 170.066 315.24 169.866 317.26ZM179.582 323V312.66H181.122V315.36C181.882 313.64 183.382 312.4 185.342 312.48V314.14H185.222C182.962 314.14 181.122 315.76 181.122 318.88V323H179.582ZM186.488 326.2V312.66H188.028V314.74C188.868 313.5 190.088 312.44 191.988 312.44C194.468 312.44 196.928 314.4 196.928 317.8V317.84C196.928 321.22 194.488 323.22 191.988 323.22C190.068 323.22 188.828 322.18 188.028 321.02V326.2H186.488ZM191.708 321.84C193.708 321.84 195.348 320.36 195.348 317.86V317.82C195.348 315.38 193.668 313.82 191.708 313.82C189.788 313.82 187.968 315.44 187.968 317.8V317.84C187.968 320.24 189.788 321.84 191.708 321.84ZM198.569 323V312.66H200.109V315.36C200.869 313.64 202.369 312.4 204.329 312.48V314.14H204.209C201.949 314.14 200.109 315.76 200.109 318.88V323H198.569ZM205.514 310.4V308.7H207.274V310.4H205.514ZM205.614 323V312.66H207.154V323H205.614ZM212.948 323.2C211.468 323.2 209.828 322.62 208.668 321.68L209.448 320.58C210.568 321.42 211.808 321.9 213.028 321.9C214.268 321.9 215.168 321.26 215.168 320.26V320.22C215.168 319.18 213.948 318.78 212.588 318.4C210.968 317.94 209.168 317.38 209.168 315.48V315.44C209.168 313.66 210.648 312.48 212.688 312.48C213.948 312.48 215.348 312.92 216.408 313.62L215.708 314.78C214.748 314.16 213.648 313.78 212.648 313.78C211.428 313.78 210.648 314.42 210.648 315.28V315.32C210.648 316.3 211.928 316.68 213.308 317.1C214.908 317.58 216.628 318.2 216.628 320.06V320.1C216.628 322.06 215.008 323.2 212.948 323.2ZM222.809 323.24C219.969 323.24 217.649 321.06 217.649 317.86V317.82C217.649 314.84 219.749 312.44 222.609 312.44C225.669 312.44 227.429 314.88 227.429 317.9C227.429 318.1 227.429 318.22 227.409 318.4H219.209C219.429 320.64 221.009 321.9 222.849 321.9C224.269 321.9 225.269 321.32 226.109 320.44L227.069 321.3C226.029 322.46 224.769 323.24 222.809 323.24ZM219.209 317.26H225.869C225.709 315.38 224.629 313.74 222.569 313.74C220.769 313.74 219.409 315.24 219.209 317.26ZM232.345 323.2C230.865 323.2 229.225 322.62 228.065 321.68L228.845 320.58C229.965 321.42 231.205 321.9 232.425 321.9C233.665 321.9 234.565 321.26 234.565 320.26V320.22C234.565 319.18 233.345 318.78 231.985 318.4C230.365 317.94 228.565 317.38 228.565 315.48V315.44C228.565 313.66 230.045 312.48 232.085 312.48C233.345 312.48 234.745 312.92 235.805 313.62L235.105 314.78C234.145 314.16 233.045 313.78 232.045 313.78C230.825 313.78 230.045 314.42 230.045 315.28V315.32C230.045 316.3 231.325 316.68 232.705 317.1C234.305 317.58 236.025 318.2 236.025 320.06V320.1C236.025 322.06 234.405 323.2 232.345 323.2ZM245.921 323.08L242.301 312.66H243.941L246.661 320.96L249.441 312.62H250.721L253.521 320.96L256.241 312.66H257.841L254.201 323.08H252.861L250.081 314.92L247.281 323.08H245.921ZM259.248 310.4V308.7H261.008V310.4H259.248ZM259.348 323V312.66H260.888V323H259.348ZM266.722 323.18C265.062 323.18 263.802 322.36 263.802 320.26V314.02H262.362V312.66H263.802V309.54H265.342V312.66H268.622V314.02H265.342V320.06C265.342 321.32 266.042 321.78 267.082 321.78C267.602 321.78 268.042 321.68 268.582 321.42V322.74C268.042 323.02 267.462 323.18 266.722 323.18ZM270.148 323V308.4H271.688V314.46C272.368 313.34 273.448 312.44 275.228 312.44C277.728 312.44 279.188 314.12 279.188 316.58V323H277.648V316.96C277.648 315.04 276.608 313.84 274.788 313.84C273.008 313.84 271.688 315.14 271.688 317.08V323H270.148ZM291.427 323.24C288.407 323.24 286.127 320.78 286.127 317.88V317.84C286.127 314.92 288.407 312.44 291.427 312.44C293.387 312.44 294.607 313.26 295.567 314.28L294.547 315.36C293.727 314.5 292.807 313.8 291.407 313.8C289.307 313.8 287.707 315.58 287.707 317.8V317.84C287.707 320.08 289.347 321.86 291.507 321.86C292.827 321.86 293.847 321.2 294.667 320.32L295.647 321.24C294.607 322.4 293.367 323.24 291.427 323.24ZM301.42 323.24C298.32 323.24 296.06 320.8 296.06 317.88V317.84C296.06 314.92 298.34 312.44 301.46 312.44C304.56 312.44 306.84 314.88 306.84 317.8V317.84C306.84 320.76 304.54 323.24 301.42 323.24ZM301.46 321.86C303.7 321.86 305.26 320.06 305.26 317.88V317.84C305.26 315.62 303.6 313.8 301.42 313.8C299.18 313.8 297.64 315.62 297.64 317.8V317.84C297.64 320.06 299.28 321.86 301.46 321.86ZM308.43 323V312.66H309.97V314.4C310.65 313.38 311.57 312.44 313.31 312.44C314.99 312.44 316.07 313.34 316.63 314.5C317.37 313.36 318.47 312.44 320.27 312.44C322.65 312.44 324.11 314.04 324.11 316.6V323H322.57V316.96C322.57 314.96 321.57 313.84 319.89 313.84C318.33 313.84 317.05 315 317.05 317.04V323H315.51V316.92C315.51 314.98 314.49 313.84 312.85 313.84C311.21 313.84 309.97 315.2 309.97 317.1V323H308.43ZM326.253 326.2V312.66H327.793V314.74C328.633 313.5 329.853 312.44 331.753 312.44C334.233 312.44 336.693 314.4 336.693 317.8V317.84C336.693 321.22 334.253 323.22 331.753 323.22C329.833 323.22 328.593 322.18 327.793 321.02V326.2H326.253ZM331.473 321.84C333.473 321.84 335.113 320.36 335.113 317.86V317.82C335.113 315.38 333.433 313.82 331.473 313.82C329.553 313.82 327.733 315.44 327.733 317.8V317.84C327.733 320.24 329.553 321.84 331.473 321.84ZM338.474 323V308.4H340.014V323H338.474ZM346.908 323.24C344.068 323.24 341.748 321.06 341.748 317.86V317.82C341.748 314.84 343.848 312.44 346.708 312.44C349.768 312.44 351.528 314.88 351.528 317.9C351.528 318.1 351.528 318.22 351.508 318.4H343.308C343.528 320.64 345.108 321.9 346.948 321.9C348.368 321.9 349.368 321.32 350.208 320.44L351.168 321.3C350.128 322.46 348.868 323.24 346.908 323.24ZM343.308 317.26H349.968C349.808 315.38 348.728 313.74 346.668 313.74C344.868 313.74 343.508 315.24 343.308 317.26ZM353.399 312.66L356.439 316.7L359.519 312.66H361.239L357.319 317.72L361.399 323H359.619L356.419 318.74L353.199 323H351.479L355.519 317.74L351.639 312.66H353.399ZM368.198 323V312.66H369.738V314.46C370.418 313.34 371.498 312.44 373.278 312.44C375.778 312.44 377.238 314.12 377.238 316.58V323H375.698V316.96C375.698 315.04 374.658 313.84 372.838 313.84C371.058 313.84 369.738 315.14 369.738 317.08V323H368.198ZM383.842 323.24C381.002 323.24 378.682 321.06 378.682 317.86V317.82C378.682 314.84 380.782 312.44 383.642 312.44C386.702 312.44 388.462 314.88 388.462 317.9C388.462 318.1 388.462 318.22 388.442 318.4H380.242C380.462 320.64 382.042 321.9 383.882 321.9C385.302 321.9 386.302 321.32 387.142 320.44L388.102 321.3C387.062 322.46 385.802 323.24 383.842 323.24ZM380.242 317.26H386.902C386.742 315.38 385.662 313.74 383.602 313.74C381.802 313.74 380.442 315.24 380.242 317.26ZM394.478 323.24C391.638 323.24 389.318 321.06 389.318 317.86V317.82C389.318 314.84 391.418 312.44 394.278 312.44C397.338 312.44 399.098 314.88 399.098 317.9C399.098 318.1 399.098 318.22 399.078 318.4H390.878C391.098 320.64 392.678 321.9 394.518 321.9C395.938 321.9 396.938 321.32 397.778 320.44L398.738 321.3C397.698 322.46 396.438 323.24 394.478 323.24ZM390.878 317.26H397.538C397.378 315.38 396.298 313.74 394.238 313.74C392.438 313.74 391.078 315.24 390.878 317.26ZM404.934 323.22C402.454 323.22 399.994 321.26 399.994 317.86V317.82C399.994 314.44 402.454 312.44 404.934 312.44C406.854 312.44 408.094 313.48 408.894 314.64V308.4H410.434V323H408.894V320.92C408.054 322.16 406.834 323.22 404.934 323.22ZM405.214 321.84C407.134 321.84 408.954 320.22 408.954 317.84V317.8C408.954 315.42 407.134 313.82 405.214 313.82C403.214 313.82 401.574 315.3 401.574 317.8V317.84C401.574 320.28 403.274 321.84 405.214 321.84ZM416.096 323.2C414.616 323.2 412.976 322.62 411.816 321.68L412.596 320.58C413.716 321.42 414.956 321.9 416.176 321.9C417.416 321.9 418.316 321.26 418.316 320.26V320.22C418.316 319.18 417.096 318.78 415.736 318.4C414.116 317.94 412.316 317.38 412.316 315.48V315.44C412.316 313.66 413.796 312.48 415.836 312.48C417.096 312.48 418.496 312.92 419.556 313.62L418.856 314.78C417.896 314.16 416.796 313.78 415.796 313.78C414.576 313.78 413.796 314.42 413.796 315.28V315.32C413.796 316.3 415.076 316.68 416.456 317.1C418.056 317.58 419.776 318.2 419.776 320.06V320.1C419.776 322.06 418.156 323.2 416.096 323.2ZM421.257 323V320.9H423.097V323H421.257ZM434.814 323.1L429.814 309H431.534L435.534 320.66L439.374 308.96H440.674L444.514 320.66L448.514 309H450.174L445.174 323.1H443.834L439.994 311.74L436.134 323.1H434.814ZM454.794 323.24C451.954 323.24 449.634 321.06 449.634 317.86V317.82C449.634 314.84 451.734 312.44 454.594 312.44C457.654 312.44 459.414 314.88 459.414 317.9C459.414 318.1 459.414 318.22 459.394 318.4H451.194C451.414 320.64 452.994 321.9 454.834 321.9C456.254 321.9 457.254 321.32 458.094 320.44L459.054 321.3C458.014 322.46 456.754 323.24 454.794 323.24ZM451.194 317.26H457.854C457.694 315.38 456.614 313.74 454.554 313.74C452.754 313.74 451.394 315.24 451.194 317.26ZM460.45 313.54L460.21 312.84C461.21 312.48 461.63 311.96 461.55 311.1H460.83V309H462.67V310.8C462.67 312.42 461.97 313.2 460.45 313.54ZM464.752 323V308.4H466.292V323H464.752ZM468.806 323V308.4H470.346V323H468.806ZM46.06 347.22C43.58 347.22 41.12 345.26 41.12 341.86V341.82C41.12 338.44 43.58 336.44 46.06 336.44C47.98 336.44 49.22 337.48 50.02 338.64V332.4H51.56V347H50.02V344.92C49.18 346.16 47.96 347.22 46.06 347.22ZM46.34 345.84C48.26 345.84 50.08 344.22 50.08 341.84V341.8C50.08 339.42 48.26 337.82 46.34 337.82C44.34 337.82 42.7 339.3 42.7 341.8V341.84C42.7 344.28 44.4 345.84 46.34 345.84ZM58.3213 347.24C55.4813 347.24 53.1613 345.06 53.1613 341.86V341.82C53.1613 338.84 55.2613 336.44 58.1213 336.44C61.1813 336.44 62.9413 338.88 62.9413 341.9C62.9413 342.1 62.9413 342.22 62.9213 342.4H54.7213C54.9413 344.64 56.5213 345.9 58.3613 345.9C59.7813 345.9 60.7813 345.32 61.6213 344.44L62.5813 345.3C61.5413 346.46 60.2813 347.24 58.3213 347.24ZM54.7213 341.26H61.3813C61.2213 339.38 60.1413 337.74 58.0813 337.74C56.2813 337.74 54.9213 339.24 54.7213 341.26ZM67.8572 347.2C66.3772 347.2 64.7372 346.62 63.5772 345.68L64.3572 344.58C65.4772 345.42 66.7172 345.9 67.9372 345.9C69.1772 345.9 70.0772 345.26 70.0772 344.26V344.22C70.0772 343.18 68.8572 342.78 67.4972 342.4C65.8772 341.94 64.0772 341.38 64.0772 339.48V339.44C64.0772 337.66 65.5572 336.48 67.5972 336.48C68.8572 336.48 70.2572 336.92 71.3172 337.62L70.6172 338.78C69.6572 338.16 68.5572 337.78 67.5572 337.78C66.3372 337.78 65.5572 338.42 65.5572 339.28V339.32C65.5572 340.3 66.8372 340.68 68.2172 341.1C69.8172 341.58 71.5372 342.2 71.5372 344.06V344.1C71.5372 346.06 69.9172 347.2 67.8572 347.2ZM73.2381 334.4V332.7H74.9981V334.4H73.2381ZM73.3381 347V336.66H74.8781V347H73.3381ZM81.832 350.24C80.112 350.24 78.512 349.76 77.132 348.8L77.832 347.6C79.012 348.46 80.332 348.92 81.812 348.92C84.092 348.92 85.572 347.66 85.572 345.24V344.02C84.672 345.22 83.412 346.2 81.512 346.2C79.032 346.2 76.652 344.34 76.652 341.36V341.32C76.652 338.3 79.052 336.44 81.512 336.44C83.452 336.44 84.712 337.4 85.552 338.52V336.66H87.092V345.2C87.092 346.8 86.612 348.02 85.772 348.86C84.852 349.78 83.472 350.24 81.832 350.24ZM81.812 344.84C83.772 344.84 85.612 343.42 85.612 341.34V341.3C85.612 339.18 83.772 337.8 81.812 337.8C79.852 337.8 78.232 339.16 78.232 341.28V341.32C78.232 343.4 79.892 344.84 81.812 344.84ZM89.3333 347V336.66H90.8733V338.46C91.5533 337.34 92.6333 336.44 94.4133 336.44C96.9133 336.44 98.3733 338.12 98.3733 340.58V347H96.8333V340.96C96.8333 339.04 95.7933 337.84 93.9733 337.84C92.1933 337.84 90.8733 339.14 90.8733 341.08V347H89.3333ZM125.58 347.22C123.66 347.22 121.72 346.12 121.72 344V343.96C121.72 341.78 123.52 340.62 126.14 340.62C127.46 340.62 128.4 340.8 129.32 341.06V340.7C129.32 338.84 128.18 337.88 126.24 337.88C125.02 337.88 124.06 338.2 123.1 338.64L122.64 337.38C123.78 336.86 124.9 336.52 126.4 336.52C127.86 336.52 128.98 336.9 129.74 337.66C130.44 338.36 130.8 339.36 130.8 340.68V347H129.32V345.44C128.6 346.38 127.4 347.22 125.58 347.22ZM125.88 346C127.78 346 129.34 344.84 129.34 343.2V342.2C128.58 341.98 127.56 341.76 126.3 341.76C124.36 341.76 123.28 342.6 123.28 343.9V343.94C123.28 345.24 124.48 346 125.88 346ZM154.924 350.2V336.66H156.464V338.74C157.304 337.5 158.524 336.44 160.424 336.44C162.904 336.44 165.364 338.4 165.364 341.8V341.84C165.364 345.22 162.924 347.22 160.424 347.22C158.504 347.22 157.264 346.18 156.464 345.02V350.2H154.924ZM160.144 345.84C162.144 345.84 163.784 344.36 163.784 341.86V341.82C163.784 339.38 162.104 337.82 160.144 337.82C158.224 337.82 156.404 339.44 156.404 341.8V341.84C156.404 344.24 158.224 345.84 160.144 345.84ZM170.085 347.22C168.165 347.22 166.225 346.12 166.225 344V343.96C166.225 341.78 168.025 340.62 170.645 340.62C171.965 340.62 172.905 340.8 173.825 341.06V340.7C173.825 338.84 172.685 337.88 170.745 337.88C169.525 337.88 168.565 338.2 167.605 338.64L167.145 337.38C168.285 336.86 169.405 336.52 170.905 336.52C172.365 336.52 173.485 336.9 174.245 337.66C174.945 338.36 175.305 339.36 175.305 340.68V347H173.825V345.44C173.105 346.38 171.905 347.22 170.085 347.22ZM170.385 346C172.285 346 173.845 344.84 173.845 343.2V342.2C173.085 341.98 172.065 341.76 170.805 341.76C168.865 341.76 167.785 342.6 167.785 343.9V343.94C167.785 345.24 168.985 346 170.385 346ZM182.047 347.24C179.027 347.24 176.747 344.78 176.747 341.88V341.84C176.747 338.92 179.027 336.44 182.047 336.44C184.007 336.44 185.227 337.26 186.187 338.28L185.167 339.36C184.347 338.5 183.427 337.8 182.027 337.8C179.927 337.8 178.327 339.58 178.327 341.8V341.84C178.327 344.08 179.967 345.86 182.127 345.86C183.447 345.86 184.467 345.2 185.287 344.32L186.267 345.24C185.227 346.4 183.987 347.24 182.047 347.24ZM187.613 347V332.4H189.153V342.48L194.733 336.66H196.653L192.313 341.1L196.793 347H194.953L191.253 342.18L189.153 344.3V347H187.613ZM200.685 347.22C198.765 347.22 196.825 346.12 196.825 344V343.96C196.825 341.78 198.625 340.62 201.245 340.62C202.565 340.62 203.505 340.8 204.425 341.06V340.7C204.425 338.84 203.285 337.88 201.345 337.88C200.125 337.88 199.165 338.2 198.205 338.64L197.745 337.38C198.885 336.86 200.005 336.52 201.505 336.52C202.965 336.52 204.085 336.9 204.845 337.66C205.545 338.36 205.905 339.36 205.905 340.68V347H204.425V345.44C203.705 346.38 202.505 347.22 200.685 347.22ZM200.985 346C202.885 346 204.445 344.84 204.445 343.2V342.2C203.685 341.98 202.665 341.76 201.405 341.76C199.465 341.76 198.385 342.6 198.385 343.9V343.94C198.385 345.24 199.585 346 200.985 346ZM212.567 350.24C210.847 350.24 209.247 349.76 207.867 348.8L208.567 347.6C209.747 348.46 211.067 348.92 212.547 348.92C214.827 348.92 216.307 347.66 216.307 345.24V344.02C215.407 345.22 214.147 346.2 212.247 346.2C209.767 346.2 207.387 344.34 207.387 341.36V341.32C207.387 338.3 209.787 336.44 212.247 336.44C214.187 336.44 215.447 337.4 216.287 338.52V336.66H217.827V345.2C217.827 346.8 217.347 348.02 216.507 348.86C215.587 349.78 214.207 350.24 212.567 350.24ZM212.547 344.84C214.507 344.84 216.347 343.42 216.347 341.34V341.3C216.347 339.18 214.507 337.8 212.547 337.8C210.587 337.8 208.967 339.16 208.967 341.28V341.32C208.967 343.4 210.627 344.84 212.547 344.84ZM224.588 347.24C221.748 347.24 219.428 345.06 219.428 341.86V341.82C219.428 338.84 221.528 336.44 224.388 336.44C227.448 336.44 229.208 338.88 229.208 341.9C229.208 342.1 229.208 342.22 229.188 342.4H220.988C221.208 344.64 222.788 345.9 224.628 345.9C226.048 345.9 227.048 345.32 227.888 344.44L228.848 345.3C227.808 346.46 226.548 347.24 224.588 347.24ZM220.988 341.26H227.648C227.488 339.38 226.408 337.74 224.348 337.74C222.548 337.74 221.188 339.24 220.988 341.26ZM256.206 347.18C254.546 347.18 253.286 346.36 253.286 344.26V338.02H251.846V336.66H253.286V333.54H254.826V336.66H258.106V338.02H254.826V344.06C254.826 345.32 255.526 345.78 256.566 345.78C257.086 345.78 257.526 345.68 258.066 345.42V346.74C257.526 347.02 256.946 347.18 256.206 347.18ZM259.632 347V332.4H261.172V338.46C261.852 337.34 262.932 336.44 264.712 336.44C267.212 336.44 268.672 338.12 268.672 340.58V347H267.132V340.96C267.132 339.04 266.092 337.84 264.272 337.84C262.492 337.84 261.172 339.14 261.172 341.08V347H259.632ZM273.836 347.22C271.916 347.22 269.976 346.12 269.976 344V343.96C269.976 341.78 271.776 340.62 274.396 340.62C275.716 340.62 276.656 340.8 277.576 341.06V340.7C277.576 338.84 276.436 337.88 274.496 337.88C273.276 337.88 272.316 338.2 271.356 338.64L270.896 337.38C272.036 336.86 273.156 336.52 274.656 336.52C276.116 336.52 277.236 336.9 277.996 337.66C278.696 338.36 279.056 339.36 279.056 340.68V347H277.576V345.44C276.856 346.38 275.656 347.22 273.836 347.22ZM274.136 346C276.036 346 277.596 344.84 277.596 343.2V342.2C276.836 341.98 275.816 341.76 274.556 341.76C272.616 341.76 271.536 342.6 271.536 343.9V343.94C271.536 345.24 272.736 346 274.136 346ZM284.501 347.18C282.841 347.18 281.581 346.36 281.581 344.26V338.02H280.141V336.66H281.581V333.54H283.121V336.66H286.401V338.02H283.121V344.06C283.121 345.32 283.821 345.78 284.861 345.78C285.381 345.78 285.821 345.68 286.361 345.42V346.74C285.821 347.02 285.241 347.18 284.501 347.18ZM313.049 347.22C311.129 347.22 309.189 346.12 309.189 344V343.96C309.189 341.78 310.989 340.62 313.609 340.62C314.929 340.62 315.869 340.8 316.789 341.06V340.7C316.789 338.84 315.649 337.88 313.709 337.88C312.489 337.88 311.529 338.2 310.569 338.64L310.109 337.38C311.249 336.86 312.369 336.52 313.869 336.52C315.329 336.52 316.449 336.9 317.209 337.66C317.909 338.36 318.269 339.36 318.269 340.68V347H316.789V345.44C316.069 346.38 314.869 347.22 313.049 347.22ZM313.349 346C315.249 346 316.809 344.84 316.809 343.2V342.2C316.049 341.98 315.029 341.76 313.769 341.76C311.829 341.76 310.749 342.6 310.749 343.9V343.94C310.749 345.24 311.949 346 313.349 346ZM324.691 347.22C322.211 347.22 319.751 345.26 319.751 341.86V341.82C319.751 338.44 322.211 336.44 324.691 336.44C326.611 336.44 327.851 337.48 328.651 338.64V332.4H330.191V347H328.651V344.92C327.811 346.16 326.591 347.22 324.691 347.22ZM324.971 345.84C326.891 345.84 328.711 344.22 328.711 341.84V341.8C328.711 339.42 326.891 337.82 324.971 337.82C322.971 337.82 321.331 339.3 321.331 341.8V341.84C321.331 344.28 323.031 345.84 324.971 345.84ZM335.512 347.22C333.592 347.22 331.652 346.12 331.652 344V343.96C331.652 341.78 333.452 340.62 336.072 340.62C337.392 340.62 338.332 340.8 339.252 341.06V340.7C339.252 338.84 338.112 337.88 336.172 337.88C334.952 337.88 333.992 338.2 333.032 338.64L332.572 337.38C333.712 336.86 334.832 336.52 336.332 336.52C337.792 336.52 338.912 336.9 339.672 337.66C340.372 338.36 340.732 339.36 340.732 340.68V347H339.252V345.44C338.532 346.38 337.332 347.22 335.512 347.22ZM335.812 346C337.712 346 339.272 344.84 339.272 343.2V342.2C338.512 341.98 337.492 341.76 336.232 341.76C334.292 341.76 333.212 342.6 333.212 343.9V343.94C333.212 345.24 334.412 346 335.812 346ZM342.814 350.2V336.66H344.354V338.74C345.194 337.5 346.414 336.44 348.314 336.44C350.794 336.44 353.254 338.4 353.254 341.8V341.84C353.254 345.22 350.814 347.22 348.314 347.22C346.394 347.22 345.154 346.18 344.354 345.02V350.2H342.814ZM348.034 345.84C350.034 345.84 351.674 344.36 351.674 341.86V341.82C351.674 339.38 349.994 337.82 348.034 337.82C346.114 337.82 344.294 339.44 344.294 341.8V341.84C344.294 344.24 346.114 345.84 348.034 345.84ZM358.356 347.18C356.696 347.18 355.436 346.36 355.436 344.26V338.02H353.996V336.66H355.436V333.54H356.976V336.66H360.256V338.02H356.976V344.06C356.976 345.32 357.676 345.78 358.716 345.78C359.236 345.78 359.676 345.68 360.216 345.42V346.74C359.676 347.02 359.096 347.18 358.356 347.18ZM365.201 347.2C363.721 347.2 362.081 346.62 360.921 345.68L361.701 344.58C362.821 345.42 364.061 345.9 365.281 345.9C366.521 345.9 367.421 345.26 367.421 344.26V344.22C367.421 343.18 366.201 342.78 364.841 342.4C363.221 341.94 361.421 341.38 361.421 339.48V339.44C361.421 337.66 362.901 336.48 364.941 336.48C366.201 336.48 367.601 336.92 368.661 337.62L367.961 338.78C367.001 338.16 365.901 337.78 364.901 337.78C363.681 337.78 362.901 338.42 362.901 339.28V339.32C362.901 340.3 364.181 340.68 365.561 341.1C367.161 341.58 368.881 342.2 368.881 344.06V344.1C368.881 346.06 367.261 347.2 365.201 347.2ZM396.045 347.18C394.385 347.18 393.125 346.36 393.125 344.26V338.02H391.685V336.66H393.125V333.54H394.665V336.66H397.945V338.02H394.665V344.06C394.665 345.32 395.365 345.78 396.405 345.78C396.925 345.78 397.365 345.68 397.905 345.42V346.74C397.365 347.02 396.785 347.18 396.045 347.18ZM403.898 347.24C400.798 347.24 398.538 344.8 398.538 341.88V341.84C398.538 338.92 400.818 336.44 403.938 336.44C407.038 336.44 409.318 338.88 409.318 341.8V341.84C409.318 344.76 407.018 347.24 403.898 347.24ZM403.938 345.86C406.178 345.86 407.738 344.06 407.738 341.88V341.84C407.738 339.62 406.078 337.8 403.898 337.8C401.658 337.8 400.118 339.62 400.118 341.8V341.84C400.118 344.06 401.758 345.86 403.938 345.86ZM437.37 345.28L440.69 336.66H442.33L437.99 347.34C437.11 349.48 436.11 350.26 434.55 350.26C433.69 350.26 433.05 350.08 432.35 349.74L432.87 348.52C433.37 348.78 433.83 348.9 434.49 348.9C435.41 348.9 435.99 348.42 436.61 346.96L431.91 336.66H433.61L437.37 345.28ZM447.681 347.24C444.581 347.24 442.321 344.8 442.321 341.88V341.84C442.321 338.92 444.601 336.44 447.721 336.44C450.821 336.44 453.101 338.88 453.101 341.8V341.84C453.101 344.76 450.801 347.24 447.681 347.24ZM447.721 345.86C449.961 345.86 451.521 344.06 451.521 341.88V341.84C451.521 339.62 449.861 337.8 447.681 337.8C445.441 337.8 443.901 339.62 443.901 341.8V341.84C443.901 344.06 445.541 345.86 447.721 345.86ZM458.49 347.22C455.99 347.22 454.53 345.54 454.53 343.08V336.66H456.07V342.7C456.07 344.62 457.11 345.82 458.93 345.82C460.69 345.82 462.03 344.52 462.03 342.58V336.66H463.55V347H462.03V345.2C461.33 346.32 460.27 347.22 458.49 347.22ZM465.815 347V336.66H467.355V339.36C468.115 337.64 469.615 336.4 471.575 336.48V338.14H471.455C469.195 338.14 467.355 339.76 467.355 342.88V347H465.815ZM41.72 371V360.66H43.26V363.36C44.02 361.64 45.52 360.4 47.48 360.48V362.14H47.36C45.1 362.14 43.26 363.76 43.26 366.88V371H41.72ZM52.6963 371.24C49.8563 371.24 47.5363 369.06 47.5363 365.86V365.82C47.5363 362.84 49.6363 360.44 52.4963 360.44C55.5563 360.44 57.3163 362.88 57.3163 365.9C57.3163 366.1 57.3163 366.22 57.2963 366.4H49.0963C49.3163 368.64 50.8963 369.9 52.7363 369.9C54.1563 369.9 55.1563 369.32 55.9963 368.44L56.9563 369.3C55.9163 370.46 54.6563 371.24 52.6963 371.24ZM49.0963 365.26H55.7563C55.5963 363.38 54.5163 361.74 52.4563 361.74C50.6563 361.74 49.2963 363.24 49.0963 365.26ZM67.1122 374.2V368.92C66.2722 370.16 65.0522 371.22 63.1522 371.22C60.6722 371.22 58.2122 369.26 58.2122 365.86V365.82C58.2122 362.44 60.6722 360.44 63.1522 360.44C65.0722 360.44 66.3122 361.48 67.1122 362.64V360.66H68.6522V374.2H67.1122ZM63.4322 369.84C65.3522 369.84 67.1722 368.22 67.1722 365.84V365.8C67.1722 363.42 65.3522 361.82 63.4322 361.82C61.4322 361.82 59.7922 363.3 59.7922 365.8V365.84C59.7922 368.28 61.4922 369.84 63.4322 369.84ZM74.6934 371.22C72.1934 371.22 70.7334 369.54 70.7334 367.08V360.66H72.2734V366.7C72.2734 368.62 73.3134 369.82 75.1334 369.82C76.8934 369.82 78.2334 368.52 78.2334 366.58V360.66H79.7534V371H78.2334V369.2C77.5334 370.32 76.4734 371.22 74.6934 371.22ZM82.0577 358.4V356.7H83.8177V358.4H82.0577ZM82.1577 371V360.66H83.6977V371H82.1577ZM86.0716 371V360.66H87.6116V363.36C88.3716 361.64 89.8716 360.4 91.8316 360.48V362.14H91.7116C89.4516 362.14 87.6116 363.76 87.6116 366.88V371H86.0716ZM97.0478 371.24C94.2078 371.24 91.8878 369.06 91.8878 365.86V365.82C91.8878 362.84 93.9878 360.44 96.8478 360.44C99.9078 360.44 101.668 362.88 101.668 365.9C101.668 366.1 101.668 366.22 101.648 366.4H93.4478C93.6678 368.64 95.2478 369.9 97.0878 369.9C98.5078 369.9 99.5078 369.32 100.348 368.44L101.308 369.3C100.268 370.46 99.0078 371.24 97.0478 371.24ZM93.4478 365.26H100.108C99.9478 363.38 98.8678 361.74 96.8078 361.74C95.0078 361.74 93.6478 363.24 93.4478 365.26ZM103.164 371V360.66H104.704V362.4C105.384 361.38 106.304 360.44 108.044 360.44C109.724 360.44 110.804 361.34 111.364 362.5C112.104 361.36 113.204 360.44 115.004 360.44C117.384 360.44 118.844 362.04 118.844 364.6V371H117.304V364.96C117.304 362.96 116.304 361.84 114.624 361.84C113.064 361.84 111.784 363 111.784 365.04V371H110.244V364.92C110.244 362.98 109.224 361.84 107.584 361.84C105.944 361.84 104.704 363.2 104.704 365.1V371H103.164ZM125.507 371.24C122.667 371.24 120.347 369.06 120.347 365.86V365.82C120.347 362.84 122.447 360.44 125.307 360.44C128.367 360.44 130.127 362.88 130.127 365.9C130.127 366.1 130.127 366.22 130.107 366.4H121.907C122.127 368.64 123.707 369.9 125.547 369.9C126.967 369.9 127.967 369.32 128.807 368.44L129.767 369.3C128.727 370.46 127.467 371.24 125.507 371.24ZM121.907 365.26H128.567C128.407 363.38 127.327 361.74 125.267 361.74C123.467 361.74 122.107 363.24 121.907 365.26ZM131.623 371V360.66H133.163V362.46C133.843 361.34 134.923 360.44 136.703 360.44C139.203 360.44 140.663 362.12 140.663 364.58V371H139.123V364.96C139.123 363.04 138.083 361.84 136.263 361.84C134.483 361.84 133.163 363.14 133.163 365.08V371H131.623ZM146.207 371.18C144.547 371.18 143.287 370.36 143.287 368.26V362.02H141.847V360.66H143.287V357.54H144.827V360.66H148.107V362.02H144.827V368.06C144.827 369.32 145.527 369.78 146.567 369.78C147.087 369.78 147.527 369.68 148.067 369.42V370.74C147.527 371.02 146.947 371.18 146.207 371.18ZM153.053 371.2C151.573 371.2 149.933 370.62 148.773 369.68L149.553 368.58C150.673 369.42 151.913 369.9 153.133 369.9C154.373 369.9 155.273 369.26 155.273 368.26V368.22C155.273 367.18 154.053 366.78 152.693 366.4C151.073 365.94 149.273 365.38 149.273 363.48V363.44C149.273 361.66 150.753 360.48 152.793 360.48C154.053 360.48 155.453 360.92 156.513 361.62L155.813 362.78C154.853 362.16 153.753 361.78 152.753 361.78C151.533 361.78 150.753 362.42 150.753 363.28V363.32C150.753 364.3 152.033 364.68 153.413 365.1C155.013 365.58 156.733 366.2 156.733 368.06V368.1C156.733 370.06 155.113 371.2 153.053 371.2ZM157.834 373.44L157.594 372.74C158.594 372.38 159.014 371.86 158.934 371H158.214V368.9H160.054V370.7C160.054 372.32 159.354 373.1 157.834 373.44ZM177.232 371.24C174.392 371.24 172.072 369.06 172.072 365.86V365.82C172.072 362.84 174.172 360.44 177.032 360.44C180.092 360.44 181.852 362.88 181.852 365.9C181.852 366.1 181.852 366.22 181.832 366.4H173.632C173.852 368.64 175.432 369.9 177.272 369.9C178.692 369.9 179.692 369.32 180.532 368.44L181.492 369.3C180.452 370.46 179.192 371.24 177.232 371.24ZM173.632 365.26H180.292C180.132 363.38 179.052 361.74 176.992 361.74C175.192 361.74 173.832 363.24 173.632 365.26ZM183.348 371V360.66H184.888V362.46C185.568 361.34 186.648 360.44 188.428 360.44C190.928 360.44 192.388 362.12 192.388 364.58V371H190.848V364.96C190.848 363.04 189.808 361.84 187.988 361.84C186.208 361.84 184.888 363.14 184.888 365.08V371H183.348ZM197.892 371.2C196.412 371.2 194.772 370.62 193.612 369.68L194.392 368.58C195.512 369.42 196.752 369.9 197.972 369.9C199.212 369.9 200.112 369.26 200.112 368.26V368.22C200.112 367.18 198.892 366.78 197.532 366.4C195.912 365.94 194.112 365.38 194.112 363.48V363.44C194.112 361.66 195.592 360.48 197.632 360.48C198.892 360.48 200.292 360.92 201.352 361.62L200.652 362.78C199.692 362.16 198.592 361.78 197.592 361.78C196.372 361.78 195.592 362.42 195.592 363.28V363.32C195.592 364.3 196.872 364.68 198.252 365.1C199.852 365.58 201.572 366.2 201.572 368.06V368.1C201.572 370.06 199.952 371.2 197.892 371.2ZM207.033 371.22C204.533 371.22 203.073 369.54 203.073 367.08V360.66H204.613V366.7C204.613 368.62 205.653 369.82 207.473 369.82C209.233 369.82 210.573 368.52 210.573 366.58V360.66H212.093V371H210.573V369.2C209.873 370.32 208.813 371.22 207.033 371.22ZM214.357 371V360.66H215.897V363.36C216.657 361.64 218.157 360.4 220.117 360.48V362.14H219.997C217.737 362.14 215.897 363.76 215.897 366.88V371H214.357ZM221.303 358.4V356.7H223.063V358.4H221.303ZM221.403 371V360.66H222.943V371H221.403ZM225.316 371V360.66H226.856V362.46C227.536 361.34 228.616 360.44 230.396 360.44C232.896 360.44 234.356 362.12 234.356 364.58V371H232.816V364.96C232.816 363.04 231.776 361.84 229.956 361.84C228.176 361.84 226.856 363.14 226.856 365.08V371H225.316ZM241.021 374.24C239.301 374.24 237.701 373.76 236.321 372.8L237.021 371.6C238.201 372.46 239.521 372.92 241.001 372.92C243.281 372.92 244.761 371.66 244.761 369.24V368.02C243.861 369.22 242.601 370.2 240.701 370.2C238.221 370.2 235.841 368.34 235.841 365.36V365.32C235.841 362.3 238.241 360.44 240.701 360.44C242.641 360.44 243.901 361.4 244.741 362.52V360.66H246.281V369.2C246.281 370.8 245.801 372.02 244.961 372.86C244.041 373.78 242.661 374.24 241.021 374.24ZM241.001 368.84C242.961 368.84 244.801 367.42 244.801 365.34V365.3C244.801 363.18 242.961 361.8 241.001 361.8C239.041 361.8 237.421 363.16 237.421 365.28V365.32C237.421 367.4 239.081 368.84 241.001 368.84ZM262.557 371.2C261.077 371.2 259.437 370.62 258.277 369.68L259.057 368.58C260.177 369.42 261.417 369.9 262.637 369.9C263.877 369.9 264.777 369.26 264.777 368.26V368.22C264.777 367.18 263.557 366.78 262.197 366.4C260.577 365.94 258.777 365.38 258.777 363.48V363.44C258.777 361.66 260.257 360.48 262.297 360.48C263.557 360.48 264.957 360.92 266.017 361.62L265.317 362.78C264.357 362.16 263.257 361.78 262.257 361.78C261.037 361.78 260.257 362.42 260.257 363.28V363.32C260.257 364.3 261.537 364.68 262.917 365.1C264.517 365.58 266.237 366.2 266.237 368.06V368.1C266.237 370.06 264.617 371.2 262.557 371.2ZM272.418 371.24C269.578 371.24 267.258 369.06 267.258 365.86V365.82C267.258 362.84 269.358 360.44 272.218 360.44C275.278 360.44 277.038 362.88 277.038 365.9C277.038 366.1 277.038 366.22 277.018 366.4H268.818C269.038 368.64 270.618 369.9 272.458 369.9C273.878 369.9 274.878 369.32 275.718 368.44L276.678 369.3C275.638 370.46 274.378 371.24 272.418 371.24ZM268.818 365.26H275.478C275.318 363.38 274.238 361.74 272.178 361.74C270.378 361.74 269.018 363.24 268.818 365.26ZM283.194 371.24C280.174 371.24 277.894 368.78 277.894 365.88V365.84C277.894 362.92 280.174 360.44 283.194 360.44C285.154 360.44 286.374 361.26 287.334 362.28L286.314 363.36C285.494 362.5 284.574 361.8 283.174 361.8C281.074 361.8 279.474 363.58 279.474 365.8V365.84C279.474 368.08 281.114 369.86 283.274 369.86C284.594 369.86 285.614 369.2 286.434 368.32L287.414 369.24C286.374 370.4 285.134 371.24 283.194 371.24ZM292.56 371.22C290.06 371.22 288.6 369.54 288.6 367.08V360.66H290.14V366.7C290.14 368.62 291.18 369.82 293 369.82C294.76 369.82 296.1 368.52 296.1 366.58V360.66H297.62V371H296.1V369.2C295.4 370.32 294.34 371.22 292.56 371.22ZM299.884 371V360.66H301.424V363.36C302.184 361.64 303.684 360.4 305.644 360.48V362.14H305.524C303.264 362.14 301.424 363.76 301.424 366.88V371H299.884ZM306.83 358.4V356.7H308.59V358.4H306.83ZM306.93 371V360.66H308.47V371H306.93ZM314.303 371.18C312.643 371.18 311.383 370.36 311.383 368.26V362.02H309.943V360.66H311.383V357.54H312.923V360.66H316.203V362.02H312.923V368.06C312.923 369.32 313.623 369.78 314.663 369.78C315.183 369.78 315.623 369.68 316.163 369.42V370.74C315.623 371.02 315.043 371.18 314.303 371.18ZM322.149 369.28L325.469 360.66H327.109L322.769 371.34C321.889 373.48 320.889 374.26 319.329 374.26C318.469 374.26 317.829 374.08 317.129 373.74L317.649 372.52C318.149 372.78 318.609 372.9 319.269 372.9C320.189 372.9 320.769 372.42 321.389 370.96L316.689 360.66H318.389L322.149 369.28ZM326.087 373.44L325.847 372.74C326.847 372.38 327.267 371.86 327.187 371H326.467V368.9H328.307V370.7C328.307 372.32 327.607 373.1 326.087 373.44ZM344.384 371.2C342.904 371.2 341.264 370.62 340.104 369.68L340.884 368.58C342.004 369.42 343.244 369.9 344.464 369.9C345.704 369.9 346.604 369.26 346.604 368.26V368.22C346.604 367.18 345.384 366.78 344.024 366.4C342.404 365.94 340.604 365.38 340.604 363.48V363.44C340.604 361.66 342.084 360.48 344.124 360.48C345.384 360.48 346.784 360.92 347.844 361.62L347.144 362.78C346.184 362.16 345.084 361.78 344.084 361.78C342.864 361.78 342.084 362.42 342.084 363.28V363.32C342.084 364.3 343.364 364.68 344.744 365.1C346.344 365.58 348.064 366.2 348.064 368.06V368.1C348.064 370.06 346.444 371.2 344.384 371.2ZM354.385 371.24C351.365 371.24 349.085 368.78 349.085 365.88V365.84C349.085 362.92 351.365 360.44 354.385 360.44C356.345 360.44 357.565 361.26 358.525 362.28L357.505 363.36C356.685 362.5 355.765 361.8 354.365 361.8C352.265 361.8 350.665 363.58 350.665 365.8V365.84C350.665 368.08 352.305 369.86 354.465 369.86C355.785 369.86 356.805 369.2 357.625 368.32L358.605 369.24C357.565 370.4 356.325 371.24 354.385 371.24ZM363.031 371.22C361.111 371.22 359.171 370.12 359.171 368V367.96C359.171 365.78 360.971 364.62 363.591 364.62C364.911 364.62 365.851 364.8 366.771 365.06V364.7C366.771 362.84 365.631 361.88 363.691 361.88C362.471 361.88 361.511 362.2 360.551 362.64L360.091 361.38C361.231 360.86 362.351 360.52 363.851 360.52C365.311 360.52 366.431 360.9 367.191 361.66C367.891 362.36 368.251 363.36 368.251 364.68V371H366.771V369.44C366.051 370.38 364.851 371.22 363.031 371.22ZM363.331 370C365.231 370 366.791 368.84 366.791 367.2V366.2C366.031 365.98 365.011 365.76 363.751 365.76C361.811 365.76 360.731 366.6 360.731 367.9V367.94C360.731 369.24 361.931 370 363.331 370ZM370.473 371V356.4H372.013V371H370.473ZM377.467 371.22C375.547 371.22 373.607 370.12 373.607 368V367.96C373.607 365.78 375.407 364.62 378.027 364.62C379.347 364.62 380.287 364.8 381.207 365.06V364.7C381.207 362.84 380.067 361.88 378.127 361.88C376.907 361.88 375.947 362.2 374.987 362.64L374.527 361.38C375.667 360.86 376.787 360.52 378.287 360.52C379.747 360.52 380.867 360.9 381.627 361.66C382.327 362.36 382.687 363.36 382.687 364.68V371H381.207V369.44C380.487 370.38 379.287 371.22 377.467 371.22ZM377.767 370C379.667 370 381.227 368.84 381.227 367.2V366.2C380.467 365.98 379.447 365.76 378.187 365.76C376.247 365.76 375.167 366.6 375.167 367.9V367.94C375.167 369.24 376.367 370 377.767 370ZM390.269 371.22C388.349 371.22 387.109 370.18 386.309 369.02V371H384.769V356.4H386.309V362.74C387.149 361.5 388.369 360.44 390.269 360.44C392.749 360.44 395.209 362.4 395.209 365.8V365.84C395.209 369.22 392.769 371.22 390.269 371.22ZM389.989 369.84C391.989 369.84 393.629 368.36 393.629 365.86V365.82C393.629 363.38 391.949 361.82 389.989 361.82C388.069 361.82 386.249 363.44 386.249 365.8V365.84C386.249 368.24 388.069 369.84 389.989 369.84ZM396.89 358.4V356.7H398.65V358.4H396.89ZM396.99 371V360.66H398.53V371H396.99ZM401.044 371V356.4H402.584V371H401.044ZM404.998 358.4V356.7H406.758V358.4H404.998ZM405.098 371V360.66H406.638V371H405.098ZM412.472 371.18C410.812 371.18 409.552 370.36 409.552 368.26V362.02H408.112V360.66H409.552V357.54H411.092V360.66H414.372V362.02H411.092V368.06C411.092 369.32 411.792 369.78 412.832 369.78C413.352 369.78 413.792 369.68 414.332 369.42V370.74C413.792 371.02 413.212 371.18 412.472 371.18ZM420.318 369.28L423.638 360.66H425.278L420.938 371.34C420.058 373.48 419.058 374.26 417.498 374.26C416.638 374.26 415.998 374.08 415.298 373.74L415.818 372.52C416.318 372.78 416.778 372.9 417.438 372.9C418.358 372.9 418.938 372.42 419.558 370.96L414.858 360.66H416.558L420.318 369.28ZM424.255 373.44L424.015 372.74C425.015 372.38 425.435 371.86 425.355 371H424.635V368.9H426.475V370.7C426.475 372.32 425.775 373.1 424.255 373.44ZM442.212 371.22C440.292 371.22 438.352 370.12 438.352 368V367.96C438.352 365.78 440.152 364.62 442.772 364.62C444.092 364.62 445.032 364.8 445.952 365.06V364.7C445.952 362.84 444.812 361.88 442.872 361.88C441.652 361.88 440.692 362.2 439.732 362.64L439.272 361.38C440.412 360.86 441.532 360.52 443.032 360.52C444.492 360.52 445.612 360.9 446.372 361.66C447.072 362.36 447.432 363.36 447.432 364.68V371H445.952V369.44C445.232 370.38 444.032 371.22 442.212 371.22ZM442.512 370C444.412 370 445.972 368.84 445.972 367.2V366.2C445.212 365.98 444.192 365.76 442.932 365.76C440.992 365.76 439.912 366.6 439.912 367.9V367.94C439.912 369.24 441.112 370 442.512 370ZM449.515 371V360.66H451.055V362.46C451.735 361.34 452.815 360.44 454.595 360.44C457.095 360.44 458.555 362.12 458.555 364.58V371H457.015V364.96C457.015 363.04 455.975 361.84 454.155 361.84C452.375 361.84 451.055 363.14 451.055 365.08V371H449.515ZM464.979 371.22C462.499 371.22 460.039 369.26 460.039 365.86V365.82C460.039 362.44 462.499 360.44 464.979 360.44C466.899 360.44 468.139 361.48 468.939 362.64V356.4H470.479V371H468.939V368.92C468.099 370.16 466.879 371.22 464.979 371.22ZM465.259 369.84C467.179 369.84 468.999 368.22 468.999 365.84V365.8C468.999 363.42 467.179 361.82 465.259 361.82C463.259 361.82 461.619 363.3 461.619 365.8V365.84C461.619 368.28 463.319 369.84 465.259 369.84ZM46.06 395.22C43.58 395.22 41.12 393.26 41.12 389.86V389.82C41.12 386.44 43.58 384.44 46.06 384.44C47.98 384.44 49.22 385.48 50.02 386.64V380.4H51.56V395H50.02V392.92C49.18 394.16 47.96 395.22 46.06 395.22ZM46.34 393.84C48.26 393.84 50.08 392.22 50.08 389.84V389.8C50.08 387.42 48.26 385.82 46.34 385.82C44.34 385.82 42.7 387.3 42.7 389.8V389.84C42.7 392.28 44.4 393.84 46.34 393.84ZM58.3213 395.24C55.4813 395.24 53.1613 393.06 53.1613 389.86V389.82C53.1613 386.84 55.2613 384.44 58.1213 384.44C61.1813 384.44 62.9413 386.88 62.9413 389.9C62.9413 390.1 62.9413 390.22 62.9213 390.4H54.7213C54.9413 392.64 56.5213 393.9 58.3613 393.9C59.7813 393.9 60.7813 393.32 61.6213 392.44L62.5813 393.3C61.5413 394.46 60.2813 395.24 58.3213 395.24ZM54.7213 389.26H61.3813C61.2213 387.38 60.1413 385.74 58.0813 385.74C56.2813 385.74 54.9213 387.24 54.7213 389.26ZM68.7772 395.22C66.2972 395.22 63.8372 393.26 63.8372 389.86V389.82C63.8372 386.44 66.2972 384.44 68.7772 384.44C70.6972 384.44 71.9372 385.48 72.7372 386.64V380.4H74.2772V395H72.7372V392.92C71.8972 394.16 70.6772 395.22 68.7772 395.22ZM69.0572 393.84C70.9772 393.84 72.7972 392.22 72.7972 389.84V389.8C72.7972 387.42 70.9772 385.82 69.0572 385.82C67.0572 385.82 65.4172 387.3 65.4172 389.8V389.84C65.4172 392.28 67.1172 393.84 69.0572 393.84ZM76.5584 382.4V380.7H78.3184V382.4H76.5584ZM76.6584 395V384.66H78.1984V395H76.6584ZM85.2323 395.24C82.2123 395.24 79.9323 392.78 79.9323 389.88V389.84C79.9323 386.92 82.2123 384.44 85.2323 384.44C87.1923 384.44 88.4123 385.26 89.3723 386.28L88.3523 387.36C87.5323 386.5 86.6123 385.8 85.2123 385.8C83.1123 385.8 81.5123 387.58 81.5123 389.8V389.84C81.5123 392.08 83.1523 393.86 85.3123 393.86C86.6323 393.86 87.6523 393.2 88.4723 392.32L89.4523 393.24C88.4123 394.4 87.1723 395.24 85.2323 395.24ZM93.8781 395.22C91.9581 395.22 90.0181 394.12 90.0181 392V391.96C90.0181 389.78 91.8181 388.62 94.4381 388.62C95.7581 388.62 96.6981 388.8 97.6181 389.06V388.7C97.6181 386.84 96.4781 385.88 94.5381 385.88C93.3181 385.88 92.3581 386.2 91.3981 386.64L90.9381 385.38C92.0781 384.86 93.1981 384.52 94.6981 384.52C96.1581 384.52 97.2781 384.9 98.0381 385.66C98.7381 386.36 99.0981 387.36 99.0981 388.68V395H97.6181V393.44C96.8981 394.38 95.6981 395.22 93.8781 395.22ZM94.1781 394C96.0781 394 97.6381 392.84 97.6381 391.2V390.2C96.8781 389.98 95.8581 389.76 94.5981 389.76C92.6581 389.76 91.5781 390.6 91.5781 391.9V391.94C91.5781 393.24 92.7781 394 94.1781 394ZM104.542 395.18C102.882 395.18 101.622 394.36 101.622 392.26V386.02H100.182V384.66H101.622V381.54H103.162V384.66H106.442V386.02H103.162V392.06C103.162 393.32 103.862 393.78 104.902 393.78C105.422 393.78 105.862 393.68 106.402 393.42V394.74C105.862 395.02 105.282 395.18 104.542 395.18ZM112.195 395.24C109.355 395.24 107.035 393.06 107.035 389.86V389.82C107.035 386.84 109.135 384.44 111.995 384.44C115.055 384.44 116.815 386.88 116.815 389.9C116.815 390.1 116.815 390.22 116.795 390.4H108.595C108.815 392.64 110.395 393.9 112.235 393.9C113.655 393.9 114.655 393.32 115.495 392.44L116.455 393.3C115.415 394.46 114.155 395.24 112.195 395.24ZM108.595 389.26H115.255C115.095 387.38 114.015 385.74 111.955 385.74C110.155 385.74 108.795 387.24 108.595 389.26ZM122.651 395.22C120.171 395.22 117.711 393.26 117.711 389.86V389.82C117.711 386.44 120.171 384.44 122.651 384.44C124.571 384.44 125.811 385.48 126.611 386.64V380.4H128.151V395H126.611V392.92C125.771 394.16 124.551 395.22 122.651 395.22ZM122.931 393.84C124.851 393.84 126.671 392.22 126.671 389.84V389.8C126.671 387.42 124.851 385.82 122.931 385.82C120.931 385.82 119.291 387.3 119.291 389.8V389.84C119.291 392.28 120.991 393.84 122.931 393.84ZM138.609 395.2C137.129 395.2 135.489 394.62 134.329 393.68L135.109 392.58C136.229 393.42 137.469 393.9 138.689 393.9C139.929 393.9 140.829 393.26 140.829 392.26V392.22C140.829 391.18 139.609 390.78 138.249 390.4C136.629 389.94 134.829 389.38 134.829 387.48V387.44C134.829 385.66 136.309 384.48 138.349 384.48C139.609 384.48 141.009 384.92 142.069 385.62L141.369 386.78C140.409 386.16 139.309 385.78 138.309 385.78C137.089 385.78 136.309 386.42 136.309 387.28V387.32C136.309 388.3 137.589 388.68 138.969 389.1C140.569 389.58 142.289 390.2 142.289 392.06V392.1C142.289 394.06 140.669 395.2 138.609 395.2ZM147.75 395.22C145.25 395.22 143.79 393.54 143.79 391.08V384.66H145.33V390.7C145.33 392.62 146.37 393.82 148.19 393.82C149.95 393.82 151.29 392.52 151.29 390.58V384.66H152.81V395H151.29V393.2C150.59 394.32 149.53 395.22 147.75 395.22ZM155.074 398.2V384.66H156.614V386.74C157.454 385.5 158.674 384.44 160.574 384.44C163.054 384.44 165.514 386.4 165.514 389.8V389.84C165.514 393.22 163.074 395.22 160.574 395.22C158.654 395.22 157.414 394.18 156.614 393.02V398.2H155.074ZM160.294 393.84C162.294 393.84 163.934 392.36 163.934 389.86V389.82C163.934 387.38 162.254 385.82 160.294 385.82C158.374 385.82 156.554 387.44 156.554 389.8V389.84C156.554 392.24 158.374 393.84 160.294 393.84ZM167.155 398.2V384.66H168.695V386.74C169.535 385.5 170.755 384.44 172.655 384.44C175.135 384.44 177.595 386.4 177.595 389.8V389.84C177.595 393.22 175.155 395.22 172.655 395.22C170.735 395.22 169.495 394.18 168.695 393.02V398.2H167.155ZM172.375 393.84C174.375 393.84 176.015 392.36 176.015 389.86V389.82C176.015 387.38 174.335 385.82 172.375 385.82C170.455 385.82 168.635 387.44 168.635 389.8V389.84C168.635 392.24 170.455 393.84 172.375 393.84ZM183.956 395.24C180.856 395.24 178.596 392.8 178.596 389.88V389.84C178.596 386.92 180.876 384.44 183.996 384.44C187.096 384.44 189.376 386.88 189.376 389.8V389.84C189.376 392.76 187.076 395.24 183.956 395.24ZM183.996 393.86C186.236 393.86 187.796 392.06 187.796 389.88V389.84C187.796 387.62 186.136 385.8 183.956 385.8C181.716 385.8 180.176 387.62 180.176 389.8V389.84C180.176 392.06 181.816 393.86 183.996 393.86ZM190.966 395V384.66H192.506V387.36C193.266 385.64 194.766 384.4 196.726 384.48V386.14H196.606C194.346 386.14 192.506 387.76 192.506 390.88V395H190.966ZM201.332 395.18C199.672 395.18 198.412 394.36 198.412 392.26V386.02H196.972V384.66H198.412V381.54H199.952V384.66H203.232V386.02H199.952V392.06C199.952 393.32 200.652 393.78 201.692 393.78C202.212 393.78 202.652 393.68 203.192 393.42V394.74C202.652 395.02 202.072 395.18 201.332 395.18ZM204.578 395V392.9H206.418V395H204.578Z" fill="black"/>
<path d="M184.38 514.24C180.34 514.24 177.36 511.06 177.36 507.04V507C177.36 503.04 180.32 499.76 184.44 499.76C186.98 499.76 188.5 500.66 189.9 501.98L188.82 503.14C187.64 502.02 186.32 501.22 184.42 501.22C181.32 501.22 179 503.74 179 506.96V507C179 510.24 181.34 512.78 184.42 512.78C186.34 512.78 187.6 512.04 188.94 510.76L189.98 511.78C188.52 513.26 186.92 514.24 184.38 514.24ZM195.086 514.22C192.586 514.22 191.126 512.54 191.126 510.08V503.66H192.666V509.7C192.666 511.62 193.706 512.82 195.526 512.82C197.286 512.82 198.626 511.52 198.626 509.58V503.66H200.146V514H198.626V512.2C197.926 513.32 196.866 514.22 195.086 514.22ZM205.83 514.2C204.35 514.2 202.71 513.62 201.55 512.68L202.33 511.58C203.45 512.42 204.69 512.9 205.91 512.9C207.15 512.9 208.05 512.26 208.05 511.26V511.22C208.05 510.18 206.83 509.78 205.47 509.4C203.85 508.94 202.05 508.38 202.05 506.48V506.44C202.05 504.66 203.53 503.48 205.57 503.48C206.83 503.48 208.23 503.92 209.29 504.62L208.59 505.78C207.63 505.16 206.53 504.78 205.53 504.78C204.31 504.78 203.53 505.42 203.53 506.28V506.32C203.53 507.3 204.81 507.68 206.19 508.1C207.79 508.58 209.51 509.2 209.51 511.06V511.1C209.51 513.06 207.89 514.2 205.83 514.2ZM214.435 514.18C212.775 514.18 211.515 513.36 211.515 511.26V505.02H210.075V503.66H211.515V500.54H213.055V503.66H216.335V505.02H213.055V511.06C213.055 512.32 213.755 512.78 214.795 512.78C215.315 512.78 215.755 512.68 216.295 512.42V513.74C215.755 514.02 215.175 514.18 214.435 514.18ZM222.288 514.24C219.188 514.24 216.928 511.8 216.928 508.88V508.84C216.928 505.92 219.208 503.44 222.328 503.44C225.428 503.44 227.708 505.88 227.708 508.8V508.84C227.708 511.76 225.408 514.24 222.288 514.24ZM222.328 512.86C224.568 512.86 226.128 511.06 226.128 508.88V508.84C226.128 506.62 224.468 504.8 222.288 504.8C220.048 504.8 218.508 506.62 218.508 508.8V508.84C218.508 511.06 220.148 512.86 222.328 512.86ZM229.298 514V503.66H230.838V505.4C231.518 504.38 232.438 503.44 234.178 503.44C235.858 503.44 236.938 504.34 237.498 505.5C238.238 504.36 239.338 503.44 241.138 503.44C243.518 503.44 244.978 505.04 244.978 507.6V514H243.438V507.96C243.438 505.96 242.438 504.84 240.758 504.84C239.198 504.84 237.918 506 237.918 508.04V514H236.378V507.92C236.378 505.98 235.358 504.84 233.718 504.84C232.078 504.84 230.838 506.2 230.838 508.1V514H229.298ZM247.162 501.4V499.7H248.922V501.4H247.162ZM247.262 514V503.66H248.802V514H247.262ZM250.575 514V513.02L257.435 504.96H250.815V503.66H259.535V504.64L252.655 512.7H259.535V514H250.575ZM264.169 514.22C262.249 514.22 260.309 513.12 260.309 511V510.96C260.309 508.78 262.109 507.62 264.729 507.62C266.049 507.62 266.989 507.8 267.909 508.06V507.7C267.909 505.84 266.769 504.88 264.829 504.88C263.609 504.88 262.649 505.2 261.689 505.64L261.229 504.38C262.369 503.86 263.489 503.52 264.989 503.52C266.449 503.52 267.569 503.9 268.329 504.66C269.029 505.36 269.389 506.36 269.389 507.68V514H267.909V512.44C267.189 513.38 265.989 514.22 264.169 514.22ZM264.469 513C266.369 513 267.929 511.84 267.929 510.2V509.2C267.169 508.98 266.149 508.76 264.889 508.76C262.949 508.76 261.869 509.6 261.869 510.9V510.94C261.869 512.24 263.069 513 264.469 513ZM276.971 514.22C275.051 514.22 273.811 513.18 273.011 512.02V514H271.471V499.4H273.011V505.74C273.851 504.5 275.071 503.44 276.971 503.44C279.451 503.44 281.911 505.4 281.911 508.8V508.84C281.911 512.22 279.471 514.22 276.971 514.22ZM276.691 512.84C278.691 512.84 280.331 511.36 280.331 508.86V508.82C280.331 506.38 278.651 504.82 276.691 504.82C274.771 504.82 272.951 506.44 272.951 508.8V508.84C272.951 511.24 274.771 512.84 276.691 512.84ZM283.692 514V499.4H285.232V514H283.692ZM292.126 514.24C289.286 514.24 286.966 512.06 286.966 508.86V508.82C286.966 505.84 289.066 503.44 291.926 503.44C294.986 503.44 296.746 505.88 296.746 508.9C296.746 509.1 296.746 509.22 296.726 509.4H288.526C288.746 511.64 290.326 512.9 292.166 512.9C293.586 512.9 294.586 512.32 295.426 511.44L296.386 512.3C295.346 513.46 294.086 514.24 292.126 514.24ZM288.526 508.26H295.186C295.026 506.38 293.946 504.74 291.886 504.74C290.086 504.74 288.726 506.24 288.526 508.26ZM303.038 514V503.66H304.578V505.4C305.258 504.38 306.178 503.44 307.918 503.44C309.598 503.44 310.678 504.34 311.238 505.5C311.978 504.36 313.078 503.44 314.878 503.44C317.258 503.44 318.718 505.04 318.718 507.6V514H317.178V507.96C317.178 505.96 316.178 504.84 314.498 504.84C312.938 504.84 311.658 506 311.658 508.04V514H310.118V507.92C310.118 505.98 309.098 504.84 307.458 504.84C305.818 504.84 304.578 506.2 304.578 508.1V514H303.038ZM325.581 514.24C322.481 514.24 320.221 511.8 320.221 508.88V508.84C320.221 505.92 322.501 503.44 325.621 503.44C328.721 503.44 331.001 505.88 331.001 508.8V508.84C331.001 511.76 328.701 514.24 325.581 514.24ZM325.621 512.86C327.861 512.86 329.421 511.06 329.421 508.88V508.84C329.421 506.62 327.761 504.8 325.581 504.8C323.341 504.8 321.801 506.62 321.801 508.8V508.84C321.801 511.06 323.441 512.86 325.621 512.86ZM336.931 514.22C334.451 514.22 331.991 512.26 331.991 508.86V508.82C331.991 505.44 334.451 503.44 336.931 503.44C338.851 503.44 340.091 504.48 340.891 505.64V499.4H342.431V514H340.891V511.92C340.051 513.16 338.831 514.22 336.931 514.22ZM337.211 512.84C339.131 512.84 340.951 511.22 340.951 508.84V508.8C340.951 506.42 339.131 504.82 337.211 504.82C335.211 504.82 333.571 506.3 333.571 508.8V508.84C333.571 511.28 335.271 512.84 337.211 512.84ZM348.472 514.22C345.972 514.22 344.512 512.54 344.512 510.08V503.66H346.052V509.7C346.052 511.62 347.092 512.82 348.912 512.82C350.672 512.82 352.012 511.52 352.012 509.58V503.66H353.532V514H352.012V512.2C351.312 513.32 350.252 514.22 348.472 514.22ZM355.937 514V499.4H357.477V514H355.937ZM364.37 514.24C361.53 514.24 359.21 512.06 359.21 508.86V508.82C359.21 505.84 361.31 503.44 364.17 503.44C367.23 503.44 368.99 505.88 368.99 508.9C368.99 509.1 368.99 509.22 368.97 509.4H360.77C360.99 511.64 362.57 512.9 364.41 512.9C365.83 512.9 366.83 512.32 367.67 511.44L368.63 512.3C367.59 513.46 366.33 514.24 364.37 514.24ZM360.77 508.26H367.43C367.27 506.38 366.19 504.74 364.13 504.74C362.33 504.74 360.97 506.24 360.77 508.26ZM373.906 514.2C372.426 514.2 370.786 513.62 369.626 512.68L370.406 511.58C371.526 512.42 372.766 512.9 373.986 512.9C375.226 512.9 376.126 512.26 376.126 511.26V511.22C376.126 510.18 374.906 509.78 373.546 509.4C371.926 508.94 370.126 508.38 370.126 506.48V506.44C370.126 504.66 371.606 503.48 373.646 503.48C374.906 503.48 376.306 503.92 377.366 504.62L376.666 505.78C375.706 505.16 374.606 504.78 373.606 504.78C372.386 504.78 371.606 505.42 371.606 506.28V506.32C371.606 507.3 372.886 507.68 374.266 508.1C375.866 508.58 377.586 509.2 377.586 511.06V511.1C377.586 513.06 375.966 514.2 373.906 514.2Z" fill="#6C6C6C"/>
<path d="M136.152 511.74C135.767 511.353 134.858 511.601 134.322 511.472C133.787 511.343 133.303 510.836 133.146 510.316C132.961 509.706 132.979 507.461 133.052 506.762C133.146 505.859 133.775 505.162 134.684 505.063C135.203 505.007 135.957 505.246 136.269 504.717C136.35 504.58 136.888 503.273 136.928 503.111C137.108 502.395 136.656 502.314 136.274 501.858C135.595 501.048 135.441 500.199 136.141 499.325C136.478 498.904 138.244 497.124 138.644 496.899C139.306 496.526 140.03 496.586 140.632 497.034C141.177 497.438 141.341 498.113 142.173 497.896C142.566 497.575 143.595 497.423 143.904 497.096C144.251 496.728 144.045 495.979 144.108 495.501C144.201 494.799 144.894 494.139 145.601 494.063C146.382 493.979 148.285 493.979 149.066 494.063C149.79 494.141 150.464 494.776 150.559 495.501C150.625 496.006 150.403 496.743 150.793 497.132C151.118 497.454 152.497 497.731 152.93 498.108L156.461 494.664C158.754 492.738 162.653 496.404 161.036 498.839L157.436 502.545C157.869 503.158 158.04 504.057 158.373 504.673C158.69 505.258 159.373 505.007 159.922 505.056C160.87 505.142 161.527 505.806 161.621 506.755C161.695 507.498 161.703 509.275 161.605 510.001C161.51 510.703 160.905 511.412 160.184 511.511C159.563 511.597 158.794 511.285 158.411 511.936C158.28 512.158 157.831 513.223 157.755 513.479C157.525 514.258 158.164 514.444 158.556 514.949C159.081 515.626 159.126 516.488 158.593 517.181C158.3 517.561 156.301 519.553 155.955 519.74C155.224 520.134 154.477 519.942 153.863 519.443C153.456 519.111 153.216 518.534 152.611 518.66C152.493 518.684 151.181 519.256 151.026 519.341C150.328 519.724 150.637 520.433 150.564 521.077C150.467 521.933 149.691 522.507 148.867 522.578C148.146 522.64 145.743 522.659 145.148 522.429C144.596 522.215 144.161 521.591 144.103 521.01C144.044 520.425 144.31 519.69 143.695 519.352C143.425 519.203 142.441 518.798 142.14 518.709C141.428 518.498 141.304 519.026 140.838 519.413C140.17 519.968 139.461 520.155 138.659 519.726C138.237 519.5 136.087 517.34 135.871 516.918C135.535 516.26 135.595 515.599 136.043 515.017C136.405 514.547 137.178 514.224 136.942 513.514C136.617 513.131 136.45 512.04 136.152 511.74L136.152 511.74ZM152.096 498.861C151.069 498.352 149.701 498.254 149.516 496.877C149.43 496.244 149.764 495.208 148.869 495.126C148.14 495.06 146.445 495.045 145.733 495.128C144.92 495.223 145.224 496.195 145.168 496.761C145.116 497.281 144.83 497.824 144.391 498.116C144.162 498.268 142.664 498.881 142.37 498.96C141.718 499.135 141.157 498.977 140.638 498.561C140.23 498.235 139.963 497.603 139.354 497.742C138.931 497.837 137.327 499.806 136.85 500.168C136.502 500.885 137.216 501.17 137.572 501.626C137.832 501.958 138.046 502.394 138.046 502.824C138.046 503.188 137.426 504.76 137.232 505.147C136.987 505.638 136.545 506.024 135.991 506.104C135.235 506.213 134.232 505.8 134.11 506.887C134.039 507.518 134.041 509.116 134.118 509.744C134.237 510.722 135.055 510.385 135.741 510.452C136.346 510.512 136.883 510.817 137.185 511.34C137.346 511.618 137.957 513.093 138.01 513.38C138.102 513.881 138.031 514.358 137.736 514.777C137.371 515.295 136.607 515.547 136.788 516.333C136.888 516.762 138.85 518.355 139.214 518.837C139.877 519.18 140.233 518.391 140.673 518.047C140.971 517.814 141.424 517.584 141.807 517.578C142.184 517.572 143.935 518.26 144.304 518.476C144.756 518.742 145.081 519.244 145.15 519.761C145.251 520.504 144.859 521.412 145.931 521.512C146.576 521.572 148.242 521.591 148.858 521.504C149.775 521.373 149.421 520.316 149.503 519.683C149.542 519.384 149.749 518.96 149.961 518.742C150.253 518.441 151.83 517.788 152.282 517.665C152.843 517.512 153.219 517.565 153.716 517.857C154.347 518.229 154.777 519.301 155.562 518.748C156.312 518.219 157.1 517.042 157.852 516.441C158.244 515.752 157.378 515.336 157.027 514.879C156.805 514.592 156.63 514.179 156.624 513.812C156.617 513.451 157.313 511.673 157.523 511.315C157.801 510.84 158.339 510.537 158.876 510.47C159.512 510.389 160.451 510.716 160.557 509.819C160.625 509.246 160.637 507.308 160.552 506.758C160.412 505.848 159.295 506.2 158.674 506.105C157.289 505.89 157.294 504.247 156.593 503.324L155.628 504.353C157.702 508.662 156.014 513.934 151.874 516.258C146.374 519.345 139.434 516.125 138.327 509.93C137.026 502.655 144.322 496.936 151.063 499.902C151.175 499.902 151.939 499.159 152.03 499.027C152.069 498.97 152.123 498.961 152.096 498.86L152.096 498.861ZM157.675 495.212C157.181 495.297 156.654 495.899 156.365 496.286L159.315 499.122C160.031 498.493 160.654 497.907 160.256 496.863C160.132 496.539 159.135 495.538 158.82 495.367C158.468 495.176 158.07 495.144 157.675 495.212ZM155.536 497.066L145.04 507.43L147.933 510.321L158.487 499.95L155.536 497.066H155.536ZM146.487 500.213C138.769 500.864 136.411 511.38 143.191 515.326C149.69 519.109 157.415 512.789 155.023 505.693C154.984 505.574 154.877 505.156 154.729 505.19L148.227 511.613C146.691 511.904 144.906 512.634 143.386 512.833C142.859 512.902 142.493 512.843 142.508 512.227L143.807 507.193L150.23 500.759C149.094 500.222 147.731 500.108 146.487 500.213V500.213ZM146.833 510.851L144.503 508.52L143.77 511.584L146.834 510.851H146.833Z" fill="#6C6C6C"/>
<path d="M155.477 499.472C155.996 499.385 156.301 500.117 155.862 500.462L148.732 507.388C148.148 507.822 147.518 507.137 147.998 506.588L155.093 499.693C155.192 499.616 155.357 499.493 155.478 499.473L155.477 499.472Z" fill="#6C6C6C"/>
<defs>
<filter id="filter0_d_0_1" x="37" y="34" width="144" height="144" filterUnits="userSpaceOnUse" color-interpolation-filters="sRGB">
<feFlood flood-opacity="0" result="BackgroundImageFix"/>
<feColorMatrix in="SourceAlpha" type="matrix" values="0 0 0 0 0 0 0 0 0 0 0 0 0 0 0 0 0 0 127 0" result="hardAlpha"/>
<feOffset dx="1" dy="4"/>
<feGaussianBlur stdDeviation="2"/>
<feComposite in2="hardAlpha" operator="out"/>
<feColorMatrix type="matrix" values="0 0 0 0 0 0 0 0 0 0 0 0 0 0 0 0 0 0 0.25 0"/>
<feBlend mode="normal" in2="BackgroundImageFix" result="effect1_dropShadow_0_1"/>
<feBlend mode="normal" in="SourceGraphic" in2="effect1_dropShadow_0_1" result="shape"/>
</filter>
<linearGradient id="paint0_linear_0_1" x1="108" y1="34" x2="108" y2="170" gradientUnits="userSpaceOnUse">
<stop stop-color="#0154D6"/>
<stop offset="1" stop-color="#51C4F1"/>
</linearGradient>
</defs>
</svg>
