<svg width="590" height="697" viewBox="0 0 590 697" fill="none" xmlns="http://www.w3.org/2000/svg">
<rect width="590" height="697" rx="20" fill="url(#paint0_linear_508_4870)"/>
<path d="M240.977 61V33H253.537C256.737 33 259.257 33.88 260.857 35.48C262.097 36.72 262.737 38.24 262.737 40.12V40.2C262.737 43.56 260.817 45.36 258.737 46.44C262.017 47.56 264.297 49.44 264.297 53.24V53.32C264.297 58.32 260.177 61 253.937 61H240.977ZM257.817 41V40.92C257.817 38.72 256.057 37.36 252.897 37.36H245.817V44.8H252.537C255.697 44.8 257.817 43.56 257.817 41ZM259.377 52.72C259.377 50.36 257.497 48.96 253.617 48.96H245.817V56.64H253.977C257.337 56.64 259.377 55.32 259.377 52.8V52.72ZM276.565 61.48C270.445 61.48 265.725 57.04 265.725 50.52V50.44C265.725 44.4 270.005 39.44 276.045 39.44C282.765 39.44 286.165 44.72 286.165 50.8C286.165 51.24 286.125 51.68 286.085 52.16H270.565C271.085 55.6 273.525 57.52 276.645 57.52C279.005 57.52 280.685 56.64 282.365 55L285.205 57.52C283.205 59.92 280.445 61.48 276.565 61.48ZM270.525 48.96H281.365C281.045 45.84 279.205 43.4 276.005 43.4C273.045 43.4 270.965 45.68 270.525 48.96ZM295.865 61.4C292.865 61.4 289.545 60.32 286.905 58.24L289.065 54.96C291.385 56.68 293.825 57.56 295.985 57.56C298.065 57.56 299.265 56.68 299.265 55.28V55.2C299.265 53.56 297.025 53 294.545 52.24C291.425 51.36 287.945 50.08 287.945 46.04V45.96C287.945 41.96 291.265 39.52 295.465 39.52C298.105 39.52 300.985 40.44 303.225 41.92L301.305 45.36C299.265 44.12 297.105 43.36 295.345 43.36C293.465 43.36 292.385 44.24 292.385 45.44V45.52C292.385 47.08 294.665 47.72 297.145 48.52C300.225 49.48 303.705 50.88 303.705 54.68V54.76C303.705 59.2 300.265 61.4 295.865 61.4ZM312.954 61.36C309.394 61.36 306.874 59.8 306.874 55.16V44.04H304.194V39.88H306.874V34.08H311.714V39.88H317.394V44.04H311.714V54.4C311.714 56.28 312.674 57.04 314.314 57.04C315.394 57.04 316.354 56.8 317.314 56.32V60.28C316.114 60.96 314.794 61.36 312.954 61.36ZM330.071 61V33H340.511C349.311 33 355.391 39.04 355.391 46.92V47C355.391 54.88 349.311 61 340.511 61H330.071ZM340.511 37.48H334.991V56.52H340.511C346.391 56.52 350.231 52.56 350.231 47.08V47C350.231 41.52 346.391 37.48 340.511 37.48ZM368.08 61.48C361.96 61.48 357.24 57.04 357.24 50.52V50.44C357.24 44.4 361.52 39.44 367.56 39.44C374.28 39.44 377.68 44.72 377.68 50.8C377.68 51.24 377.64 51.68 377.6 52.16H362.08C362.6 55.6 365.04 57.52 368.16 57.52C370.52 57.52 372.2 56.64 373.88 55L376.72 57.52C374.72 59.92 371.96 61.48 368.08 61.48ZM362.04 48.96H372.88C372.56 45.84 370.72 43.4 367.52 43.4C364.56 43.4 362.48 45.68 362.04 48.96ZM386.221 61.44C382.261 61.44 378.741 59.16 378.741 54.92V54.84C378.741 50.28 382.301 48.04 387.461 48.04C389.821 48.04 391.501 48.4 393.141 48.92V48.4C393.141 45.4 391.301 43.8 387.901 43.8C385.541 43.8 383.781 44.32 381.861 45.12L380.581 41.32C382.901 40.28 385.181 39.6 388.541 39.6C391.701 39.6 394.061 40.44 395.541 41.96C397.101 43.48 397.821 45.72 397.821 48.48V61H393.101V58.36C391.661 60.08 389.461 61.44 386.221 61.44ZM387.581 57.92C390.781 57.92 393.221 56.08 393.221 53.4V51.96C391.981 51.48 390.341 51.12 388.421 51.12C385.301 51.12 383.461 52.44 383.461 54.64V54.72C383.461 56.76 385.261 57.92 387.581 57.92ZM401.497 61V31.8H406.337V61H401.497Z" fill="white"/>
<path d="M199.709 27.0201C200.354 26.9345 200.929 27.1212 201.38 27.592L208.492 38.2638C209.158 39.184 210.393 39.382 211.329 38.7322L219.953 32.3221C221.055 31.8912 222.095 32.6616 222.005 33.8232L219.262 51.2486L180.705 51.2005L178.005 33.8232C177.915 32.6622 178.955 31.8912 180.058 32.3221L188.681 38.7322C189.379 39.2244 190.303 39.2393 191.015 38.7697C193.758 35.2172 196.06 31.289 198.63 27.592C198.919 27.2936 199.292 27.0754 199.708 27.0201H199.709Z" fill="white"/>
<path d="M219.347 54.4971V59.0346C219.347 59.9513 218.223 60.9862 217.289 60.9179L182.542 60.9143C181.676 60.8804 180.663 59.8918 180.663 59.0346V54.4971H219.348H219.347Z" fill="white"/>
<rect x="13" y="95" width="566" height="584" rx="20" fill="white"/>
<rect x="411" y="116" width="150" height="41" rx="20.5" fill="#00FF08" fill-opacity="0.2"/>
<path d="M442.566 142.24C438.266 142.24 435.266 138.98 435.266 135.04V135C435.266 131.06 438.306 127.76 442.606 127.76C446.906 127.76 449.906 131.02 449.906 134.96V135C449.906 138.94 446.866 142.24 442.566 142.24ZM442.606 139.96C445.386 139.96 447.326 137.76 447.326 135.04V135C447.326 132.28 445.346 130.02 442.566 130.02C439.786 130.02 437.846 132.24 437.846 134.96V135C437.846 137.72 439.826 139.96 442.606 139.96ZM460.658 142V133.52H459.318V131.5H460.658V130.72C460.658 129.56 460.958 128.68 461.518 128.12C462.078 127.56 462.858 127.28 463.898 127.28C464.738 127.28 465.318 127.4 465.858 127.56V129.6C465.378 129.44 464.958 129.34 464.438 129.34C463.518 129.34 463.038 129.84 463.038 130.94V131.52H465.838V133.52H463.078V142H460.658ZM453.138 142V133.52H451.798V131.5H453.138V130.72C453.138 129.56 453.438 128.68 453.998 128.12C454.558 127.56 455.338 127.28 456.378 127.28C457.218 127.28 457.798 127.4 458.338 127.56V129.6C457.858 129.44 457.438 129.34 456.918 129.34C455.998 129.34 455.518 129.84 455.518 130.94V131.52H458.318V133.52H455.558V142H453.138ZM472.282 142.24C469.222 142.24 466.862 140.02 466.862 136.76V136.72C466.862 133.7 469.002 131.22 472.022 131.22C475.382 131.22 477.082 133.86 477.082 136.9C477.082 137.12 477.062 137.34 477.042 137.58H469.282C469.542 139.3 470.762 140.26 472.322 140.26C473.502 140.26 474.342 139.82 475.182 139L476.602 140.26C475.602 141.46 474.222 142.24 472.282 142.24ZM469.262 135.98H474.682C474.522 134.42 473.602 133.2 472.002 133.2C470.522 133.2 469.482 134.34 469.262 135.98ZM479.512 142V131.44H481.932V133.82C482.592 132.24 483.812 131.16 485.672 131.24V133.8H485.532C483.412 133.8 481.932 135.18 481.932 137.98V142H479.512ZM494.05 142V128H496.33L503.83 137.68V128H506.25V142H504.19L496.47 132.04V142H494.05ZM514.591 142.24C511.371 142.24 508.991 139.78 508.991 136.78V136.74C508.991 133.72 511.391 131.22 514.631 131.22C517.871 131.22 520.251 133.68 520.251 136.7V136.74C520.251 139.74 517.851 142.24 514.591 142.24ZM514.631 140.12C516.591 140.12 517.831 138.6 517.831 136.78V136.74C517.831 134.88 516.491 133.34 514.591 133.34C512.651 133.34 511.411 134.86 511.411 136.7V136.74C511.411 138.58 512.751 140.12 514.631 140.12ZM524.748 142.08L521.328 131.44H523.808L525.928 138.68L528.268 131.4H530.348L532.688 138.68L534.848 131.44H537.288L533.828 142.08H531.648L529.288 134.86L526.908 142.08H524.748Z" fill="#01CB08"/>
<g filter="url(#filter0_d_508_4870)">
<circle cx="121" cy="197" r="68" fill="url(#paint1_linear_508_4870)"/>
</g>
<path d="M151.669 166.325C153.196 167.853 153.057 169.971 152.922 171.978C152.158 183.34 146.598 194.729 139.125 203.125C140.134 205.917 141.44 209.043 141.103 212.08C140.699 215.717 135.27 221.691 132.734 224.373C131.847 225.31 128.977 228.399 128.006 228.768C126.349 229.398 124.717 228.679 123.918 227.147L120.727 217.456C117.657 218.773 115.004 221.439 111.733 218.805C107.428 215.338 103.538 209.971 99.254 206.329C96.4863 202.963 99.263 200.321 100.599 197.136L90.4909 193.894C89.1656 192.945 88.6348 191.433 89.2634 189.893C89.631 188.992 92.7822 186.045 93.6855 185.192C96.4436 182.587 102.389 177.173 106.162 176.872C109.142 176.634 112.127 177.874 114.868 178.869C123.276 171.376 134.634 165.846 146.015 165.071C147.972 164.938 150.175 164.832 151.668 166.325H151.669ZM147.663 168.867C128.539 169.573 112.921 182.837 104.064 198.924C103.51 199.929 102.358 201.81 102.045 202.808C101.974 203.035 101.869 203.229 101.963 203.479L114.421 215.986C114.696 216.147 114.921 216.031 115.186 215.949C116.628 215.5 119.612 213.649 121.033 212.808C133.602 205.362 143.888 194.134 147.653 179.724C148.374 176.966 149.258 172.64 149.18 169.834C149.149 168.734 148.517 168.837 147.664 168.868L147.663 168.867ZM93.4879 190.963L102.61 193.723C105.313 189.534 108.247 185.483 111.732 181.908C110.2 181.227 107.857 180.46 106.184 180.784C102.923 181.414 96.3975 188.028 93.8935 190.503C93.6952 190.699 93.3957 190.613 93.4879 190.963ZM127.295 224.504C128.12 223.262 129.418 222.262 130.453 221.153C132.095 219.392 136.916 213.994 137.214 211.815C137.458 210.034 136.823 207.874 136.086 206.261C132.511 209.747 128.46 212.681 124.271 215.383L127.03 224.423L127.295 224.505V224.504Z" fill="white"/>
<path d="M95.6361 222.358C98.4665 222.021 101.154 221.335 103.775 220.236C105.139 219.663 106.797 218.132 108.048 219.807C109.685 221.999 106.594 223.22 105.022 223.898C101.835 225.271 97.4317 226.303 93.9604 226.393C92.7562 226.424 91.7076 225.672 91.6085 224.438C91.5679 223.932 91.6945 222.856 91.7455 222.293C92.0223 219.232 92.9001 215.689 94.1366 212.878C94.7865 211.399 95.8723 208.604 97.966 209.766C99.9929 210.89 98.3316 212.854 97.7594 214.219C96.6599 216.841 95.9735 219.528 95.6368 222.358H95.6361Z" fill="white"/>
<path d="M131.698 177.319C142.949 176.16 143.801 192.476 133.535 193.377C122.864 194.314 121.354 178.384 131.698 177.319ZM132.095 181.071C126.834 181.756 127.521 190.114 133.254 189.473C138.72 188.862 137.783 180.33 132.095 181.071Z" fill="white"/>
<path d="M56.6 339V311H67.64C74.2 311 78.28 314.72 78.28 320.36V320.44C78.28 326.72 73.24 330 67.08 330H61.52V339H56.6ZM61.52 325.56H67.24C70.96 325.56 73.28 323.48 73.28 320.56V320.48C73.28 317.2 70.92 315.48 67.24 315.48H61.52V325.56ZM80.9188 339V311H93.3988C96.9188 311 99.6788 312.04 101.479 313.8C102.959 315.32 103.799 317.4 103.799 319.84V319.92C103.799 324.52 101.039 327.28 97.1588 328.4L104.719 339H98.8788L91.9988 329.24H85.8388V339H80.9188ZM85.8388 324.88H93.0388C96.5588 324.88 98.7988 323.04 98.7988 320.2V320.12C98.7988 317.12 96.6388 315.48 92.9988 315.48H85.8388V324.88ZM120.785 339.48C112.185 339.48 106.185 332.96 106.185 325.08V325C106.185 317.12 112.265 310.52 120.865 310.52C129.465 310.52 135.465 317.04 135.465 324.92V325C135.465 332.88 129.385 339.48 120.785 339.48ZM120.865 334.92C126.425 334.92 130.305 330.52 130.305 325.08V325C130.305 319.56 126.345 315.04 120.785 315.04C115.225 315.04 111.345 319.48 111.345 324.92V325C111.345 330.44 115.305 334.92 120.865 334.92ZM139.009 339V311H159.849V315.48H143.929V323.12H158.049V327.6H143.929V339H139.009ZM162.859 339V311H183.619V315.4H167.779V322.68H181.819V327.08H167.779V334.6H183.819V339H162.859ZM197.056 339.4C192.776 339.4 188.736 337.92 185.376 334.92L188.336 331.4C191.016 333.72 193.736 335.04 197.176 335.04C200.216 335.04 202.136 333.6 202.136 331.52V331.44C202.136 329.44 201.016 328.36 195.816 327.16C189.856 325.72 186.496 323.96 186.496 318.8V318.72C186.496 313.92 190.496 310.6 196.056 310.6C200.136 310.6 203.376 311.84 206.216 314.12L203.576 317.84C201.056 315.96 198.536 314.96 195.976 314.96C193.096 314.96 191.416 316.44 191.416 318.28V318.36C191.416 320.52 192.696 321.48 198.096 322.76C204.016 324.2 207.056 326.32 207.056 330.96V331.04C207.056 336.28 202.936 339.4 197.056 339.4ZM219.852 339.4C215.572 339.4 211.532 337.92 208.172 334.92L211.132 331.4C213.812 333.72 216.532 335.04 219.972 335.04C223.012 335.04 224.932 333.6 224.932 331.52V331.44C224.932 329.44 223.812 328.36 218.612 327.16C212.652 325.72 209.292 323.96 209.292 318.8V318.72C209.292 313.92 213.292 310.6 218.852 310.6C222.932 310.6 226.172 311.84 229.012 314.12L226.372 317.84C223.852 315.96 221.332 314.96 218.772 314.96C215.892 314.96 214.212 316.44 214.212 318.28V318.36C214.212 320.52 215.492 321.48 220.892 322.76C226.812 324.2 229.852 326.32 229.852 330.96V331.04C229.852 336.28 225.732 339.4 219.852 339.4ZM233.517 339V311H238.437V339H233.517ZM256.893 339.48C248.293 339.48 242.293 332.96 242.293 325.08V325C242.293 317.12 248.373 310.52 256.973 310.52C265.573 310.52 271.573 317.04 271.573 324.92V325C271.573 332.88 265.493 339.48 256.893 339.48ZM256.973 334.92C262.533 334.92 266.413 330.52 266.413 325.08V325C266.413 319.56 262.453 315.04 256.893 315.04C251.333 315.04 247.453 319.48 247.453 324.92V325C247.453 330.44 251.413 334.92 256.973 334.92ZM275.117 339V311H279.677L294.677 330.36V311H299.517V339H295.397L279.957 319.08V339H275.117ZM301.919 339L314.239 310.8H318.799L331.119 339H325.919L323.079 332.24H309.839L306.959 339H301.919ZM311.639 327.88H321.279L316.439 316.68L311.639 327.88ZM333.52 339V311H338.44V334.52H353.16V339H333.52Z" fill="#055AD8"/>
<path d="M53.6 380L57.36 366H61.74C63.5 366 64.84 366.42 65.74 367.3C66.38 367.96 66.74 368.82 66.74 369.9C66.74 371.24 66.26 372.34 65.42 373.18C64.24 374.38 62.26 375.02 59.84 375.02H56.52L55.18 380H53.6ZM64.46 368.34C63.88 367.76 62.94 367.46 61.68 367.46H58.54L56.9 373.62H59.92C61.88 373.62 63.36 373.14 64.22 372.28C64.8 371.7 65.1 370.94 65.1 370C65.1 369.32 64.9 368.78 64.46 368.34ZM72.1022 369.44C74.9422 369.44 76.8222 371.38 76.8222 374.06C76.8222 375.7 76.1022 377.26 74.9622 378.42C73.8622 379.52 72.3422 380.24 70.7222 380.24C67.8822 380.24 66.0222 378.28 66.0222 375.6C66.0222 373.96 66.7222 372.4 67.8822 371.26C68.9822 370.16 70.4822 369.44 72.1022 369.44ZM70.8222 378.86C71.9422 378.86 72.9822 378.36 73.7622 377.58C74.6822 376.66 75.2422 375.38 75.2422 374.12C75.2422 372.02 73.9222 370.8 72.0022 370.8C70.8822 370.8 69.8422 371.32 69.0622 372.1C68.1622 373 67.5822 374.28 67.5822 375.56C67.5822 377.66 68.9022 378.86 70.8222 378.86ZM78.8478 380.08L78.0278 369.66H79.5878L80.1278 377.9L85.1278 369.62H86.4078L86.9878 377.9L91.9678 369.66H93.5678L87.1278 380.08H85.7678L85.1678 371.92L80.1878 380.08H78.8478ZM102.188 375.36H94.088C94.068 375.5 94.068 375.64 94.068 375.78C94.068 377.66 95.268 378.9 97.188 378.9C98.528 378.9 99.428 378.44 100.368 377.68L101.168 378.7C100.148 379.56 98.928 380.24 97.108 380.24C94.368 380.24 92.528 378.46 92.528 375.84C92.528 374.12 93.268 372.4 94.488 371.18C95.548 370.12 96.948 369.44 98.548 369.44C101.168 369.44 102.548 371.24 102.548 373.4C102.548 374.1 102.408 374.76 102.188 375.36ZM95.588 371.98C94.988 372.58 94.548 373.36 94.288 374.2H100.948C101.008 374.02 101.048 373.76 101.048 373.4C101.048 371.98 100.248 370.74 98.468 370.74C97.328 370.74 96.348 371.24 95.588 371.98ZM102.485 380L105.245 369.66H106.785L106.085 372.36C107.345 370.56 108.945 369.36 111.005 369.48L110.565 371.14H110.465C108.205 371.14 105.945 372.8 105.125 375.92L104.025 380H102.485ZM118.228 380.22C116.248 380.22 114.948 378.98 114.948 377.02C114.948 376.54 115.068 375.96 115.208 375.42L116.728 369.66H118.268L116.688 375.52C116.608 375.86 116.548 376.34 116.548 376.68C116.548 378.04 117.428 378.84 118.848 378.84C120.448 378.84 122.068 377.46 122.588 375.48L124.148 369.66H125.688L122.928 380H121.388L121.848 378.32C120.908 379.38 119.808 380.22 118.228 380.22ZM131.234 380.24C129.114 380.24 127.934 379.04 127.354 377.68L125.874 383.2H124.334L127.954 369.66H129.494L129.014 371.44C130.014 370.3 131.274 369.44 132.934 369.44C135.274 369.44 137.034 371.18 137.034 373.82C137.034 375.72 136.274 377.4 135.114 378.56C134.054 379.62 132.674 380.24 131.234 380.24ZM131.094 378.88C132.194 378.88 133.194 378.4 133.934 377.68C134.854 376.74 135.414 375.4 135.414 373.96C135.414 372.04 134.234 370.8 132.494 370.8C131.394 370.8 130.274 371.32 129.434 372.18C128.514 373.1 127.894 374.34 127.894 375.66C127.894 377.46 129.194 378.88 131.094 378.88ZM145.254 379.98L143.374 369.66H144.974L146.414 378.28L151.974 369.66H153.714L146.634 380.34C145.174 382.48 143.934 383.26 142.394 383.26C141.514 383.26 140.794 383 140.134 382.54L140.974 381.38C141.354 381.68 142.054 381.9 142.554 381.9C143.434 381.9 144.214 381.44 145.254 379.98ZM158.587 369.44C161.427 369.44 163.307 371.38 163.307 374.06C163.307 375.7 162.587 377.26 161.447 378.42C160.347 379.52 158.827 380.24 157.207 380.24C154.367 380.24 152.507 378.28 152.507 375.6C152.507 373.96 153.207 372.4 154.367 371.26C155.467 370.16 156.967 369.44 158.587 369.44ZM157.307 378.86C158.427 378.86 159.467 378.36 160.247 377.58C161.167 376.66 161.727 375.38 161.727 374.12C161.727 372.02 160.407 370.8 158.487 370.8C157.367 370.8 156.327 371.32 155.547 372.1C154.647 373 154.067 374.28 154.067 375.56C154.067 377.66 155.387 378.86 157.307 378.86ZM167.521 380.22C165.541 380.22 164.241 378.98 164.241 377.02C164.241 376.54 164.361 375.96 164.501 375.42L166.021 369.66H167.561L165.981 375.52C165.901 375.86 165.841 376.34 165.841 376.68C165.841 378.04 166.721 378.84 168.141 378.84C169.741 378.84 171.361 377.46 171.881 375.48L173.441 369.66H174.981L172.221 380H170.681L171.141 378.32C170.201 379.38 169.101 380.22 167.521 380.22ZM174.487 380L177.247 369.66H178.787L178.087 372.36C179.347 370.56 180.947 369.36 183.007 369.48L182.567 371.14H182.467C180.207 371.14 177.947 372.8 177.127 375.92L176.027 380H174.487ZM192.85 369.44C195.69 369.44 197.57 371.38 197.57 374.06C197.57 375.7 196.85 377.26 195.71 378.42C194.61 379.52 193.09 380.24 191.47 380.24C188.63 380.24 186.77 378.28 186.77 375.6C186.77 373.96 187.47 372.4 188.63 371.26C189.73 370.16 191.23 369.44 192.85 369.44ZM191.57 378.86C192.69 378.86 193.73 378.36 194.51 377.58C195.43 376.66 195.99 375.38 195.99 374.12C195.99 372.02 194.67 370.8 192.75 370.8C191.63 370.8 190.59 371.32 189.81 372.1C188.91 373 188.33 374.28 188.33 375.56C188.33 377.66 189.65 378.86 191.57 378.86ZM203.724 380.24C201.604 380.24 200.424 379.04 199.844 377.68L198.364 383.2H196.824L200.444 369.66H201.984L201.504 371.44C202.504 370.3 203.764 369.44 205.424 369.44C207.764 369.44 209.524 371.18 209.524 373.82C209.524 375.72 208.764 377.4 207.604 378.56C206.544 379.62 205.164 380.24 203.724 380.24ZM203.584 378.88C204.684 378.88 205.684 378.4 206.424 377.68C207.344 376.74 207.904 375.4 207.904 373.96C207.904 372.04 206.724 370.8 204.984 370.8C203.884 370.8 202.764 371.32 201.924 372.18C201.004 373.1 200.384 374.34 200.384 375.66C200.384 377.46 201.684 378.88 203.584 378.88ZM219.947 375.36H211.847C211.827 375.5 211.827 375.64 211.827 375.78C211.827 377.66 213.027 378.9 214.947 378.9C216.287 378.9 217.187 378.44 218.127 377.68L218.927 378.7C217.907 379.56 216.687 380.24 214.867 380.24C212.127 380.24 210.287 378.46 210.287 375.84C210.287 374.12 211.027 372.4 212.247 371.18C213.307 370.12 214.707 369.44 216.307 369.44C218.927 369.44 220.307 371.24 220.307 373.4C220.307 374.1 220.167 374.76 219.947 375.36ZM213.347 371.98C212.747 372.58 212.307 373.36 212.047 374.2H218.707C218.767 374.02 218.807 373.76 218.807 373.4C218.807 371.98 218.007 370.74 216.227 370.74C215.087 370.74 214.107 371.24 213.347 371.98ZM220.245 380L223.005 369.66H224.545L223.845 372.36C225.105 370.56 226.705 369.36 228.765 369.48L228.325 371.14H228.225C225.965 371.14 223.705 372.8 222.885 375.92L221.785 380H220.245ZM230.119 380.22C228.379 380.22 226.839 379.2 226.839 377.36C226.839 376.36 227.199 375.52 227.819 374.9C228.639 374.08 229.919 373.62 231.439 373.62C232.819 373.62 234.119 373.9 235.119 374.18L235.179 373.94C235.259 373.64 235.319 373.26 235.319 372.98C235.319 371.64 234.399 370.88 232.519 370.88C231.419 370.88 230.519 371.1 229.599 371.42L229.339 370.14C230.359 369.76 231.419 369.52 232.759 369.52C235.359 369.52 236.819 370.72 236.819 372.72C236.819 373.16 236.739 373.66 236.599 374.14L235.039 380H233.539L233.979 378.38C233.019 379.48 231.759 380.22 230.119 380.22ZM230.599 379.02C232.339 379.02 234.159 377.76 234.659 375.94L234.859 375.22C233.959 374.96 232.779 374.76 231.499 374.76C230.439 374.76 229.599 375.08 229.059 375.62C228.619 376.04 228.399 376.58 228.399 377.18C228.399 378.28 229.259 379.02 230.599 379.02ZM240.627 380.18C239.147 380.18 238.107 379.48 238.107 378.14C238.107 377.78 238.167 377.38 238.247 377.06L239.867 371.02H238.447L238.807 369.66H240.247L241.087 366.54H242.607L241.767 369.66H245.027L244.667 371.02H241.407L239.807 376.98C239.767 377.22 239.727 377.52 239.727 377.74C239.727 378.46 240.267 378.8 241.147 378.8C241.607 378.8 242.107 378.7 242.647 378.48L242.267 379.88C241.727 380.1 241.227 380.18 240.627 380.18ZM243.894 380L246.674 369.66H248.214L245.434 380H243.894ZM247.174 367.4L247.634 365.7H249.394L248.934 367.4H247.174ZM254.548 369.44C257.388 369.44 259.268 371.38 259.268 374.06C259.268 375.7 258.548 377.26 257.408 378.42C256.308 379.52 254.788 380.24 253.168 380.24C250.328 380.24 248.468 378.28 248.468 375.6C248.468 373.96 249.168 372.4 250.328 371.26C251.428 370.16 252.928 369.44 254.548 369.44ZM253.268 378.86C254.388 378.86 255.428 378.36 256.208 377.58C257.128 376.66 257.688 375.38 257.688 374.12C257.688 372.02 256.368 370.8 254.448 370.8C253.328 370.8 252.288 371.32 251.508 372.1C250.608 373 250.028 374.28 250.028 375.56C250.028 377.66 251.348 378.86 253.268 378.86ZM259.381 380L262.141 369.66H263.681L263.241 371.34C264.181 370.28 265.261 369.44 266.841 369.44C268.841 369.44 270.141 370.68 270.141 372.64C270.141 373.12 270.021 373.7 269.881 374.24L268.361 380H266.821L268.381 374.14C268.481 373.8 268.541 373.32 268.541 372.98C268.541 371.62 267.661 370.82 266.221 370.82C264.621 370.82 263.021 372.2 262.481 374.16L260.921 380H259.381ZM274.447 380.22C272.847 380.22 271.187 379.62 269.987 378.42L270.987 377.42C272.107 378.5 273.347 378.94 274.587 378.94C275.767 378.94 276.867 378.26 276.867 377.22C276.867 376.54 276.407 376.04 274.907 375.46C273.047 374.74 271.987 374.06 271.987 372.62C271.987 370.86 273.507 369.44 275.907 369.44C277.427 369.44 278.867 370.12 279.727 370.86L278.827 371.92C277.967 371.22 276.887 370.72 275.767 370.72C274.307 370.72 273.527 371.5 273.527 372.36C273.527 373.04 273.947 373.48 275.587 374.12C277.447 374.88 278.407 375.62 278.407 376.96C278.407 378.88 276.647 380.22 274.447 380.22Z" fill="#6C6C6C"/>
<path d="M54.98 418V404H59.84C64.24 404 67.28 407.02 67.28 410.96V411C67.28 414.94 64.24 418 59.84 418H54.98ZM59.84 405.46H56.56V416.54H59.84C63.38 416.54 65.64 414.14 65.64 411.04V411C65.64 407.9 63.38 405.46 59.84 405.46ZM73.6845 418.24C70.8445 418.24 68.5245 416.06 68.5245 412.86V412.82C68.5245 409.84 70.6245 407.44 73.4845 407.44C76.5445 407.44 78.3045 409.88 78.3045 412.9C78.3045 413.1 78.3045 413.22 78.2845 413.4H70.0845C70.3045 415.64 71.8845 416.9 73.7245 416.9C75.1445 416.9 76.1445 416.32 76.9845 415.44L77.9445 416.3C76.9045 417.46 75.6445 418.24 73.6845 418.24ZM70.0845 412.26H76.7445C76.5845 410.38 75.5045 408.74 73.4445 408.74C71.6445 408.74 70.2845 410.24 70.0845 412.26ZM83.2205 418.2C81.7405 418.2 80.1005 417.62 78.9405 416.68L79.7205 415.58C80.8405 416.42 82.0805 416.9 83.3005 416.9C84.5405 416.9 85.4405 416.26 85.4405 415.26V415.22C85.4405 414.18 84.2205 413.78 82.8605 413.4C81.2405 412.94 79.4405 412.38 79.4405 410.48V410.44C79.4405 408.66 80.9205 407.48 82.9605 407.48C84.2205 407.48 85.6205 407.92 86.6805 408.62L85.9805 409.78C85.0205 409.16 83.9205 408.78 82.9205 408.78C81.7005 408.78 80.9205 409.42 80.9205 410.28V410.32C80.9205 411.3 82.2005 411.68 83.5805 412.1C85.1805 412.58 86.9005 413.2 86.9005 415.06V415.1C86.9005 417.06 85.2805 418.2 83.2205 418.2ZM88.6014 405.4V403.7H90.3614V405.4H88.6014ZM88.7014 418V407.66H90.2414V418H88.7014ZM97.1953 421.24C95.4753 421.24 93.8753 420.76 92.4953 419.8L93.1953 418.6C94.3753 419.46 95.6953 419.92 97.1753 419.92C99.4553 419.92 100.935 418.66 100.935 416.24V415.02C100.035 416.22 98.7753 417.2 96.8753 417.2C94.3953 417.2 92.0153 415.34 92.0153 412.36V412.32C92.0153 409.3 94.4153 407.44 96.8753 407.44C98.8153 407.44 100.075 408.4 100.915 409.52V407.66H102.455V416.2C102.455 417.8 101.975 419.02 101.135 419.86C100.215 420.78 98.8353 421.24 97.1953 421.24ZM97.1753 415.84C99.1353 415.84 100.975 414.42 100.975 412.34V412.3C100.975 410.18 99.1353 408.8 97.1753 408.8C95.2153 408.8 93.5953 410.16 93.5953 412.28V412.32C93.5953 414.4 95.2553 415.84 97.1753 415.84ZM104.697 418V407.66H106.237V409.46C106.917 408.34 107.997 407.44 109.777 407.44C112.277 407.44 113.737 409.12 113.737 411.58V418H112.197V411.96C112.197 410.04 111.157 408.84 109.337 408.84C107.557 408.84 106.237 410.14 106.237 412.08V418H104.697ZM120.341 418.24C117.501 418.24 115.181 416.06 115.181 412.86V412.82C115.181 409.84 117.281 407.44 120.141 407.44C123.201 407.44 124.961 409.88 124.961 412.9C124.961 413.1 124.961 413.22 124.941 413.4H116.741C116.961 415.64 118.541 416.9 120.381 416.9C121.801 416.9 122.801 416.32 123.641 415.44L124.601 416.3C123.561 417.46 122.301 418.24 120.341 418.24ZM116.741 412.26H123.401C123.241 410.38 122.161 408.74 120.101 408.74C118.301 408.74 116.941 410.24 116.741 412.26ZM130.797 418.22C128.317 418.22 125.857 416.26 125.857 412.86V412.82C125.857 409.44 128.317 407.44 130.797 407.44C132.717 407.44 133.957 408.48 134.757 409.64V403.4H136.297V418H134.757V415.92C133.917 417.16 132.697 418.22 130.797 418.22ZM131.077 416.84C132.997 416.84 134.817 415.22 134.817 412.84V412.8C134.817 410.42 132.997 408.82 131.077 408.82C129.077 408.82 127.437 410.3 127.437 412.8V412.84C127.437 415.28 129.137 416.84 131.077 416.84ZM152.909 418V409.02H151.489V407.68H152.909V406.78C152.909 405.6 153.229 404.7 153.809 404.12C154.329 403.6 155.089 403.32 156.029 403.32C156.749 403.32 157.229 403.4 157.729 403.58V404.92C157.169 404.76 156.749 404.66 156.229 404.66C155.029 404.66 154.429 405.38 154.429 406.86V407.7H157.709V409.02H154.449V418H152.909ZM162.997 418.24C159.897 418.24 157.637 415.8 157.637 412.88V412.84C157.637 409.92 159.917 407.44 163.037 407.44C166.137 407.44 168.417 409.88 168.417 412.8V412.84C168.417 415.76 166.117 418.24 162.997 418.24ZM163.037 416.86C165.277 416.86 166.837 415.06 166.837 412.88V412.84C166.837 410.62 165.177 408.8 162.997 408.8C160.757 408.8 159.217 410.62 159.217 412.8V412.84C159.217 415.06 160.857 416.86 163.037 416.86ZM170.007 418V407.66H171.547V410.36C172.307 408.64 173.807 407.4 175.767 407.48V409.14H175.647C173.387 409.14 171.547 410.76 171.547 413.88V418H170.007ZM195.284 421.24C193.564 421.24 191.964 420.76 190.584 419.8L191.284 418.6C192.464 419.46 193.784 419.92 195.264 419.92C197.544 419.92 199.024 418.66 199.024 416.24V415.02C198.124 416.22 196.864 417.2 194.964 417.2C192.484 417.2 190.104 415.34 190.104 412.36V412.32C190.104 409.3 192.504 407.44 194.964 407.44C196.904 407.44 198.164 408.4 199.004 409.52V407.66H200.544V416.2C200.544 417.8 200.064 419.02 199.224 419.86C198.304 420.78 196.924 421.24 195.284 421.24ZM195.264 415.84C197.224 415.84 199.064 414.42 199.064 412.34V412.3C199.064 410.18 197.224 408.8 195.264 408.8C193.304 408.8 191.684 410.16 191.684 412.28V412.32C191.684 414.4 193.344 415.84 195.264 415.84ZM202.785 418V407.66H204.325V410.36C205.085 408.64 206.585 407.4 208.545 407.48V409.14H208.425C206.165 409.14 204.325 410.76 204.325 413.88V418H202.785ZM213.961 418.24C210.861 418.24 208.601 415.8 208.601 412.88V412.84C208.601 409.92 210.881 407.44 214.001 407.44C217.101 407.44 219.381 409.88 219.381 412.8V412.84C219.381 415.76 217.081 418.24 213.961 418.24ZM214.001 416.86C216.241 416.86 217.801 415.06 217.801 412.88V412.84C217.801 410.62 216.141 408.8 213.961 408.8C211.721 408.8 210.181 410.62 210.181 412.8V412.84C210.181 415.06 211.821 416.86 214.001 416.86ZM223.203 418.08L219.583 407.66H221.223L223.943 415.96L226.723 407.62H228.003L230.803 415.96L233.523 407.66H235.123L231.483 418.08H230.143L227.363 409.92L224.563 418.08H223.203ZM236.53 405.4V403.7H238.29V405.4H236.53ZM236.63 418V407.66H238.17V418H236.63ZM240.543 418V407.66H242.083V409.46C242.763 408.34 243.843 407.44 245.623 407.44C248.123 407.44 249.583 409.12 249.583 411.58V418H248.043V411.96C248.043 410.04 247.003 408.84 245.183 408.84C243.403 408.84 242.083 410.14 242.083 412.08V418H240.543ZM256.248 421.24C254.528 421.24 252.928 420.76 251.548 419.8L252.248 418.6C253.428 419.46 254.748 419.92 256.228 419.92C258.508 419.92 259.988 418.66 259.988 416.24V415.02C259.088 416.22 257.828 417.2 255.928 417.2C253.448 417.2 251.068 415.34 251.068 412.36V412.32C251.068 409.3 253.468 407.44 255.928 407.44C257.868 407.44 259.128 408.4 259.968 409.52V407.66H261.508V416.2C261.508 417.8 261.028 419.02 260.188 419.86C259.268 420.78 257.888 421.24 256.248 421.24ZM256.228 415.84C258.188 415.84 260.028 414.42 260.028 412.34V412.3C260.028 410.18 258.188 408.8 256.228 408.8C254.268 408.8 252.648 410.16 252.648 412.28V412.32C252.648 414.4 254.308 415.84 256.228 415.84ZM283.04 418.22C281.12 418.22 279.88 417.18 279.08 416.02V418H277.54V403.4H279.08V409.74C279.92 408.5 281.14 407.44 283.04 407.44C285.52 407.44 287.98 409.4 287.98 412.8V412.84C287.98 416.22 285.54 418.22 283.04 418.22ZM282.76 416.84C284.76 416.84 286.4 415.36 286.4 412.86V412.82C286.4 410.38 284.72 408.82 282.76 408.82C280.84 408.82 279.02 410.44 279.02 412.8V412.84C279.02 415.24 280.84 416.84 282.76 416.84ZM293.421 418.22C290.921 418.22 289.461 416.54 289.461 414.08V407.66H291.001V413.7C291.001 415.62 292.041 416.82 293.861 416.82C295.621 416.82 296.961 415.52 296.961 413.58V407.66H298.481V418H296.961V416.2C296.261 417.32 295.201 418.22 293.421 418.22ZM304.165 418.2C302.685 418.2 301.045 417.62 299.885 416.68L300.665 415.58C301.785 416.42 303.025 416.9 304.245 416.9C305.485 416.9 306.385 416.26 306.385 415.26V415.22C306.385 414.18 305.165 413.78 303.805 413.4C302.185 412.94 300.385 412.38 300.385 410.48V410.44C300.385 408.66 301.865 407.48 303.905 407.48C305.165 407.48 306.565 407.92 307.625 408.62L306.925 409.78C305.965 409.16 304.865 408.78 303.865 408.78C302.645 408.78 301.865 409.42 301.865 410.28V410.32C301.865 411.3 303.145 411.68 304.525 412.1C306.125 412.58 307.845 413.2 307.845 415.06V415.1C307.845 417.06 306.225 418.2 304.165 418.2ZM309.546 405.4V403.7H311.306V405.4H309.546ZM309.646 418V407.66H311.186V418H309.646ZM313.56 418V407.66H315.1V409.46C315.78 408.34 316.86 407.44 318.64 407.44C321.14 407.44 322.6 409.12 322.6 411.58V418H321.06V411.96C321.06 410.04 320.02 408.84 318.2 408.84C316.42 408.84 315.1 410.14 315.1 412.08V418H313.56ZM329.204 418.24C326.364 418.24 324.044 416.06 324.044 412.86V412.82C324.044 409.84 326.144 407.44 329.004 407.44C332.064 407.44 333.824 409.88 333.824 412.9C333.824 413.1 333.824 413.22 333.804 413.4H325.604C325.824 415.64 327.404 416.9 329.244 416.9C330.664 416.9 331.664 416.32 332.504 415.44L333.464 416.3C332.424 417.46 331.164 418.24 329.204 418.24ZM325.604 412.26H332.264C332.104 410.38 331.024 408.74 328.964 408.74C327.164 408.74 325.804 410.24 325.604 412.26ZM338.74 418.2C337.26 418.2 335.62 417.62 334.46 416.68L335.24 415.58C336.36 416.42 337.6 416.9 338.82 416.9C340.06 416.9 340.96 416.26 340.96 415.26V415.22C340.96 414.18 339.74 413.78 338.38 413.4C336.76 412.94 334.96 412.38 334.96 410.48V410.44C334.96 408.66 336.44 407.48 338.48 407.48C339.74 407.48 341.14 407.92 342.2 408.62L341.5 409.78C340.54 409.16 339.44 408.78 338.44 408.78C337.22 408.78 336.44 409.42 336.44 410.28V410.32C336.44 411.3 337.72 411.68 339.1 412.1C340.7 412.58 342.42 413.2 342.42 415.06V415.1C342.42 417.06 340.8 418.2 338.74 418.2ZM347.306 418.2C345.826 418.2 344.186 417.62 343.026 416.68L343.806 415.58C344.926 416.42 346.166 416.9 347.386 416.9C348.626 416.9 349.526 416.26 349.526 415.26V415.22C349.526 414.18 348.306 413.78 346.946 413.4C345.326 412.94 343.526 412.38 343.526 410.48V410.44C343.526 408.66 345.006 407.48 347.046 407.48C348.306 407.48 349.706 407.92 350.766 408.62L350.066 409.78C349.106 409.16 348.006 408.78 347.006 408.78C345.786 408.78 345.006 409.42 345.006 410.28V410.32C345.006 411.3 346.286 411.68 347.666 412.1C349.266 412.58 350.986 413.2 350.986 415.06V415.1C350.986 417.06 349.366 418.2 347.306 418.2ZM357.167 418.24C354.327 418.24 352.007 416.06 352.007 412.86V412.82C352.007 409.84 354.107 407.44 356.967 407.44C360.027 407.44 361.787 409.88 361.787 412.9C361.787 413.1 361.787 413.22 361.767 413.4H353.567C353.787 415.64 355.367 416.9 357.207 416.9C358.627 416.9 359.627 416.32 360.467 415.44L361.427 416.3C360.387 417.46 359.127 418.24 357.167 418.24ZM353.567 412.26H360.227C360.067 410.38 358.987 408.74 356.927 408.74C355.127 408.74 353.767 410.24 353.567 412.26ZM366.703 418.2C365.223 418.2 363.583 417.62 362.423 416.68L363.203 415.58C364.323 416.42 365.563 416.9 366.783 416.9C368.023 416.9 368.923 416.26 368.923 415.26V415.22C368.923 414.18 367.703 413.78 366.343 413.4C364.723 412.94 362.923 412.38 362.923 410.48V410.44C362.923 408.66 364.403 407.48 366.443 407.48C367.703 407.48 369.103 407.92 370.163 408.62L369.463 409.78C368.503 409.16 367.403 408.78 366.403 408.78C365.183 408.78 364.403 409.42 364.403 410.28V410.32C364.403 411.3 365.683 411.68 367.063 412.1C368.663 412.58 370.383 413.2 370.383 415.06V415.1C370.383 417.06 368.763 418.2 366.703 418.2ZM389.295 418.18C387.635 418.18 386.375 417.36 386.375 415.26V409.02H384.935V407.66H386.375V404.54H387.915V407.66H391.195V409.02H387.915V415.06C387.915 416.32 388.615 416.78 389.655 416.78C390.175 416.78 390.615 416.68 391.155 416.42V417.74C390.615 418.02 390.035 418.18 389.295 418.18ZM392.721 418V403.4H394.261V409.46C394.941 408.34 396.021 407.44 397.801 407.44C400.301 407.44 401.761 409.12 401.761 411.58V418H400.221V411.96C400.221 410.04 399.181 408.84 397.361 408.84C395.581 408.84 394.261 410.14 394.261 412.08V418H392.721ZM406.925 418.22C405.005 418.22 403.065 417.12 403.065 415V414.96C403.065 412.78 404.865 411.62 407.485 411.62C408.805 411.62 409.745 411.8 410.665 412.06V411.7C410.665 409.84 409.525 408.88 407.585 408.88C406.365 408.88 405.405 409.2 404.445 409.64L403.985 408.38C405.125 407.86 406.245 407.52 407.745 407.52C409.205 407.52 410.325 407.9 411.085 408.66C411.785 409.36 412.145 410.36 412.145 411.68V418H410.665V416.44C409.945 417.38 408.745 418.22 406.925 418.22ZM407.225 417C409.125 417 410.685 415.84 410.685 414.2V413.2C409.925 412.98 408.905 412.76 407.645 412.76C405.705 412.76 404.625 413.6 404.625 414.9V414.94C404.625 416.24 405.825 417 407.225 417ZM417.589 418.18C415.929 418.18 414.669 417.36 414.669 415.26V409.02H413.229V407.66H414.669V404.54H416.209V407.66H419.489V409.02H416.209V415.06C416.209 416.32 416.909 416.78 417.949 416.78C418.469 416.78 418.909 416.68 419.449 416.42V417.74C418.909 418.02 418.329 418.18 417.589 418.18ZM434.806 418V407.66H436.346V409.46C437.026 408.34 438.106 407.44 439.886 407.44C442.386 407.44 443.846 409.12 443.846 411.58V418H442.306V411.96C442.306 410.04 441.266 408.84 439.446 408.84C437.666 408.84 436.346 410.14 436.346 412.08V418H434.806ZM450.451 418.24C447.611 418.24 445.291 416.06 445.291 412.86V412.82C445.291 409.84 447.391 407.44 450.251 407.44C453.311 407.44 455.071 409.88 455.071 412.9C455.071 413.1 455.071 413.22 455.051 413.4H446.851C447.071 415.64 448.651 416.9 450.491 416.9C451.911 416.9 452.911 416.32 453.751 415.44L454.711 416.3C453.671 417.46 452.411 418.24 450.451 418.24ZM446.851 412.26H453.511C453.351 410.38 452.271 408.74 450.211 408.74C448.411 408.74 447.051 410.24 446.851 412.26ZM461.086 418.24C458.246 418.24 455.926 416.06 455.926 412.86V412.82C455.926 409.84 458.026 407.44 460.886 407.44C463.946 407.44 465.706 409.88 465.706 412.9C465.706 413.1 465.706 413.22 465.686 413.4H457.486C457.706 415.64 459.286 416.9 461.126 416.9C462.546 416.9 463.546 416.32 464.386 415.44L465.346 416.3C464.306 417.46 463.046 418.24 461.086 418.24ZM457.486 412.26H464.146C463.986 410.38 462.906 408.74 460.846 408.74C459.046 408.74 457.686 410.24 457.486 412.26ZM471.542 418.22C469.062 418.22 466.602 416.26 466.602 412.86V412.82C466.602 409.44 469.062 407.44 471.542 407.44C473.462 407.44 474.702 408.48 475.502 409.64V403.4H477.042V418H475.502V415.92C474.662 417.16 473.442 418.22 471.542 418.22ZM471.822 416.84C473.742 416.84 475.562 415.22 475.562 412.84V412.8C475.562 410.42 473.742 408.82 471.822 408.82C469.822 408.82 468.182 410.3 468.182 412.8V412.84C468.182 415.28 469.882 416.84 471.822 416.84ZM493.075 418V407.66H494.615V409.4C495.295 408.38 496.215 407.44 497.955 407.44C499.635 407.44 500.715 408.34 501.275 409.5C502.015 408.36 503.115 407.44 504.915 407.44C507.295 407.44 508.755 409.04 508.755 411.6V418H507.215V411.96C507.215 409.96 506.215 408.84 504.535 408.84C502.975 408.84 501.695 410 501.695 412.04V418H500.155V411.92C500.155 409.98 499.135 408.84 497.495 408.84C495.855 408.84 494.615 410.2 494.615 412.1V418H493.075ZM515.618 418.24C512.518 418.24 510.258 415.8 510.258 412.88V412.84C510.258 409.92 512.538 407.44 515.658 407.44C518.758 407.44 521.038 409.88 521.038 412.8V412.84C521.038 415.76 518.738 418.24 515.618 418.24ZM515.658 416.86C517.898 416.86 519.458 415.06 519.458 412.88V412.84C519.458 410.62 517.798 408.8 515.618 408.8C513.378 408.8 511.838 410.62 511.838 412.8V412.84C511.838 415.06 513.478 416.86 515.658 416.86ZM522.628 418V407.66H524.168V410.36C524.928 408.64 526.428 407.4 528.388 407.48V409.14H528.268C526.008 409.14 524.168 410.76 524.168 413.88V418H522.628ZM533.604 418.24C530.764 418.24 528.444 416.06 528.444 412.86V412.82C528.444 409.84 530.544 407.44 533.404 407.44C536.464 407.44 538.224 409.88 538.224 412.9C538.224 413.1 538.224 413.22 538.204 413.4H530.004C530.224 415.64 531.804 416.9 533.644 416.9C535.064 416.9 536.064 416.32 536.904 415.44L537.864 416.3C536.824 417.46 535.564 418.24 533.604 418.24ZM530.004 412.26H536.664C536.504 410.38 535.424 408.74 533.364 408.74C531.564 408.74 530.204 410.24 530.004 412.26ZM55.3 442V433.02H53.88V431.68H55.3V430.78C55.3 429.6 55.62 428.7 56.2 428.12C56.72 427.6 57.48 427.32 58.42 427.32C59.14 427.32 59.62 427.4 60.12 427.58V428.92C59.56 428.76 59.14 428.66 58.62 428.66C57.42 428.66 56.82 429.38 56.82 430.86V431.7H60.1V433.02H56.84V442H55.3ZM62.22 442V427.4H63.74V442H62.22ZM70.6572 442.24C67.8172 442.24 65.4972 440.06 65.4972 436.86V436.82C65.4972 433.84 67.5972 431.44 70.4572 431.44C73.5172 431.44 75.2772 433.88 75.2772 436.9C75.2772 437.1 75.2772 437.22 75.2572 437.4H67.0572C67.2772 439.64 68.8572 440.9 70.6972 440.9C72.1172 440.9 73.1172 440.32 73.9572 439.44L74.9172 440.3C73.8772 441.46 72.6172 442.24 70.6572 442.24ZM67.0572 436.26H73.7172C73.5572 434.38 72.4772 432.74 70.4172 432.74C68.6172 432.74 67.2572 434.24 67.0572 436.26ZM77.1477 431.66L80.1877 435.7L83.2677 431.66H84.9877L81.0677 436.72L85.1477 442H83.3677L80.1677 437.74L76.9477 442H75.2277L79.2677 436.74L75.3877 431.66H77.1477ZM86.492 429.4V427.7H88.252V429.4H86.492ZM86.592 442V431.66H88.132V442H86.592ZM96.0059 442.22C94.0859 442.22 92.8459 441.18 92.0459 440.02V442H90.5059V427.4H92.0459V433.74C92.8859 432.5 94.1059 431.44 96.0059 431.44C98.4859 431.44 100.946 433.4 100.946 436.8V436.84C100.946 440.22 98.5059 442.22 96.0059 442.22ZM95.7259 440.84C97.7259 440.84 99.3659 439.36 99.3659 436.86V436.82C99.3659 434.38 97.6859 432.82 95.7259 432.82C93.8059 432.82 91.9859 434.44 91.9859 436.8V436.84C91.9859 439.24 93.8059 440.84 95.7259 440.84ZM102.627 429.4V427.7H104.387V429.4H102.627ZM102.727 442V431.66H104.267V442H102.727ZM106.781 442V427.4H108.321V442H106.781ZM110.735 429.4V427.7H112.495V429.4H110.735ZM110.835 442V431.66H112.375V442H110.835ZM118.209 442.18C116.549 442.18 115.289 441.36 115.289 439.26V433.02H113.849V431.66H115.289V428.54H116.829V431.66H120.109V433.02H116.829V439.06C116.829 440.32 117.529 440.78 118.569 440.78C119.089 440.78 119.529 440.68 120.069 440.42V441.74C119.529 442.02 118.949 442.18 118.209 442.18ZM126.055 440.28L129.375 431.66H131.015L126.675 442.34C125.795 444.48 124.795 445.26 123.235 445.26C122.375 445.26 121.735 445.08 121.035 444.74L121.555 443.52C122.055 443.78 122.515 443.9 123.175 443.9C124.095 443.9 124.675 443.42 125.295 441.96L120.595 431.66H122.295L126.055 440.28ZM147.209 442.22C145.289 442.22 143.349 441.12 143.349 439V438.96C143.349 436.78 145.149 435.62 147.769 435.62C149.089 435.62 150.029 435.8 150.949 436.06V435.7C150.949 433.84 149.809 432.88 147.869 432.88C146.649 432.88 145.689 433.2 144.729 433.64L144.269 432.38C145.409 431.86 146.529 431.52 148.029 431.52C149.489 431.52 150.609 431.9 151.369 432.66C152.069 433.36 152.429 434.36 152.429 435.68V442H150.949V440.44C150.229 441.38 149.029 442.22 147.209 442.22ZM147.509 441C149.409 441 150.969 439.84 150.969 438.2V437.2C150.209 436.98 149.189 436.76 147.929 436.76C145.989 436.76 144.909 437.6 144.909 438.9V438.94C144.909 440.24 146.109 441 147.509 441ZM154.511 442V431.66H156.051V433.46C156.731 432.34 157.811 431.44 159.591 431.44C162.091 431.44 163.551 433.12 163.551 435.58V442H162.011V435.96C162.011 434.04 160.971 432.84 159.151 432.84C157.371 432.84 156.051 434.14 156.051 436.08V442H154.511ZM169.975 442.22C167.495 442.22 165.035 440.26 165.035 436.86V436.82C165.035 433.44 167.495 431.44 169.975 431.44C171.895 431.44 173.135 432.48 173.935 433.64V427.4H175.475V442H173.935V439.92C173.095 441.16 171.875 442.22 169.975 442.22ZM170.255 440.84C172.175 440.84 173.995 439.22 173.995 436.84V436.8C173.995 434.42 172.175 432.82 170.255 432.82C168.255 432.82 166.615 434.3 166.615 436.8V436.84C166.615 439.28 168.315 440.84 170.255 440.84ZM194.254 442.24C191.234 442.24 188.954 439.78 188.954 436.88V436.84C188.954 433.92 191.234 431.44 194.254 431.44C196.214 431.44 197.434 432.26 198.394 433.28L197.374 434.36C196.554 433.5 195.634 432.8 194.234 432.8C192.134 432.8 190.534 434.58 190.534 436.8V436.84C190.534 439.08 192.174 440.86 194.334 440.86C195.654 440.86 196.674 440.2 197.494 439.32L198.474 440.24C197.434 441.4 196.194 442.24 194.254 442.24ZM204.247 442.24C201.147 442.24 198.887 439.8 198.887 436.88V436.84C198.887 433.92 201.167 431.44 204.287 431.44C207.387 431.44 209.667 433.88 209.667 436.8V436.84C209.667 439.76 207.367 442.24 204.247 442.24ZM204.287 440.86C206.527 440.86 208.087 439.06 208.087 436.88V436.84C208.087 434.62 206.427 432.8 204.247 432.8C202.007 432.8 200.467 434.62 200.467 436.8V436.84C200.467 439.06 202.107 440.86 204.287 440.86ZM211.256 442V431.66H212.796V433.46C213.476 432.34 214.556 431.44 216.336 431.44C218.836 431.44 220.296 433.12 220.296 435.58V442H218.756V435.96C218.756 434.04 217.716 432.84 215.896 432.84C214.116 432.84 212.796 434.14 212.796 436.08V442H211.256ZM225.841 442.18C224.181 442.18 222.921 441.36 222.921 439.26V433.02H221.481V431.66H222.921V428.54H224.461V431.66H227.741V433.02H224.461V439.06C224.461 440.32 225.161 440.78 226.201 440.78C226.721 440.78 227.161 440.68 227.701 440.42V441.74C227.161 442.02 226.581 442.18 225.841 442.18ZM229.267 442V431.66H230.807V434.36C231.567 432.64 233.067 431.4 235.027 431.48V433.14H234.907C232.647 433.14 230.807 434.76 230.807 437.88V442H229.267ZM240.443 442.24C237.343 442.24 235.083 439.8 235.083 436.88V436.84C235.083 433.92 237.363 431.44 240.483 431.44C243.583 431.44 245.863 433.88 245.863 436.8V436.84C245.863 439.76 243.563 442.24 240.443 442.24ZM240.483 440.86C242.723 440.86 244.283 439.06 244.283 436.88V436.84C244.283 434.62 242.623 432.8 240.443 432.8C238.203 432.8 236.663 434.62 236.663 436.8V436.84C236.663 439.06 238.303 440.86 240.483 440.86ZM247.593 442V427.4H249.133V442H247.593ZM251.326 442V439.9H253.166V442H251.326ZM272.946 442.22C269.486 442.22 267.126 440.1 267.126 436.14V428H268.706V436.04C268.706 439.06 270.326 440.76 272.986 440.76C275.566 440.76 277.206 439.2 277.206 436.14V428H278.786V436.02C278.786 440.1 276.446 442.22 272.946 442.22ZM281.062 442V431.66H282.602V433.46C283.282 432.34 284.362 431.44 286.142 431.44C288.642 431.44 290.102 433.12 290.102 435.58V442H288.562V435.96C288.562 434.04 287.522 432.84 285.702 432.84C283.922 432.84 282.602 434.14 282.602 436.08V442H281.062ZM292.326 442V427.4H293.866V442H292.326ZM300.96 442.24C297.86 442.24 295.6 439.8 295.6 436.88V436.84C295.6 433.92 297.88 431.44 301 431.44C304.1 431.44 306.38 433.88 306.38 436.8V436.84C306.38 439.76 304.08 442.24 300.96 442.24ZM301 440.86C303.24 440.86 304.8 439.06 304.8 436.88V436.84C304.8 434.62 303.14 432.8 300.96 432.8C298.72 432.8 297.18 434.62 297.18 436.8V436.84C297.18 439.06 298.82 440.86 301 440.86ZM312.63 442.24C309.61 442.24 307.33 439.78 307.33 436.88V436.84C307.33 433.92 309.61 431.44 312.63 431.44C314.59 431.44 315.81 432.26 316.77 433.28L315.75 434.36C314.93 433.5 314.01 432.8 312.61 432.8C310.51 432.8 308.91 434.58 308.91 436.8V436.84C308.91 439.08 310.55 440.86 312.71 440.86C314.03 440.86 315.05 440.2 315.87 439.32L316.85 440.24C315.81 441.4 314.57 442.24 312.63 442.24ZM318.196 442V427.4H319.736V437.48L325.316 431.66H327.236L322.896 436.1L327.376 442H325.536L321.836 437.18L319.736 439.3V442H318.196ZM343.34 442.22C341.42 442.22 339.48 441.12 339.48 439V438.96C339.48 436.78 341.28 435.62 343.9 435.62C345.22 435.62 346.16 435.8 347.08 436.06V435.7C347.08 433.84 345.94 432.88 344 432.88C342.78 432.88 341.82 433.2 340.86 433.64L340.4 432.38C341.54 431.86 342.66 431.52 344.16 431.52C345.62 431.52 346.74 431.9 347.5 432.66C348.2 433.36 348.56 434.36 348.56 435.68V442H347.08V440.44C346.36 441.38 345.16 442.22 343.34 442.22ZM343.64 441C345.54 441 347.1 439.84 347.1 438.2V437.2C346.34 436.98 345.32 436.76 344.06 436.76C342.12 436.76 341.04 437.6 341.04 438.9V438.94C341.04 440.24 342.24 441 343.64 441ZM354.982 442.22C352.502 442.22 350.042 440.26 350.042 436.86V436.82C350.042 433.44 352.502 431.44 354.982 431.44C356.902 431.44 358.142 432.48 358.942 433.64V427.4H360.482V442H358.942V439.92C358.102 441.16 356.882 442.22 354.982 442.22ZM355.262 440.84C357.182 440.84 359.002 439.22 359.002 436.84V436.8C359.002 434.42 357.182 432.82 355.262 432.82C353.262 432.82 351.622 434.3 351.622 436.8V436.84C351.622 439.28 353.322 440.84 355.262 440.84ZM366.183 442.08L361.703 431.66H363.403L366.883 440.24L370.383 431.66H372.043L367.543 442.08H366.183ZM375.834 442.22C373.914 442.22 371.974 441.12 371.974 439V438.96C371.974 436.78 373.774 435.62 376.394 435.62C377.714 435.62 378.654 435.8 379.574 436.06V435.7C379.574 433.84 378.434 432.88 376.494 432.88C375.274 432.88 374.314 433.2 373.354 433.64L372.894 432.38C374.034 431.86 375.154 431.52 376.654 431.52C378.114 431.52 379.234 431.9 379.994 432.66C380.694 433.36 381.054 434.36 381.054 435.68V442H379.574V440.44C378.854 441.38 377.654 442.22 375.834 442.22ZM376.134 441C378.034 441 379.594 439.84 379.594 438.2V437.2C378.834 436.98 377.814 436.76 376.554 436.76C374.614 436.76 373.534 437.6 373.534 438.9V438.94C373.534 440.24 374.734 441 376.134 441ZM383.136 442V431.66H384.676V433.46C385.356 432.34 386.436 431.44 388.216 431.44C390.716 431.44 392.176 433.12 392.176 435.58V442H390.636V435.96C390.636 434.04 389.596 432.84 387.776 432.84C385.996 432.84 384.676 434.14 384.676 436.08V442H383.136ZM398.92 442.24C395.9 442.24 393.62 439.78 393.62 436.88V436.84C393.62 433.92 395.9 431.44 398.92 431.44C400.88 431.44 402.1 432.26 403.06 433.28L402.04 434.36C401.22 433.5 400.3 432.8 398.9 432.8C396.8 432.8 395.2 434.58 395.2 436.8V436.84C395.2 439.08 396.84 440.86 399 440.86C400.32 440.86 401.34 440.2 402.16 439.32L403.14 440.24C402.1 441.4 400.86 442.24 398.92 442.24ZM408.713 442.24C405.873 442.24 403.553 440.06 403.553 436.86V436.82C403.553 433.84 405.653 431.44 408.513 431.44C411.573 431.44 413.333 433.88 413.333 436.9C413.333 437.1 413.333 437.22 413.313 437.4H405.113C405.333 439.64 406.913 440.9 408.753 440.9C410.173 440.9 411.173 440.32 412.013 439.44L412.973 440.3C411.933 441.46 410.673 442.24 408.713 442.24ZM405.113 436.26H411.773C411.613 434.38 410.533 432.74 408.473 432.74C406.673 432.74 405.313 434.24 405.113 436.26ZM419.169 442.22C416.689 442.22 414.229 440.26 414.229 436.86V436.82C414.229 433.44 416.689 431.44 419.169 431.44C421.089 431.44 422.329 432.48 423.129 433.64V427.4H424.669V442H423.129V439.92C422.289 441.16 421.069 442.22 419.169 442.22ZM419.449 440.84C421.369 440.84 423.189 439.22 423.189 436.84V436.8C423.189 434.42 421.369 432.82 419.449 432.82C417.449 432.82 415.809 434.3 415.809 436.8V436.84C415.809 439.28 417.509 440.84 419.449 440.84ZM439.368 442V433.02H437.948V431.68H439.368V430.78C439.368 429.6 439.688 428.7 440.268 428.12C440.788 427.6 441.548 427.32 442.488 427.32C443.208 427.32 443.688 427.4 444.188 427.58V428.92C443.628 428.76 443.208 428.66 442.688 428.66C441.488 428.66 440.888 429.38 440.888 430.86V431.7H444.168V433.02H440.908V442H439.368ZM449.256 442.24C446.416 442.24 444.096 440.06 444.096 436.86V436.82C444.096 433.84 446.196 431.44 449.056 431.44C452.116 431.44 453.876 433.88 453.876 436.9C453.876 437.1 453.876 437.22 453.856 437.4H445.656C445.876 439.64 447.456 440.9 449.296 440.9C450.716 440.9 451.716 440.32 452.556 439.44L453.516 440.3C452.476 441.46 451.216 442.24 449.256 442.24ZM445.656 436.26H452.316C452.156 434.38 451.076 432.74 449.016 432.74C447.216 432.74 445.856 434.24 445.656 436.26ZM458.452 442.22C456.532 442.22 454.592 441.12 454.592 439V438.96C454.592 436.78 456.392 435.62 459.012 435.62C460.332 435.62 461.272 435.8 462.192 436.06V435.7C462.192 433.84 461.052 432.88 459.112 432.88C457.892 432.88 456.932 433.2 455.972 433.64L455.512 432.38C456.652 431.86 457.772 431.52 459.272 431.52C460.732 431.52 461.852 431.9 462.612 432.66C463.312 433.36 463.672 434.36 463.672 435.68V442H462.192V440.44C461.472 441.38 460.272 442.22 458.452 442.22ZM458.752 441C460.652 441 462.212 439.84 462.212 438.2V437.2C461.452 436.98 460.432 436.76 459.172 436.76C457.232 436.76 456.152 437.6 456.152 438.9V438.94C456.152 440.24 457.352 441 458.752 441ZM469.116 442.18C467.456 442.18 466.196 441.36 466.196 439.26V433.02H464.756V431.66H466.196V428.54H467.736V431.66H471.016V433.02H467.736V439.06C467.736 440.32 468.436 440.78 469.476 440.78C469.996 440.78 470.436 440.68 470.976 440.42V441.74C470.436 442.02 469.856 442.18 469.116 442.18ZM476.342 442.22C473.842 442.22 472.382 440.54 472.382 438.08V431.66H473.922V437.7C473.922 439.62 474.962 440.82 476.782 440.82C478.542 440.82 479.882 439.52 479.882 437.58V431.66H481.402V442H479.882V440.2C479.182 441.32 478.122 442.22 476.342 442.22ZM483.667 442V431.66H485.207V434.36C485.967 432.64 487.467 431.4 489.427 431.48V433.14H489.307C487.047 433.14 485.207 434.76 485.207 437.88V442H483.667ZM494.643 442.24C491.803 442.24 489.483 440.06 489.483 436.86V436.82C489.483 433.84 491.583 431.44 494.443 431.44C497.503 431.44 499.263 433.88 499.263 436.9C499.263 437.1 499.263 437.22 499.243 437.4H491.043C491.263 439.64 492.843 440.9 494.683 440.9C496.103 440.9 497.103 440.32 497.943 439.44L498.903 440.3C497.863 441.46 496.603 442.24 494.643 442.24ZM491.043 436.26H497.703C497.543 434.38 496.463 432.74 494.403 432.74C492.603 432.74 491.243 434.24 491.043 436.26ZM504.179 442.2C502.699 442.2 501.059 441.62 499.899 440.68L500.679 439.58C501.799 440.42 503.039 440.9 504.259 440.9C505.499 440.9 506.399 440.26 506.399 439.26V439.22C506.399 438.18 505.179 437.78 503.819 437.4C502.199 436.94 500.399 436.38 500.399 434.48V434.44C500.399 432.66 501.879 431.48 503.919 431.48C505.179 431.48 506.579 431.92 507.639 432.62L506.939 433.78C505.979 433.16 504.879 432.78 503.879 432.78C502.659 432.78 501.879 433.42 501.879 434.28V434.32C501.879 435.3 503.159 435.68 504.539 436.1C506.139 436.58 507.859 437.2 507.859 439.06V439.1C507.859 441.06 506.239 442.2 504.179 442.2ZM524.857 442.18C523.197 442.18 521.937 441.36 521.937 439.26V433.02H520.497V431.66H521.937V428.54H523.477V431.66H526.757V433.02H523.477V439.06C523.477 440.32 524.177 440.78 525.217 440.78C525.737 440.78 526.177 440.68 526.717 440.42V441.74C526.177 442.02 525.597 442.18 524.857 442.18ZM532.71 442.24C529.61 442.24 527.35 439.8 527.35 436.88V436.84C527.35 433.92 529.63 431.44 532.75 431.44C535.85 431.44 538.13 433.88 538.13 436.8V436.84C538.13 439.76 535.83 442.24 532.71 442.24ZM532.75 440.86C534.99 440.86 536.55 439.06 536.55 436.88V436.84C536.55 434.62 534.89 432.8 532.71 432.8C530.47 432.8 528.93 434.62 528.93 436.8V436.84C528.93 439.06 530.57 440.86 532.75 440.86ZM58.14 466.2C56.66 466.2 55.02 465.62 53.86 464.68L54.64 463.58C55.76 464.42 57 464.9 58.22 464.9C59.46 464.9 60.36 464.26 60.36 463.26V463.22C60.36 462.18 59.14 461.78 57.78 461.4C56.16 460.94 54.36 460.38 54.36 458.48V458.44C54.36 456.66 55.84 455.48 57.88 455.48C59.14 455.48 60.54 455.92 61.6 456.62L60.9 457.78C59.94 457.16 58.84 456.78 57.84 456.78C56.62 456.78 55.84 457.42 55.84 458.28V458.32C55.84 459.3 57.12 459.68 58.5 460.1C60.1 460.58 61.82 461.2 61.82 463.06V463.1C61.82 465.06 60.2 466.2 58.14 466.2ZM68.1409 466.24C65.1209 466.24 62.8409 463.78 62.8409 460.88V460.84C62.8409 457.92 65.1209 455.44 68.1409 455.44C70.1009 455.44 71.3209 456.26 72.2809 457.28L71.2609 458.36C70.4409 457.5 69.5209 456.8 68.1209 456.8C66.0209 456.8 64.4209 458.58 64.4209 460.8V460.84C64.4209 463.08 66.0609 464.86 68.2209 464.86C69.5409 464.86 70.5609 464.2 71.3809 463.32L72.3609 464.24C71.3209 465.4 70.0809 466.24 68.1409 466.24ZM76.7867 466.22C74.8667 466.22 72.9267 465.12 72.9267 463V462.96C72.9267 460.78 74.7267 459.62 77.3467 459.62C78.6667 459.62 79.6067 459.8 80.5267 460.06V459.7C80.5267 457.84 79.3867 456.88 77.4467 456.88C76.2267 456.88 75.2667 457.2 74.3067 457.64L73.8467 456.38C74.9867 455.86 76.1067 455.52 77.6067 455.52C79.0667 455.52 80.1867 455.9 80.9467 456.66C81.6467 457.36 82.0067 458.36 82.0067 459.68V466H80.5267V464.44C79.8067 465.38 78.6067 466.22 76.7867 466.22ZM77.0867 465C78.9867 465 80.5467 463.84 80.5467 462.2V461.2C79.7867 460.98 78.7667 460.76 77.5067 460.76C75.5667 460.76 74.4867 461.6 74.4867 462.9V462.94C74.4867 464.24 75.6867 465 77.0867 465ZM84.2287 466V451.4H85.7687V466H84.2287ZM92.6627 466.24C89.8227 466.24 87.5027 464.06 87.5027 460.86V460.82C87.5027 457.84 89.6027 455.44 92.4627 455.44C95.5227 455.44 97.2827 457.88 97.2827 460.9C97.2827 461.1 97.2827 461.22 97.2627 461.4H89.0627C89.2827 463.64 90.8627 464.9 92.7027 464.9C94.1227 464.9 95.1227 464.32 95.9627 463.44L96.9227 464.3C95.8827 465.46 94.6227 466.24 92.6627 466.24ZM89.0627 460.26H95.7227C95.5627 458.38 94.4827 456.74 92.4227 456.74C90.6227 456.74 89.2627 458.24 89.0627 460.26ZM107.995 464.28L111.315 455.66H112.955L108.615 466.34C107.735 468.48 106.735 469.26 105.175 469.26C104.315 469.26 103.675 469.08 102.975 468.74L103.495 467.52C103.995 467.78 104.455 467.9 105.115 467.9C106.035 467.9 106.615 467.42 107.235 465.96L102.535 455.66H104.235L107.995 464.28ZM118.306 466.24C115.206 466.24 112.946 463.8 112.946 460.88V460.84C112.946 457.92 115.226 455.44 118.346 455.44C121.446 455.44 123.726 457.88 123.726 460.8V460.84C123.726 463.76 121.426 466.24 118.306 466.24ZM118.346 464.86C120.586 464.86 122.146 463.06 122.146 460.88V460.84C122.146 458.62 120.486 456.8 118.306 456.8C116.066 456.8 114.526 458.62 114.526 460.8V460.84C114.526 463.06 116.166 464.86 118.346 464.86ZM129.115 466.22C126.615 466.22 125.155 464.54 125.155 462.08V455.66H126.695V461.7C126.695 463.62 127.735 464.82 129.555 464.82C131.315 464.82 132.655 463.52 132.655 461.58V455.66H134.175V466H132.655V464.2C131.955 465.32 130.895 466.22 129.115 466.22ZM136.44 466V455.66H137.98V458.36C138.74 456.64 140.24 455.4 142.2 455.48V457.14H142.08C139.82 457.14 137.98 458.76 137.98 461.88V466H136.44ZM150.881 466.08L147.261 455.66H148.901L151.621 463.96L154.401 455.62H155.681L158.481 463.96L161.201 455.66H162.801L159.161 466.08H157.821L155.041 457.92L152.241 466.08H150.881ZM168.38 466.24C165.28 466.24 163.02 463.8 163.02 460.88V460.84C163.02 457.92 165.3 455.44 168.42 455.44C171.52 455.44 173.8 457.88 173.8 460.8V460.84C173.8 463.76 171.5 466.24 168.38 466.24ZM168.42 464.86C170.66 464.86 172.22 463.06 172.22 460.88V460.84C172.22 458.62 170.56 456.8 168.38 456.8C166.14 456.8 164.6 458.62 164.6 460.8V460.84C164.6 463.06 166.24 464.86 168.42 464.86ZM175.39 466V455.66H176.93V458.36C177.69 456.64 179.19 455.4 181.15 455.48V457.14H181.03C178.77 457.14 176.93 458.76 176.93 461.88V466H175.39ZM182.295 466V451.4H183.835V461.48L189.415 455.66H191.335L186.995 460.1L191.475 466H189.635L185.935 461.18L183.835 463.3V466H182.295ZM193.062 466V457.02H191.642V455.68H193.062V454.78C193.062 453.6 193.382 452.7 193.962 452.12C194.482 451.6 195.242 451.32 196.182 451.32C196.902 451.32 197.382 451.4 197.882 451.58V452.92C197.322 452.76 196.902 452.66 196.382 452.66C195.182 452.66 194.582 453.38 194.582 454.86V455.7H197.862V457.02H194.602V466H193.062ZM199.982 466V451.4H201.502V466H199.982ZM208.619 466.24C205.519 466.24 203.259 463.8 203.259 460.88V460.84C203.259 457.92 205.539 455.44 208.659 455.44C211.759 455.44 214.039 457.88 214.039 460.8V460.84C214.039 463.76 211.739 466.24 208.619 466.24ZM208.659 464.86C210.899 464.86 212.459 463.06 212.459 460.88V460.84C212.459 458.62 210.799 456.8 208.619 456.8C206.379 456.8 204.839 458.62 204.839 460.8V460.84C204.839 463.06 206.479 464.86 208.659 464.86ZM217.861 466.08L214.241 455.66H215.881L218.601 463.96L221.381 455.62H222.661L225.461 463.96L228.181 455.66H229.781L226.141 466.08H224.801L222.021 457.92L219.221 466.08H217.861ZM234.274 466.2C232.794 466.2 231.154 465.62 229.994 464.68L230.774 463.58C231.894 464.42 233.134 464.9 234.354 464.9C235.594 464.9 236.494 464.26 236.494 463.26V463.22C236.494 462.18 235.274 461.78 233.914 461.4C232.294 460.94 230.494 460.38 230.494 458.48V458.44C230.494 456.66 231.974 455.48 234.014 455.48C235.274 455.48 236.674 455.92 237.734 456.62L237.034 457.78C236.074 457.16 234.974 456.78 233.974 456.78C232.754 456.78 231.974 457.42 231.974 458.28V458.32C231.974 459.3 233.254 459.68 234.634 460.1C236.234 460.58 237.954 461.2 237.954 463.06V463.1C237.954 465.06 236.334 466.2 234.274 466.2ZM247.491 466.22C245.571 466.22 243.631 465.12 243.631 463V462.96C243.631 460.78 245.431 459.62 248.051 459.62C249.371 459.62 250.311 459.8 251.231 460.06V459.7C251.231 457.84 250.091 456.88 248.151 456.88C246.931 456.88 245.971 457.2 245.011 457.64L244.551 456.38C245.691 455.86 246.811 455.52 248.311 455.52C249.771 455.52 250.891 455.9 251.651 456.66C252.351 457.36 252.711 458.36 252.711 459.68V466H251.231V464.44C250.511 465.38 249.311 466.22 247.491 466.22ZM247.791 465C249.691 465 251.251 463.84 251.251 462.2V461.2C250.491 460.98 249.471 460.76 248.211 460.76C246.271 460.76 245.191 461.6 245.191 462.9V462.94C245.191 464.24 246.391 465 247.791 465ZM254.793 466V455.66H256.333V457.46C257.013 456.34 258.093 455.44 259.873 455.44C262.373 455.44 263.833 457.12 263.833 459.58V466H262.293V459.96C262.293 458.04 261.253 456.84 259.433 456.84C257.653 456.84 256.333 458.14 256.333 460.08V466H254.793ZM270.258 466.22C267.778 466.22 265.318 464.26 265.318 460.86V460.82C265.318 457.44 267.778 455.44 270.258 455.44C272.178 455.44 273.418 456.48 274.218 457.64V451.4H275.758V466H274.218V463.92C273.378 465.16 272.158 466.22 270.258 466.22ZM270.538 464.84C272.458 464.84 274.278 463.22 274.278 460.84V460.8C274.278 458.42 272.458 456.82 270.538 456.82C268.538 456.82 266.898 458.3 266.898 460.8V460.84C266.898 463.28 268.598 464.84 270.538 464.84ZM287.315 466.24C284.475 466.24 282.155 464.06 282.155 460.86V460.82C282.155 457.84 284.255 455.44 287.115 455.44C290.175 455.44 291.935 457.88 291.935 460.9C291.935 461.1 291.935 461.22 291.915 461.4H283.715C283.935 463.64 285.515 464.9 287.355 464.9C288.775 464.9 289.775 464.32 290.615 463.44L291.575 464.3C290.535 465.46 289.275 466.24 287.315 466.24ZM283.715 460.26H290.375C290.215 458.38 289.135 456.74 287.075 456.74C285.275 456.74 283.915 458.24 283.715 460.26ZM293.431 466V455.66H294.971V457.46C295.651 456.34 296.731 455.44 298.511 455.44C301.011 455.44 302.471 457.12 302.471 459.58V466H300.931V459.96C300.931 458.04 299.891 456.84 298.071 456.84C296.291 456.84 294.971 458.14 294.971 460.08V466H293.431ZM304.555 466V451.4H306.095V457.46C306.775 456.34 307.855 455.44 309.635 455.44C312.135 455.44 313.595 457.12 313.595 459.58V466H312.055V459.96C312.055 458.04 311.015 456.84 309.195 456.84C307.415 456.84 306.095 458.14 306.095 460.08V466H304.555ZM318.759 466.22C316.839 466.22 314.899 465.12 314.899 463V462.96C314.899 460.78 316.699 459.62 319.319 459.62C320.639 459.62 321.579 459.8 322.499 460.06V459.7C322.499 457.84 321.359 456.88 319.419 456.88C318.199 456.88 317.239 457.2 316.279 457.64L315.819 456.38C316.959 455.86 318.079 455.52 319.579 455.52C321.039 455.52 322.159 455.9 322.919 456.66C323.619 457.36 323.979 458.36 323.979 459.68V466H322.499V464.44C321.779 465.38 320.579 466.22 318.759 466.22ZM319.059 465C320.959 465 322.519 463.84 322.519 462.2V461.2C321.759 460.98 320.739 460.76 319.479 460.76C317.539 460.76 316.459 461.6 316.459 462.9V462.94C316.459 464.24 317.659 465 319.059 465ZM326.061 466V455.66H327.601V457.46C328.281 456.34 329.361 455.44 331.141 455.44C333.641 455.44 335.101 457.12 335.101 459.58V466H333.561V459.96C333.561 458.04 332.521 456.84 330.701 456.84C328.921 456.84 327.601 458.14 327.601 460.08V466H326.061ZM341.846 466.24C338.826 466.24 336.546 463.78 336.546 460.88V460.84C336.546 457.92 338.826 455.44 341.846 455.44C343.806 455.44 345.026 456.26 345.986 457.28L344.966 458.36C344.146 457.5 343.226 456.8 341.826 456.8C339.726 456.8 338.126 458.58 338.126 460.8V460.84C338.126 463.08 339.766 464.86 341.926 464.86C343.246 464.86 344.266 464.2 345.086 463.32L346.066 464.24C345.026 465.4 343.786 466.24 341.846 466.24ZM351.638 466.24C348.798 466.24 346.478 464.06 346.478 460.86V460.82C346.478 457.84 348.578 455.44 351.438 455.44C354.498 455.44 356.258 457.88 356.258 460.9C356.258 461.1 356.258 461.22 356.238 461.4H348.038C348.258 463.64 349.838 464.9 351.678 464.9C353.098 464.9 354.098 464.32 354.938 463.44L355.898 464.3C354.858 465.46 353.598 466.24 351.638 466.24ZM348.038 460.26H354.698C354.538 458.38 353.458 456.74 351.398 456.74C349.598 456.74 348.238 458.24 348.038 460.26ZM362.55 469.2V455.66H364.09V457.74C364.93 456.5 366.15 455.44 368.05 455.44C370.53 455.44 372.99 457.4 372.99 460.8V460.84C372.99 464.22 370.55 466.22 368.05 466.22C366.13 466.22 364.89 465.18 364.09 464.02V469.2H362.55ZM367.77 464.84C369.77 464.84 371.41 463.36 371.41 460.86V460.82C371.41 458.38 369.73 456.82 367.77 456.82C365.85 456.82 364.03 458.44 364.03 460.8V460.84C364.03 463.24 365.85 464.84 367.77 464.84ZM374.632 466V455.66H376.172V458.36C376.932 456.64 378.432 455.4 380.392 455.48V457.14H380.272C378.012 457.14 376.172 458.76 376.172 461.88V466H374.632ZM385.808 466.24C382.708 466.24 380.448 463.8 380.448 460.88V460.84C380.448 457.92 382.728 455.44 385.848 455.44C388.948 455.44 391.228 457.88 391.228 460.8V460.84C391.228 463.76 388.928 466.24 385.808 466.24ZM385.848 464.86C388.088 464.86 389.648 463.06 389.648 460.88V460.84C389.648 458.62 387.988 456.8 385.808 456.8C383.568 456.8 382.028 458.62 382.028 460.8V460.84C382.028 463.06 383.668 464.86 385.848 464.86ZM397.158 466.22C394.678 466.22 392.218 464.26 392.218 460.86V460.82C392.218 457.44 394.678 455.44 397.158 455.44C399.078 455.44 400.318 456.48 401.118 457.64V451.4H402.658V466H401.118V463.92C400.278 465.16 399.058 466.22 397.158 466.22ZM397.438 464.84C399.358 464.84 401.178 463.22 401.178 460.84V460.8C401.178 458.42 399.358 456.82 397.438 456.82C395.438 456.82 393.798 458.3 393.798 460.8V460.84C393.798 463.28 395.498 464.84 397.438 464.84ZM408.699 466.22C406.199 466.22 404.739 464.54 404.739 462.08V455.66H406.279V461.7C406.279 463.62 407.319 464.82 409.139 464.82C410.899 464.82 412.239 463.52 412.239 461.58V455.66H413.759V466H412.239V464.2C411.539 465.32 410.479 466.22 408.699 466.22ZM420.683 466.24C417.663 466.24 415.383 463.78 415.383 460.88V460.84C415.383 457.92 417.663 455.44 420.683 455.44C422.643 455.44 423.863 456.26 424.823 457.28L423.803 458.36C422.983 457.5 422.063 456.8 420.663 456.8C418.563 456.8 416.963 458.58 416.963 460.8V460.84C416.963 463.08 418.603 464.86 420.763 464.86C422.083 464.86 423.103 464.2 423.923 463.32L424.903 464.24C423.863 465.4 422.623 466.24 420.683 466.24ZM429.709 466.18C428.049 466.18 426.789 465.36 426.789 463.26V457.02H425.349V455.66H426.789V452.54H428.329V455.66H431.609V457.02H428.329V463.06C428.329 464.32 429.029 464.78 430.069 464.78C430.589 464.78 431.029 464.68 431.569 464.42V465.74C431.029 466.02 430.449 466.18 429.709 466.18ZM433.175 453.4V451.7H434.935V453.4H433.175ZM433.275 466V455.66H434.815V466H433.275ZM440.649 466.08L436.169 455.66H437.869L441.349 464.24L444.849 455.66H446.509L442.009 466.08H440.649ZM447.767 453.4V451.7H449.527V453.4H447.767ZM447.867 466V455.66H449.407V466H447.867ZM455.241 466.18C453.581 466.18 452.321 465.36 452.321 463.26V457.02H450.881V455.66H452.321V452.54H453.861V455.66H457.141V457.02H453.861V463.06C453.861 464.32 454.561 464.78 455.601 464.78C456.121 464.78 456.561 464.68 457.101 464.42V465.74C456.561 466.02 455.981 466.18 455.241 466.18ZM463.087 464.28L466.407 455.66H468.047L463.707 466.34C462.827 468.48 461.827 469.26 460.267 469.26C459.407 469.26 458.767 469.08 458.067 468.74L458.587 467.52C459.087 467.78 459.547 467.9 460.207 467.9C461.127 467.9 461.707 467.42 462.327 465.96L457.627 455.66H459.327L463.087 464.28ZM467.404 466V463.9H469.244V466H467.404Z" fill="black"/>
<!-- <rect x="53" y="579" width="486" height="40" rx="9" fill="#CCCCCC"/> -->
<!-- <path d="M260.953 605.2C258.733 605.2 256.913 604.46 255.233 602.96L256.213 601.8C257.673 603.12 259.073 603.78 261.013 603.78C262.893 603.78 264.133 602.78 264.133 601.4V601.36C264.133 600.06 263.433 599.32 260.493 598.7C257.273 598 255.793 596.96 255.793 594.66V594.62C255.793 592.42 257.733 590.8 260.393 590.8C262.433 590.8 263.893 591.38 265.313 592.52L264.393 593.74C263.093 592.68 261.793 592.22 260.353 592.22C258.533 592.22 257.373 593.22 257.373 594.48V594.52C257.373 595.84 258.093 596.58 261.173 597.24C264.293 597.92 265.733 599.06 265.733 601.2V601.24C265.733 603.64 263.733 605.2 260.953 605.2ZM272.006 605.24C269.166 605.24 266.846 603.06 266.846 599.86V599.82C266.846 596.84 268.946 594.44 271.806 594.44C274.866 594.44 276.626 596.88 276.626 599.9C276.626 600.1 276.626 600.22 276.606 600.4H268.406C268.626 602.64 270.206 603.9 272.046 603.9C273.466 603.9 274.466 603.32 275.306 602.44L276.266 603.3C275.226 604.46 273.966 605.24 272.006 605.24ZM268.406 599.26H275.066C274.906 597.38 273.826 595.74 271.766 595.74C269.966 595.74 268.606 597.24 268.406 599.26ZM278.262 605V590.4H279.802V605H278.262ZM286.695 605.24C283.855 605.24 281.535 603.06 281.535 599.86V599.82C281.535 596.84 283.635 594.44 286.495 594.44C289.555 594.44 291.315 596.88 291.315 599.9C291.315 600.1 291.315 600.22 291.295 600.4H283.095C283.315 602.64 284.895 603.9 286.735 603.9C288.155 603.9 289.155 603.32 289.995 602.44L290.955 603.3C289.915 604.46 288.655 605.24 286.695 605.24ZM283.095 599.26H289.755C289.595 597.38 288.515 595.74 286.455 595.74C284.655 595.74 283.295 597.24 283.095 599.26ZM297.471 605.24C294.451 605.24 292.171 602.78 292.171 599.88V599.84C292.171 596.92 294.451 594.44 297.471 594.44C299.431 594.44 300.651 595.26 301.611 596.28L300.591 597.36C299.771 596.5 298.851 595.8 297.451 595.8C295.351 595.8 293.751 597.58 293.751 599.8V599.84C293.751 602.08 295.391 603.86 297.551 603.86C298.871 603.86 299.891 603.2 300.711 602.32L301.691 603.24C300.651 604.4 299.411 605.24 297.471 605.24ZM306.497 605.18C304.837 605.18 303.577 604.36 303.577 602.26V596.02H302.137V594.66H303.577V591.54H305.117V594.66H308.397V596.02H305.117V602.06C305.117 603.32 305.817 603.78 306.857 603.78C307.377 603.78 307.817 603.68 308.357 603.42V604.74C307.817 605.02 307.237 605.18 306.497 605.18ZM314.15 605.24C311.31 605.24 308.99 603.06 308.99 599.86V599.82C308.99 596.84 311.09 594.44 313.95 594.44C317.01 594.44 318.77 596.88 318.77 599.9C318.77 600.1 318.77 600.22 318.75 600.4H310.55C310.77 602.64 312.35 603.9 314.19 603.9C315.61 603.9 316.61 603.32 317.45 602.44L318.41 603.3C317.37 604.46 316.11 605.24 314.15 605.24ZM310.55 599.26H317.21C317.05 597.38 315.97 595.74 313.91 595.74C312.11 595.74 310.75 597.24 310.55 599.26ZM324.606 605.22C322.126 605.22 319.666 603.26 319.666 599.86V599.82C319.666 596.44 322.126 594.44 324.606 594.44C326.526 594.44 327.766 595.48 328.566 596.64V590.4H330.106V605H328.566V602.92C327.726 604.16 326.506 605.22 324.606 605.22ZM324.886 603.84C326.806 603.84 328.626 602.22 328.626 599.84V599.8C328.626 597.42 326.806 595.82 324.886 595.82C322.886 595.82 321.246 597.3 321.246 599.8V599.84C321.246 602.28 322.946 603.84 324.886 603.84Z" fill="#6C6C6C"/> -->
<path d="M176.78 657.021L183.16 642.921H184.64L191.02 657.021H189.32L187.68 653.321H180.06L178.4 657.021H176.78ZM180.68 651.881H187.06L183.88 644.761L180.68 651.881ZM196.153 657.241C193.673 657.241 191.213 655.281 191.213 651.881V651.841C191.213 648.461 193.673 646.461 196.153 646.461C198.073 646.461 199.313 647.501 200.113 648.661V642.421H201.653V657.021H200.113V654.941C199.273 656.181 198.053 657.241 196.153 657.241ZM196.433 655.861C198.353 655.861 200.173 654.241 200.173 651.861V651.821C200.173 649.441 198.353 647.841 196.433 647.841C194.433 647.841 192.793 649.321 192.793 651.821V651.861C192.793 654.301 194.493 655.861 196.433 655.861ZM207.354 657.101L202.874 646.681H204.574L208.054 655.261L211.554 646.681H213.214L208.714 657.101H207.354ZM217.005 657.241C215.085 657.241 213.145 656.141 213.145 654.021V653.981C213.145 651.801 214.945 650.641 217.565 650.641C218.885 650.641 219.825 650.821 220.745 651.081V650.721C220.745 648.861 219.605 647.901 217.665 647.901C216.445 647.901 215.485 648.221 214.525 648.661L214.065 647.401C215.205 646.881 216.325 646.541 217.825 646.541C219.285 646.541 220.405 646.921 221.165 647.681C221.865 648.381 222.225 649.381 222.225 650.701V657.021H220.745V655.461C220.025 656.401 218.825 657.241 217.005 657.241ZM217.305 656.021C219.205 656.021 220.765 654.861 220.765 653.221V652.221C220.005 652.001 218.985 651.781 217.725 651.781C215.785 651.781 214.705 652.621 214.705 653.921V653.961C214.705 655.261 215.905 656.021 217.305 656.021ZM224.307 657.021V646.681H225.847V648.481C226.527 647.361 227.607 646.461 229.387 646.461C231.887 646.461 233.347 648.141 233.347 650.601V657.021H231.807V650.981C231.807 649.061 230.767 647.861 228.947 647.861C227.167 647.861 225.847 649.161 225.847 651.101V657.021H224.307ZM240.091 657.261C237.071 657.261 234.791 654.801 234.791 651.901V651.861C234.791 648.941 237.071 646.461 240.091 646.461C242.051 646.461 243.271 647.281 244.231 648.301L243.211 649.381C242.391 648.521 241.471 647.821 240.071 647.821C237.971 647.821 236.371 649.601 236.371 651.821V651.861C236.371 654.101 238.011 655.881 240.171 655.881C241.491 655.881 242.511 655.221 243.331 654.341L244.311 655.261C243.271 656.421 242.031 657.261 240.091 657.261ZM249.884 657.261C247.044 657.261 244.724 655.081 244.724 651.881V651.841C244.724 648.861 246.824 646.461 249.684 646.461C252.744 646.461 254.504 648.901 254.504 651.921C254.504 652.121 254.504 652.241 254.484 652.421H246.284C246.504 654.661 248.084 655.921 249.924 655.921C251.344 655.921 252.344 655.341 253.184 654.461L254.144 655.321C253.104 656.481 251.844 657.261 249.884 657.261ZM246.284 651.281H252.944C252.784 649.401 251.704 647.761 249.644 647.761C247.844 647.761 246.484 649.261 246.284 651.281ZM260.34 657.241C257.86 657.241 255.4 655.281 255.4 651.881V651.841C255.4 648.461 257.86 646.461 260.34 646.461C262.26 646.461 263.5 647.501 264.3 648.661V642.421H265.84V657.021H264.3V654.941C263.46 656.181 262.24 657.241 260.34 657.241ZM260.62 655.861C262.54 655.861 264.36 654.241 264.36 651.861V651.821C264.36 649.441 262.54 647.841 260.62 647.841C258.62 647.841 256.98 649.321 256.98 651.821V651.861C256.98 654.301 258.68 655.861 260.62 655.861ZM275.957 657.241C274.037 657.241 272.097 656.141 272.097 654.021V653.981C272.097 651.801 273.897 650.641 276.517 650.641C277.837 650.641 278.777 650.821 279.697 651.081V650.721C279.697 648.861 278.557 647.901 276.617 647.901C275.397 647.901 274.437 648.221 273.477 648.661L273.017 647.401C274.157 646.881 275.277 646.541 276.777 646.541C278.237 646.541 279.357 646.921 280.117 647.681C280.817 648.381 281.177 649.381 281.177 650.701V657.021H279.697V655.461C278.977 656.401 277.777 657.241 275.957 657.241ZM276.257 656.021C278.157 656.021 279.717 654.861 279.717 653.221V652.221C278.957 652.001 277.937 651.781 276.677 651.781C274.737 651.781 273.657 652.621 273.657 653.921V653.961C273.657 655.261 274.857 656.021 276.257 656.021ZM283.259 657.021V646.681H284.799V648.481C285.479 647.361 286.559 646.461 288.339 646.461C290.839 646.461 292.299 648.141 292.299 650.601V657.021H290.759V650.981C290.759 649.061 289.719 647.861 287.899 647.861C286.119 647.861 284.799 649.161 284.799 651.101V657.021H283.259ZM297.463 657.241C295.543 657.241 293.603 656.141 293.603 654.021V653.981C293.603 651.801 295.403 650.641 298.023 650.641C299.343 650.641 300.283 650.821 301.203 651.081V650.721C301.203 648.861 300.063 647.901 298.123 647.901C296.903 647.901 295.943 648.221 294.983 648.661L294.523 647.401C295.663 646.881 296.783 646.541 298.283 646.541C299.743 646.541 300.863 646.921 301.623 647.681C302.323 648.381 302.683 649.381 302.683 650.701V657.021H301.203V655.461C300.483 656.401 299.283 657.241 297.463 657.241ZM297.763 656.021C299.663 656.021 301.223 654.861 301.223 653.221V652.221C300.463 652.001 299.443 651.781 298.183 651.781C296.243 651.781 295.163 652.621 295.163 653.921V653.961C295.163 655.261 296.363 656.021 297.763 656.021ZM304.905 657.021V642.421H306.445V657.021H304.905ZM313.239 655.301L316.559 646.681H318.199L313.859 657.361C312.979 659.501 311.979 660.281 310.419 660.281C309.559 660.281 308.919 660.101 308.219 659.761L308.739 658.541C309.239 658.801 309.699 658.921 310.359 658.921C311.279 658.921 311.859 658.441 312.479 656.981L307.779 646.681H309.479L313.239 655.301ZM322.896 657.201C321.236 657.201 319.976 656.381 319.976 654.281V648.041H318.536V646.681H319.976V643.561H321.516V646.681H324.796V648.041H321.516V654.081C321.516 655.341 322.216 655.801 323.256 655.801C323.776 655.801 324.216 655.701 324.756 655.441V656.761C324.216 657.041 323.636 657.201 322.896 657.201ZM326.362 644.421V642.721H328.122V644.421H326.362ZM326.462 657.021V646.681H328.002V657.021H326.462ZM335.035 657.261C332.015 657.261 329.735 654.801 329.735 651.901V651.861C329.735 648.941 332.015 646.461 335.035 646.461C336.995 646.461 338.215 647.281 339.175 648.301L338.155 649.381C337.335 648.521 336.415 647.821 335.015 647.821C332.915 647.821 331.315 649.601 331.315 651.821V651.861C331.315 654.101 332.955 655.881 335.115 655.881C336.435 655.881 337.455 655.221 338.275 654.341L339.255 655.261C338.215 656.421 336.975 657.261 335.035 657.261ZM344.021 657.221C342.541 657.221 340.901 656.641 339.741 655.701L340.521 654.601C341.641 655.441 342.881 655.921 344.101 655.921C345.341 655.921 346.241 655.281 346.241 654.281V654.241C346.241 653.201 345.021 652.801 343.661 652.421C342.041 651.961 340.241 651.401 340.241 649.501V649.461C340.241 647.681 341.721 646.501 343.761 646.501C345.021 646.501 346.421 646.941 347.481 647.641L346.781 648.801C345.821 648.181 344.721 647.801 343.721 647.801C342.501 647.801 341.721 648.441 341.721 649.301V649.341C341.721 650.321 343.001 650.701 344.381 651.121C345.981 651.601 347.701 652.221 347.701 654.081V654.121C347.701 656.081 346.081 657.221 344.021 657.221ZM364.518 657.301L362.318 655.041C361.038 656.421 359.558 657.221 357.738 657.221C355.218 657.221 353.338 655.641 353.338 653.301V653.261C353.338 651.401 354.578 650.061 356.718 649.221C355.758 648.101 355.318 647.241 355.318 646.141V646.101C355.318 644.261 356.798 642.781 359.018 642.781C360.978 642.781 362.418 644.201 362.418 645.941V645.981C362.418 647.761 361.158 648.901 359.118 649.621L362.318 652.881C362.938 651.981 363.498 650.921 363.998 649.761L365.298 650.361C364.678 651.681 364.038 652.881 363.278 653.881L365.718 656.381L364.518 657.301ZM358.238 648.721C360.018 648.121 360.938 647.261 360.938 646.061V646.021C360.938 644.901 360.098 644.081 358.958 644.081C357.698 644.081 356.838 644.961 356.838 646.101V646.141C356.838 646.961 357.178 647.581 358.238 648.721ZM357.858 655.881C359.178 655.881 360.338 655.181 361.358 654.061L357.618 650.201C355.758 650.881 354.938 652.021 354.938 653.201V653.241C354.938 654.741 356.138 655.881 357.858 655.881ZM371.68 657.021V646.681H373.22V649.381C373.98 647.661 375.48 646.421 377.44 646.501V648.161H377.32C375.06 648.161 373.22 649.781 373.22 652.901V657.021H371.68ZM382.656 657.261C379.816 657.261 377.496 655.081 377.496 651.881V651.841C377.496 648.861 379.596 646.461 382.456 646.461C385.516 646.461 387.276 648.901 387.276 651.921C387.276 652.121 387.276 652.241 387.256 652.421H379.056C379.276 654.661 380.856 655.921 382.696 655.921C384.116 655.921 385.116 655.341 385.956 654.461L386.916 655.321C385.876 656.481 384.616 657.261 382.656 657.261ZM379.056 651.281H385.716C385.556 649.401 384.476 647.761 382.416 647.761C380.616 647.761 379.256 649.261 379.056 651.281ZM388.772 660.221V646.681H390.312V648.761C391.152 647.521 392.372 646.461 394.272 646.461C396.752 646.461 399.212 648.421 399.212 651.821V651.861C399.212 655.241 396.772 657.241 394.272 657.241C392.352 657.241 391.112 656.201 390.312 655.041V660.221H388.772ZM393.992 655.861C395.992 655.861 397.632 654.381 397.632 651.881V651.841C397.632 649.401 395.952 647.841 393.992 647.841C392.072 647.841 390.252 649.461 390.252 651.821V651.861C390.252 654.261 392.072 655.861 393.992 655.861ZM405.574 657.261C402.474 657.261 400.214 654.821 400.214 651.901V651.861C400.214 648.941 402.494 646.461 405.614 646.461C408.714 646.461 410.994 648.901 410.994 651.821V651.861C410.994 654.781 408.694 657.261 405.574 657.261ZM405.614 655.881C407.854 655.881 409.414 654.081 409.414 651.901V651.861C409.414 649.641 407.754 647.821 405.574 647.821C403.334 647.821 401.794 649.641 401.794 651.821V651.861C401.794 654.081 403.434 655.881 405.614 655.881ZM412.583 657.021V646.681H414.123V649.381C414.883 647.661 416.383 646.421 418.343 646.501V648.161H418.223C415.963 648.161 414.123 649.781 414.123 652.901V657.021H412.583ZM422.949 657.201C421.289 657.201 420.029 656.381 420.029 654.281V648.041H418.589V646.681H420.029V643.561H421.569V646.681H424.849V648.041H421.569V654.081C421.569 655.341 422.269 655.801 423.309 655.801C423.829 655.801 424.269 655.701 424.809 655.441V656.761C424.269 657.041 423.689 657.201 422.949 657.201ZM426.415 644.421V642.721H428.175V644.421H426.415ZM426.515 657.021V646.681H428.055V657.021H426.515ZM430.429 657.021V646.681H431.969V648.481C432.649 647.361 433.729 646.461 435.509 646.461C438.009 646.461 439.469 648.141 439.469 650.601V657.021H437.929V650.981C437.929 649.061 436.889 647.861 435.069 647.861C433.289 647.861 431.969 649.161 431.969 651.101V657.021H430.429ZM446.133 660.261C444.413 660.261 442.813 659.781 441.433 658.821L442.133 657.621C443.313 658.481 444.633 658.941 446.113 658.941C448.393 658.941 449.873 657.681 449.873 655.261V654.041C448.973 655.241 447.713 656.221 445.813 656.221C443.333 656.221 440.953 654.361 440.953 651.381V651.341C440.953 648.321 443.353 646.461 445.813 646.461C447.753 646.461 449.013 647.421 449.853 648.541V646.681H451.393V655.221C451.393 656.821 450.913 658.041 450.073 658.881C449.153 659.801 447.773 660.261 446.133 660.261ZM446.113 654.861C448.073 654.861 449.913 653.441 449.913 651.361V651.321C449.913 649.201 448.073 647.821 446.113 647.821C444.153 647.821 442.533 649.181 442.533 651.301V651.341C442.533 653.421 444.193 654.861 446.113 654.861Z" fill="#6C6C6C"/>
<path d="M139.47 636.011L155.583 636C158.97 636.376 161.63 639.092 162 642.47V658.406C161.624 661.808 158.935 664.521 155.523 664.883H139.587C136.175 664.51 133.478 661.818 133.109 658.406C133.36 653.232 132.772 647.737 133.105 642.601C133.324 639.22 136.13 636.392 139.47 636.011V636.011ZM140.08 638.86C137.667 639.066 136.093 640.831 135.953 643.211C135.675 647.952 136.171 652.963 135.953 657.732C136.109 660.167 137.819 661.882 140.26 662.039C145.026 662.344 150.113 661.805 154.912 662.035C157.315 661.864 159.002 660.127 159.155 657.732C159.46 652.966 158.922 647.879 159.151 643.08C158.983 640.712 157.279 639.009 154.912 638.841C150.117 638.501 144.916 639.077 140.08 638.86Z" fill="#6C6C6C"/>
<path d="M141.64 643.195C142.454 643.123 143.155 643.767 143.216 644.568L143.208 656.434C142.793 658.222 140.455 658.035 140.295 656.172L140.298 644.64C140.333 643.927 140.913 643.259 141.64 643.195V643.195Z" fill="#6C6C6C"/>
<path d="M147.404 647.537C148.197 647.45 148.912 648.058 148.982 648.841C149.199 651.274 148.818 654.035 148.973 656.502C148.647 658.114 146.276 658.034 146.127 656.375C145.91 653.942 146.291 651.182 146.136 648.714C146.218 648.106 146.808 647.602 147.404 647.537L147.404 647.537Z" fill="#6C6C6C"/>
<path d="M153.239 651.878C154.147 651.814 154.741 652.539 154.814 653.385C154.869 654.026 154.889 656.206 154.696 656.731C154.164 658.174 152.034 657.898 151.892 656.307C151.834 655.655 151.804 653.596 151.925 653.011C152.05 652.403 152.63 651.92 153.239 651.878L153.239 651.878Z" fill="#6C6C6C"/>
<defs>
<filter id="filter0_d_508_4870" x="50" y="129" width="144" height="144" filterUnits="userSpaceOnUse" color-interpolation-filters="sRGB">
<feFlood flood-opacity="0" result="BackgroundImageFix"/>
<feColorMatrix in="SourceAlpha" type="matrix" values="0 0 0 0 0 0 0 0 0 0 0 0 0 0 0 0 0 0 127 0" result="hardAlpha"/>
<feOffset dx="1" dy="4"/>
<feGaussianBlur stdDeviation="2"/>
<feComposite in2="hardAlpha" operator="out"/>
<feColorMatrix type="matrix" values="0 0 0 0 0 0 0 0 0 0 0 0 0 0 0 0 0 0 0.25 0"/>
<feBlend mode="normal" in2="BackgroundImageFix" result="effect1_dropShadow_508_4870"/>
<feBlend mode="normal" in="SourceGraphic" in2="effect1_dropShadow_508_4870" result="shape"/>
</filter>
<linearGradient id="paint0_linear_508_4870" x1="295" y1="0" x2="295" y2="697" gradientUnits="userSpaceOnUse">
<stop stop-color="#0154D6"/>
<stop offset="1" stop-color="#51C4F1"/>
</linearGradient>
<linearGradient id="paint1_linear_508_4870" x1="121" y1="129" x2="121" y2="265" gradientUnits="userSpaceOnUse">
<stop stop-color="#0154D6"/>
<stop offset="1" stop-color="#51C4F1"/>
</linearGradient>
</defs>
</svg>
