<svg width="511" height="542" viewBox="0 0 511 542" fill="none" xmlns="http://www.w3.org/2000/svg">
<rect width="511" height="542" rx="20" fill="white"/>
<rect x="345" y="21" width="150" height="41" rx="20.5" fill="#DCF3FC"/>
<path d="M397.13 48V34H403.41C405.01 34 406.27 34.44 407.07 35.24C407.69 35.86 408.01 36.62 408.01 37.56V37.6C408.01 39.28 407.05 40.18 406.01 40.72C407.65 41.28 408.79 42.22 408.79 44.12V44.16C408.79 46.66 406.73 48 403.61 48H397.13ZM405.55 38V37.96C405.55 36.86 404.67 36.18 403.09 36.18H399.55V39.9H402.91C404.49 39.9 405.55 39.28 405.55 38ZM406.33 43.86C406.33 42.68 405.39 41.98 403.45 41.98H399.55V45.82H403.63C405.31 45.82 406.33 45.16 406.33 43.9V43.86ZM414.324 48.22C412.344 48.22 410.584 47.08 410.584 44.96V44.92C410.584 42.64 412.364 41.52 414.944 41.52C416.124 41.52 416.964 41.7 417.784 41.96V41.7C417.784 40.2 416.864 39.4 415.164 39.4C413.984 39.4 413.104 39.66 412.144 40.06L411.504 38.16C412.664 37.64 413.804 37.3 415.484 37.3C417.064 37.3 418.244 37.72 418.984 38.48C419.764 39.24 420.124 40.36 420.124 41.74V48H417.764V46.68C417.044 47.54 415.944 48.22 414.324 48.22ZM415.004 46.46C416.604 46.46 417.824 45.54 417.824 44.2V43.48C417.204 43.24 416.384 43.06 415.424 43.06C413.864 43.06 412.944 43.72 412.944 44.82V44.86C412.944 45.88 413.844 46.46 415.004 46.46ZM426.642 48.2C425.142 48.2 423.482 47.66 422.162 46.62L423.242 44.98C424.402 45.84 425.622 46.28 426.702 46.28C427.742 46.28 428.342 45.84 428.342 45.14V45.1C428.342 44.28 427.222 44 425.982 43.62C424.422 43.18 422.682 42.54 422.682 40.52V40.48C422.682 38.48 424.342 37.26 426.442 37.26C427.762 37.26 429.202 37.72 430.322 38.46L429.362 40.18C428.342 39.56 427.262 39.18 426.382 39.18C425.442 39.18 424.902 39.62 424.902 40.22V40.26C424.902 41.04 426.042 41.36 427.282 41.76C428.822 42.24 430.562 42.94 430.562 44.84V44.88C430.562 47.1 428.842 48.2 426.642 48.2ZM433.081 35.82V33.52H435.681V35.82H433.081ZM433.181 48V37.44H435.601V48H433.181ZM443.644 48.24C440.504 48.24 438.184 45.78 438.184 42.78V42.74C438.184 39.74 440.504 37.22 443.684 37.22C445.664 37.22 446.904 37.96 447.904 39.04L446.384 40.66C445.644 39.88 444.864 39.34 443.664 39.34C441.904 39.34 440.604 40.86 440.604 42.7V42.74C440.604 44.62 441.904 46.12 443.764 46.12C444.904 46.12 445.744 45.6 446.504 44.82L447.964 46.26C446.924 47.42 445.704 48.24 443.644 48.24Z" fill="#0559D7"/>
<g filter="url(#filter0_d_508_4890)">
<circle cx="108" cy="102" r="68" fill="url(#paint0_linear_508_4890)"/>
</g>
<path d="M90.4536 62C101.891 62.0142 116.019 76.2993 109.344 87.4541C109.079 87.8971 108.148 88.9092 108.167 89.2491C110.19 93.8215 111.282 98.7545 111.809 103.714L114.424 99.6661C110.079 90.0114 120.403 81.2902 129.603 81.0636C134.174 80.9502 141.684 83.2126 144.205 87.261C146.338 90.6861 143.747 90.6488 141.495 91.872C138.45 93.5267 137.206 97.5467 135.055 100.197C131.012 105.176 124.623 107.541 118.719 103.998C118.314 103.754 116.463 102.173 116.249 102.319C115.236 104.022 114.186 105.709 113.361 107.516C112.804 108.734 112.281 109.706 112.281 110.981V122.464C120.061 122.6 129.224 126.144 133.386 132.944C135.269 136.02 137.078 141.09 131.982 142H89.4185C83.1896 140.876 87.0263 133.674 89.5815 130.742C94.2486 125.388 101.845 122.725 108.86 122.442L109.051 122.317C109.17 112.447 109.692 102.258 106.315 92.8146C104.211 86.9288 100.536 81.6791 95.9929 77.3873C95.315 76.7474 93.0818 75.2228 92.9762 74.4283C92.7807 72.9656 93.8184 72.2471 95.1925 72.7093C95.4793 72.8059 96.5966 73.818 96.942 74.1064C100.844 77.3642 103.988 81.54 106.508 85.9038C106.975 85.7145 107.585 83.5204 107.652 82.9706C108.596 75.1687 101.909 68.0854 94.7245 65.9853C88.6598 64.2122 80.5483 64.9603 75.7443 69.2675L77.9592 70.8255C82.2574 74.3433 82.6394 79.1887 85.2063 83.6659C88.021 88.5744 92.6855 92.2055 98.7176 91.1767C99.6067 91.0248 100.804 90.4389 101.605 90.4222C103.433 90.3835 103.816 92.6176 102.082 93.4056C95.2186 96.5243 87.7655 92.7386 83.7475 87.1374C80.6539 82.8251 79.8522 76.3637 75.902 73.169C73.8774 71.5311 70.3353 71.0405 72.8944 67.703C75.5396 64.2534 81.8859 62.4597 86.0876 62.1442L86.3392 62H90.4523H90.4536ZM116.553 93.9503C116.454 94.7216 116.625 95.6551 116.553 96.4496L116.87 96.608C119.047 94.3894 121.218 92.2583 123.781 90.4646C124.335 90.0771 126.169 88.7611 126.675 88.631C128.1 88.2641 129.321 89.826 128.346 91.0685C127.769 91.8051 124.916 93.4056 123.914 94.1898C121.864 95.7916 119.91 97.6857 118.322 99.7331C122.451 103.968 128.029 103.259 131.901 99.1112C134.616 96.205 135.6 92.2004 138.966 89.8401C139.693 89.3302 140.485 88.9633 141.228 88.483C135.756 83.2397 126.595 82.6731 120.665 87.543C118.931 88.9671 116.845 91.6866 116.555 93.9503H116.553ZM89.425 138.868H131.976C132.638 138.868 131.684 136.453 131.557 136.157C125.601 122.116 96.6656 121.977 90.0521 135.584C89.8227 136.056 88.6924 138.643 89.4237 138.868H89.425Z" fill="white"/>
<path d="M53.4 244.4C49.12 244.4 45.08 242.92 41.72 239.92L44.68 236.4C47.36 238.72 50.08 240.04 53.52 240.04C56.56 240.04 58.48 238.6 58.48 236.52V236.44C58.48 234.44 57.36 233.36 52.16 232.16C46.2 230.72 42.84 228.96 42.84 223.8V223.72C42.84 218.92 46.84 215.6 52.4 215.6C56.48 215.6 59.72 216.84 62.56 219.12L59.92 222.84C57.4 220.96 54.88 219.96 52.32 219.96C49.44 219.96 47.76 221.44 47.76 223.28V223.36C47.76 225.52 49.04 226.48 54.44 227.76C60.36 229.2 63.4 231.32 63.4 235.96V236.04C63.4 241.28 59.28 244.4 53.4 244.4ZM73.08 244V220.56H64.2V216H86.92V220.56H78.04V244H73.08ZM83.7438 244L96.0638 215.8H100.624L112.944 244H107.744L104.904 237.24H91.6638L88.7838 244H83.7438ZM93.4638 232.88H103.104L98.2638 221.68L93.4638 232.88ZM115.345 244V216H127.825C131.345 216 134.105 217.04 135.905 218.8C137.385 220.32 138.225 222.4 138.225 224.84V224.92C138.225 229.52 135.465 232.28 131.585 233.4L139.145 244H133.305L126.425 234.24H120.265V244H115.345ZM120.265 229.88H127.465C130.985 229.88 133.225 228.04 133.225 225.2V225.12C133.225 222.12 131.065 220.48 127.425 220.48H120.265V229.88ZM148.614 244V220.56H139.734V216H162.454V220.56H153.574V244H148.614ZM165.272 244V216H186.032V220.4H170.192V227.68H184.232V232.08H170.192V239.6H186.232V244H165.272ZM189.669 244V216H202.149C205.669 216 208.429 217.04 210.229 218.8C211.709 220.32 212.549 222.4 212.549 224.84V224.92C212.549 229.52 209.789 232.28 205.909 233.4L213.469 244H207.629L200.749 234.24H194.589V244H189.669ZM194.589 229.88H201.789C205.309 229.88 207.549 228.04 207.549 225.2V225.12C207.549 222.12 205.389 220.48 201.749 220.48H194.589V229.88Z" fill="#055AD8"/>
<path d="M47.92 285.26C44.52 285.26 41.72 283.06 41.72 279.3C41.72 277.08 42.7 274.9 44.32 273.28C45.82 271.76 47.92 270.76 50.32 270.76C53.2 270.76 54.72 272 55.6 273.32L54.4 274.26C53.58 273.12 52.46 272.2 50.18 272.2C48.36 272.2 46.72 272.98 45.52 274.18C44.2 275.52 43.38 277.38 43.38 279.24C43.38 282.12 45.3 283.8 48.02 283.8C49.54 283.8 50.74 283.38 51.64 282.82L52.74 278.94H48.52L48.9 277.52H54.68L52.9 283.8C51.42 284.72 49.86 285.26 47.92 285.26ZM65.1036 280.36H57.0036C56.9836 280.5 56.9836 280.64 56.9836 280.78C56.9836 282.66 58.1836 283.9 60.1036 283.9C61.4436 283.9 62.3436 283.44 63.2836 282.68L64.0836 283.7C63.0636 284.56 61.8436 285.24 60.0236 285.24C57.2836 285.24 55.4436 283.46 55.4436 280.84C55.4436 279.12 56.1836 277.4 57.4036 276.18C58.4636 275.12 59.8636 274.44 61.4636 274.44C64.0836 274.44 65.4636 276.24 65.4636 278.4C65.4636 279.1 65.3236 279.76 65.1036 280.36ZM58.5036 276.98C57.9036 277.58 57.4636 278.36 57.2036 279.2H63.8636C63.9236 279.02 63.9636 278.76 63.9636 278.4C63.9636 276.98 63.1636 275.74 61.3836 275.74C60.2436 275.74 59.2636 276.24 58.5036 276.98ZM69.1009 285.18C67.6209 285.18 66.5809 284.48 66.5809 283.14C66.5809 282.78 66.6409 282.38 66.7209 282.06L68.3409 276.02H66.9209L67.2809 274.66H68.7209L69.5609 271.54H71.0809L70.2409 274.66H73.5009L73.1409 276.02H69.8809L68.2809 281.98C68.2409 282.22 68.2009 282.52 68.2009 282.74C68.2009 283.46 68.7409 283.8 69.6209 283.8C70.0809 283.8 70.5809 283.7 71.1209 283.48L70.7409 284.88C70.2009 285.1 69.7009 285.18 69.1009 285.18ZM81.0244 285.22C79.4244 285.22 77.7644 284.62 76.5644 283.42L77.5644 282.42C78.6844 283.5 79.9244 283.94 81.1644 283.94C82.3444 283.94 83.4444 283.26 83.4444 282.22C83.4444 281.54 82.9844 281.04 81.4844 280.46C79.6244 279.74 78.5644 279.06 78.5644 277.62C78.5644 275.86 80.0844 274.44 82.4844 274.44C84.0044 274.44 85.4444 275.12 86.3044 275.86L85.4044 276.92C84.5444 276.22 83.4644 275.72 82.3444 275.72C80.8844 275.72 80.1044 276.5 80.1044 277.36C80.1044 278.04 80.5244 278.48 82.1644 279.12C84.0244 279.88 84.9844 280.62 84.9844 281.96C84.9844 283.88 83.2244 285.22 81.0244 285.22ZM89.2509 285.18C87.7709 285.18 86.7309 284.48 86.7309 283.14C86.7309 282.78 86.7909 282.38 86.8709 282.06L88.4909 276.02H87.0709L87.4309 274.66H88.8709L89.7109 271.54H91.2309L90.3909 274.66H93.6509L93.2909 276.02H90.0309L88.4309 281.98C88.3909 282.22 88.3509 282.52 88.3509 282.74C88.3509 283.46 88.8909 283.8 89.7709 283.8C90.2309 283.8 90.7309 283.7 91.2709 283.48L90.8909 284.88C90.3509 285.1 89.8509 285.18 89.2509 285.18ZM95.6983 285.22C93.9583 285.22 92.4183 284.2 92.4183 282.36C92.4183 281.36 92.7783 280.52 93.3983 279.9C94.2183 279.08 95.4983 278.62 97.0183 278.62C98.3983 278.62 99.6983 278.9 100.698 279.18L100.758 278.94C100.838 278.64 100.898 278.26 100.898 277.98C100.898 276.64 99.9783 275.88 98.0983 275.88C96.9983 275.88 96.0983 276.1 95.1783 276.42L94.9183 275.14C95.9383 274.76 96.9983 274.52 98.3383 274.52C100.938 274.52 102.398 275.72 102.398 277.72C102.398 278.16 102.318 278.66 102.178 279.14L100.618 285H99.1183L99.5583 283.38C98.5983 284.48 97.3383 285.22 95.6983 285.22ZM96.1783 284.02C97.9183 284.02 99.7383 282.76 100.238 280.94L100.438 280.22C99.5383 279.96 98.3583 279.76 97.0783 279.76C96.0183 279.76 95.1783 280.08 94.6383 280.62C94.1983 281.04 93.9783 281.58 93.9783 282.18C93.9783 283.28 94.8383 284.02 96.1783 284.02ZM102.702 285L105.462 274.66H107.002L106.302 277.36C107.562 275.56 109.162 274.36 111.222 274.48L110.782 276.14H110.682C108.422 276.14 106.162 277.8 105.342 280.92L104.242 285H102.702ZM113.249 285.18C111.769 285.18 110.729 284.48 110.729 283.14C110.729 282.78 110.789 282.38 110.869 282.06L112.489 276.02H111.069L111.429 274.66H112.869L113.709 271.54H115.229L114.389 274.66H117.649L117.289 276.02H114.029L112.429 281.98C112.389 282.22 112.349 282.52 112.349 282.74C112.349 283.46 112.889 283.8 113.769 283.8C114.229 283.8 114.729 283.7 115.269 283.48L114.889 284.88C114.349 285.1 113.849 285.18 113.249 285.18ZM126.461 280.36H118.361C118.341 280.5 118.341 280.64 118.341 280.78C118.341 282.66 119.541 283.9 121.461 283.9C122.801 283.9 123.701 283.44 124.641 282.68L125.441 283.7C124.421 284.56 123.201 285.24 121.381 285.24C118.641 285.24 116.801 283.46 116.801 280.84C116.801 279.12 117.541 277.4 118.761 276.18C119.821 275.12 121.221 274.44 122.821 274.44C125.441 274.44 126.821 276.24 126.821 278.4C126.821 279.1 126.681 279.76 126.461 280.36ZM119.861 276.98C119.261 277.58 118.821 278.36 118.561 279.2H125.221C125.281 279.02 125.321 278.76 125.321 278.4C125.321 276.98 124.521 275.74 122.741 275.74C121.601 275.74 120.621 276.24 119.861 276.98ZM134.958 285L135.438 283.24C134.438 284.36 133.178 285.24 131.518 285.24C129.178 285.24 127.418 283.48 127.418 280.86C127.418 278.94 128.178 277.28 129.338 276.12C130.398 275.06 131.778 274.44 133.218 274.44C135.338 274.44 136.538 275.64 137.098 277L138.858 270.4H140.398L136.498 285H134.958ZM131.958 283.88C133.058 283.88 134.178 283.36 135.038 282.5C135.938 281.58 136.558 280.32 136.558 279C136.558 277.2 135.258 275.8 133.358 275.8C132.258 275.8 131.258 276.26 130.518 277C129.598 277.92 129.038 279.28 129.038 280.72C129.038 282.64 130.238 283.88 131.958 283.88ZM145.938 285.08L145.118 274.66H146.678L147.218 282.9L152.218 274.62H153.498L154.078 282.9L159.058 274.66H160.658L154.218 285.08H152.858L152.258 276.92L147.278 285.08H145.938ZM159.431 285L162.211 274.66H163.751L160.971 285H159.431ZM162.711 272.4L163.171 270.7H164.931L164.471 272.4H162.711ZM167.064 285.18C165.584 285.18 164.544 284.48 164.544 283.14C164.544 282.78 164.604 282.38 164.684 282.06L166.304 276.02H164.884L165.244 274.66H166.684L167.524 271.54H169.044L168.204 274.66H171.464L171.104 276.02H167.844L166.244 281.98C166.204 282.22 166.164 282.52 166.164 282.74C166.164 283.46 166.704 283.8 167.584 283.8C168.044 283.8 168.544 283.7 169.084 283.48L168.704 284.88C168.164 285.1 167.664 285.18 167.064 285.18ZM170.192 285L174.112 270.4H175.652L174.052 276.34C174.992 275.28 176.072 274.44 177.652 274.44C179.652 274.44 180.952 275.68 180.952 277.64C180.952 278.12 180.832 278.7 180.692 279.24L179.172 285H177.632L179.192 279.14C179.292 278.8 179.352 278.32 179.352 277.98C179.352 276.62 178.472 275.82 177.032 275.82C175.432 275.82 173.832 277.2 173.292 279.16L171.732 285H170.192ZM189.753 285.18C188.273 285.18 187.233 284.48 187.233 283.14C187.233 282.78 187.293 282.38 187.373 282.06L188.993 276.02H187.573L187.933 274.66H189.373L190.213 271.54H191.733L190.893 274.66H194.153L193.793 276.02H190.533L188.933 281.98C188.893 282.22 188.853 282.52 188.853 282.74C188.853 283.46 189.393 283.8 190.273 283.8C190.733 283.8 191.233 283.7 191.773 283.48L191.393 284.88C190.853 285.1 190.353 285.18 189.753 285.18ZM192.881 285L196.801 270.4H198.341L196.741 276.34C197.681 275.28 198.761 274.44 200.341 274.44C202.341 274.44 203.641 275.68 203.641 277.64C203.641 278.12 203.521 278.7 203.381 279.24L201.861 285H200.321L201.881 279.14C201.981 278.8 202.041 278.32 202.041 277.98C202.041 276.62 201.161 275.82 199.721 275.82C198.121 275.82 196.521 277.2 195.981 279.16L194.421 285H192.881ZM214.226 280.36H206.126C206.106 280.5 206.106 280.64 206.106 280.78C206.106 282.66 207.306 283.9 209.226 283.9C210.566 283.9 211.466 283.44 212.406 282.68L213.206 283.7C212.186 284.56 210.966 285.24 209.146 285.24C206.406 285.24 204.566 283.46 204.566 280.84C204.566 279.12 205.306 277.4 206.526 276.18C207.586 275.12 208.986 274.44 210.586 274.44C213.206 274.44 214.586 276.24 214.586 278.4C214.586 279.1 214.446 279.76 214.226 280.36ZM207.626 276.98C207.026 277.58 206.586 278.36 206.326 279.2H212.986C213.046 279.02 213.086 278.76 213.086 278.4C213.086 276.98 212.286 275.74 210.506 275.74C209.366 275.74 208.386 276.24 207.626 276.98ZM229.6 280.36H221.5C221.48 280.5 221.48 280.64 221.48 280.78C221.48 282.66 222.68 283.9 224.6 283.9C225.94 283.9 226.84 283.44 227.78 282.68L228.58 283.7C227.56 284.56 226.34 285.24 224.52 285.24C221.78 285.24 219.94 283.46 219.94 280.84C219.94 279.12 220.68 277.4 221.9 276.18C222.96 275.12 224.36 274.44 225.96 274.44C228.58 274.44 229.96 276.24 229.96 278.4C229.96 279.1 229.82 279.76 229.6 280.36ZM223 276.98C222.4 277.58 221.96 278.36 221.7 279.2H228.36C228.42 279.02 228.46 278.76 228.46 278.4C228.46 276.98 227.66 275.74 225.88 275.74C224.74 275.74 223.76 276.24 223 276.98ZM233.897 285.22C232.297 285.22 230.637 284.62 229.437 283.42L230.437 282.42C231.557 283.5 232.797 283.94 234.037 283.94C235.217 283.94 236.317 283.26 236.317 282.22C236.317 281.54 235.857 281.04 234.357 280.46C232.497 279.74 231.437 279.06 231.437 277.62C231.437 275.86 232.957 274.44 235.357 274.44C236.877 274.44 238.317 275.12 239.177 275.86L238.277 276.92C237.417 276.22 236.337 275.72 235.217 275.72C233.757 275.72 232.977 276.5 232.977 277.36C232.977 278.04 233.397 278.48 235.037 279.12C236.897 279.88 237.857 280.62 237.857 281.96C237.857 283.88 236.097 285.22 233.897 285.22ZM242.424 285.22C240.824 285.22 239.164 284.62 237.964 283.42L238.964 282.42C240.084 283.5 241.324 283.94 242.564 283.94C243.744 283.94 244.844 283.26 244.844 282.22C244.844 281.54 244.384 281.04 242.884 280.46C241.024 279.74 239.964 279.06 239.964 277.62C239.964 275.86 241.484 274.44 243.884 274.44C245.404 274.44 246.844 275.12 247.704 275.86L246.804 276.92C245.944 276.22 244.864 275.72 243.744 275.72C242.284 275.72 241.504 276.5 241.504 277.36C241.504 278.04 241.924 278.48 243.564 279.12C245.424 279.88 246.384 280.62 246.384 281.96C246.384 283.88 244.624 285.22 242.424 285.22ZM257.425 280.36H249.325C249.305 280.5 249.305 280.64 249.305 280.78C249.305 282.66 250.505 283.9 252.425 283.9C253.765 283.9 254.665 283.44 255.605 282.68L256.405 283.7C255.385 284.56 254.165 285.24 252.345 285.24C249.605 285.24 247.765 283.46 247.765 280.84C247.765 279.12 248.505 277.4 249.725 276.18C250.785 275.12 252.185 274.44 253.785 274.44C256.405 274.44 257.785 276.24 257.785 278.4C257.785 279.1 257.645 279.76 257.425 280.36ZM250.825 276.98C250.225 277.58 249.785 278.36 249.525 279.2H256.185C256.245 279.02 256.285 278.76 256.285 278.4C256.285 276.98 255.485 275.74 253.705 275.74C252.565 275.74 251.585 276.24 250.825 276.98ZM257.723 285L260.483 274.66H262.023L261.583 276.34C262.523 275.28 263.603 274.44 265.183 274.44C267.183 274.44 268.483 275.68 268.483 277.64C268.483 278.12 268.363 278.7 268.223 279.24L266.703 285H265.163L266.723 279.14C266.823 278.8 266.883 278.32 266.883 277.98C266.883 276.62 266.003 275.82 264.563 275.82C262.963 275.82 261.363 277.2 260.823 279.16L259.263 285H257.723ZM272.488 285.18C271.008 285.18 269.968 284.48 269.968 283.14C269.968 282.78 270.028 282.38 270.108 282.06L271.728 276.02H270.308L270.668 274.66H272.108L272.948 271.54H274.468L273.628 274.66H276.888L276.528 276.02H273.268L271.668 281.98C271.628 282.22 271.588 282.52 271.588 282.74C271.588 283.46 272.128 283.8 273.008 283.8C273.468 283.8 273.968 283.7 274.508 283.48L274.128 284.88C273.588 285.1 273.088 285.18 272.488 285.18ZM275.756 285L278.536 274.66H280.076L277.296 285H275.756ZM279.036 272.4L279.496 270.7H281.256L280.796 272.4H279.036ZM283.009 285.22C281.269 285.22 279.729 284.2 279.729 282.36C279.729 281.36 280.089 280.52 280.709 279.9C281.529 279.08 282.809 278.62 284.329 278.62C285.709 278.62 287.009 278.9 288.009 279.18L288.069 278.94C288.149 278.64 288.209 278.26 288.209 277.98C288.209 276.64 287.289 275.88 285.409 275.88C284.309 275.88 283.409 276.1 282.489 276.42L282.229 275.14C283.249 274.76 284.309 274.52 285.649 274.52C288.249 274.52 289.709 275.72 289.709 277.72C289.709 278.16 289.629 278.66 289.489 279.14L287.929 285H286.429L286.869 283.38C285.909 284.48 284.649 285.22 283.009 285.22ZM283.489 284.02C285.229 284.02 287.049 282.76 287.549 280.94L287.749 280.22C286.849 279.96 285.669 279.76 284.389 279.76C283.329 279.76 282.489 280.08 281.949 280.62C281.509 281.04 281.289 281.58 281.289 282.18C281.289 283.28 282.149 284.02 283.489 284.02ZM290.153 285L294.073 270.4H295.613L291.693 285H290.153ZM298.086 285.22C296.486 285.22 294.826 284.62 293.626 283.42L294.626 282.42C295.746 283.5 296.986 283.94 298.226 283.94C299.406 283.94 300.506 283.26 300.506 282.22C300.506 281.54 300.046 281.04 298.546 280.46C296.686 279.74 295.626 279.06 295.626 277.62C295.626 275.86 297.146 274.44 299.546 274.44C301.066 274.44 302.506 275.12 303.366 275.86L302.466 276.92C301.606 276.22 300.526 275.72 299.406 275.72C297.946 275.72 297.166 276.5 297.166 277.36C297.166 278.04 297.586 278.48 299.226 279.12C301.086 279.88 302.046 280.62 302.046 281.96C302.046 283.88 300.286 285.22 298.086 285.22Z" fill="#6C6C6C"/>
<path d="M41.98 323V309H47.22C50.38 309 52.46 310.68 52.46 313.44V313.48C52.46 316.5 49.94 318.06 46.96 318.06H43.56V323H41.98ZM43.56 316.62H47.02C49.34 316.62 50.86 315.38 50.86 313.54V313.5C50.86 311.5 49.36 310.46 47.1 310.46H43.56V316.62ZM58.3017 323.24C55.4617 323.24 53.1417 321.06 53.1417 317.86V317.82C53.1417 314.84 55.2417 312.44 58.1017 312.44C61.1617 312.44 62.9217 314.88 62.9217 317.9C62.9217 318.1 62.9217 318.22 62.9017 318.4H54.7017C54.9217 320.64 56.5017 321.9 58.3417 321.9C59.7617 321.9 60.7617 321.32 61.6017 320.44L62.5617 321.3C61.5217 322.46 60.2617 323.24 58.3017 323.24ZM54.7017 317.26H61.3617C61.2017 315.38 60.1217 313.74 58.0617 313.74C56.2617 313.74 54.9017 315.24 54.7017 317.26ZM64.4177 323V312.66H65.9577V315.36C66.7177 313.64 68.2177 312.4 70.1777 312.48V314.14H70.0577C67.7977 314.14 65.9577 315.76 65.9577 318.88V323H64.4177ZM71.9031 323V314.02H70.4831V312.68H71.9031V311.78C71.9031 310.6 72.2231 309.7 72.8031 309.12C73.3231 308.6 74.0831 308.32 75.0231 308.32C75.7431 308.32 76.2231 308.4 76.7231 308.58V309.92C76.1631 309.76 75.7431 309.66 75.2231 309.66C74.0231 309.66 73.4231 310.38 73.4231 311.86V312.7H76.7031V314.02H73.4431V323H71.9031ZM81.7916 323.24C78.9516 323.24 76.6316 321.06 76.6316 317.86V317.82C76.6316 314.84 78.7316 312.44 81.5916 312.44C84.6516 312.44 86.4116 314.88 86.4116 317.9C86.4116 318.1 86.4116 318.22 86.3916 318.4H78.1916C78.4116 320.64 79.9916 321.9 81.8316 321.9C83.2516 321.9 84.2516 321.32 85.0916 320.44L86.0516 321.3C85.0116 322.46 83.7516 323.24 81.7916 323.24ZM78.1916 317.26H84.8516C84.6916 315.38 83.6116 313.74 81.5516 313.74C79.7516 313.74 78.3916 315.24 78.1916 317.26ZM92.5675 323.24C89.5475 323.24 87.2675 320.78 87.2675 317.88V317.84C87.2675 314.92 89.5475 312.44 92.5675 312.44C94.5275 312.44 95.7475 313.26 96.7075 314.28L95.6875 315.36C94.8675 314.5 93.9475 313.8 92.5475 313.8C90.4475 313.8 88.8475 315.58 88.8475 317.8V317.84C88.8475 320.08 90.4875 321.86 92.6475 321.86C93.9675 321.86 94.9875 321.2 95.8075 320.32L96.7875 321.24C95.7475 322.4 94.5075 323.24 92.5675 323.24ZM101.593 323.18C99.9333 323.18 98.6733 322.36 98.6733 320.26V314.02H97.2333V312.66H98.6733V309.54H100.213V312.66H103.493V314.02H100.213V320.06C100.213 321.32 100.913 321.78 101.953 321.78C102.473 321.78 102.913 321.68 103.453 321.42V322.74C102.913 323.02 102.333 323.18 101.593 323.18ZM114.026 323V314.02H112.606V312.68H114.026V311.78C114.026 310.6 114.346 309.7 114.926 309.12C115.446 308.6 116.206 308.32 117.146 308.32C117.866 308.32 118.346 308.4 118.846 308.58V309.92C118.286 309.76 117.866 309.66 117.346 309.66C116.146 309.66 115.546 310.38 115.546 311.86V312.7H118.826V314.02H115.566V323H114.026ZM124.114 323.24C121.014 323.24 118.754 320.8 118.754 317.88V317.84C118.754 314.92 121.034 312.44 124.154 312.44C127.254 312.44 129.534 314.88 129.534 317.8V317.84C129.534 320.76 127.234 323.24 124.114 323.24ZM124.154 321.86C126.394 321.86 127.954 320.06 127.954 317.88V317.84C127.954 315.62 126.294 313.8 124.114 313.8C121.874 313.8 120.334 315.62 120.334 317.8V317.84C120.334 320.06 121.974 321.86 124.154 321.86ZM131.124 323V312.66H132.664V315.36C133.424 313.64 134.924 312.4 136.884 312.48V314.14H136.764C134.504 314.14 132.664 315.76 132.664 318.88V323H131.124ZM146.496 310.4V308.7H148.256V310.4H146.496ZM146.596 323V312.66H148.136V323H146.596ZM150.51 323V312.66H152.05V314.46C152.73 313.34 153.81 312.44 155.59 312.44C158.09 312.44 159.55 314.12 159.55 316.58V323H158.01V316.96C158.01 315.04 156.97 313.84 155.15 313.84C153.37 313.84 152.05 315.14 152.05 317.08V323H150.51ZM165.974 323.22C163.494 323.22 161.034 321.26 161.034 317.86V317.82C161.034 314.44 163.494 312.44 165.974 312.44C167.894 312.44 169.134 313.48 169.934 314.64V308.4H171.474V323H169.934V320.92C169.094 322.16 167.874 323.22 165.974 323.22ZM166.254 321.84C168.174 321.84 169.994 320.22 169.994 317.84V317.8C169.994 315.42 168.174 313.82 166.254 313.82C164.254 313.82 162.614 315.3 162.614 317.8V317.84C162.614 320.28 164.314 321.84 166.254 321.84ZM173.756 310.4V308.7H175.516V310.4H173.756ZM173.856 323V312.66H175.396V323H173.856ZM181.229 323.08L176.749 312.66H178.449L181.929 321.24L185.429 312.66H187.089L182.589 323.08H181.229ZM188.348 310.4V308.7H190.108V310.4H188.348ZM188.448 323V312.66H189.988V323H188.448ZM196.702 323.22C194.222 323.22 191.762 321.26 191.762 317.86V317.82C191.762 314.44 194.222 312.44 196.702 312.44C198.622 312.44 199.862 313.48 200.662 314.64V308.4H202.202V323H200.662V320.92C199.822 322.16 198.602 323.22 196.702 323.22ZM196.982 321.84C198.902 321.84 200.722 320.22 200.722 317.84V317.8C200.722 315.42 198.902 313.82 196.982 313.82C194.982 313.82 193.342 315.3 193.342 317.8V317.84C193.342 320.28 195.042 321.84 196.982 321.84ZM208.243 323.22C205.743 323.22 204.283 321.54 204.283 319.08V312.66H205.823V318.7C205.823 320.62 206.863 321.82 208.683 321.82C210.443 321.82 211.783 320.52 211.783 318.58V312.66H213.303V323H211.783V321.2C211.083 322.32 210.023 323.22 208.243 323.22ZM218.647 323.22C216.727 323.22 214.787 322.12 214.787 320V319.96C214.787 317.78 216.587 316.62 219.207 316.62C220.527 316.62 221.467 316.8 222.387 317.06V316.7C222.387 314.84 221.247 313.88 219.307 313.88C218.087 313.88 217.127 314.2 216.167 314.64L215.707 313.38C216.847 312.86 217.967 312.52 219.467 312.52C220.927 312.52 222.047 312.9 222.807 313.66C223.507 314.36 223.867 315.36 223.867 316.68V323H222.387V321.44C221.667 322.38 220.467 323.22 218.647 323.22ZM218.947 322C220.847 322 222.407 320.84 222.407 319.2V318.2C221.647 317.98 220.627 317.76 219.367 317.76C217.427 317.76 216.347 318.6 216.347 319.9V319.94C216.347 321.24 217.547 322 218.947 322ZM226.089 323V308.4H227.629V323H226.089ZM233.423 323.2C231.943 323.2 230.303 322.62 229.143 321.68L229.923 320.58C231.043 321.42 232.283 321.9 233.503 321.9C234.743 321.9 235.643 321.26 235.643 320.26V320.22C235.643 319.18 234.423 318.78 233.063 318.4C231.443 317.94 229.643 317.38 229.643 315.48V315.44C229.643 313.66 231.123 312.48 233.163 312.48C234.423 312.48 235.823 312.92 236.883 313.62L236.183 314.78C235.223 314.16 234.123 313.78 233.123 313.78C231.903 313.78 231.123 314.42 231.123 315.28V315.32C231.123 316.3 232.403 316.68 233.783 317.1C235.383 317.58 237.103 318.2 237.103 320.06V320.1C237.103 322.06 235.483 323.2 233.423 323.2ZM251.911 323.24C248.811 323.24 246.551 320.8 246.551 317.88V317.84C246.551 314.92 248.831 312.44 251.951 312.44C255.051 312.44 257.331 314.88 257.331 317.8V317.84C257.331 320.76 255.031 323.24 251.911 323.24ZM251.951 321.86C254.191 321.86 255.751 320.06 255.751 317.88V317.84C255.751 315.62 254.091 313.8 251.911 313.8C249.671 313.8 248.131 315.62 248.131 317.8V317.84C248.131 320.06 249.771 321.86 251.951 321.86ZM258.92 323V312.66H260.46V315.36C261.22 313.64 262.72 312.4 264.68 312.48V314.14H264.56C262.3 314.14 260.46 315.76 260.46 318.88V323H258.92ZM277.673 323.2C276.193 323.2 274.553 322.62 273.393 321.68L274.173 320.58C275.293 321.42 276.533 321.9 277.753 321.9C278.993 321.9 279.893 321.26 279.893 320.26V320.22C279.893 319.18 278.673 318.78 277.313 318.4C275.693 317.94 273.893 317.38 273.893 315.48V315.44C273.893 313.66 275.373 312.48 277.413 312.48C278.673 312.48 280.073 312.92 281.133 313.62L280.433 314.78C279.473 314.16 278.373 313.78 277.373 313.78C276.153 313.78 275.373 314.42 275.373 315.28V315.32C275.373 316.3 276.653 316.68 278.033 317.1C279.633 317.58 281.353 318.2 281.353 320.06V320.1C281.353 322.06 279.733 323.2 277.673 323.2ZM283.013 323V312.66H284.553V314.4C285.233 313.38 286.153 312.44 287.893 312.44C289.573 312.44 290.653 313.34 291.213 314.5C291.953 313.36 293.053 312.44 294.853 312.44C297.233 312.44 298.693 314.04 298.693 316.6V323H297.153V316.96C297.153 314.96 296.153 313.84 294.473 313.84C292.913 313.84 291.633 315 291.633 317.04V323H290.093V316.92C290.093 314.98 289.073 313.84 287.433 313.84C285.793 313.84 284.553 315.2 284.553 317.1V323H283.013ZM303.917 323.22C301.997 323.22 300.057 322.12 300.057 320V319.96C300.057 317.78 301.857 316.62 304.477 316.62C305.797 316.62 306.737 316.8 307.657 317.06V316.7C307.657 314.84 306.517 313.88 304.577 313.88C303.357 313.88 302.397 314.2 301.437 314.64L300.977 313.38C302.117 312.86 303.237 312.52 304.737 312.52C306.197 312.52 307.317 312.9 308.077 313.66C308.777 314.36 309.137 315.36 309.137 316.68V323H307.657V321.44C306.937 322.38 305.737 323.22 303.917 323.22ZM304.217 322C306.117 322 307.677 320.84 307.677 319.2V318.2C306.917 317.98 305.897 317.76 304.637 317.76C302.697 317.76 301.617 318.6 301.617 319.9V319.94C301.617 321.24 302.817 322 304.217 322ZM311.359 323V308.4H312.899V323H311.359ZM315.413 323V308.4H316.953V323H315.413ZM331.213 323.18C329.553 323.18 328.293 322.36 328.293 320.26V314.02H326.853V312.66H328.293V309.54H329.833V312.66H333.113V314.02H329.833V320.06C329.833 321.32 330.533 321.78 331.573 321.78C332.093 321.78 332.533 321.68 333.073 321.42V322.74C332.533 323.02 331.953 323.18 331.213 323.18ZM338.866 323.24C336.026 323.24 333.706 321.06 333.706 317.86V317.82C333.706 314.84 335.806 312.44 338.666 312.44C341.726 312.44 343.486 314.88 343.486 317.9C343.486 318.1 343.486 318.22 343.466 318.4H335.266C335.486 320.64 337.066 321.9 338.906 321.9C340.326 321.9 341.326 321.32 342.166 320.44L343.126 321.3C342.086 322.46 340.826 323.24 338.866 323.24ZM335.266 317.26H341.926C341.766 315.38 340.686 313.74 338.626 313.74C336.826 313.74 335.466 315.24 335.266 317.26ZM348.062 323.22C346.142 323.22 344.202 322.12 344.202 320V319.96C344.202 317.78 346.002 316.62 348.622 316.62C349.942 316.62 350.882 316.8 351.802 317.06V316.7C351.802 314.84 350.662 313.88 348.722 313.88C347.502 313.88 346.542 314.2 345.582 314.64L345.122 313.38C346.262 312.86 347.382 312.52 348.882 312.52C350.342 312.52 351.462 312.9 352.222 313.66C352.922 314.36 353.282 315.36 353.282 316.68V323H351.802V321.44C351.082 322.38 349.882 323.22 348.062 323.22ZM348.362 322C350.262 322 351.822 320.84 351.822 319.2V318.2C351.062 317.98 350.042 317.76 348.782 317.76C346.842 317.76 345.762 318.6 345.762 319.9V319.94C345.762 321.24 346.962 322 348.362 322ZM355.364 323V312.66H356.904V314.4C357.584 313.38 358.504 312.44 360.244 312.44C361.924 312.44 363.004 313.34 363.564 314.5C364.304 313.36 365.404 312.44 367.204 312.44C369.584 312.44 371.044 314.04 371.044 316.6V323H369.504V316.96C369.504 314.96 368.504 313.84 366.824 313.84C365.264 313.84 363.984 315 363.984 317.04V323H362.444V316.92C362.444 314.98 361.424 313.84 359.784 313.84C358.144 313.84 356.904 315.2 356.904 317.1V323H355.364ZM376.608 323.2C375.128 323.2 373.488 322.62 372.328 321.68L373.108 320.58C374.228 321.42 375.468 321.9 376.688 321.9C377.928 321.9 378.828 321.26 378.828 320.26V320.22C378.828 319.18 377.608 318.78 376.248 318.4C374.628 317.94 372.828 317.38 372.828 315.48V315.44C372.828 313.66 374.308 312.48 376.348 312.48C377.608 312.48 379.008 312.92 380.068 313.62L379.368 314.78C378.408 314.16 377.308 313.78 376.308 313.78C375.088 313.78 374.308 314.42 374.308 315.28V315.32C374.308 316.3 375.588 316.68 376.968 317.1C378.568 317.58 380.288 318.2 380.288 320.06V320.1C380.288 322.06 378.668 323.2 376.608 323.2ZM394.895 323.24C392.055 323.24 389.735 321.06 389.735 317.86V317.82C389.735 314.84 391.835 312.44 394.695 312.44C397.755 312.44 399.515 314.88 399.515 317.9C399.515 318.1 399.515 318.22 399.495 318.4H391.295C391.515 320.64 393.095 321.9 394.935 321.9C396.355 321.9 397.355 321.32 398.195 320.44L399.155 321.3C398.115 322.46 396.855 323.24 394.895 323.24ZM391.295 317.26H397.955C397.795 315.38 396.715 313.74 394.655 313.74C392.855 313.74 391.495 315.24 391.295 317.26ZM401.386 312.66L404.426 316.7L407.506 312.66H409.226L405.306 317.72L409.386 323H407.606L404.406 318.74L401.186 323H399.466L403.506 317.74L399.626 312.66H401.386ZM410.69 326.2V312.66H412.23V314.74C413.07 313.5 414.29 312.44 416.19 312.44C418.67 312.44 421.13 314.4 421.13 317.8V317.84C421.13 321.22 418.69 323.22 416.19 323.22C414.27 323.22 413.03 322.18 412.23 321.02V326.2H410.69ZM415.91 321.84C417.91 321.84 419.55 320.36 419.55 317.86V317.82C419.55 315.38 417.87 313.82 415.91 313.82C413.99 313.82 412.17 315.44 412.17 317.8V317.84C412.17 320.24 413.99 321.84 415.91 321.84ZM422.912 323V308.4H424.452V323H422.912ZM431.545 323.24C428.445 323.24 426.185 320.8 426.185 317.88V317.84C426.185 314.92 428.465 312.44 431.585 312.44C434.685 312.44 436.965 314.88 436.965 317.8V317.84C436.965 320.76 434.665 323.24 431.545 323.24ZM431.585 321.86C433.825 321.86 435.385 320.06 435.385 317.88V317.84C435.385 315.62 433.725 313.8 431.545 313.8C429.305 313.8 427.765 315.62 427.765 317.8V317.84C427.765 320.06 429.405 321.86 431.585 321.86ZM438.555 323V312.66H440.095V315.36C440.855 313.64 442.355 312.4 444.315 312.48V314.14H444.195C441.935 314.14 440.095 315.76 440.095 318.88V323H438.555ZM445.501 310.4V308.7H447.261V310.4H445.501ZM445.601 323V312.66H447.141V323H445.601ZM449.515 323V312.66H451.055V314.46C451.735 313.34 452.815 312.44 454.595 312.44C457.095 312.44 458.555 314.12 458.555 316.58V323H457.015V316.96C457.015 315.04 455.975 313.84 454.155 313.84C452.375 313.84 451.055 315.14 451.055 317.08V323H449.515ZM465.219 326.24C463.499 326.24 461.899 325.76 460.519 324.8L461.219 323.6C462.399 324.46 463.719 324.92 465.199 324.92C467.479 324.92 468.959 323.66 468.959 321.24V320.02C468.059 321.22 466.799 322.2 464.899 322.2C462.419 322.2 460.039 320.34 460.039 317.36V317.32C460.039 314.3 462.439 312.44 464.899 312.44C466.839 312.44 468.099 313.4 468.939 314.52V312.66H470.479V321.2C470.479 322.8 469.999 324.02 469.159 324.86C468.239 325.78 466.859 326.24 465.219 326.24ZM465.199 320.84C467.159 320.84 468.999 319.42 468.999 317.34V317.3C468.999 315.18 467.159 313.8 465.199 313.8C463.239 313.8 461.619 315.16 461.619 317.28V317.32C461.619 319.4 463.279 320.84 465.199 320.84ZM46.44 347.24C43.34 347.24 41.08 344.8 41.08 341.88V341.84C41.08 338.92 43.36 336.44 46.48 336.44C49.58 336.44 51.86 338.88 51.86 341.8V341.84C51.86 344.76 49.56 347.24 46.44 347.24ZM46.48 345.86C48.72 345.86 50.28 344.06 50.28 341.88V341.84C50.28 339.62 48.62 337.8 46.44 337.8C44.2 337.8 42.66 339.62 42.66 341.8V341.84C42.66 344.06 44.3 345.86 46.48 345.86ZM57.2497 347.22C54.7497 347.22 53.2897 345.54 53.2897 343.08V336.66H54.8297V342.7C54.8297 344.62 55.8697 345.82 57.6897 345.82C59.4497 345.82 60.7897 344.52 60.7897 342.58V336.66H62.3097V347H60.7897V345.2C60.0897 346.32 59.0297 347.22 57.2497 347.22ZM64.5739 347V336.66H66.1139V339.36C66.8739 337.64 68.3739 336.4 70.3339 336.48V338.14H70.2139C67.9539 338.14 66.1139 339.76 66.1139 342.88V347H64.5739ZM76.2755 350.2V336.66H77.8155V338.74C78.6555 337.5 79.8755 336.44 81.7755 336.44C84.2555 336.44 86.7155 338.4 86.7155 341.8V341.84C86.7155 345.22 84.2755 347.22 81.7755 347.22C79.8555 347.22 78.6155 346.18 77.8155 345.02V350.2H76.2755ZM81.4955 345.84C83.4955 345.84 85.1355 344.36 85.1355 341.86V341.82C85.1355 339.38 83.4555 337.82 81.4955 337.82C79.5755 337.82 77.7555 339.44 77.7555 341.8V341.84C77.7555 344.24 79.5755 345.84 81.4955 345.84ZM88.4967 347V332.4H90.0367V347H88.4967ZM95.4906 347.22C93.5706 347.22 91.6306 346.12 91.6306 344V343.96C91.6306 341.78 93.4306 340.62 96.0506 340.62C97.3706 340.62 98.3106 340.8 99.2306 341.06V340.7C99.2306 338.84 98.0906 337.88 96.1506 337.88C94.9306 337.88 93.9706 338.2 93.0106 338.64L92.5506 337.38C93.6906 336.86 94.8106 336.52 96.3106 336.52C97.7706 336.52 98.8906 336.9 99.6506 337.66C100.351 338.36 100.711 339.36 100.711 340.68V347H99.2306V345.44C98.5106 346.38 97.3106 347.22 95.4906 347.22ZM95.7906 346C97.6906 346 99.2506 344.84 99.2506 343.2V342.2C98.4906 341.98 97.4706 341.76 96.2106 341.76C94.2706 341.76 93.1906 342.6 93.1906 343.9V343.94C93.1906 345.24 94.3906 346 95.7906 346ZM106.155 347.18C104.495 347.18 103.235 346.36 103.235 344.26V338.02H101.795V336.66H103.235V333.54H104.775V336.66H108.055V338.02H104.775V344.06C104.775 345.32 105.475 345.78 106.515 345.78C107.035 345.78 107.475 345.68 108.015 345.42V346.74C107.475 347.02 106.895 347.18 106.155 347.18ZM110.161 347V338.02H108.741V336.68H110.161V335.78C110.161 334.6 110.481 333.7 111.061 333.12C111.581 332.6 112.341 332.32 113.281 332.32C114.001 332.32 114.481 332.4 114.981 332.58V333.92C114.421 333.76 114.001 333.66 113.481 333.66C112.281 333.66 111.681 334.38 111.681 335.86V336.7H114.961V338.02H111.701V347H110.161ZM120.249 347.24C117.149 347.24 114.889 344.8 114.889 341.88V341.84C114.889 338.92 117.169 336.44 120.289 336.44C123.389 336.44 125.669 338.88 125.669 341.8V341.84C125.669 344.76 123.369 347.24 120.249 347.24ZM120.289 345.86C122.529 345.86 124.089 344.06 124.089 341.88V341.84C124.089 339.62 122.429 337.8 120.249 337.8C118.009 337.8 116.469 339.62 116.469 341.8V341.84C116.469 344.06 118.109 345.86 120.289 345.86ZM127.259 347V336.66H128.799V339.36C129.559 337.64 131.059 336.4 133.019 336.48V338.14H132.899C130.639 338.14 128.799 339.76 128.799 342.88V347H127.259ZM134.165 347V336.66H135.705V338.4C136.385 337.38 137.305 336.44 139.045 336.44C140.725 336.44 141.805 337.34 142.365 338.5C143.105 337.36 144.205 336.44 146.005 336.44C148.385 336.44 149.845 338.04 149.845 340.6V347H148.305V340.96C148.305 338.96 147.305 337.84 145.625 337.84C144.065 337.84 142.785 339 142.785 341.04V347H141.245V340.92C141.245 338.98 140.225 337.84 138.585 337.84C136.945 337.84 135.705 339.2 135.705 341.1V347H134.165ZM157.364 347V338.02H155.944V336.68H157.364V335.78C157.364 334.6 157.684 333.7 158.264 333.12C158.784 332.6 159.544 332.32 160.484 332.32C161.204 332.32 161.684 332.4 162.184 332.58V333.92C161.624 333.76 161.204 333.66 160.684 333.66C159.484 333.66 158.884 334.38 158.884 335.86V336.7H162.164V338.02H158.904V347H157.364ZM167.452 347.24C164.352 347.24 162.092 344.8 162.092 341.88V341.84C162.092 338.92 164.372 336.44 167.492 336.44C170.592 336.44 172.872 338.88 172.872 341.8V341.84C172.872 344.76 170.572 347.24 167.452 347.24ZM167.492 345.86C169.732 345.86 171.292 344.06 171.292 341.88V341.84C171.292 339.62 169.632 337.8 167.452 337.8C165.212 337.8 163.672 339.62 163.672 341.8V341.84C163.672 344.06 165.312 345.86 167.492 345.86ZM174.462 347V336.66H176.002V339.36C176.762 337.64 178.262 336.4 180.222 336.48V338.14H180.102C177.842 338.14 176.002 339.76 176.002 342.88V347H174.462ZM189.624 347.18C187.964 347.18 186.704 346.36 186.704 344.26V338.02H185.264V336.66H186.704V333.54H188.244V336.66H191.524V338.02H188.244V344.06C188.244 345.32 188.944 345.78 189.984 345.78C190.504 345.78 190.944 345.68 191.484 345.42V346.74C190.944 347.02 190.364 347.18 189.624 347.18ZM193.05 347V332.4H194.59V338.46C195.27 337.34 196.35 336.44 198.13 336.44C200.63 336.44 202.09 338.12 202.09 340.58V347H200.55V340.96C200.55 339.04 199.51 337.84 197.69 337.84C195.91 337.84 194.59 339.14 194.59 341.08V347H193.05ZM208.694 347.24C205.854 347.24 203.534 345.06 203.534 341.86V341.82C203.534 338.84 205.634 336.44 208.494 336.44C211.554 336.44 213.314 338.88 213.314 341.9C213.314 342.1 213.314 342.22 213.294 342.4H205.094C205.314 344.64 206.894 345.9 208.734 345.9C210.154 345.9 211.154 345.32 211.994 344.44L212.954 345.3C211.914 346.46 210.654 347.24 208.694 347.24ZM205.094 341.26H211.754C211.594 339.38 210.514 337.74 208.454 337.74C206.654 337.74 205.294 339.24 205.094 341.26ZM220.186 347V338.02H218.766V336.68H220.186V335.78C220.186 334.6 220.506 333.7 221.086 333.12C221.606 332.6 222.366 332.32 223.306 332.32C224.026 332.32 224.506 332.4 225.006 332.58V333.92C224.446 333.76 224.026 333.66 223.506 333.66C222.306 333.66 221.706 334.38 221.706 335.86V336.7H224.986V338.02H221.726V347H220.186ZM227.106 347V336.66H228.626V347H227.106ZM226.986 334.4V332.7H228.746V334.4H226.986ZM231.023 347V336.66H232.563V339.36C233.323 337.64 234.823 336.4 236.783 336.48V338.14H236.663C234.403 338.14 232.563 339.76 232.563 342.88V347H231.023ZM241.349 347.2C239.869 347.2 238.229 346.62 237.069 345.68L237.849 344.58C238.969 345.42 240.209 345.9 241.429 345.9C242.669 345.9 243.569 345.26 243.569 344.26V344.22C243.569 343.18 242.349 342.78 240.989 342.4C239.369 341.94 237.569 341.38 237.569 339.48V339.44C237.569 337.66 239.049 336.48 241.089 336.48C242.349 336.48 243.749 336.92 244.809 337.62L244.109 338.78C243.149 338.16 242.049 337.78 241.049 337.78C239.829 337.78 239.049 338.42 239.049 339.28V339.32C239.049 340.3 240.329 340.68 241.709 341.1C243.309 341.58 245.029 342.2 245.029 344.06V344.1C245.029 346.06 243.409 347.2 241.349 347.2ZM249.954 347.18C248.294 347.18 247.034 346.36 247.034 344.26V338.02H245.594V336.66H247.034V333.54H248.574V336.66H251.854V338.02H248.574V344.06C248.574 345.32 249.274 345.78 250.314 345.78C250.834 345.78 251.274 345.68 251.814 345.42V346.74C251.274 347.02 250.694 347.18 249.954 347.18ZM261.636 347.18C259.976 347.18 258.716 346.36 258.716 344.26V338.02H257.276V336.66H258.716V333.54H260.256V336.66H263.536V338.02H260.256V344.06C260.256 345.32 260.956 345.78 261.996 345.78C262.516 345.78 262.956 345.68 263.496 345.42V346.74C262.956 347.02 262.376 347.18 261.636 347.18ZM265.102 334.4V332.7H266.862V334.4H265.102ZM265.202 347V336.66H266.742V347H265.202ZM269.116 347V336.66H270.656V338.4C271.336 337.38 272.256 336.44 273.996 336.44C275.676 336.44 276.756 337.34 277.316 338.5C278.056 337.36 279.156 336.44 280.956 336.44C283.336 336.44 284.796 338.04 284.796 340.6V347H283.256V340.96C283.256 338.96 282.256 337.84 280.576 337.84C279.016 337.84 277.736 339 277.736 341.04V347H276.196V340.92C276.196 338.98 275.176 337.84 273.536 337.84C271.896 337.84 270.656 339.2 270.656 341.1V347H269.116ZM291.46 347.24C288.62 347.24 286.3 345.06 286.3 341.86V341.82C286.3 338.84 288.4 336.44 291.26 336.44C294.32 336.44 296.08 338.88 296.08 341.9C296.08 342.1 296.08 342.22 296.06 342.4H287.86C288.08 344.64 289.66 345.9 291.5 345.9C292.92 345.9 293.92 345.32 294.76 344.44L295.72 345.3C294.68 346.46 293.42 347.24 291.46 347.24ZM287.86 341.26H294.52C294.36 339.38 293.28 337.74 291.22 337.74C289.42 337.74 288.06 339.24 287.86 341.26ZM297.2 347V344.9H299.04V347H297.2Z" fill="black"/>
<path d="M162.78 511L169.16 496.9H170.64L177.02 511H175.32L173.68 507.3H166.06L164.4 511H162.78ZM166.68 505.86H173.06L169.88 498.74L166.68 505.86ZM182.473 511.24C179.453 511.24 177.173 508.78 177.173 505.88V505.84C177.173 502.92 179.453 500.44 182.473 500.44C184.433 500.44 185.653 501.26 186.613 502.28L185.593 503.36C184.773 502.5 183.853 501.8 182.453 501.8C180.353 501.8 178.753 503.58 178.753 505.8V505.84C178.753 508.08 180.393 509.86 182.553 509.86C183.873 509.86 184.893 509.2 185.713 508.32L186.693 509.24C185.653 510.4 184.413 511.24 182.473 511.24ZM192.406 511.24C189.386 511.24 187.106 508.78 187.106 505.88V505.84C187.106 502.92 189.386 500.44 192.406 500.44C194.366 500.44 195.586 501.26 196.546 502.28L195.526 503.36C194.706 502.5 193.786 501.8 192.386 501.8C190.286 501.8 188.686 503.58 188.686 505.8V505.84C188.686 508.08 190.326 509.86 192.486 509.86C193.806 509.86 194.826 509.2 195.646 508.32L196.626 509.24C195.586 510.4 194.346 511.24 192.406 511.24ZM202.199 511.24C199.359 511.24 197.039 509.06 197.039 505.86V505.82C197.039 502.84 199.139 500.44 201.999 500.44C205.059 500.44 206.819 502.88 206.819 505.9C206.819 506.1 206.819 506.22 206.799 506.4H198.599C198.819 508.64 200.399 509.9 202.239 509.9C203.659 509.9 204.659 509.32 205.499 508.44L206.459 509.3C205.419 510.46 204.159 511.24 202.199 511.24ZM198.599 505.26H205.259C205.099 503.38 204.019 501.74 201.959 501.74C200.159 501.74 198.799 503.24 198.599 505.26ZM211.735 511.2C210.255 511.2 208.615 510.62 207.455 509.68L208.235 508.58C209.355 509.42 210.595 509.9 211.815 509.9C213.055 509.9 213.955 509.26 213.955 508.26V508.22C213.955 507.18 212.735 506.78 211.375 506.4C209.755 505.94 207.955 505.38 207.955 503.48V503.44C207.955 501.66 209.435 500.48 211.475 500.48C212.735 500.48 214.135 500.92 215.195 501.62L214.495 502.78C213.535 502.16 212.435 501.78 211.435 501.78C210.215 501.78 209.435 502.42 209.435 503.28V503.32C209.435 504.3 210.715 504.68 212.095 505.1C213.695 505.58 215.415 506.2 215.415 508.06V508.1C215.415 510.06 213.795 511.2 211.735 511.2ZM220.3 511.2C218.82 511.2 217.18 510.62 216.02 509.68L216.8 508.58C217.92 509.42 219.16 509.9 220.38 509.9C221.62 509.9 222.52 509.26 222.52 508.26V508.22C222.52 507.18 221.3 506.78 219.94 506.4C218.32 505.94 216.52 505.38 216.52 503.48V503.44C216.52 501.66 218 500.48 220.04 500.48C221.3 500.48 222.7 500.92 223.76 501.62L223.06 502.78C222.1 502.16 221 501.78 220 501.78C218.78 501.78 218 502.42 218 503.28V503.32C218 504.3 219.28 504.68 220.66 505.1C222.26 505.58 223.98 506.2 223.98 508.06V508.1C223.98 510.06 222.36 511.2 220.3 511.2ZM233.897 511.18C232.237 511.18 230.977 510.36 230.977 508.26V502.02H229.537V500.66H230.977V497.54H232.517V500.66H235.797V502.02H232.517V508.06C232.517 509.32 233.217 509.78 234.257 509.78C234.777 509.78 235.217 509.68 235.757 509.42V510.74C235.217 511.02 234.637 511.18 233.897 511.18ZM241.75 511.24C238.65 511.24 236.39 508.8 236.39 505.88V505.84C236.39 502.92 238.67 500.44 241.79 500.44C244.89 500.44 247.17 502.88 247.17 505.8V505.84C247.17 508.76 244.87 511.24 241.75 511.24ZM241.79 509.86C244.03 509.86 245.59 508.06 245.59 505.88V505.84C245.59 503.62 243.93 501.8 241.75 501.8C239.51 501.8 237.97 503.62 237.97 505.8V505.84C237.97 508.06 239.61 509.86 241.79 509.86ZM258.216 511.24C255.196 511.24 252.916 508.78 252.916 505.88V505.84C252.916 502.92 255.196 500.44 258.216 500.44C260.176 500.44 261.396 501.26 262.356 502.28L261.336 503.36C260.516 502.5 259.596 501.8 258.196 501.8C256.096 501.8 254.496 503.58 254.496 505.8V505.84C254.496 508.08 256.136 509.86 258.296 509.86C259.616 509.86 260.636 509.2 261.456 508.32L262.436 509.24C261.396 510.4 260.156 511.24 258.216 511.24ZM268.209 511.24C265.109 511.24 262.849 508.8 262.849 505.88V505.84C262.849 502.92 265.129 500.44 268.249 500.44C271.349 500.44 273.629 502.88 273.629 505.8V505.84C273.629 508.76 271.329 511.24 268.209 511.24ZM268.249 509.86C270.489 509.86 272.049 508.06 272.049 505.88V505.84C272.049 503.62 270.389 501.8 268.209 501.8C265.969 501.8 264.429 503.62 264.429 505.8V505.84C264.429 508.06 266.069 509.86 268.249 509.86ZM275.218 511V500.66H276.758V503.36C277.518 501.64 279.018 500.4 280.978 500.48V502.14H280.858C278.598 502.14 276.758 503.76 276.758 506.88V511H275.218ZM286.195 511.24C283.355 511.24 281.035 509.06 281.035 505.86V505.82C281.035 502.84 283.135 500.44 285.995 500.44C289.055 500.44 290.815 502.88 290.815 505.9C290.815 506.1 290.815 506.22 290.795 506.4H282.595C282.815 508.64 284.395 509.9 286.235 509.9C287.655 509.9 288.655 509.32 289.495 508.44L290.455 509.3C289.415 510.46 288.155 511.24 286.195 511.24ZM282.595 505.26H289.255C289.095 503.38 288.015 501.74 285.955 501.74C284.155 501.74 282.795 503.24 282.595 505.26ZM297.107 511V500.66H298.647V502.4C299.327 501.38 300.247 500.44 301.987 500.44C303.667 500.44 304.747 501.34 305.307 502.5C306.047 501.36 307.147 500.44 308.947 500.44C311.327 500.44 312.787 502.04 312.787 504.6V511H311.247V504.96C311.247 502.96 310.247 501.84 308.567 501.84C307.007 501.84 305.727 503 305.727 505.04V511H304.187V504.92C304.187 502.98 303.167 501.84 301.527 501.84C299.887 501.84 298.647 503.2 298.647 505.1V511H297.107ZM319.65 511.24C316.55 511.24 314.29 508.8 314.29 505.88V505.84C314.29 502.92 316.57 500.44 319.69 500.44C322.79 500.44 325.07 502.88 325.07 505.8V505.84C325.07 508.76 322.77 511.24 319.65 511.24ZM319.69 509.86C321.93 509.86 323.49 508.06 323.49 505.88V505.84C323.49 503.62 321.83 501.8 319.65 501.8C317.41 501.8 315.87 503.62 315.87 505.8V505.84C315.87 508.06 317.51 509.86 319.69 509.86ZM331 511.22C328.52 511.22 326.06 509.26 326.06 505.86V505.82C326.06 502.44 328.52 500.44 331 500.44C332.92 500.44 334.16 501.48 334.96 502.64V496.4H336.5V511H334.96V508.92C334.12 510.16 332.9 511.22 331 511.22ZM331.28 509.84C333.2 509.84 335.02 508.22 335.02 505.84V505.8C335.02 503.42 333.2 501.82 331.28 501.82C329.28 501.82 327.64 503.3 327.64 505.8V505.84C327.64 508.28 329.34 509.84 331.28 509.84ZM342.541 511.22C340.041 511.22 338.581 509.54 338.581 507.08V500.66H340.121V506.7C340.121 508.62 341.161 509.82 342.981 509.82C344.741 509.82 346.081 508.52 346.081 506.58V500.66H347.601V511H346.081V509.2C345.381 510.32 344.321 511.22 342.541 511.22ZM350.005 511V496.4H351.545V511H350.005ZM358.439 511.24C355.599 511.24 353.279 509.06 353.279 505.86V505.82C353.279 502.84 355.379 500.44 358.239 500.44C361.299 500.44 363.059 502.88 363.059 505.9C363.059 506.1 363.059 506.22 363.039 506.4H354.839C355.059 508.64 356.639 509.9 358.479 509.9C359.899 509.9 360.899 509.32 361.739 508.44L362.699 509.3C361.659 510.46 360.399 511.24 358.439 511.24ZM354.839 505.26H361.499C361.339 503.38 360.259 501.74 358.199 501.74C356.399 501.74 355.039 503.24 354.839 505.26ZM367.975 511.2C366.495 511.2 364.855 510.62 363.695 509.68L364.475 508.58C365.595 509.42 366.835 509.9 368.055 509.9C369.295 509.9 370.195 509.26 370.195 508.26V508.22C370.195 507.18 368.975 506.78 367.615 506.4C365.995 505.94 364.195 505.38 364.195 503.48V503.44C364.195 501.66 365.675 500.48 367.715 500.48C368.975 500.48 370.375 500.92 371.435 501.62L370.735 502.78C369.775 502.16 368.675 501.78 367.675 501.78C366.455 501.78 365.675 502.42 365.675 503.28V503.32C365.675 504.3 366.955 504.68 368.335 505.1C369.935 505.58 371.655 506.2 371.655 508.06V508.1C371.655 510.06 370.035 511.2 367.975 511.2Z" fill="#6C6C6C"/>
<path d="M132.575 520.167C132.336 520.14 131.885 519.997 131.646 519.909C129.508 519.114 128.072 516.477 127.336 514.448L125.116 514.689L123.789 514.641C123.659 514.68 123.505 515.024 123.384 515.149C122.322 516.242 120.345 515.617 120.161 514.105C120.132 513.86 120.231 513.378 120.206 513.272C120.195 513.223 119.679 512.651 119.581 512.494C117.994 509.943 119.99 506.594 121.612 504.566C119.922 502.529 118.066 499.326 119.558 496.721C119.632 496.591 119.883 496.334 119.902 496.269C119.958 496.074 119.784 495.727 119.788 495.495C119.82 493.572 122.451 492.92 123.364 494.613C124.69 494.421 126.022 494.512 127.337 494.73C128.309 491.794 131.09 487.69 134.709 489.405C135.243 489.659 136.375 490.532 136.683 491.022C136.879 491.334 136.769 491.788 136.377 491.811C136.042 491.829 135.56 491.131 135.287 490.896C132.007 488.078 129.229 492.049 128.253 494.914C129.428 495.125 130.571 495.493 131.694 495.887C132.046 496.01 132.827 496.42 133.139 496.361C134.651 495.754 136.199 495.189 137.812 494.914C137.886 494.853 137.067 493.43 137.053 493.158C137.038 492.885 137.315 492.623 137.584 492.672C138.096 492.764 138.604 494.684 138.76 494.723C141.788 494.169 146.486 494.446 147.005 498.292C147.027 498.458 146.979 498.633 147.016 498.799C148.47 499.31 148.618 501.355 147.331 502.146C146.83 502.453 146.47 502.384 145.909 502.428L144.461 504.57C144.443 504.672 145.111 505.49 145.229 505.666C146.814 508.029 148.275 511.642 145.32 513.645C145.18 513.74 144.608 514.002 144.584 514.035C144.543 514.092 144.49 514.552 144.435 514.708C143.847 516.377 141.467 516.342 140.874 514.689L138.724 514.473C137.887 516.532 136.455 519.259 134.191 519.987C134.016 520.043 133.655 520.149 133.489 520.167C133.262 520.192 132.802 520.192 132.575 520.167V520.167ZM122.386 496.231C123.113 495.55 122.411 494.243 121.339 494.607C119.927 495.085 121.205 497.339 122.386 496.231ZM126.974 495.583C125.871 495.44 124.774 495.378 123.664 495.47C123.522 495.517 123.567 495.879 123.523 496.059C123.207 497.337 121.479 497.831 120.489 496.984C118.973 499.226 120.819 502.024 122.195 503.859C122.274 503.878 122.301 503.808 122.346 503.767C123.514 502.67 124.551 501.416 125.907 500.511C126.15 498.843 126.505 497.2 126.975 495.584L126.974 495.583ZM146.092 498.686C146.091 496.536 144.079 495.642 142.225 495.462C141.903 495.431 141.572 495.509 141.252 495.401L139.03 495.584C139.543 497.195 139.879 498.856 140.122 500.531C141.477 501.496 142.646 502.677 143.809 503.858L145.108 502.003C143.866 500.929 144.44 498.839 146.092 498.686L146.092 498.686ZM131.784 496.862L127.888 495.766C127.507 497.064 127.151 498.375 126.975 499.721L131.784 496.862ZM139.09 499.72C138.826 498.396 138.575 497.065 138.119 495.791C138.02 495.714 136.474 496.151 136.229 496.222C135.964 496.3 134.276 496.835 134.22 496.953L136.513 498.128L139.09 499.72ZM139.194 508.223C139.394 507.334 139.369 506.387 139.395 505.472C139.422 504.546 139.455 503.605 139.397 502.67C139.364 502.134 139.279 501.593 139.247 501.056C139.201 500.914 138.798 500.669 138.648 500.559C137.918 500.028 137.053 499.495 136.27 499.041C135.217 498.43 134.122 497.863 132.987 497.419C131.083 498.279 129.175 499.276 127.478 500.498C127.102 500.77 126.816 500.846 126.737 501.34C126.484 502.923 126.479 506.311 126.747 507.889C126.769 508.019 126.791 508.137 126.881 508.242C127.182 508.592 128.073 508.996 128.464 509.337C128.693 509.536 128.789 509.734 128.591 510.008C128.186 510.569 127.408 509.604 126.975 509.457C127.144 510.804 127.511 512.113 127.888 513.412L131.784 512.316C131.815 512.174 131.764 512.219 131.705 512.18C131.127 511.805 130.31 511.565 129.732 511.144C129.465 510.725 129.755 510.234 130.264 510.398L132.94 511.743L133.065 511.745C135.236 510.809 137.276 509.594 139.194 508.222L139.194 508.223ZM146.262 499.551C144.956 499.655 145.064 501.715 146.545 501.481C147.693 501.3 147.439 499.457 146.262 499.551ZM125.817 501.79C125.774 501.746 125.365 502.103 125.301 502.156C124.425 502.883 123.588 503.712 122.838 504.567C122.801 504.779 125.392 507.174 125.816 507.388C125.633 505.535 125.632 503.642 125.816 501.79H125.817ZM140.248 507.388C140.649 507.131 143.163 504.837 143.169 504.621C143.171 504.511 143.079 504.424 143.018 504.344C142.699 503.925 141.91 503.203 141.497 502.823C141.102 502.459 140.669 502.123 140.248 501.79C140.383 503.661 140.383 505.518 140.248 507.388V507.388ZM126.974 513.595C126.504 511.979 126.15 510.336 125.907 508.668C124.555 507.757 123.513 506.508 122.346 505.412C122.301 505.37 122.274 505.3 122.195 505.32C120.937 506.938 119.194 509.712 120.226 511.789C120.342 512.022 120.542 512.205 120.644 512.438C120.988 512.303 121.27 512.01 121.652 511.958C122.92 511.783 123.736 512.527 123.967 513.721C124.97 513.834 125.976 513.707 126.974 513.595V513.595ZM140.794 513.778C141.09 511.952 143.41 511.619 144.357 513.163C147.651 511.422 145.573 507.408 143.809 505.32C142.676 506.548 141.433 507.665 140.105 508.68C139.885 510.347 139.534 511.993 139.03 513.595L140.794 513.778ZM139.09 509.458L136.391 511.11L134.22 512.225C134.308 512.409 137.958 513.512 138.119 513.387C138.578 512.114 138.816 510.779 139.091 509.458H139.09ZM137.812 514.265C136.162 513.977 134.576 513.4 133.032 512.768C131.484 513.404 129.886 513.925 128.252 514.295C128.961 516.154 130.508 519.034 132.735 519.246C135.295 519.491 137.022 516.269 137.811 514.265H137.812ZM121.72 512.877C120.572 513.136 121.039 515.256 122.407 514.719C123.478 514.3 123.043 512.579 121.72 512.877ZM142.362 513.122C141.158 513.37 141.73 515.531 143.048 514.964C144.093 514.514 143.669 512.852 142.362 513.122Z" fill="#6C6C6C"/>
<path d="M132.746 500.469C136.307 500.238 138.51 504.435 136.199 507.206C134.219 509.58 130.425 509.052 129.216 506.212C128.108 503.611 129.924 500.652 132.746 500.47V500.469ZM132.807 501.382C128.293 501.688 129.245 508.708 133.723 507.713C137.553 506.861 136.692 501.119 132.807 501.382Z" fill="#6C6C6C"/>
<rect x="40" y="432" width="431" height="40" rx="9" fill="url(#paint1_linear_508_4890)"/>
<path d="M202.034 458.2C199.814 458.2 197.994 457.46 196.314 455.96L197.294 454.8C198.754 456.12 200.154 456.78 202.094 456.78C203.974 456.78 205.214 455.78 205.214 454.4V454.36C205.214 453.06 204.514 452.32 201.574 451.7C198.354 451 196.874 449.96 196.874 447.66V447.62C196.874 445.42 198.814 443.8 201.474 443.8C203.514 443.8 204.974 444.38 206.394 445.52L205.474 446.74C204.174 445.68 202.874 445.22 201.434 445.22C199.614 445.22 198.454 446.22 198.454 447.48V447.52C198.454 448.84 199.174 449.58 202.254 450.24C205.374 450.92 206.814 452.06 206.814 454.2V454.24C206.814 456.64 204.814 458.2 202.034 458.2ZM213.087 458.24C210.247 458.24 207.927 456.06 207.927 452.86V452.82C207.927 449.84 210.027 447.44 212.887 447.44C215.947 447.44 217.707 449.88 217.707 452.9C217.707 453.1 217.707 453.22 217.687 453.4H209.487C209.707 455.64 211.287 456.9 213.127 456.9C214.547 456.9 215.547 456.32 216.387 455.44L217.347 456.3C216.307 457.46 215.047 458.24 213.087 458.24ZM209.487 452.26H216.147C215.987 450.38 214.907 448.74 212.847 448.74C211.047 448.74 209.687 450.24 209.487 452.26ZM219.343 458V443.4H220.883V458H219.343ZM227.777 458.24C224.937 458.24 222.617 456.06 222.617 452.86V452.82C222.617 449.84 224.717 447.44 227.577 447.44C230.637 447.44 232.397 449.88 232.397 452.9C232.397 453.1 232.397 453.22 232.377 453.4H224.177C224.397 455.64 225.977 456.9 227.817 456.9C229.237 456.9 230.237 456.32 231.077 455.44L232.037 456.3C230.997 457.46 229.737 458.24 227.777 458.24ZM224.177 452.26H230.837C230.677 450.38 229.597 448.74 227.537 448.74C225.737 448.74 224.377 450.24 224.177 452.26ZM238.553 458.24C235.533 458.24 233.253 455.78 233.253 452.88V452.84C233.253 449.92 235.533 447.44 238.553 447.44C240.513 447.44 241.733 448.26 242.693 449.28L241.673 450.36C240.853 449.5 239.933 448.8 238.533 448.8C236.433 448.8 234.833 450.58 234.833 452.8V452.84C234.833 455.08 236.473 456.86 238.633 456.86C239.953 456.86 240.973 456.2 241.793 455.32L242.773 456.24C241.733 457.4 240.493 458.24 238.553 458.24ZM247.578 458.18C245.918 458.18 244.658 457.36 244.658 455.26V449.02H243.218V447.66H244.658V444.54H246.198V447.66H249.478V449.02H246.198V455.06C246.198 456.32 246.898 456.78 247.938 456.78C248.458 456.78 248.898 456.68 249.438 456.42V457.74C248.898 458.02 248.318 458.18 247.578 458.18ZM256.06 458V444H261.3C264.46 444 266.54 445.68 266.54 448.44V448.48C266.54 451.5 264.02 453.06 261.04 453.06H257.64V458H256.06ZM257.64 451.62H261.1C263.42 451.62 264.94 450.38 264.94 448.54V448.5C264.94 446.5 263.44 445.46 261.18 445.46H257.64V451.62ZM268.1 458V443.4H269.64V458H268.1ZM275.094 458.22C273.174 458.22 271.234 457.12 271.234 455V454.96C271.234 452.78 273.034 451.62 275.654 451.62C276.974 451.62 277.914 451.8 278.834 452.06V451.7C278.834 449.84 277.694 448.88 275.754 448.88C274.534 448.88 273.574 449.2 272.614 449.64L272.154 448.38C273.294 447.86 274.414 447.52 275.914 447.52C277.374 447.52 278.494 447.9 279.254 448.66C279.954 449.36 280.314 450.36 280.314 451.68V458H278.834V456.44C278.114 457.38 276.914 458.22 275.094 458.22ZM275.394 457C277.294 457 278.854 455.84 278.854 454.2V453.2C278.094 452.98 277.074 452.76 275.814 452.76C273.874 452.76 272.794 453.6 272.794 454.9V454.94C272.794 456.24 273.994 457 275.394 457ZM282.396 458V447.66H283.936V449.46C284.616 448.34 285.696 447.44 287.476 447.44C289.976 447.44 291.436 449.12 291.436 451.58V458H289.896V451.96C289.896 450.04 288.856 448.84 287.036 448.84C285.256 448.84 283.936 450.14 283.936 452.08V458H282.396Z" fill="white"/>
<path d="M311 444L318 451.651L311 459.302" stroke="white" stroke-width="2"/>
<defs>
<filter id="filter0_d_508_4890" x="37" y="34" width="144" height="144" filterUnits="userSpaceOnUse" color-interpolation-filters="sRGB">
<feFlood flood-opacity="0" result="BackgroundImageFix"/>
<feColorMatrix in="SourceAlpha" type="matrix" values="0 0 0 0 0 0 0 0 0 0 0 0 0 0 0 0 0 0 127 0" result="hardAlpha"/>
<feOffset dx="1" dy="4"/>
<feGaussianBlur stdDeviation="2"/>
<feComposite in2="hardAlpha" operator="out"/>
<feColorMatrix type="matrix" values="0 0 0 0 0 0 0 0 0 0 0 0 0 0 0 0 0 0 0.25 0"/>
<feBlend mode="normal" in2="BackgroundImageFix" result="effect1_dropShadow_508_4890"/>
<feBlend mode="normal" in="SourceGraphic" in2="effect1_dropShadow_508_4890" result="shape"/>
</filter>
<linearGradient id="paint0_linear_508_4890" x1="108" y1="34" x2="108" y2="170" gradientUnits="userSpaceOnUse">
<stop stop-color="#0154D6"/>
<stop offset="1" stop-color="#51C4F1"/>
</linearGradient>
</defs>
</svg>
