<svg width="187" height="199" viewBox="0 0 187 199" fill="none" xmlns="http://www.w3.org/2000/svg">
<path d="M186.69 0V174.899H90.4976C88.7589 171.987 87.6705 168.764 85.9459 165.838C80.9561 157.314 72.503 149.384 63.4846 145.356C63.3573 144.804 63.5694 144.72 63.8662 144.38C65.2515 142.797 68.7713 140.719 70.4817 138.952C93.4095 115.176 79.1891 74.8618 46.7764 70.7483V46.6472H93.4236V0H186.704H186.69ZM140.043 23.3236H128.381V36.1446C112.068 41.6857 113.397 65.6878 130.233 69.462C133.88 70.2819 138.36 69.3348 139.732 73.9571C142.29 82.5515 128.734 84.7425 128.381 75.7947H116.719C116.776 83.1169 121.426 89.803 128.381 92.1212V104.942H140.043V92.1212C156.355 86.5801 155.026 62.578 138.191 58.8038C134.544 57.9839 130.063 58.931 128.692 54.3087C126.133 45.7143 139.689 43.5233 140.043 52.4711H151.704C151.648 45.1489 146.997 38.4628 140.043 36.1446V23.3236ZM163.366 116.604H93.4095V128.266H163.366V116.604ZM163.366 139.928H93.4095V151.589H163.366V139.928Z" fill="#282828"/>
<path d="M81.7477 199H0.129125C-0.634194 187.395 1.92433 175.592 9.47271 166.559C26.0395 146.727 55.5687 146.628 72.2345 166.347C79.9101 175.422 82.5251 187.282 81.7477 199Z" fill="#282828"/>
<path d="M38.1396 81.7316C63.527 79.4276 79.7263 108.688 63.8663 128.831C52.261 143.56 29.63 143.56 18.0247 128.831C3.8044 110.794 15.4097 83.7954 38.1537 81.7316H38.1396Z" fill="#282828"/>
<path d="M81.7474 34.9855H50.2534L81.7474 3.49152V34.9855Z" fill="#282828"/>
</svg>
