<svg width="188" height="163" viewBox="0 0 188 163" fill="none" xmlns="http://www.w3.org/2000/svg">
<path d="M187.389 77.617C187.569 79.408 187.558 82.7646 187.389 84.5781C187.242 86.1212 186.544 88.8583 186.105 90.4352C184.764 95.2449 182.151 99.9419 178.783 103.614C174.807 95.7067 166.821 90.1086 157.743 90.7957L163.566 87.6531C176.384 77.1552 166.72 56.7564 150.342 60.5073C137.828 63.3796 134.517 80.1289 144.8 87.8108L150.41 90.7957C147.628 90.6042 145.082 90.9308 142.435 91.7982L135.406 95.5603C139.979 83.0349 137.952 68.8313 131.07 57.59C135.632 52.0707 144.586 48.3987 151.671 47.9369C169.085 46.7992 185.598 60.0342 187.378 77.617H187.389Z" fill="#282828"/>
<path d="M89.9458 43.2962C123.658 40.2888 144.654 79.1152 123.151 105.461C105.591 126.975 71.4055 122.853 59.3307 97.8919C47.8642 74.1816 63.7912 45.6278 89.9458 43.2962ZM93.2461 53.1633C71.3267 53.5013 58.2607 78.1465 70.1665 96.5628C81.1938 113.616 106.436 113.504 117.328 96.3488C129.223 77.6058 115.391 52.8254 93.2461 53.1633Z" fill="#282828"/>
<path d="M51.9532 95.5603L44.9246 91.7982C42.2776 90.9309 39.7432 90.6155 36.9498 90.7957L42.7732 87.6531C52.7191 79.9599 49.5089 63.6274 37.3215 60.5749C20.7074 56.4185 10.784 77.403 24.0189 87.7995L29.6283 90.7844C20.5384 90.0973 12.5524 95.6954 8.58751 103.603C-7.83513 85.4904 0.409984 56.137 23.8612 49.2998C32.1627 46.8781 40.5091 47.6328 48.2586 51.4512C49.6216 52.127 56.4136 56.2158 56.301 57.5675C49.3738 68.7975 47.4026 83.0124 51.9644 95.5378L51.9532 95.5603Z" fill="#282828"/>
<path d="M58.0806 0.0206078C61.2345 -0.463736 61.3246 7.74758 64.2645 8.01791C65.3683 8.11928 72.5997 5.37092 74.6497 4.9091C96.1636 -0.0357107 119.322 5.97916 135.418 21.0276C136.601 22.1315 139.788 24.7785 139.293 26.3554C138.268 29.6444 134.179 25.9274 132.489 25.0601C116.776 16.9388 99.9707 14.5059 82.7033 19.2029C80.8786 19.6985 72.2618 22.5708 71.3494 23.5958C69.4233 25.7584 76.1365 32.8659 72.9376 33.981L70.3244 33.7895L49.1259 25.7021C48.1459 25.2177 47.7067 24.1477 48.1685 23.1339C51.4012 16.691 53.0119 8.18687 56.2784 1.92419C56.7064 1.1132 56.988 0.200829 58.0694 0.0318719L58.0806 0.0206078Z" fill="#282828"/>
<path d="M114.423 128.586C115.954 128.056 118.906 129.532 120.494 130.084C126.452 132.168 132.231 134.871 138.234 136.865C139.214 137.349 139.653 138.419 139.192 139.433C136.06 146.011 134.292 153.896 131.194 160.383C130.766 161.273 130.44 162.355 129.291 162.524C126.137 162.997 126.047 154.797 123.107 154.526C121.947 154.425 113.6 157.534 111.257 158.018C91.0389 162.152 70.2684 156.847 54.5103 143.724C53.2601 142.677 48.1801 138.284 47.9886 137.045C47.7971 135.806 49.0249 134.634 50.2188 134.815C51.21 134.961 57.6642 139.005 59.5115 139.827C75.6413 147.058 94.4631 147.712 110.976 141.258C111.899 140.897 115.56 139.478 116.011 138.971C117.937 136.808 111.212 129.701 114.423 128.586Z" fill="#282828"/>
<path d="M173.817 108.333C161.821 116.59 146.175 116.736 134.292 108.164C137.784 96.574 148.642 95.9207 159.039 96.6416C166.101 97.1372 172.06 101.327 173.817 108.333Z" fill="#282828"/>
<path d="M53.0232 108.333C41.0273 116.59 25.3819 116.736 13.4985 108.165C17.0241 96.5515 27.8148 95.9095 38.2451 96.6417C45.3075 97.1373 51.1872 101.372 53.0232 108.333Z" fill="#282828"/>
<path d="M151.784 66.342C161.369 64.7313 167.249 75.0039 160.851 82.01C155.332 88.0699 144.981 83.9811 144.586 75.905C144.384 71.8838 147.74 67.0178 151.784 66.342Z" fill="#282828"/>
<path d="M30.9912 66.342C40.5654 64.7313 46.4789 74.9701 40.0585 82.01C33.3566 89.354 20.8763 81.8748 24.5821 72.0077C25.5395 69.4621 28.2766 66.7926 30.9912 66.3307V66.342Z" fill="#282828"/>
<path d="M96.6141 78.3491H109.613C109.714 78.3491 110.998 79.6445 111.066 79.8247C111.798 81.5368 111.156 83.3052 109.534 84.1387C104.487 83.8459 98.4163 84.792 93.494 84.2176C91.8157 84.0261 90.9484 83.1701 90.7456 81.4692C90.1712 76.5469 91.1286 70.4757 90.8245 65.4183C91.658 63.7963 93.4264 63.1543 95.1385 63.8864C95.3187 63.9653 96.6141 65.2381 96.6141 65.3394V78.3379V78.3491Z" fill="#282828"/>
</svg>
