<svg width="192" height="167" viewBox="0 0 192 167" fill="none" xmlns="http://www.w3.org/2000/svg">
<path d="M0 132.415V8.23679C1.47505 3.35477 4.69928 0.443821 9.8946 0H180.857C186.078 0.3655 189.525 2.51934 191.248 7.55801L191.522 131.123C191.261 136.527 186.992 140.561 181.614 140.665H9.52909C4.55569 140.234 1.30536 137.128 0 132.415ZM183.65 108.854V9.9207C183.65 9.46383 182.345 7.96267 181.614 8.22374L8.98085 8.4326C8.71978 8.56313 7.85824 9.76406 7.85824 9.93376V108.867H183.65V108.854ZM93.7767 118.278C92.5628 118.526 90.4481 120.367 89.8215 121.424C86.2318 127.559 93.9595 134.334 99.6769 130.157C105.786 125.693 101.465 116.699 93.7767 118.278Z" fill="#282828"/>
<path d="M119.322 144.751V152.975H131.109C131.253 152.975 133.42 153.849 133.798 154.032C138.68 156.369 143.014 163.391 136.37 166.459L56.0253 166.72C48.389 164.344 52.3703 156.59 57.7354 154.019C58.1009 153.836 60.2808 152.962 60.4244 152.962H72.2117V144.738H119.335L119.322 144.751Z" fill="#282828"/>
<path d="M110.981 41.2361C112.548 40.9228 119.714 40.9228 121.281 41.2361C122.847 41.5494 123.852 42.8156 124.152 44.3559L124.191 95.5911C124.074 96.9226 122.625 98.5021 121.346 98.737C119.923 98.9981 112.339 98.9981 110.916 98.737C109.793 98.5282 108.318 97.0662 108.109 95.9305L108.07 44.3168C108.227 42.8417 109.571 41.5233 110.981 41.2361Z" fill="#282828"/>
<path d="M34.4088 19.0843V41.3406C34.4088 43.4031 37.8027 46.7578 39.826 46.7578H62.0823C57.9313 62.7615 38.1551 68.5703 25.6107 57.6184C12.1524 45.8702 17.3347 23.5225 34.4088 19.0843Z" fill="#282828"/>
<path d="M160.742 49.4599C162.478 49.1727 168.626 49.1205 170.297 49.4599C171.968 49.7993 173.051 51.1307 173.482 52.6449L173.573 95.2126C173.573 96.5701 171.941 98.3976 170.675 98.6848C169.409 98.972 161.29 98.972 159.984 98.6848C158.588 98.3715 157.622 96.7659 157.191 95.4998L157.1 53.6892C157.361 51.3526 158.34 49.8776 160.742 49.4729V49.4599Z" fill="#282828"/>
<path d="M135.287 61.7955C136.593 61.5083 144.673 61.4953 145.978 61.7955C146.996 62.0305 148.55 63.5838 148.785 64.602L148.876 95.1995C148.706 96.8835 147.662 98.3193 145.978 98.6587C144.49 98.959 136.723 98.9851 135.3 98.6587C133.877 98.3324 132.859 96.7138 132.585 95.3954C133.042 86.1404 131.41 75.0579 132.415 66.0118C132.598 64.367 133.512 62.1871 135.3 61.7955H135.287Z" fill="#282828"/>
<path d="M86.2963 61.8085C87.915 61.4822 94.5984 61.4822 96.2823 61.7433C97.5354 61.9391 99.1149 62.9442 99.4021 64.2365L99.4935 95.5781C99.4935 96.8965 98.2273 98.3846 96.9741 98.6718C95.5513 98.9851 87.7714 98.9589 86.2963 98.6718C84.8213 98.3846 83.8684 97.275 83.4898 95.8652L83.3984 65.2677C83.5681 63.5838 84.6124 62.1479 86.2963 61.8085Z" fill="#282828"/>
<path d="M40.2954 18.0139C40.9742 17.8834 43.7416 18.275 44.6031 18.4186C52.5005 19.8153 59.8105 26.1724 62.0688 33.874C62.7345 36.1322 64.549 42.2152 61.1811 42.659C54.9676 43.4814 46.9789 41.9933 40.5696 42.659C39.447 42.6199 38.5463 41.7061 38.5071 40.5966C39.0945 34.2003 37.7892 26.6162 38.5071 20.3766C38.6376 19.2409 39.0423 18.2619 40.2824 18.0139H40.2954Z" fill="#282828"/>
<path d="M89.8603 45.1652C89.051 44.369 89.534 42.92 90.3172 42.2543C96.0738 36.7979 101.595 31.0804 107.339 25.611C108.475 24.5276 115.21 18.1052 115.85 18.0008C116.725 17.8703 117.456 18.4707 118.03 19.0451L141.2 46.7056L165.48 29.9056C169.043 31.3415 167.163 33.1038 165.075 34.6963C157.713 40.3354 149.646 45.1391 142.27 50.7913C141.213 51.4962 139.855 51.3918 138.994 50.4519L115.824 23.2092L92.9801 45.2697C92.3013 45.8701 90.4477 45.7265 89.8734 45.1652H89.8603Z" fill="#282828"/>
<path d="M19.724 83.125L60.7905 83.0336C63.9494 83.2816 63.9494 86.9105 60.7905 87.1586H20.3767C17.5571 86.9628 16.8783 84.0126 19.7109 83.1119L19.724 83.125Z" fill="#282828"/>
<path d="M18.4182 71.912C18.8359 71.4943 19.7889 71.4812 20.3632 71.429C33.3907 70.3195 47.9715 72.3036 61.1686 71.429C63.7141 71.7423 63.701 74.9013 61.1686 75.2015L18.6923 75.0057C17.8961 74.3269 17.6742 72.643 18.4182 71.912Z" fill="#282828"/>
<path d="M18.418 98.2801C16.8646 96.7398 18.3527 95.1603 20.363 94.9906C33.4165 93.8941 47.9582 95.8522 61.1684 94.9906C63.7008 95.3039 63.7138 98.4498 61.1684 98.7631C47.9712 97.8885 33.3904 99.8727 20.363 98.7631C19.7755 98.7109 18.8357 98.6978 18.418 98.2801Z" fill="#282828"/>
<path d="M95.2777 121.998C98.0973 121.476 99.8204 125.666 97.0138 127.128C93.2153 129.113 91.3747 122.716 95.2777 121.998Z" fill="#282828"/>
</svg>
