<svg width="146" height="176" viewBox="0 0 146 176" fill="none" xmlns="http://www.w3.org/2000/svg">
<path d="M23.7417 14.553C27.3904 14.728 30.7697 15.7513 32.0084 19.6423C32.9912 22.7254 32.6277 28.5552 32.6008 31.9076C32.5335 39.0434 33.5029 46.0849 24.3745 46.9196C19.8776 47.3235 14.371 47.2562 9.84723 47.0677C-1.48917 46.583 -0.115877 39.5954 0.247642 30.5344C0.449596 25.3239 -0.0620201 18.6056 5.49847 15.9936C7.93539 14.8492 14.0613 14.6338 16.8483 14.553C19.0294 14.4857 21.5875 14.4453 23.7686 14.553H23.7417ZM15.4077 21.6483C14.5326 21.6753 13.617 21.6887 12.7419 21.7426C11.409 21.8234 9.44331 21.9176 8.17773 22.16C8.0027 22.1869 7.84114 22.2677 7.76036 22.4292C7.61226 22.7389 7.46416 24.6238 7.4103 25.122C7.06025 29.013 6.91215 33.8195 7.12757 37.7105C7.14103 38.0067 7.28913 39.6223 7.34299 39.7166C7.61226 40.1743 9.29522 39.9589 9.84723 39.9858C14.4249 40.2551 19.7969 40.309 24.3745 39.8512C25.2631 39.757 25.317 39.5146 25.4112 38.6799C25.8824 34.2772 25.7747 29.1341 25.5458 24.7181C25.5189 24.0853 25.7074 22.2946 25.3439 21.8772C24.7111 21.7426 23.809 21.6349 23.1358 21.5945C20.6855 21.4733 17.885 21.5541 15.4212 21.6349L15.4077 21.6483Z" fill="#282828"/>
<path d="M54.3179 14.553L60.4708 14.9704C70.3127 15.1723 70.6762 22.5504 70.7839 30.3997C70.7839 30.6286 70.6897 31.019 70.9186 31.1537C70.8243 33.5637 71.0397 36.0814 70.9186 38.4779C70.8109 40.4167 70.5685 42.3958 69.3164 43.998C67.2026 46.6907 64.3752 46.9196 61.1709 47.0542C58.5455 47.1619 55.8931 47.0677 53.2812 47.0542C46.0243 46.9734 39.3598 47.862 38.5385 38.6933C38.2692 35.5967 38.3769 32.3789 38.4039 29.2957C38.4712 21.5945 37.5287 15.0511 47.2495 14.553H54.3044H54.3179ZM47.5053 21.6483C46.9263 21.6887 46.3205 21.7695 45.7281 21.8099C45.2972 22.0926 45.4857 24.0314 45.4588 24.5834C45.2165 29.0264 45.1222 34.2638 45.5934 38.6798C45.7011 39.6627 45.7954 39.7435 46.7648 39.8512C51.1405 40.3359 56.4721 40.2282 60.8747 39.9858C61.7767 39.932 62.7327 40.1608 63.5809 39.7839C63.7155 39.2049 63.8367 38.3432 63.8636 37.7105C64.0117 34.8696 63.8367 31.948 63.7155 29.1341C63.6213 26.8588 63.6347 24.5699 63.177 22.3484C63.0154 22.1465 60.6593 21.9176 60.188 21.8772C56.2297 21.5406 51.4636 21.3925 47.5053 21.6349V21.6483Z" fill="#282828"/>
<path d="M70.9188 55.9133C70.9861 56.7211 70.9592 57.8521 70.9188 58.6733C70.9188 58.6868 70.7841 58.8349 70.7707 59.0099C70.6764 60.4371 70.9592 62.0796 69.2493 62.7528C68.1857 63.1702 62.9214 63.3048 61.8847 62.9279C61.2384 62.6855 60.5383 61.8912 60.4306 61.2045C60.2556 60.1678 60.2825 55.5767 60.5787 54.6343C60.9287 53.4898 61.952 52.9648 63.0964 52.8571C64.2408 52.7493 68.4819 52.7224 69.3974 53.0725C70.6899 53.5706 70.6764 54.5669 70.7976 55.6844C70.7976 55.7921 70.9188 55.8729 70.9322 55.8998L70.9188 55.9133Z" fill="#282828"/>
<path d="M13.3342 52.7628C17.0637 52.6955 22.1125 52.6147 25.7477 53.1398C33.3951 54.2304 32.5334 62.0662 32.5872 67.869C32.6276 71.1542 32.8027 74.6682 32.4526 77.9533C31.4967 86.8528 23.0415 85.466 16.3366 85.2237C8.78352 84.9409 1.84974 85.5333 0.651474 76.2838C0.0860006 71.8812 -0.115955 66.3476 0.0725365 61.9046C0.462982 52.7628 5.70035 52.884 13.3342 52.7494V52.7628ZM10.4261 59.8178C9.86061 59.8447 7.65257 59.8716 7.41023 60.114C7.30252 60.2217 7.15442 61.7162 7.12749 62.0527C6.96593 65.0147 7.14096 68.0979 7.27559 71.0465C7.36984 73.2276 7.35637 75.4222 7.81414 77.5629C7.9757 77.7648 10.3318 77.9937 10.8031 78.0341C12.3918 78.1687 14.0613 78.263 15.6365 78.3168C18.8409 78.4245 22.0856 78.3438 25.263 78.1149C25.6939 77.8321 25.5054 75.7722 25.5323 75.1933C25.6939 71.9755 25.6535 68.8788 25.5323 65.661C25.465 63.8838 25.5996 62.0662 25.1957 60.3294C24.8726 59.8851 20.8604 59.939 20.0795 59.912C16.8886 59.7909 13.6439 59.6697 10.4395 59.8178H10.4261Z" fill="#282828"/>
<path d="M42.6587 53.0321C44.5974 52.7359 49.7001 53.059 51.5043 53.7995C59.6767 57.1924 57.1321 67.4786 57.6302 74.372C57.7245 75.7722 58.2226 77.4552 59.8113 77.7244C62.0463 78.1014 66.7451 77.1051 68.4146 78.2495C70.865 79.919 69.5186 83.6484 66.974 84.4024C65.143 84.9544 58.9362 84.8736 57.0782 84.3216C48.1384 81.7097 51.3696 69.6462 50.4003 62.9144C50.2522 61.9046 49.552 60.3698 48.4211 60.1948C46.1592 59.8312 42.5106 60.6794 40.8141 59.0773C38.7677 57.152 39.8448 53.4629 42.6452 53.0186L42.6587 53.0321Z" fill="#282828"/>
<path d="M42.2407 64.2473C44.1391 63.9511 46.0778 65.2302 46.2933 67.1824C46.5625 69.7136 46.2394 72.9852 46.2933 75.6241C46.3336 77.509 46.8049 80.3229 46.5625 82.1136C46.3202 83.9042 44.4218 85.2775 42.6446 85.089C39.0767 84.6986 39.6288 80.2556 39.521 77.6975C39.3999 74.6951 38.996 69.9424 39.3864 67.0612C39.5614 65.7283 40.9482 64.4493 42.2407 64.2473Z" fill="#282828"/>
<path d="M65.4926 66.4553C71.1608 65.6341 70.6491 74.4797 65.7349 74.4527C61.3592 74.4258 61.4265 67.0477 65.4926 66.4553Z" fill="#282828"/>
<path d="M16.0945 26.0779C17.5351 26.024 20.5645 25.7278 21.0357 27.5589C21.3992 28.9591 21.278 32.0692 21.0626 33.5502C20.9414 34.4388 20.3894 35.1928 19.5143 35.4621C18.6392 35.7313 15.6906 35.7986 14.6539 35.7313C13.4691 35.6505 12.1766 35.5159 11.7458 34.2099C11.3419 32.9982 11.5304 29.8343 11.6919 28.4879C11.9881 26.0375 14.1288 26.1587 16.0811 26.0914L16.0945 26.0779Z" fill="#282828"/>
<path d="M52.4869 26.0779C53.7255 25.9702 55.8797 26.0375 57.1184 26.2125C58.4513 26.401 59.1649 27.2896 59.2995 28.5956C59.4476 29.9958 59.6361 33.0655 59.1918 34.2907C58.7475 35.5024 57.455 35.6371 56.324 35.7178C55.0854 35.7986 53.2812 35.7178 52.0291 35.5697C50.952 35.4486 50.05 34.6408 49.9019 33.5502C49.7538 32.4596 49.673 30.4132 49.7403 29.2688C49.8749 27.0473 50.1711 26.2798 52.4869 26.0644V26.0779Z" fill="#282828"/>
<path d="M14.3037 64.2473C15.6366 64.1261 17.8985 64.1531 19.2045 64.3819C20.3623 64.5704 20.9817 65.5263 21.1028 66.6304C21.2644 68.1383 21.4125 70.9522 21.0355 72.3793C20.8874 72.9314 20.1738 73.5911 19.6218 73.7257C18.2485 74.0488 15.5827 73.9007 14.1152 73.7526C12.7419 73.618 11.8802 72.8506 11.7052 71.4503C11.5302 70.0501 11.3686 67.0612 11.7321 65.836C12.1091 64.5435 13.1189 64.355 14.2902 64.2473H14.3037Z" fill="#282828"/>
<path d="M112.574 63.3452C112.413 63.1432 112.184 63.0086 111.901 62.9413C112.13 62.847 112.305 62.7124 112.453 62.5374C112.655 62.3085 112.749 62.0392 112.749 61.7026C112.749 61.4064 112.669 61.1506 112.521 60.9217C112.372 60.6929 112.144 60.5313 111.874 60.4236C111.592 60.2889 111.255 60.2351 110.851 60.2351H108.939C108.71 60.2351 108.562 60.2889 108.455 60.3967C108.347 60.5044 108.293 60.6794 108.293 60.8813V65.1897C108.293 65.4186 108.347 65.5802 108.455 65.6744C108.562 65.7821 108.71 65.836 108.939 65.836H110.945C111.565 65.836 112.022 65.7013 112.372 65.4321C112.709 65.1493 112.871 64.7589 112.871 64.2742C112.871 63.8837 112.776 63.5875 112.561 63.3452H112.574ZM109.491 61.1506H110.663C110.959 61.1506 111.201 61.2045 111.349 61.3122C111.497 61.4199 111.578 61.6084 111.578 61.8373C111.578 62.0796 111.497 62.2412 111.349 62.3623C111.201 62.4701 110.959 62.5239 110.663 62.5239H109.491V61.1506ZM111.497 64.7454C111.349 64.88 111.12 64.9339 110.811 64.9339H109.491V63.4664H110.811C111.12 63.4664 111.349 63.5202 111.497 63.6549C111.645 63.7626 111.726 63.951 111.726 64.2069C111.726 64.4492 111.645 64.6377 111.497 64.7454ZM117.596 64.9474C117.516 64.8531 117.394 64.7993 117.219 64.7993H115.079V60.8409C115.079 60.639 115.025 60.4909 114.917 60.3697C114.809 60.262 114.661 60.2082 114.446 60.2082C114.23 60.2082 114.096 60.262 114.002 60.3697C113.894 60.4774 113.84 60.6255 113.84 60.8409V65.2301C113.84 65.4186 113.894 65.5802 114.002 65.6744C114.109 65.7821 114.257 65.836 114.446 65.836H117.219C117.381 65.836 117.516 65.7956 117.596 65.7013C117.691 65.6071 117.744 65.4725 117.744 65.3109C117.744 65.1493 117.691 65.0281 117.596 64.9339V64.9474ZM121.837 64.8935H119.602V63.4798H121.662C121.824 63.4798 121.945 63.426 122.039 63.3452C122.12 63.2644 122.147 63.1432 122.147 62.9951C122.147 62.8336 122.107 62.7124 122.039 62.6182C121.945 62.5374 121.837 62.5104 121.662 62.5104H119.602V61.191H121.837C121.999 61.191 122.12 61.1506 122.214 61.0564C122.295 60.9756 122.322 60.8544 122.322 60.7063C122.322 60.5582 122.282 60.4236 122.214 60.3563C122.12 60.262 122.012 60.2216 121.837 60.2216H119.05C118.848 60.2216 118.7 60.2755 118.579 60.3832C118.471 60.4909 118.418 60.6659 118.418 60.8679V65.1762C118.418 65.4051 118.471 65.5667 118.579 65.6609C118.687 65.7686 118.835 65.8225 119.05 65.8225H121.837C121.999 65.8225 122.12 65.7821 122.214 65.7148C122.295 65.6205 122.322 65.5128 122.322 65.3647C122.322 65.2032 122.282 65.082 122.214 64.9878C122.12 64.907 122.012 64.88 121.837 64.88V64.8935ZM121.837 64.8935H119.602V63.4798H121.662C121.824 63.4798 121.945 63.426 122.039 63.3452C122.12 63.2644 122.147 63.1432 122.147 62.9951C122.147 62.8336 122.107 62.7124 122.039 62.6182C121.945 62.5374 121.837 62.5104 121.662 62.5104H119.602V61.191H121.837C121.999 61.191 122.12 61.1506 122.214 61.0564C122.295 60.9756 122.322 60.8544 122.322 60.7063C122.322 60.5582 122.282 60.4236 122.214 60.3563C122.12 60.262 122.012 60.2216 121.837 60.2216H119.05C118.848 60.2216 118.7 60.2755 118.579 60.3832C118.471 60.4909 118.418 60.6659 118.418 60.8679V65.1762C118.418 65.4051 118.471 65.5667 118.579 65.6609C118.687 65.7686 118.835 65.8225 119.05 65.8225H121.837C121.999 65.8225 122.12 65.7821 122.214 65.7148C122.295 65.6205 122.322 65.5128 122.322 65.3647C122.322 65.2032 122.282 65.082 122.214 64.9878C122.12 64.907 122.012 64.88 121.837 64.88V64.8935ZM117.596 64.9474C117.516 64.8531 117.394 64.7993 117.219 64.7993H115.079V60.8409C115.079 60.639 115.025 60.4909 114.917 60.3697C114.809 60.262 114.661 60.2082 114.446 60.2082C114.23 60.2082 114.096 60.262 114.002 60.3697C113.894 60.4774 113.84 60.6255 113.84 60.8409V65.2301C113.84 65.4186 113.894 65.5802 114.002 65.6744C114.109 65.7821 114.257 65.836 114.446 65.836H117.219C117.381 65.836 117.516 65.7956 117.596 65.7013C117.691 65.6071 117.744 65.4725 117.744 65.3109C117.744 65.1493 117.691 65.0281 117.596 64.9339V64.9474ZM112.574 63.3452C112.413 63.1432 112.184 63.0086 111.901 62.9413C112.13 62.847 112.305 62.7124 112.453 62.5374C112.655 62.3085 112.749 62.0392 112.749 61.7026C112.749 61.4064 112.669 61.1506 112.521 60.9217C112.372 60.6929 112.144 60.5313 111.874 60.4236C111.592 60.2889 111.255 60.2351 110.851 60.2351H108.939C108.71 60.2351 108.562 60.2889 108.455 60.3967C108.347 60.5044 108.293 60.6794 108.293 60.8813V65.1897C108.293 65.4186 108.347 65.5802 108.455 65.6744C108.562 65.7821 108.71 65.836 108.939 65.836H110.945C111.565 65.836 112.022 65.7013 112.372 65.4321C112.709 65.1493 112.871 64.7589 112.871 64.2742C112.871 63.8837 112.776 63.5875 112.561 63.3452H112.574ZM109.491 61.1506H110.663C110.959 61.1506 111.201 61.2045 111.349 61.3122C111.497 61.4199 111.578 61.6084 111.578 61.8373C111.578 62.0796 111.497 62.2412 111.349 62.3623C111.201 62.4701 110.959 62.5239 110.663 62.5239H109.491V61.1506ZM111.497 64.7454C111.349 64.88 111.12 64.9339 110.811 64.9339H109.491V63.4664H110.811C111.12 63.4664 111.349 63.5202 111.497 63.6549C111.645 63.7626 111.726 63.951 111.726 64.2069C111.726 64.4492 111.645 64.6377 111.497 64.7454ZM112.574 63.3452C112.413 63.1432 112.184 63.0086 111.901 62.9413C112.13 62.847 112.305 62.7124 112.453 62.5374C112.655 62.3085 112.749 62.0392 112.749 61.7026C112.749 61.4064 112.669 61.1506 112.521 60.9217C112.372 60.6929 112.144 60.5313 111.874 60.4236C111.592 60.2889 111.255 60.2351 110.851 60.2351H108.939C108.71 60.2351 108.562 60.2889 108.455 60.3967C108.347 60.5044 108.293 60.6794 108.293 60.8813V65.1897C108.293 65.4186 108.347 65.5802 108.455 65.6744C108.562 65.7821 108.71 65.836 108.939 65.836H110.945C111.565 65.836 112.022 65.7013 112.372 65.4321C112.709 65.1493 112.871 64.7589 112.871 64.2742C112.871 63.8837 112.776 63.5875 112.561 63.3452H112.574ZM109.491 61.1506H110.663C110.959 61.1506 111.201 61.2045 111.349 61.3122C111.497 61.4199 111.578 61.6084 111.578 61.8373C111.578 62.0796 111.497 62.2412 111.349 62.3623C111.201 62.4701 110.959 62.5239 110.663 62.5239H109.491V61.1506ZM111.497 64.7454C111.349 64.88 111.12 64.9339 110.811 64.9339H109.491V63.4664H110.811C111.12 63.4664 111.349 63.5202 111.497 63.6549C111.645 63.7626 111.726 63.951 111.726 64.2069C111.726 64.4492 111.645 64.6377 111.497 64.7454ZM115.267 17.0437V17.1245C115.267 17.1245 115.308 17.0841 115.321 17.0841C115.321 17.0976 115.334 17.1245 115.361 17.1245V17.0437H115.267ZM117.596 64.9474C117.516 64.8531 117.394 64.7993 117.219 64.7993H115.079V60.8409C115.079 60.639 115.025 60.4909 114.917 60.3697C114.809 60.262 114.661 60.2082 114.446 60.2082C114.23 60.2082 114.096 60.262 114.002 60.3697C113.894 60.4774 113.84 60.6255 113.84 60.8409V65.2301C113.84 65.4186 113.894 65.5802 114.002 65.6744C114.109 65.7821 114.257 65.836 114.446 65.836H117.219C117.381 65.836 117.516 65.7956 117.596 65.7013C117.691 65.6071 117.744 65.4725 117.744 65.3109C117.744 65.1493 117.691 65.0281 117.596 64.9339V64.9474ZM121.837 64.8935H119.602V63.4798H121.662C121.824 63.4798 121.945 63.426 122.039 63.3452C122.12 63.2644 122.147 63.1432 122.147 62.9951C122.147 62.8336 122.107 62.7124 122.039 62.6182C121.945 62.5374 121.837 62.5104 121.662 62.5104H119.602V61.191H121.837C121.999 61.191 122.12 61.1506 122.214 61.0564C122.295 60.9756 122.322 60.8544 122.322 60.7063C122.322 60.5582 122.282 60.4236 122.214 60.3563C122.12 60.262 122.012 60.2216 121.837 60.2216H119.05C118.848 60.2216 118.7 60.2755 118.579 60.3832C118.471 60.4909 118.418 60.6659 118.418 60.8679V65.1762C118.418 65.4051 118.471 65.5667 118.579 65.6609C118.687 65.7686 118.835 65.8225 119.05 65.8225H121.837C121.999 65.8225 122.12 65.7821 122.214 65.7148C122.295 65.6205 122.322 65.5128 122.322 65.3647C122.322 65.2032 122.282 65.082 122.214 64.9878C122.12 64.907 122.012 64.88 121.837 64.88V64.8935ZM112.574 63.3452C112.413 63.1432 112.184 63.0086 111.901 62.9413C112.13 62.847 112.305 62.7124 112.453 62.5374C112.655 62.3085 112.749 62.0392 112.749 61.7026C112.749 61.4064 112.669 61.1506 112.521 60.9217C112.372 60.6929 112.144 60.5313 111.874 60.4236C111.592 60.2889 111.255 60.2351 110.851 60.2351H108.939C108.71 60.2351 108.562 60.2889 108.455 60.3967C108.347 60.5044 108.293 60.6794 108.293 60.8813V65.1897C108.293 65.4186 108.347 65.5802 108.455 65.6744C108.562 65.7821 108.71 65.836 108.939 65.836H110.945C111.565 65.836 112.022 65.7013 112.372 65.4321C112.709 65.1493 112.871 64.7589 112.871 64.2742C112.871 63.8837 112.776 63.5875 112.561 63.3452H112.574ZM109.491 61.1506H110.663C110.959 61.1506 111.201 61.2045 111.349 61.3122C111.497 61.4199 111.578 61.6084 111.578 61.8373C111.578 62.0796 111.497 62.2412 111.349 62.3623C111.201 62.4701 110.959 62.5239 110.663 62.5239H109.491V61.1506ZM111.497 64.7454C111.349 64.88 111.12 64.9339 110.811 64.9339H109.491V63.4664H110.811C111.12 63.4664 111.349 63.5202 111.497 63.6549C111.645 63.7626 111.726 63.951 111.726 64.2069C111.726 64.4492 111.645 64.6377 111.497 64.7454ZM117.596 64.9474C117.516 64.8531 117.394 64.7993 117.219 64.7993H115.079V60.8409C115.079 60.639 115.025 60.4909 114.917 60.3697C114.809 60.262 114.661 60.2082 114.446 60.2082C114.23 60.2082 114.096 60.262 114.002 60.3697C113.894 60.4774 113.84 60.6255 113.84 60.8409V65.2301C113.84 65.4186 113.894 65.5802 114.002 65.6744C114.109 65.7821 114.257 65.836 114.446 65.836H117.219C117.381 65.836 117.516 65.7956 117.596 65.7013C117.691 65.6071 117.744 65.4725 117.744 65.3109C117.744 65.1493 117.691 65.0281 117.596 64.9339V64.9474ZM121.837 64.8935H119.602V63.4798H121.662C121.824 63.4798 121.945 63.426 122.039 63.3452C122.12 63.2644 122.147 63.1432 122.147 62.9951C122.147 62.8336 122.107 62.7124 122.039 62.6182C121.945 62.5374 121.837 62.5104 121.662 62.5104H119.602V61.191H121.837C121.999 61.191 122.12 61.1506 122.214 61.0564C122.295 60.9756 122.322 60.8544 122.322 60.7063C122.322 60.5582 122.282 60.4236 122.214 60.3563C122.12 60.262 122.012 60.2216 121.837 60.2216H119.05C118.848 60.2216 118.7 60.2755 118.579 60.3832C118.471 60.4909 118.418 60.6659 118.418 60.8679V65.1762C118.418 65.4051 118.471 65.5667 118.579 65.6609C118.687 65.7686 118.835 65.8225 119.05 65.8225H121.837C121.999 65.8225 122.12 65.7821 122.214 65.7148C122.295 65.6205 122.322 65.5128 122.322 65.3647C122.322 65.2032 122.282 65.082 122.214 64.9878C122.12 64.907 122.012 64.88 121.837 64.88V64.8935ZM121.837 64.8935H119.602V63.4798H121.662C121.824 63.4798 121.945 63.426 122.039 63.3452C122.12 63.2644 122.147 63.1432 122.147 62.9951C122.147 62.8336 122.107 62.7124 122.039 62.6182C121.945 62.5374 121.837 62.5104 121.662 62.5104H119.602V61.191H121.837C121.999 61.191 122.12 61.1506 122.214 61.0564C122.295 60.9756 122.322 60.8544 122.322 60.7063C122.322 60.5582 122.282 60.4236 122.214 60.3563C122.12 60.262 122.012 60.2216 121.837 60.2216H119.05C118.848 60.2216 118.7 60.2755 118.579 60.3832C118.471 60.4909 118.418 60.6659 118.418 60.8679V65.1762C118.418 65.4051 118.471 65.5667 118.579 65.6609C118.687 65.7686 118.835 65.8225 119.05 65.8225H121.837C121.999 65.8225 122.12 65.7821 122.214 65.7148C122.295 65.6205 122.322 65.5128 122.322 65.3647C122.322 65.2032 122.282 65.082 122.214 64.9878C122.12 64.907 122.012 64.88 121.837 64.88V64.8935ZM117.596 64.9474C117.516 64.8531 117.394 64.7993 117.219 64.7993H115.079V60.8409C115.079 60.639 115.025 60.4909 114.917 60.3697C114.809 60.262 114.661 60.2082 114.446 60.2082C114.23 60.2082 114.096 60.262 114.002 60.3697C113.894 60.4774 113.84 60.6255 113.84 60.8409V65.2301C113.84 65.4186 113.894 65.5802 114.002 65.6744C114.109 65.7821 114.257 65.836 114.446 65.836H117.219C117.381 65.836 117.516 65.7956 117.596 65.7013C117.691 65.6071 117.744 65.4725 117.744 65.3109C117.744 65.1493 117.691 65.0281 117.596 64.9339V64.9474ZM112.574 63.3452C112.413 63.1432 112.184 63.0086 111.901 62.9413C112.13 62.847 112.305 62.7124 112.453 62.5374C112.655 62.3085 112.749 62.0392 112.749 61.7026C112.749 61.4064 112.669 61.1506 112.521 60.9217C112.372 60.6929 112.144 60.5313 111.874 60.4236C111.592 60.2889 111.255 60.2351 110.851 60.2351H108.939C108.71 60.2351 108.562 60.2889 108.455 60.3967C108.347 60.5044 108.293 60.6794 108.293 60.8813V65.1897C108.293 65.4186 108.347 65.5802 108.455 65.6744C108.562 65.7821 108.71 65.836 108.939 65.836H110.945C111.565 65.836 112.022 65.7013 112.372 65.4321C112.709 65.1493 112.871 64.7589 112.871 64.2742C112.871 63.8837 112.776 63.5875 112.561 63.3452H112.574ZM109.491 61.1506H110.663C110.959 61.1506 111.201 61.2045 111.349 61.3122C111.497 61.4199 111.578 61.6084 111.578 61.8373C111.578 62.0796 111.497 62.2412 111.349 62.3623C111.201 62.4701 110.959 62.5239 110.663 62.5239H109.491V61.1506ZM111.497 64.7454C111.349 64.88 111.12 64.9339 110.811 64.9339H109.491V63.4664H110.811C111.12 63.4664 111.349 63.5202 111.497 63.6549C111.645 63.7626 111.726 63.951 111.726 64.2069C111.726 64.4492 111.645 64.6377 111.497 64.7454ZM112.574 63.3452C112.413 63.1432 112.184 63.0086 111.901 62.9413C112.13 62.847 112.305 62.7124 112.453 62.5374C112.655 62.3085 112.749 62.0392 112.749 61.7026C112.749 61.4064 112.669 61.1506 112.521 60.9217C112.372 60.6929 112.144 60.5313 111.874 60.4236C111.592 60.2889 111.255 60.2351 110.851 60.2351H108.939C108.71 60.2351 108.562 60.2889 108.455 60.3967C108.347 60.5044 108.293 60.6794 108.293 60.8813V65.1897C108.293 65.4186 108.347 65.5802 108.455 65.6744C108.562 65.7821 108.71 65.836 108.939 65.836H110.945C111.565 65.836 112.022 65.7013 112.372 65.4321C112.709 65.1493 112.871 64.7589 112.871 64.2742C112.871 63.8837 112.776 63.5875 112.561 63.3452H112.574ZM109.491 61.1506H110.663C110.959 61.1506 111.201 61.2045 111.349 61.3122C111.497 61.4199 111.578 61.6084 111.578 61.8373C111.578 62.0796 111.497 62.2412 111.349 62.3623C111.201 62.4701 110.959 62.5239 110.663 62.5239H109.491V61.1506ZM111.497 64.7454C111.349 64.88 111.12 64.9339 110.811 64.9339H109.491V63.4664H110.811C111.12 63.4664 111.349 63.5202 111.497 63.6549C111.645 63.7626 111.726 63.951 111.726 64.2069C111.726 64.4492 111.645 64.6377 111.497 64.7454ZM117.596 64.9474C117.516 64.8531 117.394 64.7993 117.219 64.7993H115.079V60.8409C115.079 60.639 115.025 60.4909 114.917 60.3697C114.809 60.262 114.661 60.2082 114.446 60.2082C114.23 60.2082 114.096 60.262 114.002 60.3697C113.894 60.4774 113.84 60.6255 113.84 60.8409V65.2301C113.84 65.4186 113.894 65.5802 114.002 65.6744C114.109 65.7821 114.257 65.836 114.446 65.836H117.219C117.381 65.836 117.516 65.7956 117.596 65.7013C117.691 65.6071 117.744 65.4725 117.744 65.3109C117.744 65.1493 117.691 65.0281 117.596 64.9339V64.9474ZM121.837 64.8935H119.602V63.4798H121.662C121.824 63.4798 121.945 63.426 122.039 63.3452C122.12 63.2644 122.147 63.1432 122.147 62.9951C122.147 62.8336 122.107 62.7124 122.039 62.6182C121.945 62.5374 121.837 62.5104 121.662 62.5104H119.602V61.191H121.837C121.999 61.191 122.12 61.1506 122.214 61.0564C122.295 60.9756 122.322 60.8544 122.322 60.7063C122.322 60.5582 122.282 60.4236 122.214 60.3563C122.12 60.262 122.012 60.2216 121.837 60.2216H119.05C118.848 60.2216 118.7 60.2755 118.579 60.3832C118.471 60.4909 118.418 60.6659 118.418 60.8679V65.1762C118.418 65.4051 118.471 65.5667 118.579 65.6609C118.687 65.7686 118.835 65.8225 119.05 65.8225H121.837C121.999 65.8225 122.12 65.7821 122.214 65.7148C122.295 65.6205 122.322 65.5128 122.322 65.3647C122.322 65.2032 122.282 65.082 122.214 64.9878C122.12 64.907 122.012 64.88 121.837 64.88V64.8935ZM121.837 64.8935H119.602V63.4798H121.662C121.824 63.4798 121.945 63.426 122.039 63.3452C122.12 63.2644 122.147 63.1432 122.147 62.9951C122.147 62.8336 122.107 62.7124 122.039 62.6182C121.945 62.5374 121.837 62.5104 121.662 62.5104H119.602V61.191H121.837C121.999 61.191 122.12 61.1506 122.214 61.0564C122.295 60.9756 122.322 60.8544 122.322 60.7063C122.322 60.5582 122.282 60.4236 122.214 60.3563C122.12 60.262 122.012 60.2216 121.837 60.2216H119.05C118.848 60.2216 118.7 60.2755 118.579 60.3832C118.471 60.4909 118.418 60.6659 118.418 60.8679V65.1762C118.418 65.4051 118.471 65.5667 118.579 65.6609C118.687 65.7686 118.835 65.8225 119.05 65.8225H121.837C121.999 65.8225 122.12 65.7821 122.214 65.7148C122.295 65.6205 122.322 65.5128 122.322 65.3647C122.322 65.2032 122.282 65.082 122.214 64.9878C122.12 64.907 122.012 64.88 121.837 64.88V64.8935ZM117.596 64.9474C117.516 64.8531 117.394 64.7993 117.219 64.7993H115.079V60.8409C115.079 60.639 115.025 60.4909 114.917 60.3697C114.809 60.262 114.661 60.2082 114.446 60.2082C114.23 60.2082 114.096 60.262 114.002 60.3697C113.894 60.4774 113.84 60.6255 113.84 60.8409V65.2301C113.84 65.4186 113.894 65.5802 114.002 65.6744C114.109 65.7821 114.257 65.836 114.446 65.836H117.219C117.381 65.836 117.516 65.7956 117.596 65.7013C117.691 65.6071 117.744 65.4725 117.744 65.3109C117.744 65.1493 117.691 65.0281 117.596 64.9339V64.9474ZM112.574 63.3452C112.413 63.1432 112.184 63.0086 111.901 62.9413C112.13 62.847 112.305 62.7124 112.453 62.5374C112.655 62.3085 112.749 62.0392 112.749 61.7026C112.749 61.4064 112.669 61.1506 112.521 60.9217C112.372 60.6929 112.144 60.5313 111.874 60.4236C111.592 60.2889 111.255 60.2351 110.851 60.2351H108.939C108.71 60.2351 108.562 60.2889 108.455 60.3967C108.347 60.5044 108.293 60.6794 108.293 60.8813V65.1897C108.293 65.4186 108.347 65.5802 108.455 65.6744C108.562 65.7821 108.71 65.836 108.939 65.836H110.945C111.565 65.836 112.022 65.7013 112.372 65.4321C112.709 65.1493 112.871 64.7589 112.871 64.2742C112.871 63.8837 112.776 63.5875 112.561 63.3452H112.574ZM109.491 61.1506H110.663C110.959 61.1506 111.201 61.2045 111.349 61.3122C111.497 61.4199 111.578 61.6084 111.578 61.8373C111.578 62.0796 111.497 62.2412 111.349 62.3623C111.201 62.4701 110.959 62.5239 110.663 62.5239H109.491V61.1506ZM111.497 64.7454C111.349 64.88 111.12 64.9339 110.811 64.9339H109.491V63.4664H110.811C111.12 63.4664 111.349 63.5202 111.497 63.6549C111.645 63.7626 111.726 63.951 111.726 64.2069C111.726 64.4492 111.645 64.6377 111.497 64.7454Z" fill="#282828"/>
<path d="M138.209 29.3092V21.1233C138.209 17.3265 135.126 14.2433 131.329 14.2433H99.3264C95.5162 14.2433 92.4195 17.3265 92.4195 21.1233V23.9372C91.6386 23.9372 91.0059 24.57 91.0059 25.3509V27.532C91.0059 28.3129 91.6386 28.9457 92.4195 28.9457V30.669C91.6386 30.669 91.0059 31.3018 91.0059 32.0827V37.8855C91.0059 38.6664 91.6386 39.2992 92.4195 39.2992V39.8916C91.6386 39.8916 91.0059 40.5244 91.0059 41.3053V47.1081C91.0059 47.8755 91.6386 48.5083 92.4195 48.5083V80.0941C92.4195 83.9043 95.5027 87.0009 99.3264 87.0009H131.329C135.126 87.0009 138.209 83.9177 138.209 80.0941V45.3713C138.99 45.3713 139.623 44.7385 139.623 43.9576V30.7363C139.623 29.9554 138.99 29.3226 138.209 29.3226V29.3092ZM115.267 17.0438H115.362V17.1246C115.362 17.1246 115.321 17.1111 115.321 17.0842C115.308 17.0842 115.281 17.0976 115.267 17.1246V17.0438ZM115.308 84.5909C113.315 84.5909 111.699 82.9753 111.699 80.9827C111.699 78.99 113.315 77.3744 115.308 77.3744C117.3 77.3744 118.916 78.99 118.916 80.9827C118.916 82.9753 117.3 84.5909 115.308 84.5909ZM132.582 72.9987C132.582 74.1162 131.693 75.0048 130.576 75.0048H100.04C98.9494 75.0048 98.0339 74.1162 98.0339 72.9987V22.1061C98.0339 21.0156 98.9494 20.1 100.04 20.1H130.576C131.693 20.1 132.582 21.0156 132.582 22.1061V72.9987Z" fill="#282828"/>
<path d="M112.574 63.3452C112.413 63.1433 112.184 63.0086 111.901 62.9413C112.13 62.8471 112.305 62.7124 112.453 62.5374C112.655 62.3085 112.749 62.0392 112.749 61.7027C112.749 61.4065 112.669 61.1506 112.521 60.9218C112.372 60.6929 112.144 60.5313 111.874 60.4236C111.592 60.289 111.255 60.2351 110.851 60.2351H108.939C108.71 60.2351 108.562 60.289 108.455 60.3967C108.347 60.5044 108.293 60.6794 108.293 60.8814V65.1897C108.293 65.4186 108.347 65.5802 108.455 65.6744C108.562 65.7821 108.71 65.836 108.939 65.836H110.945C111.565 65.836 112.022 65.7014 112.372 65.4321C112.709 65.1493 112.871 64.7589 112.871 64.2742C112.871 63.8838 112.776 63.5876 112.561 63.3452H112.574ZM109.491 61.1506H110.663C110.959 61.1506 111.201 61.2045 111.349 61.3122C111.497 61.4199 111.578 61.6084 111.578 61.8373C111.578 62.0796 111.497 62.2412 111.349 62.3624C111.201 62.4701 110.959 62.5239 110.663 62.5239H109.491V61.1506ZM111.497 64.7454C111.349 64.8801 111.12 64.9339 110.811 64.9339H109.491V63.4664H110.811C111.12 63.4664 111.349 63.5202 111.497 63.6549C111.645 63.7626 111.726 63.9511 111.726 64.2069C111.726 64.4492 111.645 64.6377 111.497 64.7454Z" fill="#282828"/>
<path d="M117.597 64.9474C117.691 65.0416 117.745 65.1493 117.745 65.3243C117.745 65.4994 117.691 65.6205 117.597 65.7148C117.516 65.809 117.395 65.8494 117.22 65.8494H114.446C114.258 65.8494 114.11 65.7956 114.002 65.6879C113.894 65.5936 113.84 65.4321 113.84 65.2436V60.8544C113.84 60.6525 113.894 60.5044 114.002 60.3832C114.096 60.2755 114.244 60.2216 114.446 60.2216C114.648 60.2216 114.796 60.2755 114.917 60.3832C115.025 60.4909 115.079 60.639 115.079 60.8544V64.8127H117.22C117.381 64.8127 117.516 64.8666 117.597 64.9608V64.9474Z" fill="#282828"/>
<path d="M122.202 65.0012C122.282 65.0955 122.309 65.2032 122.309 65.3782C122.309 65.5263 122.269 65.634 122.202 65.7283C122.107 65.8091 122 65.836 121.825 65.836H119.038C118.836 65.836 118.688 65.7821 118.566 65.6744C118.459 65.5802 118.405 65.4186 118.405 65.1897V60.8814C118.405 60.6794 118.459 60.5044 118.566 60.3967C118.674 60.289 118.822 60.2351 119.038 60.2351H121.825C121.986 60.2351 122.107 60.2755 122.202 60.3697C122.282 60.4505 122.309 60.5717 122.309 60.7198C122.309 60.8679 122.269 61.0025 122.202 61.0699C122.107 61.1641 122 61.2045 121.825 61.2045H119.59V62.5239H121.65C121.811 62.5239 121.932 62.5643 122.027 62.6316C122.107 62.7259 122.134 62.8336 122.134 63.0086C122.134 63.1567 122.094 63.2914 122.027 63.3587C121.932 63.4395 121.825 63.4933 121.65 63.4933H119.59V64.907H121.825C121.986 64.907 122.107 64.9474 122.202 65.0147V65.0012Z" fill="#282828"/>
<path d="M115.362 17.0437L115.321 17.0841C115.308 17.0841 115.281 17.0976 115.268 17.1245V17.0437H115.362Z" fill="#282828"/>
<path d="M115.362 17.0437V17.1245C115.362 17.1245 115.321 17.111 115.321 17.0841C115.308 17.0841 115.281 17.0706 115.268 17.0437H115.362Z" fill="#282828"/>
<path d="M124.207 44.6576C122.215 43.1363 120.06 41.8034 118.068 40.2954C118.014 40.255 117.812 40.1473 117.839 40.08L124.18 35.5697C124.732 35.085 124.786 34.156 124.328 33.5905C121.609 31.5037 118.741 29.5918 115.954 27.5857C115.294 27.2491 114.54 27.4242 114.096 28.0166C114.002 28.1377 113.813 28.5013 113.813 28.6359V37.2796L107.984 33.1732C106.529 32.5808 105.304 34.3041 106.328 35.4754L112.682 40.0127L112.763 40.1339L106.449 44.6173C105.075 45.9098 106.745 47.9293 108.293 46.8522L113.8 42.9208V51.5645C113.8 51.5645 113.948 51.9549 113.975 52.0357C114.177 52.4262 114.581 52.6685 114.985 52.7897H115.523C115.819 52.6954 116.035 52.5473 116.277 52.3858C118.903 50.6894 121.38 48.6294 123.992 46.9195C124.732 46.3675 124.853 45.3174 124.167 44.6711L124.207 44.6576ZM116.695 31.6787L120.653 34.533L116.695 37.3334V31.6787ZM116.695 48.5217V42.9208L120.653 45.6674L116.695 48.5217Z" fill="#282828"/>
<path d="M125.056 5.2765C124.342 7.65956 121.461 4.54946 120.451 4.02438C116.91 2.08561 112.656 2.35489 109.317 4.54946C108.361 5.19572 107.486 6.63633 106.166 6.00354C104.631 5.24957 106.166 3.62047 106.893 2.97422C108.509 1.574 111.282 0.348805 113.41 0.0929956C117.072 -0.29745 120.801 0.52383 123.656 2.89343C124.369 3.47237 125.352 4.25326 125.056 5.2765Z" fill="#282828"/>
<path d="M121.03 9.42332C120.006 10.9313 119.077 9.47718 118.297 9.04634C116.25 7.90193 114.513 7.79422 112.453 8.96556C111.632 9.43679 110.743 10.8505 109.68 9.53103C108.226 7.74037 112.359 5.73428 113.8 5.51886C114.54 5.39769 115.9 5.38423 116.654 5.47848C118.068 5.68043 122.241 7.5788 121.043 9.40986L121.03 9.42332Z" fill="#282828"/>
<path d="M112.574 63.3452C112.413 63.1433 112.184 63.0086 111.901 62.9413C112.13 62.8471 112.305 62.7124 112.453 62.5374C112.655 62.3085 112.749 62.0392 112.749 61.7027C112.749 61.4065 112.669 61.1506 112.521 60.9218C112.372 60.6929 112.144 60.5313 111.874 60.4236C111.592 60.289 111.255 60.2351 110.851 60.2351H108.939C108.71 60.2351 108.562 60.289 108.455 60.3967C108.347 60.5044 108.293 60.6794 108.293 60.8814V65.1897C108.293 65.4186 108.347 65.5802 108.455 65.6744C108.562 65.7821 108.71 65.836 108.939 65.836H110.945C111.565 65.836 112.022 65.7014 112.372 65.4321C112.709 65.1493 112.871 64.7589 112.871 64.2742C112.871 63.8838 112.776 63.5876 112.561 63.3452H112.574ZM109.491 61.1506H110.663C110.959 61.1506 111.201 61.2045 111.349 61.3122C111.497 61.4199 111.578 61.6084 111.578 61.8373C111.578 62.0796 111.497 62.2412 111.349 62.3624C111.201 62.4701 110.959 62.5239 110.663 62.5239H109.491V61.1506ZM111.497 64.7454C111.349 64.8801 111.12 64.9339 110.811 64.9339H109.491V63.4664H110.811C111.12 63.4664 111.349 63.5202 111.497 63.6549C111.645 63.7626 111.726 63.9511 111.726 64.2069C111.726 64.4492 111.645 64.6377 111.497 64.7454Z" fill="#282828"/>
<path d="M117.745 65.3243C117.745 65.4859 117.691 65.6205 117.597 65.7148C117.516 65.809 117.395 65.8494 117.22 65.8494H114.446C114.258 65.8494 114.11 65.7956 114.002 65.6879C113.894 65.5936 113.84 65.4321 113.84 65.2436V60.8544C113.84 60.6525 113.894 60.5044 114.002 60.3832C114.096 60.2755 114.244 60.2216 114.446 60.2216C114.648 60.2216 114.796 60.2755 114.917 60.3832C115.025 60.4909 115.079 60.639 115.079 60.8544V64.8127H117.22C117.381 64.8127 117.516 64.8666 117.597 64.9608C117.691 65.0551 117.745 65.1628 117.745 65.3378V65.3243Z" fill="#282828"/>
<path d="M122.201 65.0012C122.281 65.0955 122.308 65.2032 122.308 65.3782C122.308 65.5263 122.268 65.634 122.201 65.7283C122.106 65.8091 121.999 65.836 121.824 65.836H119.037C118.835 65.836 118.687 65.7821 118.565 65.6744C118.458 65.5802 118.404 65.4186 118.404 65.1897V60.8814C118.404 60.6794 118.458 60.5044 118.565 60.3967C118.673 60.289 118.821 60.2351 119.037 60.2351H121.824C121.985 60.2351 122.106 60.2755 122.201 60.3697C122.281 60.4505 122.308 60.5717 122.308 60.7198C122.308 60.8679 122.268 61.0025 122.201 61.0699C122.106 61.1641 121.999 61.2045 121.824 61.2045H119.589V62.5239H121.649C121.81 62.5239 121.931 62.5643 122.026 62.6316C122.106 62.7259 122.133 62.8336 122.133 63.0086C122.133 63.1567 122.093 63.2914 122.026 63.3587C121.931 63.4395 121.824 63.4933 121.649 63.4933H119.589V64.907H121.824C121.985 64.907 122.106 64.9474 122.201 65.0147V65.0012Z" fill="#282828"/>
<path d="M34.2836 124.268C46.1451 123.272 55.5697 130.017 60.2281 140.586C62.6919 146.201 64.523 153.956 59.151 158.493C53.779 163.03 45.2161 160.607 42.7253 154.077C41.4867 150.805 42.86 146.631 38.5247 145.177C34.6471 143.871 31.6582 145.945 31.0389 149.836C29.6521 158.506 36.2628 168.146 44.8257 170.045C46.549 170.422 48.0839 170.314 49.686 170.556C52.3249 170.96 52.3653 175.363 48.582 175.242C35.2126 174.811 24.159 162.034 26.4882 148.718C28.5616 136.884 44.9334 137.584 46.7106 148.557C47.0472 150.63 46.5759 151.896 48.03 153.713C49.8341 155.962 52.7558 156.81 55.4081 155.423C60.7532 152.636 56.6871 143.023 54.3714 139.24C47.8011 128.482 35.8589 125.736 25.0879 132.414C14.9633 138.688 12.8091 149.566 15.4614 160.634C15.7173 161.711 16.5789 163.784 16.6328 164.713C16.754 166.962 13.8189 168.146 12.3917 166.194C11.7455 165.292 11.0723 162.478 10.803 161.293C8.50074 151.384 9.64514 141.192 16.5924 133.424C20.793 128.738 27.9557 124.753 34.2971 124.228L34.2836 124.268Z" fill="#282828"/>
<path d="M34.553 132.266C42.6715 131.633 49.8073 134.985 53.0924 142.619C54.0079 144.733 55.0716 148.799 54.7215 151.047C54.4388 152.865 52.0153 153.511 50.7228 152.165C49.7938 151.196 50.1708 150.132 50.0227 149.001C48.8648 140.478 42.6581 135.928 34.1221 137.072C19.4333 139.038 20.6181 162.141 29.6926 169.748C30.6081 170.516 32.1026 171.041 32.4257 172.266C32.8969 174.043 31.5102 175.551 29.706 175.269C27.9019 174.986 24.2398 170.947 23.1762 169.385C14.8153 157.16 16.404 133.693 34.5664 132.279L34.553 132.266Z" fill="#282828"/>
<path d="M6.22539 137.84C4.90595 136.426 5.94265 134.864 6.71008 133.518C11.382 125.305 21.3585 118.627 30.5946 116.85C44.4891 114.171 58.599 120.822 65.2366 133.249C66.0848 134.824 67.4715 137.315 65.0346 138.338C62.5977 139.361 61.9784 136.951 61.1032 135.457C50.6554 117.752 28.6154 116.23 14.5863 130.785C12.486 132.952 11.5839 135.012 9.92789 137.301C9.02583 138.54 7.3698 139.078 6.22539 137.84Z" fill="#282828"/>
<path d="M33.597 108.273C40.3289 107.896 51.2479 109.27 56.7949 113.417C58.2086 114.467 58.4375 116.473 56.8488 117.456C55.112 118.519 53.6444 116.917 52.123 116.163C43.6948 111.976 30.9986 111.814 22.3684 115.517C21.0893 116.069 19.4468 117.294 18.3293 117.671C16.3232 118.358 14.4652 116.419 15.3807 114.44C15.7443 113.645 16.6867 113.174 17.4137 112.743C22.0587 110.01 28.252 108.556 33.6105 108.26L33.597 108.273Z" fill="#282828"/>
<path d="M35.792 148.26C37.2595 147.951 38.6463 148.705 38.8482 150.24C39.0367 151.626 38.9559 152.865 39.3195 154.319C41.4198 162.72 50.602 164.174 57.9935 164.336C60.6189 165.48 59.7304 168.967 56.8626 168.927C46.1455 168.792 35.1592 164.498 34.311 152.3C34.2167 150.953 34.0417 148.624 35.792 148.26Z" fill="#282828"/>
<path d="M131.477 162.061H94.3579C94.3579 149.715 106.112 140.855 118.067 144.208C125.944 146.416 131.558 153.861 131.491 162.061H131.477Z" fill="#282828"/>
<path d="M111.956 121.481C120.922 120.66 126.483 131.121 120.72 138.055C116.224 143.467 107.526 142.686 104.106 136.52C100.592 130.152 104.726 122.154 111.956 121.495V121.481Z" fill="#282828"/>
<path d="M86.0106 114.574V125.399C86.0106 125.817 85.6202 126.799 85.3374 127.149C83.641 129.263 80.3693 127.89 80.3559 125.265C80.679 120.956 79.9385 116.055 80.3559 111.814C80.504 110.32 81.4195 109.189 82.9678 109.054C87.5455 108.65 92.7963 109.324 97.4413 109.122C99.3935 109.647 100.188 111.976 98.9088 113.565C98.626 113.928 97.6567 114.574 97.2258 114.574H85.9971H86.0106Z" fill="#282828"/>
<path d="M139.959 114.709H128.596C128.529 114.709 127.99 114.44 127.869 114.359C125.661 113.147 126.146 109.889 128.529 109.243C133.174 109.445 138.425 108.772 143.002 109.176C144.551 109.31 145.466 110.441 145.614 111.936C146.031 116.177 145.304 121.077 145.614 125.386C145.614 128.011 142.329 129.384 140.633 127.271C140.35 126.921 139.959 125.938 139.959 125.52V114.696V114.709Z" fill="#282828"/>
<path d="M85.8761 168.914H97.2394C97.2394 168.914 98.0472 169.264 98.1549 169.344C100.134 170.623 99.5955 173.814 97.3067 174.38C92.6617 174.178 87.4109 174.851 82.8333 174.447C81.285 174.313 80.3694 173.182 80.2213 171.687C79.804 167.446 80.531 162.545 80.2213 158.237C80.2213 155.612 83.5065 154.238 85.2029 156.352C85.4856 156.702 85.8761 157.685 85.8761 158.102V168.927V168.914Z" fill="#282828"/>
<path d="M139.96 168.914V158.089C139.96 157.672 140.351 156.689 140.633 156.339C142.33 154.225 145.601 155.598 145.615 158.224C145.292 162.532 146.032 167.433 145.615 171.674C145.467 173.168 144.551 174.299 143.003 174.434C138.425 174.838 133.174 174.165 128.529 174.366C126.604 173.868 125.81 171.485 127.062 169.923C127.345 169.56 128.314 168.914 128.745 168.914H139.974H139.96Z" fill="#282828"/>
</svg>
