<svg width="115" height="163" viewBox="0 0 115 163" fill="none" xmlns="http://www.w3.org/2000/svg">
<path d="M5.59 27.0238L34.72 27.1138C37.46 28.2638 36.12 35.2239 36.39 37.7938C36.93 42.8039 41.17 45.6139 45.9 45.9839C50.67 46.3639 67.13 46.6038 71.13 45.4739C74.58 44.5039 77.41 41.4138 77.8 37.7938C78.08 35.2139 76.67 27.8938 79.7 27.0138L108.01 26.9438C111.77 27.5338 113.88 30.4438 114.2 34.1138V155.004C114.14 159.014 111.38 162.154 107.36 162.514H6.84C2.93 162.164 0.22 159.204 0 155.334V34.1038C0.23 30.7738 2.29 27.8238 5.6 27.0138L5.59 27.0238ZM55.69 73.7738C34.41 76.0038 40.3 108.694 61.03 103.154C78.69 98.4339 73.49 71.9038 55.69 73.7738ZM88.38 140.364C90.62 137.594 85.81 126.654 83.94 123.794C69.27 101.264 34.21 106.084 26.54 131.784C25.97 133.714 24.2 139.854 26.45 140.884L87.22 141.044C87.45 140.994 88.23 140.544 88.37 140.374L88.38 140.364Z" fill="#282828"/>
<path d="M43.1898 1.01386C43.6098 0.593861 44.2798 0.26386 44.8998 0.213859C52.5398 0.77386 61.1098 -0.47614 68.6298 0.213859C70.9198 0.423859 71.5898 1.51386 71.7998 3.72386C72.7698 14.1039 71.0398 25.9439 71.7998 36.4739C71.5698 38.8839 70.6898 39.7539 68.2898 39.9739C62.7998 40.4839 51.3798 40.4839 45.8898 39.9739C43.7098 39.7739 42.5898 39.1139 42.3798 36.8039C41.3998 26.0839 43.1598 13.9139 42.3798 3.04386C42.3398 2.31386 42.6798 1.52386 43.1898 1.01386Z" fill="#282828"/>
</svg>
