<svg width="196" height="125" viewBox="0 0 196 125" fill="none" xmlns="http://www.w3.org/2000/svg">
<path d="M148.187 35.4865C131.791 -11.8499 64.2146 -11.8077 47.8177 35.4865C17.3203 33.9963 -6.06379 61.3128 1.39953 91.4692C8.96087 122.09 45.8854 134.982 71.0899 116.171C74.1844 117.577 76.8729 119.601 79.9814 121.021C95.1181 127.882 111.137 125.618 124.537 116.171C128.822 118.378 132.771 121.063 137.392 122.624C161.742 130.876 188.431 116.424 194.606 91.4692C202.055 61.369 178.657 33.94 148.187 35.4865ZM57.6615 93.3531H42.9729V77.8039C42.9729 76.7635 44.6952 75.2452 45.7174 75.0202C47.0896 74.7391 53.5308 74.7391 54.917 75.0202C55.9392 75.2311 57.6615 76.7495 57.6615 77.8039V93.3531ZM76.0047 93.3531H61.3301V63.0701C61.3301 62.0298 63.0524 60.5114 64.0606 60.3005C65.4469 60.0053 71.874 60.0053 73.2602 60.3005C74.2824 60.5114 76.0047 62.0298 76.0047 63.0701V93.3531ZM94.362 93.3531H79.6734V48.3364C79.6734 47.296 81.3957 45.7776 82.4179 45.5527C83.7901 45.2715 90.2312 45.2715 91.6175 45.5527C92.6397 45.7636 94.362 47.282 94.362 48.3364V93.3531ZM112.299 83.2869C101.475 68.1032 111.627 46.8461 129.928 45.4543V68.3704C129.928 69.2982 131.875 71.2524 132.799 71.2524H155.623C153.83 93.3531 125.349 101.578 112.313 83.2869H112.299ZM133.597 67.569V45.4543C145.219 46.2697 154.783 55.9001 155.609 67.569H133.597Z" fill="#282828"/>
</svg>
