<svg width="146" height="146" viewBox="0 0 146 146" fill="none" xmlns="http://www.w3.org/2000/svg">
<path d="M48.6461 0.127815C56.1145 0.492889 63.0301 2.58946 65.5543 10.5376C67.557 16.8482 66.8268 28.7705 66.7538 35.6443C66.6078 50.2368 68.6105 64.6729 49.9083 66.3731C40.6875 67.2076 29.4432 67.0615 20.1599 66.6756C-3.03791 65.6951 -0.232057 51.3842 0.498091 32.8489C0.925749 22.1783 -0.138179 8.43064 11.2313 3.10056C16.2067 0.774516 28.7444 0.325998 34.4708 0.138246C38.9456 -0.00778404 44.1818 -0.0807988 48.6357 0.138246L48.6461 0.127815ZM31.592 14.6473C29.7979 14.7099 27.9204 14.7412 26.1263 14.8455C23.4039 15.0228 19.3776 15.221 16.7804 15.7008C16.4258 15.7634 16.0815 15.9094 15.9251 16.2537C15.6226 16.9004 15.3097 20.7493 15.2262 21.7819C14.5169 29.7405 14.204 39.5767 14.6421 47.5562C14.6734 48.1611 14.9655 51.4781 15.0802 51.6554C15.633 52.5837 19.0751 52.1457 20.1912 52.2082C29.5684 52.7611 40.5624 52.8758 49.9187 51.937C51.7336 51.7597 51.8588 51.2486 52.0361 49.5275C52.9853 40.5154 52.7767 30.0013 52.3073 20.9475C52.2447 19.6436 52.6307 15.9825 51.9005 15.1271C50.6175 14.8559 48.7505 14.616 47.3736 14.5535C42.346 14.3136 36.6404 14.47 31.5815 14.6473H31.592Z" fill="#282828"/>
<path d="M111.241 0.127808L123.841 0.983124C143.993 1.38992 144.734 16.504 144.932 32.5568C144.932 33.0366 144.755 33.8189 145.224 34.111C145.036 39.0551 145.485 44.1975 145.224 49.1103C145.016 53.0948 144.515 57.1315 141.939 60.4068C137.62 65.9142 131.831 66.394 125.26 66.6756C119.878 66.9051 114.454 66.7173 109.113 66.6547C94.2598 66.4774 80.6061 68.3236 78.9476 49.538C78.3843 43.217 78.6242 36.6039 78.6764 30.3038C78.812 14.543 76.8823 1.15002 96.7945 0.138239H111.241V0.127808ZM97.3056 14.6473C96.1165 14.7203 94.8648 14.8872 93.6757 14.9811C92.81 15.5548 93.1959 19.5393 93.1333 20.6658C92.6431 29.7614 92.4449 40.4633 93.4045 49.5275C93.6131 51.5302 93.8113 51.7076 95.814 51.937C104.774 52.9384 115.664 52.6985 124.686 52.2082C126.522 52.1039 128.483 52.5524 130.225 51.8014C130.496 50.6123 130.736 48.8496 130.799 47.5666C131.091 41.7567 130.746 35.7695 130.506 30.0013C130.319 25.3596 130.34 20.6763 129.401 16.1076C129.067 15.68 124.248 15.2314 123.278 15.148C115.173 14.4491 105.421 14.1571 97.3056 14.6578V14.6473Z" fill="#282828"/>
<path d="M145.224 84.7729C145.36 86.4314 145.307 88.747 145.224 90.4367C145.224 90.4785 144.953 90.7601 144.932 91.1252C144.723 94.0458 145.318 97.394 141.824 98.7917C139.654 99.6575 128.869 99.9182 126.751 99.1464C125.437 98.6666 124.008 97.0289 123.768 95.6104C123.413 93.4825 123.466 84.0949 124.06 82.1756C124.79 79.8287 126.866 78.7439 129.213 78.5458C131.56 78.3476 140.249 78.2641 142.105 78.9838C144.744 80.0061 144.713 82.0296 144.963 84.3348C144.984 84.5643 145.224 84.7312 145.224 84.7833V84.7729Z" fill="#282828"/>
<path d="M27.3466 78.3476C34.9923 78.212 45.3082 78.0555 52.7453 79.1194C68.3913 81.362 66.6285 97.3836 66.7537 109.275C66.8267 116.013 67.2022 123.189 66.4825 129.927C64.532 148.139 47.217 145.313 33.4903 144.801C18.032 144.217 3.83581 145.427 1.3846 126.506C0.216364 117.494 -0.190432 106.166 0.205934 97.0915C1.01953 78.3893 11.7214 78.6396 27.3466 78.358V78.3476ZM21.4011 92.7836C20.2537 92.8358 15.7164 92.8984 15.2261 93.399C14.9966 93.6285 14.6942 96.6743 14.6524 97.3627C14.3291 103.433 14.6837 109.744 14.9445 115.783C15.1322 120.237 15.1114 124.733 16.0501 129.114C16.3839 129.541 21.2029 129.99 22.173 130.073C25.4169 130.355 28.8486 130.553 32.0717 130.657C38.6222 130.866 45.2665 130.71 51.7753 130.23C52.6514 129.646 52.2551 125.432 52.3176 124.263C52.6514 117.671 52.568 111.34 52.3176 104.758C52.182 101.139 52.4637 97.3836 51.6188 93.8476C50.9512 92.9297 42.7423 93.0548 41.1464 92.9923C34.6168 92.7419 27.9829 92.502 21.4011 92.7941V92.7836Z" fill="#282828"/>
<path d="M87.3751 78.8899C91.3492 78.2745 101.79 78.9316 105.483 80.465C122.203 87.4118 117.019 108.471 118.02 122.563C118.229 125.442 119.22 128.874 122.485 129.416C127.064 130.188 136.66 128.154 140.102 130.491C145.109 133.901 142.366 141.526 137.161 143.091C133.406 144.217 120.701 144.05 116.894 142.934C98.5985 137.573 105.201 112.915 103.23 99.1255C102.938 97.0498 101.498 93.9205 99.1826 93.545C94.5618 92.8045 87.083 94.5255 83.6201 91.2607C79.4373 87.3179 81.6486 79.7557 87.3647 78.8691L87.3751 78.8899Z" fill="#282828"/>
<path d="M86.5199 101.827C90.4105 101.222 94.3742 103.84 94.8123 107.846C95.3756 113.019 94.6976 119.726 94.8019 125.129C94.8749 128.989 95.8554 134.736 95.3547 138.397C94.854 142.048 90.9634 144.875 87.3335 144.478C80.0216 143.675 81.1585 134.579 80.9395 129.354C80.6787 123.2 79.8651 113.478 80.6683 107.595C81.0438 104.873 83.8496 102.255 86.5199 101.838V101.827Z" fill="#282828"/>
<path d="M134.105 106.364C145.714 104.675 144.671 122.782 134.595 122.73C125.646 122.688 125.792 107.574 134.105 106.364Z" fill="#282828"/>
<path d="M33.0106 23.7012C35.9624 23.5865 42.1583 22.992 43.1283 26.7261C43.8793 29.5946 43.6186 35.9469 43.1909 38.9718C42.9301 40.7867 41.8245 42.3305 40.0304 42.8833C38.2363 43.4361 32.197 43.5821 30.09 43.4465C27.67 43.2901 25.0311 42.998 24.1445 40.3278C23.3309 37.8557 23.696 31.3678 24.0402 28.6037C24.6556 23.5969 29.0365 23.8473 33.0106 23.7012Z" fill="#282828"/>
<path d="M107.496 23.7011C110.02 23.4717 114.443 23.6177 116.967 23.9723C119.7 24.3583 121.15 26.1732 121.431 28.8539C121.723 31.7119 122.13 37.9912 121.223 40.5258C120.326 43.0188 117.666 43.29 115.361 43.4464C112.816 43.6133 109.123 43.4256 106.568 43.1544C104.356 42.9145 102.51 41.2456 102.208 39.0238C101.895 36.6978 101.749 32.6089 101.884 30.262C102.145 25.7247 102.76 24.1392 107.506 23.7011H107.496Z" fill="#282828"/>
<path d="M29.3284 101.837C32.0612 101.587 36.6716 101.65 39.3731 102.109C41.7305 102.505 43.0134 104.455 43.2638 106.719C43.5976 109.806 43.8896 115.564 43.1386 118.474C42.8465 119.611 41.3758 120.957 40.2285 121.228C37.4122 121.896 31.9569 121.583 28.9633 121.291C26.1366 121.009 24.3842 119.434 24.04 116.586C23.6958 113.822 23.3412 107.606 24.0817 105.081C24.8536 102.432 26.9189 102.056 29.3284 101.837Z" fill="#282828"/>
</svg>
