<svg width="157" height="191" viewBox="0 0 157 191" fill="none" xmlns="http://www.w3.org/2000/svg">
<path d="M75.5502 26.0346C76.1887 29.7028 80.9773 30.064 81.477 24.7841C82.1432 17.559 80.9357 9.31956 81.477 1.98326C81.7823 0.0102452 84.7387 -0.573324 86.0018 0.607709C87.9727 2.45568 86.4043 11.8623 87.0428 14.7662C103.935 25.7151 123.547 32.2594 143.687 33.8433C145.422 33.9823 147.684 33.3015 148.961 34.4825V88.7405H130.195C128.266 88.7405 126.587 93.4091 129.862 94.1316C137.496 94.9236 146.338 93.3813 153.819 94.2149C154.86 94.3261 156.484 94.8124 156.789 95.8823C158.205 100.787 152.14 100.245 148.961 100.148C150.169 117.627 145.574 132.439 131.639 143.388C117.426 154.559 99.7151 165.799 84.5722 176.067C83.6422 176.693 82.5873 177.638 81.4908 177.832V162.423C81.4908 159.783 76.1193 157.727 75.5641 163.674C74.8285 171.705 76.161 180.847 75.5641 189.017C75.2727 190.962 72.3162 191.588 71.0393 190.393C69.0128 188.503 70.6784 177.248 69.9983 174.122L25.416 143.388C10.6062 132.744 6.01195 113.181 8.06618 95.7017C8.13558 95.0903 8.1217 94.6179 8.71853 94.2427H27.276C29.1497 94.2427 30.2185 89.6159 26.7624 88.8378L1.73694 88.5599C-1.2056 87.6706 0.0852344 83.2661 1.9729 83.2661H8.09394V34.4964C9.37089 33.3154 11.6333 33.9962 13.3683 33.8572C35.9093 32.0787 57.2843 24.1589 75.578 11.0703C76.1332 15.5443 74.8285 21.8107 75.578 26.0624L75.5502 26.0346ZM75.1338 60.4374H46.6662C45.5697 60.4374 43.4322 62.5355 43.1684 63.6887C41.9331 69.052 46.6523 69.5105 50.5109 70.0941C55.9935 70.9139 61.6287 71.025 67.1113 71.8448C65.751 93.3674 62.0035 114.543 58.6445 135.801C58.5474 141.748 66.5422 143.304 68.7075 137.399C72.0803 128.243 72.3717 115.196 75.3282 105.608C76.9521 102.19 80.0335 102.176 81.6713 105.608L88.5557 137.983C90.9847 143.443 98.8546 141.303 98.3272 135.384C94.8988 114.279 91.2623 93.2145 89.8882 71.8309C95.3707 71.025 101.02 70.9 106.489 70.0802C110.347 69.5105 115.066 69.0381 113.831 63.6748C113.567 62.5216 111.43 60.4235 110.333 60.4235H81.8656C81.6713 59.437 81.9766 59.7427 82.4069 59.4787C85.6548 57.4084 87.945 55.6438 88.1532 51.2809C88.7778 38.5814 69.0961 38.0534 68.7769 50.5167C68.6519 55.2548 71.192 57.1722 74.5648 59.4787C74.9395 59.7427 75.342 59.4092 75.12 60.4235L75.1338 60.4374ZM34.2159 61.9102C35.0348 58.0892 33.6052 51.4894 34.2159 47.3488H48.762C48.8592 47.3488 50.2055 46.3067 50.2611 46.2094C51.1494 44.7227 50.7746 42.6525 49.0952 41.9438C43.4877 42.319 36.4506 41.138 31.0235 41.8327C29.6078 42.0133 28.886 42.7497 28.7056 44.1531C28.3863 46.668 28.3169 59.6593 28.8166 61.813C29.469 64.6474 33.7023 64.2445 34.202 61.9102H34.2159ZM122.784 47.3488V61.9102C122.784 63.7443 127.433 65.0365 128.169 61.813C128.669 59.6593 128.599 46.668 128.28 44.1531C128.1 42.7358 127.364 42.0133 125.962 41.8327C120.535 41.138 113.498 42.319 107.89 41.9438C105.198 42.7219 106.405 47.3488 108.224 47.3488H122.77H122.784ZM49.1923 136.01H34.8544L34.2159 135.37V121.017C34.2159 119.67 29.5939 118.419 28.8166 121.101C29.122 126.659 28.0949 133.328 28.7195 138.747C28.9277 140.595 29.5939 141.276 31.4677 141.498C34.1465 141.804 46.4025 141.929 48.6788 141.401C51.4131 140.775 51.1216 136.538 49.1923 136.01ZM122.784 121.017V135.37L122.145 136.01H107.807C106.447 136.01 105.114 140.664 108.321 141.401C110.486 141.901 123.006 141.831 125.546 141.512C127.655 141.248 128.127 140.261 128.28 138.344C128.738 132.869 127.975 126.659 128.169 121.101C127.503 118.78 123.283 119.169 122.77 121.017H122.784Z" fill="#282828"/>
</svg>
