<svg width="146" height="146" viewBox="0 0 146 146" fill="none" xmlns="http://www.w3.org/2000/svg">
<path d="M48.6461 0.127815C56.1145 0.492889 63.0301 2.58946 65.5543 10.5376C67.557 16.8482 66.8268 28.7705 66.7538 35.6443C66.6078 50.2368 68.6105 64.6729 49.9083 66.3731C40.6875 67.2076 29.4432 67.0615 20.1599 66.6756C-3.03791 65.6951 -0.232057 51.3842 0.498091 32.8489C0.925749 22.1783 -0.138179 8.43064 11.2313 3.10056C16.2067 0.774516 28.7444 0.325998 34.4708 0.138246C38.9456 -0.00778404 44.1818 -0.0807988 48.6357 0.138246L48.6461 0.127815ZM31.592 14.6473C29.7979 14.7099 27.9204 14.7412 26.1263 14.8455C23.4039 15.0228 19.3776 15.221 16.7804 15.7008C16.4258 15.7634 16.0815 15.9094 15.9251 16.2537C15.6226 16.9004 15.3097 20.7493 15.2262 21.7819C14.5169 29.7405 14.204 39.5767 14.6421 47.5562C14.6734 48.1611 14.9655 51.4781 15.0802 51.6554C15.633 52.5837 19.0751 52.1457 20.1912 52.2082C29.5684 52.7611 40.5624 52.8758 49.9187 51.937C51.7336 51.7597 51.8588 51.2486 52.0361 49.5276C52.9853 40.5154 52.7767 30.0013 52.3073 20.9475C52.2447 19.6436 52.6307 15.9825 51.9005 15.1271C50.6175 14.8559 48.7505 14.616 47.3736 14.5535C42.346 14.3136 36.6404 14.47 31.5815 14.6473H31.592Z" fill="#282828"/>
<path d="M111.241 0.127838L123.841 0.983154C143.993 1.38995 144.734 16.504 144.932 32.5568C144.932 33.0367 144.755 33.819 145.224 34.111C145.036 39.0552 145.485 44.1975 145.224 49.1103C145.016 53.0949 144.515 57.1315 141.939 60.4068C137.62 65.9142 131.831 66.394 125.26 66.6756C119.878 66.9051 114.454 66.7173 109.113 66.6548C94.2598 66.4774 80.6061 68.3237 78.9476 49.538C78.3843 43.217 78.6242 36.604 78.6764 30.3038C78.812 14.543 76.8823 1.15005 96.7945 0.138269H111.241V0.127838ZM97.3056 14.6474C96.1165 14.7204 94.8648 14.8873 93.6757 14.9811C92.81 15.5548 93.1959 19.5393 93.1333 20.6659C92.6431 29.7614 92.4449 40.4633 93.4045 49.5276C93.6131 51.5303 93.8113 51.7076 95.814 51.9371C104.774 52.9384 115.664 52.6985 124.686 52.2083C126.522 52.104 128.483 52.5525 130.225 51.8015C130.496 50.6124 130.736 48.8496 130.799 47.5666C131.091 41.7567 130.746 35.7695 130.506 30.0013C130.319 25.3597 130.34 20.6763 129.401 16.1077C129.067 15.68 124.248 15.2315 123.278 15.148C115.173 14.4492 105.421 14.1571 97.3056 14.6578V14.6474Z" fill="#282828"/>
<path d="M145.224 84.7729C145.359 86.4314 145.307 88.747 145.224 90.4368C145.224 90.4785 144.952 90.7601 144.931 91.1252C144.723 94.0458 145.317 97.394 141.823 98.7917C139.654 99.6575 128.868 99.9183 126.751 99.1464C125.437 98.6666 124.008 97.029 123.768 95.6104C123.413 93.4825 123.465 84.0949 124.06 82.1757C124.79 79.8288 126.866 78.744 129.212 78.5458C131.559 78.3476 140.248 78.2642 142.105 78.9839C144.744 80.0061 144.712 82.0296 144.963 84.3348C144.984 84.5643 145.224 84.7312 145.224 84.7833V84.7729Z" fill="#282828"/>
<path d="M27.3466 78.3476C34.9923 78.212 45.3082 78.0556 52.7453 79.1195C68.3913 81.3621 66.6285 97.3836 66.7537 109.275C66.8267 116.013 67.2022 123.189 66.4825 129.927C64.532 148.139 47.217 145.313 33.4903 144.802C18.032 144.217 3.83581 145.427 1.3846 126.506C0.216364 117.494 -0.190432 106.166 0.205934 97.0916C1.01953 78.3893 11.7214 78.6397 27.3466 78.358V78.3476ZM21.4011 92.7837C20.2537 92.8358 15.7164 92.8984 15.2261 93.3991C14.9966 93.6286 14.6942 96.6743 14.6524 97.3628C14.3291 103.433 14.6837 109.744 14.9445 115.783C15.1322 120.237 15.1114 124.733 16.0501 129.114C16.3839 129.541 21.2029 129.99 22.173 130.073C25.4169 130.355 28.8486 130.553 32.0717 130.658C38.6222 130.866 45.2665 130.71 51.7753 130.23C52.6514 129.646 52.2551 125.432 52.3176 124.263C52.6514 117.671 52.568 111.34 52.3176 104.758C52.182 101.139 52.4637 97.3836 51.6188 93.8476C50.9512 92.9297 42.7423 93.0549 41.1464 92.9923C34.6168 92.742 27.9829 92.5021 21.4011 92.7941V92.7837Z" fill="#282828"/>
<path d="M87.3756 78.8899C91.3497 78.2745 101.791 78.9316 105.483 80.465C122.204 87.4118 117.02 108.471 118.021 122.563C118.23 125.442 119.22 128.874 122.485 129.416C127.064 130.188 136.661 128.154 140.103 130.491C145.109 133.901 142.366 141.526 137.161 143.091C133.406 144.217 120.702 144.05 116.894 142.934C98.599 137.573 105.202 112.915 103.23 99.1255C102.938 97.0498 101.499 93.9205 99.1831 93.545C94.5623 92.8045 87.0835 94.5255 83.6205 91.2607C79.4378 87.3179 81.6491 79.7557 87.3652 78.8691L87.3756 78.8899Z" fill="#282828"/>
<path d="M86.5194 101.827C90.4101 101.222 94.3737 103.84 94.8118 107.846C95.3751 113.019 94.6971 119.726 94.8014 125.129C94.8744 128.989 95.8549 134.736 95.3542 138.397C94.8535 142.048 90.9629 144.875 87.333 144.478C80.0211 143.675 81.158 134.579 80.939 129.354C80.6782 123.2 79.8646 113.478 80.6678 107.595C81.0433 104.873 83.8492 102.255 86.5194 101.838V101.827Z" fill="#282828"/>
<path d="M134.105 106.364C145.714 104.675 144.671 122.782 134.595 122.73C125.646 122.688 125.792 107.574 134.105 106.364Z" fill="#282828"/>
<path d="M33.0101 23.7012C35.962 23.5865 42.1578 22.992 43.1278 26.7261C43.8788 29.5946 43.6181 35.9469 43.1904 38.9718C42.9297 40.7867 41.824 42.3305 40.0299 42.8833C38.2358 43.4361 32.1965 43.5821 30.0895 43.4465C27.6696 43.2901 25.0306 42.998 24.144 40.3278C23.3304 37.8557 23.6955 31.3678 24.0397 28.6037C24.6551 23.5969 29.036 23.8473 33.0101 23.7012Z" fill="#282828"/>
<path d="M107.496 23.7012C110.021 23.4717 114.443 23.6177 116.967 23.9724C119.7 24.3583 121.15 26.1732 121.432 28.8539C121.724 31.7119 122.131 37.9912 121.223 40.5259C120.326 43.0188 117.666 43.29 115.361 43.4465C112.816 43.6134 109.124 43.4256 106.568 43.1544C104.357 42.9145 102.511 41.2456 102.208 39.0239C101.895 36.6978 101.749 32.609 101.885 30.2621C102.145 25.7247 102.761 24.1393 107.507 23.7012H107.496Z" fill="#282828"/>
<path d="M29.3289 101.837C32.0617 101.587 36.6721 101.65 39.3736 102.109C41.731 102.505 43.0139 104.456 43.2643 106.719C43.598 109.806 43.8901 115.564 43.1391 118.474C42.847 119.611 41.3763 120.957 40.2289 121.228C37.4127 121.896 31.9574 121.583 28.9638 121.291C26.1371 121.009 24.3847 119.434 24.0405 116.586C23.6963 113.822 23.3417 107.606 24.0822 105.081C24.8541 102.432 26.9194 102.056 29.3289 101.837Z" fill="#282828"/>
</svg>
