<svg width="158" height="152" viewBox="0 0 158 152" fill="none" xmlns="http://www.w3.org/2000/svg">
<path d="M29.3976 80.57H5.85764C5.21764 80.57 4.78765 82.34 4.73765 82.92C3.53765 95.94 5.66765 110.79 4.73765 124.01C4.58765 124.51 5.52764 126.06 5.84764 126.06H16.4276C16.1476 125.25 14.6476 124.48 14.3776 123.84C13.5776 121.96 14.6376 119.97 16.8276 120.42C17.6276 120.58 23.9576 126.84 24.1976 127.62C24.5276 128.69 24.1376 129.06 23.5476 129.85C22.8776 130.74 17.1876 136.32 16.5176 136.43C14.8676 136.69 13.6976 134.59 14.3876 133.01C14.7576 132.16 16.4476 131.62 16.4376 130.48H5.22765C5.05765 130.48 3.81765 129.84 3.50765 129.67C1.24765 128.42 0.497645 126.49 0.317645 124.02C-0.692355 110.48 1.09765 95.67 0.337646 81.99C0.0776459 79.87 3.27765 76.14 5.22765 76.14H29.3976V68.4C29.3976 66.44 32.1976 63.58 34.2876 63.5L124.088 63.75C126.818 64.8 127.768 66.85 127.978 69.65C128.288 73.74 128.518 84.46 127.888 88.23C127.478 90.65 125.348 92.62 122.988 93.13L34.9176 93.21C32.8276 93.32 29.3876 90.23 29.3876 88.31V80.57H29.3976ZM39.7276 72.11C39.1976 72.27 38.3876 73.32 38.2876 73.86C37.6476 77.36 44.8976 77.45 44.7976 74.16C44.7176 71.8 41.4176 71.62 39.7276 72.12V72.11ZM49.5276 72.11C47.0976 73.56 48.2676 76.68 51.0276 76.48H116.758C119.928 76.11 119.658 72.36 117.088 72.03L49.5276 72.11ZM38.9576 80.65C37.9476 81.61 38.1576 83.93 39.6476 84.38L116.138 84.68C119.358 84.85 120.268 81.07 117.088 80.23H40.5976C40.0776 80.27 39.3376 80.28 38.9576 80.64V80.65Z" fill="#282828"/>
<path d="M55.308 29.71C55.188 30.33 55.518 31.76 55.258 32.19C55.058 32.51 50.618 34.12 49.958 34.62C49.238 35.17 48.568 37.7 48.748 38.63C48.998 39.95 50.978 43.04 50.278 44.09C49.908 44.64 44.478 50.09 44.058 50.17C42.508 50.06 39.668 48.14 38.358 48.1C38.168 48.1 35.458 49.18 35.278 49.31C34.378 49.98 33.438 53.79 32.728 54.66C32.128 55.38 24.618 54.81 23.138 54.92C22.728 54.66 21.368 50.35 20.698 49.62C20.368 49.26 17.918 48.13 17.498 48.1C16.538 48.02 12.428 50.4 11.698 50.08L5.23805 43.62C4.92805 42.91 7.13805 39.02 7.21805 38.03C7.24805 37.71 6.23805 35.3 5.98805 34.97C5.14805 33.88 1.83805 33.11 0.538046 32.28L0.498047 22.76C0.818047 22.23 5.26805 20.88 5.95805 20.16C6.06805 20.04 7.21805 17.35 7.22805 17.18C7.31805 16.14 4.85805 11.97 5.22805 11.08L11.618 4.8C14.808 5.37 17.148 7.9 20.368 5.66C21.238 5.05 22.758 0.13 23.298 0L32.358 0.0600014C33.288 0.380001 34.348 4.92 35.178 5.61C35.288 5.7 37.598 6.54 37.858 6.58C39.758 6.86 43.188 4.42 44.238 4.89L50.418 11.07C50.418 13.42 48.218 15.62 48.818 18.02C48.868 18.23 49.7381 20.17 49.8381 20.25C51.8581 21.93 56.358 21.34 55.308 25.28H66.368C66.368 24.09 64.708 23.65 64.318 22.75C63.448 20.73 64.9781 19.02 67.0881 19.66C67.5181 19.79 72.9481 25.21 73.4781 25.91C74.4181 27.15 74.5781 27.57 73.6281 28.92C73.1581 29.59 67.5281 35.2 67.0881 35.34C65.9981 35.67 64.3781 35.15 64.1581 33.97C63.7481 31.83 65.318 31.17 66.368 29.72H55.308V29.71ZM35.288 20.03C26.008 10.75 11.318 24.08 19.758 34.14C29.148 45.33 45.368 30.11 35.288 20.03Z" fill="#282828"/>
<path d="M127.968 25.29H151.818C151.928 25.29 153.588 25.97 153.838 26.11C155.548 27.05 156.578 28.99 156.998 30.84C156.108 44.88 158.278 60.58 157.038 74.42C156.868 76.37 155.698 78.58 153.978 79.57C153.648 79.76 151.398 80.56 151.178 80.56H140.908C141.188 81.37 142.688 82.14 142.958 82.78C143.758 84.66 142.698 86.65 140.508 86.2C139.748 86.04 134.478 80.85 133.798 79.94C133.198 79.15 132.818 78.79 133.148 77.71C133.388 76.93 140.088 70.3 140.828 70.19C142.478 69.93 143.648 72.03 142.958 73.61C142.588 74.46 140.898 75 140.908 76.14H150.858C150.998 76.14 152.168 75.27 152.298 75.06L152.598 31.75C152.748 31.06 151.758 29.7 151.168 29.7H127.948V37.44C127.948 38.99 124.878 42.39 123.028 42.31L84.5078 42.35C81.0378 41.54 79.5478 39.33 79.2878 35.88C78.9578 31.46 78.8278 22.49 79.3378 18.21C79.6978 15.15 81.6878 12.91 84.8178 12.63C96.8878 11.56 110.508 13.46 122.738 12.64C124.578 12.89 126.248 13.87 127.128 15.52C127.268 15.78 127.948 17.43 127.948 17.54V25.28L127.968 25.29ZM89.9678 21.25C87.6778 21.76 87.6878 25.15 90.2378 25.58C91.8978 25.86 94.9478 25.61 94.7978 23.25C94.6578 21.03 91.5878 20.88 89.9678 21.24V21.25ZM99.7578 21.25C97.6778 21.73 97.6478 25.21 100.028 25.59C102.638 26 114.438 26 117.048 25.59C119.658 25.18 119.758 21.69 117.048 21.2L99.7578 21.25ZM89.6478 29.46C87.3878 30.68 87.9778 33.59 90.5278 33.82C98.8178 33.1 108.668 34.76 116.758 33.82C119.928 33.45 119.658 29.71 117.088 29.37L89.6478 29.45V29.46Z" fill="#282828"/>
<path d="M133.267 105.62C148.667 105.02 160.177 119.35 156.237 134.27C151.517 152.12 128.347 156.99 116.597 142.63C104.887 128.32 114.897 106.33 133.267 105.61V105.62ZM142.387 120.78C140.397 120.96 133.917 129.17 131.557 130.47C130.757 130.61 127.787 126.32 126.537 126.07C124.577 125.69 123.347 127.11 123.927 129C124.057 129.44 129.857 135.29 130.317 135.56C131.047 135.98 131.607 135.98 132.407 135.72C132.877 135.57 138.337 130.38 139.187 129.55C139.987 128.76 144.327 124.67 144.537 124.17C145.237 122.53 144.117 120.63 142.377 120.78H142.387Z" fill="#282828"/>
<path d="M34.3681 113.5C46.5381 114.18 60.2181 112.34 72.2181 113.41C75.5681 113.71 77.7181 115.97 78.0481 119.27C78.4781 123.57 78.4781 132.96 78.0481 137.27C77.7481 140.31 76.2081 142.49 73.1581 143.12H34.2881C31.4081 142.58 29.6881 140.43 29.3981 137.58C28.9681 133.33 28.9181 123.15 29.3981 118.94C29.7081 116.19 31.7081 114.1 34.3681 113.49V113.5ZM44.1681 122.67C42.2781 120.62 36.1981 122.61 38.8681 125.84C39.4781 126.58 42.8081 126.58 43.6181 126.22C44.8381 125.67 45.0081 123.58 44.1681 122.67ZM68.4881 122.68C68.1381 122.33 67.0481 122.01 66.5281 121.95C63.0681 121.57 54.1781 121.57 50.7181 121.95C47.8681 122.27 47.2081 125.18 49.7881 126.37H67.4581C69.0681 125.88 69.7181 123.92 68.4881 122.68ZM40.0481 130.24C37.5281 131.05 37.7881 134.09 40.2781 134.61H67.1581C69.9381 134.25 69.6481 130.26 66.8382 130.16L40.0481 130.23V130.24Z" fill="#282828"/>
<path d="M98.588 126.06C97.888 124.85 96.068 124.06 96.158 122.48C96.238 121.01 97.628 120.15 98.988 120.43C99.748 120.59 105.018 125.78 105.698 126.69C106.298 127.48 106.678 127.84 106.348 128.92C106.108 129.69 99.398 136.34 98.668 136.44C97.478 136.61 96.098 135.37 96.138 134.17C96.188 132.54 98.298 131.97 98.588 130.48H84.528C82.518 130.48 82.918 126.06 84.848 126.06H98.588Z" fill="#282828"/>
</svg>
