<svg width="140" height="154" viewBox="0 0 140 154" fill="none" xmlns="http://www.w3.org/2000/svg">
<path d="M47.9602 46.8375H28.9102V102.347H47.9602V46.8375Z" fill="#282828"/>
<path d="M106.09 70.8075C100.07 67.7675 93.5 66.0875 86.71 66.2075V26.4675H105.6L106.09 26.9575V70.8075Z" fill="#282828"/>
<path d="M86.6502 71.5675C110.66 70.1575 126.76 95.8275 115.35 117.018C104.01 138.078 73.1102 138.158 61.5902 117.138C50.7102 97.2875 64.1502 72.8875 86.6602 71.5775L86.6502 71.5675ZM85.3302 75.8375C64.5202 77.9675 54.5802 103.208 68.0002 119.248C81.8902 135.848 109.06 129.647 114.2 108.647C118.64 90.5275 103.76 73.9375 85.3302 75.8275V75.8375Z" fill="#282828"/>
<path d="M19.05 72.1275H0V102.347H19.05V72.1275Z" fill="#282828"/>
<path d="M77.1896 67.6875C77.0496 68.1875 71.2696 70.5775 70.1896 71.1975C66.6496 73.2575 63.7396 76.0875 60.9296 79.0075L57.8096 83.2775V55.6875H76.6996L77.1896 56.1775V67.6775V67.6875Z" fill="#282828"/>
<path d="M122.75 129.667C123.69 129.457 124.59 129.597 125.3 130.257L139.77 145.018C140.01 145.788 140.07 146.908 139.75 147.658C139.57 148.078 133.86 153.597 133.37 153.757C132.37 154.077 131.35 153.967 130.56 153.247L116.09 138.488C115.85 137.528 115.75 136.538 116.25 135.658C116.64 134.978 122.11 129.807 122.75 129.667Z" fill="#282828"/>
<path d="M93.6099 9.7175L74.3999 29.0875L70.6299 25.3175L89.9999 5.6075C88.7199 5.1775 87.2699 5.6675 85.9699 5.3775C83.3699 4.7975 83.2899 0.5675 86.5499 0.1875C88.6899 -0.0625 94.2799 -0.0625 96.4199 0.1875C97.9399 0.3675 98.7099 1.1375 98.8799 2.6475C99.0399 4.0075 99.0499 12.8075 98.6999 13.6475C98.0899 15.1275 95.8199 15.3875 94.5999 14.4775C93.2899 13.4875 93.6499 11.1475 93.6099 9.7175Z" fill="#282828"/>
<path d="M37.6897 12.7475C48.0697 10.5875 48.2897 26.3575 38.6297 25.1275C31.6597 24.2375 31.6697 13.9975 37.6897 12.7475Z" fill="#282828"/>
<path d="M64.9498 27.2075C75.0398 25.4875 75.2198 40.8975 65.2298 39.5775C61.9298 39.1475 59.7398 35.4175 60.1398 32.2475C60.4098 30.1175 62.8398 27.5675 64.9498 27.2075Z" fill="#282828"/>
<path d="M8.1307 37.0575C16.6907 35.5975 18.5707 48.0575 10.9307 49.3775C1.7707 50.9675 0.820701 38.2975 8.1307 37.0575Z" fill="#282828"/>
<path d="M31.52 22.5375C31.82 24.2075 33.47 25.0875 34.48 26.3075L17.9 39.9275C16.82 38.3875 16.21 36.7875 14.46 35.8275L30.55 22.6875L31.52 22.5375Z" fill="#282828"/>
<path d="M60.1102 26.8075C59.2402 28.2775 57.8402 29.5675 57.8102 31.3975C57.2402 31.8975 47.6602 25.8375 45.9902 25.4775L48.4502 20.5575L60.1102 26.7975V26.8075Z" fill="#282828"/>
<path d="M114.18 123.378L119.55 128.458L114.75 133.197L109.69 128.117L109.86 127.628L114.18 123.378Z" fill="#282828"/>
<path d="M85.3303 78.4575C104.68 76.2875 118.63 96.1275 109.55 113.517C100.96 129.977 77.0303 130.367 67.7303 114.267C59.2703 99.6275 68.4703 80.3475 85.3303 78.4575Z" fill="#282828"/>
</svg>
