<svg width="154" height="154" viewBox="0 0 154 154" fill="none" xmlns="http://www.w3.org/2000/svg">
<path d="M65.6394 36.6277C69.9194 36.0477 83.9494 36.0277 88.1594 36.6877C90.7794 37.0977 93.3294 38.9077 94.9094 40.9977C95.9694 42.3877 96.3794 44.0577 97.5194 45.3377C101.209 45.6577 105.199 45.0877 108.849 45.3777C115.129 45.8677 120.069 50.7677 120.999 56.9177C120.119 69.0477 122.189 82.8877 120.999 94.8177C120.309 101.728 113.739 106.738 106.959 106.678C87.1794 105.708 66.2394 107.928 46.5994 106.678C39.4794 106.228 33.1994 102.098 32.5394 94.5177C31.5094 82.6277 33.3394 69.2677 32.5394 57.2177C33.2794 50.9277 38.3494 45.8677 44.6994 45.3677C46.6394 45.2177 55.3794 45.7477 56.2494 45.2277C58.0694 41.2277 60.9494 37.2577 65.6494 36.6177L65.6394 36.6277ZM73.8494 58.4277C66.3094 59.3877 59.8594 66.5777 59.1194 74.0177C57.5894 89.3677 75.4194 99.6477 87.6594 89.9277C101.909 78.6177 92.3794 56.0677 73.8494 58.4277Z" fill="#282828"/>
<path d="M142.48 11.2777H125.9C124.99 11.2777 122.93 10.2377 122.26 9.5477C119.37 6.5877 120.63 1.7177 124.47 0.367702L148.97 0.207703C151.44 0.637703 153.12 2.3477 153.55 4.7877C153.03 12.2377 154.21 20.5277 153.55 27.8677C153.17 32.1177 149.1 34.3877 145.31 32.2977C143.96 31.5577 142.48 29.3877 142.48 27.8577V11.2777Z" fill="#282828"/>
<path d="M11.07 142.698H27.65C29.18 142.698 31.35 144.178 32.09 145.528C34.18 149.318 31.92 153.388 27.66 153.768C20.32 154.428 12.02 153.248 4.58 153.768C2.11 153.338 0.43 151.628 0 149.188L0.15 124.688C1.52 120.888 6.36 119.558 9.33 122.478C10.02 123.148 11.06 125.218 11.06 126.118V142.698H11.07Z" fill="#282828"/>
<path d="M142.48 142.698V126.118C142.48 124.588 143.96 122.418 145.31 121.678C149.1 119.588 153.17 121.848 153.55 126.108C154.21 133.448 153.03 141.748 153.55 149.188C153.12 151.658 151.41 153.338 148.97 153.768C141.52 153.248 133.23 154.428 125.89 153.768C121.64 153.388 119.37 149.318 121.46 145.528C122.2 144.178 124.37 142.698 125.9 142.698H142.48Z" fill="#282828"/>
<path d="M11.0698 11.2777V27.8577C11.0698 28.7677 10.0298 30.8277 9.33977 31.4977C6.35977 34.4177 1.51977 33.0877 0.159765 29.2877L0.00976562 4.7877C0.439766 2.3177 2.14977 0.637696 4.58977 0.207696C12.0398 0.717696 20.3298 -0.452304 27.6698 0.207696C32.3498 0.627696 34.6998 6.0877 31.2998 9.5477C30.6298 10.2377 28.5598 11.2777 27.6598 11.2777H11.0798H11.0698Z" fill="#282828"/>
<path d="M74.7996 64.4277C92.4696 61.9977 93.0796 89.8477 74.4796 87.3277C62.3096 85.6777 62.0296 66.1777 74.7996 64.4277Z" fill="#282828"/>
</svg>
